<svg xmlns="http://www.w3.org/2000/svg" width="300" height="295" viewBox="0 0 300 295">
<rect width="300" height="295" fill="#f4f2ec"/>
<rect x="71.8" y="34.4" width="156.4" height="229.4" fill="#bcd6e6" fill-opacity="0.5" stroke="#6f97ab" stroke-width="1" stroke-dasharray="5 3"/>
<path d="M 243.7,270.0 L 243.7,270.0 L 243.8,269.0 L 243.8,268.0 L 243.9,267.1 L 243.9,266.1 L 244.0,265.1 L 244.1,264.1 L 244.1,263.1 L 244.2,262.1 L 244.2,261.2 L 244.3,260.2 L 244.4,259.2 L 244.4,258.2 L 244.5,257.2 L 244.5,256.3 L 244.6,255.3 L 244.7,254.3 L 244.7,253.3 L 244.8,252.3 L 244.8,251.3 L 244.9,250.4 L 245.0,249.4 L 245.0,248.4 L 245.1,247.4 L 245.1,246.4 L 245.2,245.5 L 245.2,244.5 L 245.3,243.5 L 245.4,242.5 L 245.4,241.5 L 245.5,240.6 L 245.5,239.6 L 245.6,238.6 L 245.6,237.6 L 245.7,236.6 L 245.8,235.6 L 245.8,234.7 L 245.9,233.7 L 245.9,232.7 L 246.0,231.7 L 246.0,230.7 L 246.1,229.8 L 246.1,228.8 L 246.2,227.8 L 246.2,226.8 L 246.3,225.8 L 246.3,224.8 L 246.4,223.9 L 246.4,222.9 L 246.5,221.9 L 246.5,220.9 L 246.6,219.9 L 246.6,219.0 L 246.7,218.0 L 246.7,217.0 L 246.8,216.0 L 246.8,215.0 L 246.9,214.0 L 246.9,213.1 L 246.9,212.1 L 247.0,211.1 L 247.0,210.1 L 247.1,209.1 L 247.1,208.2 L 247.2,207.2 L 247.2,206.2 L 247.2,205.2 L 247.3,204.2 L 247.3,203.2 L 247.3,202.3 L 247.4,201.3 L 247.4,200.3 L 247.5,199.3 L 247.5,198.3 L 247.5,197.4 L 247.6,196.4 L 247.6,195.4 L 247.6,194.4 L 247.7,193.4 L 247.7,192.4 L 247.7,191.5 L 247.8,190.5 L 247.8,189.5 L 247.8,188.5 L 247.8,187.5 L 247.9,186.6 L 247.9,185.6 L 247.9,184.6 L 247.9,183.6 L 248.0,182.6 L 248.0,181.6 L 248.0,180.7 L 248.0,179.7 L 248.1,178.7 L 248.1,177.7 L 248.1,176.7 L 248.1,175.8 L 248.1,174.8 L 248.2,173.8 L 248.2,172.8 L 248.2,171.8 L 248.2,170.9 L 248.2,169.9 L 248.2,168.9 L 248.2,167.9 L 248.3,166.9 L 248.3,165.9 L 248.3,165.0 L 248.3,164.0 L 248.3,163.0 L 248.3,162.0 L 248.3,161.0 L 248.3,160.1 L 248.3,159.1 L 248.3,158.1 L 248.3,157.1 L 248.3,156.1 L 248.3,155.1 L 248.3,154.2 L 248.3,153.2 L 248.3,152.2 L 248.3,151.2 L 248.3,150.2 L 248.3,149.3 L 248.3,148.3 L 248.3,147.3 L 248.3,146.3 L 248.3,145.3 L 248.3,144.3 L 248.3,143.4 L 248.3,142.4 L 248.3,141.4 L 248.3,140.4 L 248.3,139.4 L 248.3,138.5 L 248.3,137.5 L 248.2,136.5 L 248.2,135.5 L 248.2,134.5 L 248.2,133.5 L 248.2,132.6 L 248.2,131.6 L 248.2,130.6 L 248.1,129.6 L 248.1,128.6 L 248.1,127.7 L 248.1,126.7 L 248.1,125.7 L 248.0,124.7 L 248.0,123.7 L 248.0,122.8 L 248.0,121.8 L 247.9,120.8 L 247.9,119.8 L 247.9,118.8 L 247.9,117.8 L 247.8,116.9 L 247.8,115.9 L 247.8,114.9 L 247.8,113.9 L 247.7,112.9 L 247.7,112.0 L 247.7,111.0 L 247.6,110.0 L 247.6,109.0 L 247.6,108.0 L 247.5,107.0 L 247.5,106.1 L 247.5,105.1 L 247.4,104.1 L 247.4,103.1 L 247.3,102.1 L 247.3,101.2 L 247.3,100.2 L 247.2,99.2 L 247.2,98.2 L 247.2,97.2 L 247.1,96.2 L 247.1,95.3 L 247.0,94.3 L 247.0,93.3 L 246.9,92.3 L 246.9,91.3 L 246.9,90.4 L 246.8,89.4 L 246.8,88.4 L 246.7,87.4 L 246.7,86.4 L 246.6,85.4 L 246.6,84.5 L 246.5,83.5 L 246.5,82.5 L 246.4,81.5 L 246.4,80.5 L 246.3,79.6 L 246.3,78.6 L 246.2,77.6 L 246.2,76.6 L 246.1,75.6 L 246.1,74.6 L 246.0,73.7 L 246.0,72.7 L 245.9,71.7 L 245.9,70.7 L 245.8,69.7 L 245.8,68.8 L 245.7,67.8 L 245.6,66.8 L 245.6,65.8 L 245.5,64.8 L 245.5,63.8 L 245.4,62.9 L 245.4,61.9 L 245.3,60.9 L 245.2,59.9 L 245.2,58.9 L 245.1,58.0 L 245.1,57.0 L 245.0,56.0 L 245.0,55.0 L 244.9,54.0 L 244.8,53.1 L 244.8,52.1 L 244.7,51.1 L 244.7,50.1 L 244.6,49.1 L 244.5,48.1 L 244.5,47.2 L 244.4,46.2 L 244.4,45.2 L 244.3,44.2 L 244.2,43.2 L 244.2,42.3 L 244.1,41.3 L 244.0,40.3 L 243.6,39.3 L 243.2,38.3 L 242.5,37.3 L 241.6,36.4 L 240.2,35.4 L 236.4,34.4 L 63.6,34.4 L 63.6,34.4 L 59.8,35.4 L 58.4,36.4 L 57.5,37.3 L 56.8,38.3 L 56.4,39.3 L 56.0,40.3 L 55.9,41.3 L 55.8,42.3 L 55.8,43.2 L 55.7,44.2 L 55.6,45.2 L 55.6,46.2 L 55.5,47.2 L 55.5,48.1 L 55.4,49.1 L 55.3,50.1 L 55.3,51.1 L 55.2,52.1 L 55.2,53.1 L 55.1,54.0 L 55.0,55.0 L 55.0,56.0 L 54.9,57.0 L 54.9,58.0 L 54.8,58.9 L 54.8,59.9 L 54.7,60.9 L 54.6,61.9 L 54.6,62.9 L 54.5,63.8 L 54.5,64.8 L 54.4,65.8 L 54.4,66.8 L 54.3,67.8 L 54.2,68.8 L 54.2,69.7 L 54.1,70.7 L 54.1,71.7 L 54.0,72.7 L 54.0,73.7 L 53.9,74.6 L 53.9,75.6 L 53.8,76.6 L 53.8,77.6 L 53.7,78.6 L 53.7,79.6 L 53.6,80.5 L 53.6,81.5 L 53.5,82.5 L 53.5,83.5 L 53.4,84.5 L 53.4,85.4 L 53.3,86.4 L 53.3,87.4 L 53.2,88.4 L 53.2,89.4 L 53.1,90.4 L 53.1,91.3 L 53.1,92.3 L 53.0,93.3 L 53.0,94.3 L 52.9,95.3 L 52.9,96.2 L 52.8,97.2 L 52.8,98.2 L 52.8,99.2 L 52.7,100.2 L 52.7,101.2 L 52.7,102.1 L 52.6,103.1 L 52.6,104.1 L 52.5,105.1 L 52.5,106.1 L 52.5,107.0 L 52.4,108.0 L 52.4,109.0 L 52.4,110.0 L 52.3,111.0 L 52.3,112.0 L 52.3,112.9 L 52.2,113.9 L 52.2,114.9 L 52.2,115.9 L 52.2,116.9 L 52.1,117.8 L 52.1,118.8 L 52.1,119.8 L 52.1,120.8 L 52.0,121.8 L 52.0,122.8 L 52.0,123.7 L 52.0,124.7 L 51.9,125.7 L 51.9,126.7 L 51.9,127.7 L 51.9,128.6 L 51.9,129.6 L 51.8,130.6 L 51.8,131.6 L 51.8,132.6 L 51.8,133.5 L 51.8,134.5 L 51.8,135.5 L 51.8,136.5 L 51.7,137.5 L 51.7,138.5 L 51.7,139.4 L 51.7,140.4 L 51.7,141.4 L 51.7,142.4 L 51.7,143.4 L 51.7,144.3 L 51.7,145.3 L 51.7,146.3 L 51.7,147.3 L 51.7,148.3 L 51.7,149.3 L 51.7,150.2 L 51.7,151.2 L 51.7,152.2 L 51.7,153.2 L 51.7,154.2 L 51.7,155.1 L 51.7,156.1 L 51.7,157.1 L 51.7,158.1 L 51.7,159.1 L 51.7,160.1 L 51.7,161.0 L 51.7,162.0 L 51.7,163.0 L 51.7,164.0 L 51.7,165.0 L 51.7,165.9 L 51.7,166.9 L 51.8,167.9 L 51.8,168.9 L 51.8,169.9 L 51.8,170.9 L 51.8,171.8 L 51.8,172.8 L 51.8,173.8 L 51.9,174.8 L 51.9,175.8 L 51.9,176.7 L 51.9,177.7 L 51.9,178.7 L 52.0,179.7 L 52.0,180.7 L 52.0,181.6 L 52.0,182.6 L 52.1,183.6 L 52.1,184.6 L 52.1,185.6 L 52.1,186.6 L 52.2,187.5 L 52.2,188.5 L 52.2,189.5 L 52.2,190.5 L 52.3,191.5 L 52.3,192.4 L 52.3,193.4 L 52.4,194.4 L 52.4,195.4 L 52.4,196.4 L 52.5,197.4 L 52.5,198.3 L 52.5,199.3 L 52.6,200.3 L 52.6,201.3 L 52.7,202.3 L 52.7,203.2 L 52.7,204.2 L 52.8,205.2 L 52.8,206.2 L 52.8,207.2 L 52.9,208.2 L 52.9,209.1 L 53.0,210.1 L 53.0,211.1 L 53.1,212.1 L 53.1,213.1 L 53.1,214.0 L 53.2,215.0 L 53.2,216.0 L 53.3,217.0 L 53.3,218.0 L 53.4,219.0 L 53.4,219.9 L 53.5,220.9 L 53.5,221.9 L 53.6,222.9 L 53.6,223.9 L 53.7,224.8 L 53.7,225.8 L 53.8,226.8 L 53.8,227.8 L 53.9,228.8 L 53.9,229.8 L 54.0,230.7 L 54.0,231.7 L 54.1,232.7 L 54.1,233.7 L 54.2,234.7 L 54.2,235.6 L 54.3,236.6 L 54.4,237.6 L 54.4,238.6 L 54.5,239.6 L 54.5,240.6 L 54.6,241.5 L 54.6,242.5 L 54.7,243.5 L 54.8,244.5 L 54.8,245.5 L 54.9,246.4 L 54.9,247.4 L 55.0,248.4 L 55.0,249.4 L 55.1,250.4 L 55.2,251.3 L 55.2,252.3 L 55.3,253.3 L 55.3,254.3 L 55.4,255.3 L 55.5,256.3 L 55.5,257.2 L 55.6,258.2 L 55.6,259.2 L 55.7,260.2 L 55.8,261.2 L 55.8,262.1 L 55.9,263.1 L 55.9,264.1 L 56.0,265.1 L 56.1,266.1 L 56.1,267.1 L 56.2,268.0 L 56.2,269.0 L 56.3,270.0 Z" fill="#3a4a3f" fill-opacity="0.92" stroke="#2f3b32" stroke-width="1.3"/>
<path d="M 237.5,270.0 L 237.6,269.0 L 237.6,268.0 L 237.7,267.1 L 237.7,266.1 L 237.8,265.1 L 237.9,264.1 L 237.9,263.1 L 238.0,262.1 L 238.0,261.2 L 238.1,260.2 L 238.2,259.2 L 238.2,258.2 L 238.3,257.2 L 238.3,256.3 L 238.4,255.3 L 238.5,254.3 L 238.5,253.3 L 238.6,252.3 L 238.6,251.3 L 238.7,250.4 L 238.8,249.4 L 238.8,248.4 L 238.9,247.4 L 238.9,246.4 L 239.0,245.5 L 239.0,244.5 L 239.1,243.5 L 239.2,242.5 L 239.2,241.5 L 239.3,240.6 L 239.3,239.6 L 239.4,238.6 L 239.4,237.6 L 239.5,236.6 L 239.6,235.6 L 239.6,234.7 L 239.7,233.7 L 239.7,232.7 L 239.8,231.7 L 239.8,230.7 L 239.9,229.8 L 239.9,228.8 L 240.0,227.8 L 240.0,226.8 L 240.1,225.8 L 240.1,224.8 L 240.2,223.9 L 240.2,222.9 L 240.3,221.9 L 240.3,220.9 L 240.4,219.9 L 240.4,219.0 L 240.5,218.0 L 240.5,217.0 L 240.6,216.0 L 240.6,215.0 L 240.7,214.0 L 240.7,213.1 L 240.7,212.1 L 240.8,211.1 L 240.8,210.1 L 240.9,209.1 L 240.9,208.2 L 241.0,207.2 L 241.0,206.2 L 241.0,205.2 L 241.1,204.2 L 241.1,203.2 L 241.1,202.3 L 241.2,201.3 L 241.2,200.3 L 241.3,199.3 L 241.3,198.3 L 241.3,197.4 L 241.4,196.4 L 241.4,195.4 L 241.4,194.4 L 241.5,193.4 L 241.5,192.4 L 241.5,191.5 L 241.6,190.5 L 241.6,189.5 L 241.6,188.5 L 241.6,187.5 L 241.7,186.6 L 241.7,185.6 L 241.7,184.6 L 241.7,183.6 L 241.8,182.6 L 241.8,181.6 L 241.8,180.7 L 241.8,179.7 L 241.9,178.7 L 241.9,177.7 L 241.9,176.7 L 241.9,175.8 L 241.9,174.8 L 242.0,173.8 L 242.0,172.8 L 242.0,171.8 L 242.0,170.9 L 242.0,169.9 L 242.0,168.9 L 242.0,167.9 L 242.1,166.9 L 242.1,165.9 L 242.1,165.0 L 242.1,164.0 L 242.1,163.0 L 242.1,162.0 L 242.1,161.0 L 242.1,160.1 L 242.1,159.1 L 242.1,158.1 L 242.1,157.1 L 242.1,156.1 L 242.1,155.1 L 242.1,154.2 L 242.1,153.2 L 242.1,152.2 L 242.1,151.2 L 242.1,150.2 L 242.1,149.3 L 242.1,148.3 L 242.1,147.3 L 242.1,146.3 L 242.1,145.3 L 242.1,144.3 L 242.1,143.4 L 242.1,142.4 L 242.1,141.4 L 242.1,140.4 L 242.1,139.4 L 242.1,138.5 L 242.1,137.5 L 242.0,136.5 L 242.0,135.5 L 242.0,134.5 L 242.0,133.5 L 242.0,132.6 L 242.0,131.6 L 242.0,130.6 L 241.9,129.6 L 241.9,128.6 L 241.9,127.7 L 241.9,126.7 L 241.9,125.7 L 241.8,124.7 L 241.8,123.7 L 241.8,122.8 L 241.8,121.8 L 241.7,120.8 L 241.7,119.8 L 241.7,118.8 L 241.7,117.8 L 241.6,116.9 L 241.6,115.9 L 241.6,114.9 L 241.6,113.9 L 241.5,112.9 L 241.5,112.0 L 241.5,111.0 L 241.4,110.0 L 241.4,109.0 L 241.4,108.0 L 241.3,107.0 L 241.3,106.1 L 241.3,105.1 L 241.2,104.1 L 241.2,103.1 L 241.1,102.1 L 241.1,101.2 L 241.1,100.2 L 241.0,99.2 L 241.0,98.2 L 241.0,97.2 L 240.9,96.2 L 240.9,95.3 L 240.8,94.3 L 240.8,93.3 L 240.7,92.3 L 240.7,91.3 L 240.7,90.4 L 240.6,89.4 L 240.6,88.4 L 240.5,87.4 L 240.5,86.4 L 240.4,85.4 L 240.4,84.5 L 240.3,83.5 L 240.3,82.5 L 240.2,81.5 L 240.2,80.5 L 240.1,79.6 L 240.1,78.6 L 240.0,77.6 L 240.0,76.6 L 239.9,75.6 L 239.9,74.6 L 239.8,73.7 L 239.8,72.7 L 239.7,71.7 L 239.7,70.7 L 239.6,69.7 L 239.6,68.8 L 239.5,67.8 L 239.4,66.8 L 239.4,65.8 L 239.3,64.8 L 239.3,63.8 L 239.2,62.9 L 239.2,61.9 L 239.1,60.9 L 239.0,59.9 L 239.0,58.9 L 238.9,58.0 L 238.9,57.0 L 238.8,56.0 L 238.8,55.0 L 238.7,54.0 L 238.6,53.1 L 238.6,52.1 L 238.5,51.1 L 238.5,50.1 L 238.4,49.1 L 238.3,48.1 L 238.3,47.2 L 238.2,46.2 L 238.2,45.2 L 238.1,44.2 L 238.0,43.2 L 238.0,42.3 L 237.9,41.3 L 237.8,40.3 L 237.4,39.3 L 237.0,38.3 L 236.3,37.3 L 235.4,36.4 L 234.0,35.4 L 230.2,34.4" fill="none" stroke="#2f3b32" stroke-width="0.6" stroke-opacity="0.5"/>
<text x="14" y="24" font-family="Helvetica,Arial" font-size="16" font-weight="700" fill="#2f3b32">14rib-bow3</text>
<text x="14" y="41" font-family="Helvetica,Arial" font-size="10.5" fill="#2f3b32">14 ribs · bow 3mm · flush glass · 5mm rim bevel</text>
<rect x="183" y="50" width="108" height="160" fill="#fff" stroke="#2f3b32" stroke-width="0.7"/>
<line x1="-62.7" y1="130.0" x2="-62.7" y2="202.0" stroke="#6f97ab" stroke-width="1" stroke-dasharray="4 3"/>
<path d="M -126.9,198.4 L -126.7,194.6 L -126.4,190.8 L -126.2,187.0 L -126.0,183.2 L -125.7,179.4 L -125.5,175.6 L -125.3,171.8 L -125.0,168.0 L -124.8,164.2 L -124.6,160.4 L -124.4,156.6 L -123.7,152.8 L -122.5,149.0 L -120.7,145.2 L -118.1,141.4 L -114.5,137.6 L -109.2,133.8 L -94.6,130.0 L -94.6,130.0" fill="none" stroke="#2f3b32" stroke-width="2"/>
<text x="187" y="64" font-family="Helvetica,Arial" font-size="9" fill="#2f3b32">5mm bevel (6x)</text></svg>