solid OpenSCAD_Model
  facet normal -0.992547 -0.121865 0
    outer loop
      vertex -15 11.1582 5
      vertex -15.0975 11.9523 5.84
      vertex -15.0975 11.9523 5
    endloop
  endfacet
  facet normal -0.992547 -0.121865 0
    outer loop
      vertex -15.0975 11.9523 5.84
      vertex -15 11.1582 5
      vertex -15 11.1582 5.84
    endloop
  endfacet
  facet normal 0 0 1
    outer loop
      vertex -13.7079 12.1229 6.39999
      vertex 5.55147 13.6816 6.39999
      vertex 5.55147 14.4876 6.39999
    endloop
  endfacet
  facet normal 0 0 1
    outer loop
      vertex 5.55147 13.6816 6.39999
      vertex -13.7079 12.1229 6.39999
      vertex -13.6104 11.3288 6.39999
    endloop
  endfacet
  facet normal 0 0 1
    outer loop
      vertex 7.24852 14.696 6.39999
      vertex 6.69999 14.555 6.39999
      vertex 7.24852 13.89 6.39999
    endloop
  endfacet
  facet normal 0 -0 1
    outer loop
      vertex 6.69999 14.555 6.39999
      vertex 7.24852 14.696 6.39999
      vertex 6.09999 14.555 6.39999
    endloop
  endfacet
  facet normal 0 0 1
    outer loop
      vertex 7.24852 13.89 6.39999
      vertex 6.69999 14.555 6.39999
      vertex 6.69999 13.8226 6.39999
    endloop
  endfacet
  facet normal -0.121851 0.992548 -2.08129e-05
    outer loop
      vertex 5.84853 14.5241 5
      vertex 6.09999 14.555 6.39999
      vertex 7.24852 14.696 6.39999
    endloop
  endfacet
  facet normal -0.121809 0.992554 -2.84313e-05
    outer loop
      vertex 6.09999 14.555 6.39999
      vertex 5.84853 14.5241 5
      vertex 5.3 14.4568 5.6
    endloop
  endfacet
  facet normal -0.121867 0.992546 0.000299736
    outer loop
      vertex 5.3 14.4568 6.14853
      vertex -13.7079 12.1229 6.39999
      vertex 5.55147 14.4876 6.39999
    endloop
  endfacet
  facet normal -0.121871 0.992546 0
    outer loop
      vertex 5.3 14.4568 5.6
      vertex -13.7079 12.1229 6.39999
      vertex 5.3 14.4568 6.14853
    endloop
  endfacet
  facet normal -0.12187 0.992546 1.57425e-05
    outer loop
      vertex -15.0975 11.9523 5
      vertex -13.7079 12.1229 6.39999
      vertex 5.3 14.4568 5.6
    endloop
  endfacet
  facet normal -0.121867 0.992546 -8.22647e-05
    outer loop
      vertex -15.0975 11.9523 5
      vertex 5.3 14.4568 5.6
      vertex 5.84853 14.5241 5
    endloop
  endfacet
  facet normal -0.121854 0.992548 0
    outer loop
      vertex -13.7079 12.1229 6.39999
      vertex -15.0975 11.9523 5
      vertex -15.0975 11.9523 5.84
    endloop
  endfacet
  facet normal 0 0 -1
    outer loop
      vertex -15.0975 11.9523 5
      vertex 4.15147 13.5097 5
      vertex -15 11.1582 5
    endloop
  endfacet
  facet normal -0 0 -1
    outer loop
      vertex 5.3 13.6508 5
      vertex 4.7 13.5771 5
      vertex 5.3 14.3831 5
    endloop
  endfacet
  facet normal 0 0 -1
    outer loop
      vertex 5.3 14.3831 5
      vertex 5.84853 14.5241 5
      vertex 5.84853 14.3831 5
    endloop
  endfacet
  facet normal 0 0 -1
    outer loop
      vertex 4.15147 13.5771 5
      vertex 5.3 14.3831 5
      vertex 4.7 13.5771 5
    endloop
  endfacet
  facet normal -0 0 -1
    outer loop
      vertex 4.15147 13.5097 5
      vertex -15.0975 11.9523 5
      vertex 4.15147 13.5771 5
    endloop
  endfacet
  facet normal -0 0 -1
    outer loop
      vertex 4.15147 13.5771 5
      vertex -15.0975 11.9523 5
      vertex 5.3 14.3831 5
    endloop
  endfacet
  facet normal -0 0 -1
    outer loop
      vertex 5.3 14.3831 5
      vertex -15.0975 11.9523 5
      vertex 5.84853 14.5241 5
    endloop
  endfacet
  facet normal -0.368609 -0.045258 0.928482
    outer loop
      vertex -13.7079 12.1229 6.39999
      vertex -15 11.1582 5.84
      vertex -13.6104 11.3288 6.39999
    endloop
  endfacet
  facet normal -0.368609 -0.045258 0.928482
    outer loop
      vertex -15 11.1582 5.84
      vertex -13.7079 12.1229 6.39999
      vertex -15.0975 11.9523 5.84
    endloop
  endfacet
  facet normal 0.992545 0.12188 0
    outer loop
      vertex 12.4975 13.7285 15.84
      vertex 12.4 14.5225 15
      vertex 12.4 14.5225 15.84
    endloop
  endfacet
  facet normal 0.992545 0.12188 0
    outer loop
      vertex 12.4 14.5225 15
      vertex 12.4975 13.7285 15.84
      vertex 12.4975 13.7285 15
    endloop
  endfacet
  facet normal 0.992547 0.121865 0
    outer loop
      vertex 12.4 14.5225 15.84
      vertex 12.3025 15.3166 15
      vertex 12.3025 15.3166 15.84
    endloop
  endfacet
  facet normal 0.992547 0.121865 0
    outer loop
      vertex 12.3025 15.3166 15
      vertex 12.4 14.5225 15.84
      vertex 12.4 14.5225 15
    endloop
  endfacet
  facet normal 0.122155 -0.992511 0
    outer loop
      vertex 12.4 13.7165 15
      vertex 12.4975 13.7285 15.84
      vertex 12.4 13.7165 15.8793
    endloop
  endfacet
  facet normal 0.122155 -0.992511 0
    outer loop
      vertex 12.4975 13.7285 15.84
      vertex 12.4 13.7165 15
      vertex 12.4975 13.7285 15
    endloop
  endfacet
  facet normal -0 0 -1
    outer loop
      vertex 12.4975 13.7285 15
      vertex 12.4 13.7165 15
      vertex 12.4 14.5225 15
    endloop
  endfacet
  facet normal 0 0 -1
    outer loop
      vertex -15 11.1582 15
      vertex 12.3025 15.3166 15
      vertex 12.4 14.5225 15
    endloop
  endfacet
  facet normal 0 0 -1
    outer loop
      vertex 12.3025 15.3166 15
      vertex -15 11.1582 15
      vertex -15.0975 11.9523 15
    endloop
  endfacet
  facet normal -0.992547 -0.121865 0
    outer loop
      vertex -15 11.1582 15
      vertex -15.0975 11.9523 15.84
      vertex -15.0975 11.9523 15
    endloop
  endfacet
  facet normal -0.992547 -0.121865 0
    outer loop
      vertex -15.0975 11.9523 15.84
      vertex -15 11.1582 15
      vertex -15 11.1582 15.84
    endloop
  endfacet
  facet normal 0 0 1
    outer loop
      vertex 10.9129 15.1459 16.4
      vertex -13.6104 11.3288 16.4
      vertex 11.0104 14.3519 16.4
    endloop
  endfacet
  facet normal 0 -0 1
    outer loop
      vertex -13.6104 11.3288 16.4
      vertex 10.9129 15.1459 16.4
      vertex -13.7079 12.1229 16.4
    endloop
  endfacet
  facet normal -0.121925 0.992539 0
    outer loop
      vertex 12.3025 15.3166 15
      vertex 10.9129 15.1459 16.4
      vertex 12.3025 15.3166 15.84
    endloop
  endfacet
  facet normal -0.121867 0.992546 5.78715e-05
    outer loop
      vertex 10.9129 15.1459 16.4
      vertex 12.3025 15.3166 15
      vertex -13.7079 12.1229 16.4
    endloop
  endfacet
  facet normal -0.121869 0.992546 1.52991e-05
    outer loop
      vertex -15.0975 11.9523 15
      vertex -13.7079 12.1229 16.4
      vertex 12.3025 15.3166 15
    endloop
  endfacet
  facet normal -0.121854 0.992548 0
    outer loop
      vertex -13.7079 12.1229 16.4
      vertex -15.0975 11.9523 15
      vertex -15.0975 11.9523 15.84
    endloop
  endfacet
  facet normal -0.368615 -0.0452587 0.92848
    outer loop
      vertex -13.7079 12.1229 16.4
      vertex -15 11.1582 15.84
      vertex -13.6104 11.3288 16.4
    endloop
  endfacet
  facet normal -0.368615 -0.0452587 0.92848
    outer loop
      vertex -15 11.1582 15.84
      vertex -13.7079 12.1229 16.4
      vertex -15.0975 11.9523 15.84
    endloop
  endfacet
  facet normal 0.368615 0.0452587 0.92848
    outer loop
      vertex 12.3025 15.3166 15.84
      vertex 11.0104 14.3519 16.4
      vertex 12.4 14.5225 15.84
    endloop
  endfacet
  facet normal 0.368612 0.045264 0.928481
    outer loop
      vertex 11.0104 14.3519 16.4
      vertex 12.3025 15.3166 15.84
      vertex 10.9129 15.1459 16.4
    endloop
  endfacet
  facet normal 0.368668 0.045271 0.928458
    outer loop
      vertex 12.4 14.5225 15.84
      vertex 12.4 13.7165 15.8793
      vertex 12.4975 13.7285 15.84
    endloop
  endfacet
  facet normal 0.992547 0.121865 0
    outer loop
      vertex 12.4 14.5225 25.84
      vertex 12.3025 15.3166 25
      vertex 12.3025 15.3166 25.84
    endloop
  endfacet
  facet normal 0.992547 0.121865 0
    outer loop
      vertex 12.3025 15.3166 25
      vertex 12.4 14.5225 25.84
      vertex 12.4 14.5225 25
    endloop
  endfacet
  facet normal 0.992545 0.12188 0
    outer loop
      vertex 12.4975 13.7285 25.84
      vertex 12.4 14.5225 25
      vertex 12.4 14.5225 25.84
    endloop
  endfacet
  facet normal 0.992545 0.12188 0
    outer loop
      vertex 12.4 14.5225 25
      vertex 12.4975 13.7285 25.84
      vertex 12.4975 13.7285 25
    endloop
  endfacet
  facet normal 0.122155 -0.992511 0
    outer loop
      vertex 12.4 13.7165 25
      vertex 12.4975 13.7285 25.84
      vertex 12.4 13.7165 25.8793
    endloop
  endfacet
  facet normal 0.122155 -0.992511 0
    outer loop
      vertex 12.4975 13.7285 25.84
      vertex 12.4 13.7165 25
      vertex 12.4975 13.7285 25
    endloop
  endfacet
  facet normal -0.992547 -0.121865 0
    outer loop
      vertex -15 11.1582 25
      vertex -15.0975 11.9523 25.84
      vertex -15.0975 11.9523 25
    endloop
  endfacet
  facet normal -0.992547 -0.121865 0
    outer loop
      vertex -15.0975 11.9523 25.84
      vertex -15 11.1582 25
      vertex -15 11.1582 25.84
    endloop
  endfacet
  facet normal 0 0 1
    outer loop
      vertex 10.9129 15.1459 26.4
      vertex -13.6104 11.3288 26.4
      vertex 11.0104 14.3519 26.4
    endloop
  endfacet
  facet normal 0 -0 1
    outer loop
      vertex -13.6104 11.3288 26.4
      vertex 10.9129 15.1459 26.4
      vertex -13.7079 12.1229 26.4
    endloop
  endfacet
  facet normal -0.121925 0.992539 0
    outer loop
      vertex 12.3025 15.3166 25
      vertex 10.9129 15.1459 26.4
      vertex 12.3025 15.3166 25.84
    endloop
  endfacet
  facet normal -0.121867 0.992546 5.78715e-05
    outer loop
      vertex 10.9129 15.1459 26.4
      vertex 12.3025 15.3166 25
      vertex -13.7079 12.1229 26.4
    endloop
  endfacet
  facet normal -0.121869 0.992546 1.52991e-05
    outer loop
      vertex -15.0975 11.9523 25
      vertex -13.7079 12.1229 26.4
      vertex 12.3025 15.3166 25
    endloop
  endfacet
  facet normal -0.121854 0.992548 0
    outer loop
      vertex -13.7079 12.1229 26.4
      vertex -15.0975 11.9523 25
      vertex -15.0975 11.9523 25.84
    endloop
  endfacet
  facet normal -0 0 -1
    outer loop
      vertex 12.4975 13.7285 25
      vertex 12.4 13.7165 25
      vertex 12.4 14.5225 25
    endloop
  endfacet
  facet normal 0 0 -1
    outer loop
      vertex -15 11.1582 25
      vertex 12.3025 15.3166 25
      vertex 12.4 14.5225 25
    endloop
  endfacet
  facet normal 0 0 -1
    outer loop
      vertex 12.3025 15.3166 25
      vertex -15 11.1582 25
      vertex -15.0975 11.9523 25
    endloop
  endfacet
  facet normal -0.368615 -0.0452587 0.92848
    outer loop
      vertex -13.7079 12.1229 26.4
      vertex -15 11.1582 25.84
      vertex -13.6104 11.3288 26.4
    endloop
  endfacet
  facet normal -0.368615 -0.0452587 0.92848
    outer loop
      vertex -15 11.1582 25.84
      vertex -13.7079 12.1229 26.4
      vertex -15.0975 11.9523 25.84
    endloop
  endfacet
  facet normal 0.368615 0.0452587 0.92848
    outer loop
      vertex 12.3025 15.3166 25.84
      vertex 11.0104 14.3519 26.4
      vertex 12.4 14.5225 25.84
    endloop
  endfacet
  facet normal 0.368612 0.045264 0.928481
    outer loop
      vertex 11.0104 14.3519 26.4
      vertex 12.3025 15.3166 25.84
      vertex 10.9129 15.1459 26.4
    endloop
  endfacet
  facet normal 0.368668 0.045271 0.928458
    outer loop
      vertex 12.4 14.5225 25.84
      vertex 12.4 13.7165 25.8793
      vertex 12.4975 13.7285 25.84
    endloop
  endfacet
  facet normal 0.992545 0.12188 0
    outer loop
      vertex 12.4975 13.7285 35.84
      vertex 12.4 14.5225 35
      vertex 12.4 14.5225 35.84
    endloop
  endfacet
  facet normal 0.992545 0.12188 0
    outer loop
      vertex 12.4 14.5225 35
      vertex 12.4975 13.7285 35.84
      vertex 12.4975 13.7285 35
    endloop
  endfacet
  facet normal 0.992547 0.121865 0
    outer loop
      vertex 12.4 14.5225 35.84
      vertex 12.3025 15.3166 35
      vertex 12.3025 15.3166 35.84
    endloop
  endfacet
  facet normal 0.992547 0.121865 0
    outer loop
      vertex 12.3025 15.3166 35
      vertex 12.4 14.5225 35.84
      vertex 12.4 14.5225 35
    endloop
  endfacet
  facet normal 0.122155 -0.992511 0
    outer loop
      vertex 12.4 13.7165 35
      vertex 12.4975 13.7285 35.84
      vertex 12.4 13.7165 35.8793
    endloop
  endfacet
  facet normal 0.122155 -0.992511 0
    outer loop
      vertex 12.4975 13.7285 35.84
      vertex 12.4 13.7165 35
      vertex 12.4975 13.7285 35
    endloop
  endfacet
  facet normal -0 0 -1
    outer loop
      vertex 12.4975 13.7285 35
      vertex 12.4 13.7165 35
      vertex 12.4 14.5225 35
    endloop
  endfacet
  facet normal 0 0 -1
    outer loop
      vertex -15 11.1582 35
      vertex 12.3025 15.3166 35
      vertex 12.4 14.5225 35
    endloop
  endfacet
  facet normal 0 0 -1
    outer loop
      vertex 12.3025 15.3166 35
      vertex -15 11.1582 35
      vertex -15.0975 11.9523 35
    endloop
  endfacet
  facet normal -0.992547 -0.121865 0
    outer loop
      vertex -15 11.1582 35
      vertex -15.0975 11.9523 35.84
      vertex -15.0975 11.9523 35
    endloop
  endfacet
  facet normal -0.992547 -0.121865 0
    outer loop
      vertex -15.0975 11.9523 35.84
      vertex -15 11.1582 35
      vertex -15 11.1582 35.84
    endloop
  endfacet
  facet normal 0 0 1
    outer loop
      vertex 10.9129 15.1459 36.4
      vertex -13.6104 11.3288 36.4
      vertex 11.0104 14.3519 36.4
    endloop
  endfacet
  facet normal 0 -0 1
    outer loop
      vertex -13.6104 11.3288 36.4
      vertex 10.9129 15.1459 36.4
      vertex -13.7079 12.1229 36.4
    endloop
  endfacet
  facet normal -0.121925 0.992539 0
    outer loop
      vertex 12.3025 15.3166 35
      vertex 10.9129 15.1459 36.4
      vertex 12.3025 15.3166 35.84
    endloop
  endfacet
  facet normal -0.121867 0.992546 5.78715e-05
    outer loop
      vertex 10.9129 15.1459 36.4
      vertex 12.3025 15.3166 35
      vertex -13.7079 12.1229 36.4
    endloop
  endfacet
  facet normal -0.121869 0.992546 1.52991e-05
    outer loop
      vertex -15.0975 11.9523 35
      vertex -13.7079 12.1229 36.4
      vertex 12.3025 15.3166 35
    endloop
  endfacet
  facet normal -0.121854 0.992548 0
    outer loop
      vertex -13.7079 12.1229 36.4
      vertex -15.0975 11.9523 35
      vertex -15.0975 11.9523 35.84
    endloop
  endfacet
  facet normal -0.368615 -0.0452587 0.92848
    outer loop
      vertex -13.7079 12.1229 36.4
      vertex -15 11.1582 35.84
      vertex -13.6104 11.3288 36.4
    endloop
  endfacet
  facet normal -0.368615 -0.0452587 0.92848
    outer loop
      vertex -15 11.1582 35.84
      vertex -13.7079 12.1229 36.4
      vertex -15.0975 11.9523 35.84
    endloop
  endfacet
  facet normal 0.368615 0.0452587 0.92848
    outer loop
      vertex 12.3025 15.3166 35.84
      vertex 11.0104 14.3519 36.4
      vertex 12.4 14.5225 35.84
    endloop
  endfacet
  facet normal 0.368612 0.045264 0.928481
    outer loop
      vertex 11.0104 14.3519 36.4
      vertex 12.3025 15.3166 35.84
      vertex 10.9129 15.1459 36.4
    endloop
  endfacet
  facet normal 0.368668 0.045271 0.928458
    outer loop
      vertex 12.4 14.5225 35.84
      vertex 12.4 13.7165 35.8793
      vertex 12.4975 13.7285 35.84
    endloop
  endfacet
  facet normal 0 0 -1
    outer loop
      vertex -15 -4 0
      vertex -13.5 -2.02 0
      vertex -13.5 -4 0
    endloop
  endfacet
  facet normal -0 0 -1
    outer loop
      vertex -13.5 -2.02 0
      vertex -15 -4 0
      vertex -13.5 1 0
    endloop
  endfacet
  facet normal 0 0 -1
    outer loop
      vertex -2 -2 0
      vertex 0 -7 0
      vertex -2 -7 0
    endloop
  endfacet
  facet normal 0 0 -1
    outer loop
      vertex 0.3 0 0
      vertex 0 0 0
      vertex 0.3 12.9632 0
    endloop
  endfacet
  facet normal 0 0 -1
    outer loop
      vertex 0.3 12.9632 0
      vertex 0.848529 13.1042 0
      vertex 0.848529 12.9632 0
    endloop
  endfacet
  facet normal 0 0 -1
    outer loop
      vertex 0 -7 0
      vertex -2 -2 0
      vertex 0 0 0
    endloop
  endfacet
  facet normal 0 0 -1
    outer loop
      vertex -3.5 1 0
      vertex 0 0 0
      vertex -2 -2 0
    endloop
  endfacet
  facet normal 0 0 -1
    outer loop
      vertex -3.5 1 0
      vertex -2 -2 0
      vertex -3.5 -2 0
    endloop
  endfacet
  facet normal 0 0 -1
    outer loop
      vertex 0 0 0
      vertex -3.5 1 0
      vertex 0.3 12.9632 0
    endloop
  endfacet
  facet normal 0 0 -1
    outer loop
      vertex -15 11.1582 0
      vertex -3.5 1 0
      vertex -13.5 1 0
    endloop
  endfacet
  facet normal -0 0 -1
    outer loop
      vertex 0.3 12.9632 0
      vertex -15 11.1582 0
      vertex 0.848529 13.1042 0
    endloop
  endfacet
  facet normal 0 0 -1
    outer loop
      vertex -3.5 1 0
      vertex -15 11.1582 0
      vertex 0.3 12.9632 0
    endloop
  endfacet
  facet normal 0 0 -1
    outer loop
      vertex -15 11.1582 0
      vertex -13.5 1 0
      vertex -15 -4 0
    endloop
  endfacet
  facet normal 0 0 1
    outer loop
      vertex 12.4 14.5225 45
      vertex 10.4 0 45
      vertex 12.4 -7 45
    endloop
  endfacet
  facet normal 0 0 1
    outer loop
      vertex 12.4 14.5225 45
      vertex 0 0 45
      vertex 10.4 0 45
    endloop
  endfacet
  facet normal 0 0 1
    outer loop
      vertex 0 0 45
      vertex -2 -2 45
      vertex 0 -7 45
    endloop
  endfacet
  facet normal -0 0 1
    outer loop
      vertex -3.5 1 45
      vertex 0 0 45
      vertex 12.4 14.5225 45
    endloop
  endfacet
  facet normal 0 0 1
    outer loop
      vertex 0 0 45
      vertex -3.5 1 45
      vertex -2 -2 45
    endloop
  endfacet
  facet normal -0 0 1
    outer loop
      vertex -15 11.1582 45
      vertex -3.5 1 45
      vertex 12.4 14.5225 45
    endloop
  endfacet
  facet normal 0 0 1
    outer loop
      vertex -15 -4 45
      vertex -13.5 -2.02 45
      vertex -13.5 1 45
    endloop
  endfacet
  facet normal 0 0 1
    outer loop
      vertex -3.5 1 45
      vertex -15 11.1582 45
      vertex -13.5 1 45
    endloop
  endfacet
  facet normal 0 0 1
    outer loop
      vertex -15 -4 45
      vertex -13.5 1 45
      vertex -15 11.1582 45
    endloop
  endfacet
  facet normal 0 0 1
    outer loop
      vertex -13.5 -2.02 45
      vertex -15 -4 45
      vertex -13.5 -4 45
    endloop
  endfacet
  facet normal 0 0 1
    outer loop
      vertex 12.4 -7 45
      vertex 10.4 0 45
      vertex 10.4 -7 45
    endloop
  endfacet
  facet normal 0 0 1
    outer loop
      vertex 0 -7 45
      vertex -2 -2 45
      vertex -2 -7 45
    endloop
  endfacet
  facet normal 0 0 1
    outer loop
      vertex -2 -2 45
      vertex -3.5 1 45
      vertex -3.5 -2 45
    endloop
  endfacet
  facet normal 0 -1 0
    outer loop
      vertex 0 0 45
      vertex 10.4 0 11.2485
      vertex 10.4 0 45
    endloop
  endfacet
  facet normal 0 -1 0
    outer loop
      vertex 0 0 45
      vertex 9.85147 0 10.7
      vertex 10.4 0 11.2485
    endloop
  endfacet
  facet normal 0 -1 0
    outer loop
      vertex 9.85147 0 10.7
      vertex 10.4 0 9.55147
      vertex 10.4 0 10.7
    endloop
  endfacet
  facet normal 0 -1 -0
    outer loop
      vertex 9.85147 0 10.7
      vertex 0.3 0 0.3
      vertex 10.4 0 9.55147
    endloop
  endfacet
  facet normal 0 -1 0
    outer loop
      vertex 0 0 45
      vertex 0.3 0 0.3
      vertex 9.85147 0 10.7
    endloop
  endfacet
  facet normal 0 -1 0
    outer loop
      vertex 0 0 0
      vertex 0.3 0 0.3
      vertex 0 0 45
    endloop
  endfacet
  facet normal 0 -1 -0
    outer loop
      vertex 0.3 0 0.3
      vertex 0 0 0
      vertex 0.3 0 0
    endloop
  endfacet
  facet normal 0 -1 0
    outer loop
      vertex 45.3 0 0.3
      vertex 11.5485 0 10.7
      vertex 10.4 0 9.55147
    endloop
  endfacet
  facet normal 0 -1 0
    outer loop
      vertex 45.3 0 0.3
      vertex 10.4 0 9.55147
      vertex 0.3 0 0.3
    endloop
  endfacet
  facet normal 0 -1 0
    outer loop
      vertex 11.5485 0 10.7
      vertex 45.3 0 0.3
      vertex 45.3 0 10.7
    endloop
  endfacet
  facet normal -1 0 0
    outer loop
      vertex 10.4 -7 11.2485
      vertex 10.4 0 45
      vertex 10.4 0 11.2485
    endloop
  endfacet
  facet normal -1 -0 0
    outer loop
      vertex 10.4 0 45
      vertex 10.4 -7 11.2485
      vertex 10.4 -7 45
    endloop
  endfacet
  facet normal -1 0 0
    outer loop
      vertex 10.4 -7 9.55147
      vertex 10.4 0 10.7
      vertex 10.4 0 9.55147
    endloop
  endfacet
  facet normal -1 -0 0
    outer loop
      vertex 10.4 0 10.7
      vertex 10.4 -7 9.55147
      vertex 10.4 -7 10.7
    endloop
  endfacet
  facet normal 0 -1 0
    outer loop
      vertex 10.4 -7 10.7
      vertex 10.4 -7 9.55147
      vertex 11.5485 -7 10.7
    endloop
  endfacet
  facet normal 0 -1 0
    outer loop
      vertex 10.4 -7 45
      vertex 12.4 -7 12.7
      vertex 12.4 -7 45
    endloop
  endfacet
  facet normal 0 -1 0
    outer loop
      vertex 10.4 -7 11.2485
      vertex 12.4 -7 12.7
      vertex 10.4 -7 45
    endloop
  endfacet
  facet normal 0 -1 0
    outer loop
      vertex 11.5485 -7 10.7
      vertex 12.4 -7 12.7
      vertex 10.4 -7 11.2485
    endloop
  endfacet
  facet normal 0 -1 0
    outer loop
      vertex 10.4 -7 10.7
      vertex 10.4 -7 11.2485
      vertex 9.85147 -7 10.7
    endloop
  endfacet
  facet normal 0 -1 0
    outer loop
      vertex 11.5485 -7 10.7
      vertex 10.4 -7 11.2485
      vertex 10.4 -7 10.7
    endloop
  endfacet
  facet normal 0 -1 0
    outer loop
      vertex 45.3 -7 10.7
      vertex 12.4 -7 12.7
      vertex 11.5485 -7 10.7
    endloop
  endfacet
  facet normal 0 -1 0
    outer loop
      vertex 12.4 -7 12.7
      vertex 45.3 -7 10.7
      vertex 45.3 -7 12.7
    endloop
  endfacet
  facet normal 1 0 0
    outer loop
      vertex 12.4 13.7165 15.8793
      vertex 12.4 14.5225 25
      vertex 12.4 13.7165 25
    endloop
  endfacet
  facet normal 1 0 0
    outer loop
      vertex 12.4 14.5225 25
      vertex 12.4 13.7165 15.8793
      vertex 12.4 14.5225 15.84
    endloop
  endfacet
  facet normal 1 0 0
    outer loop
      vertex 12.4 13.7165 25.8793
      vertex 12.4 14.5225 35
      vertex 12.4 13.7165 35
    endloop
  endfacet
  facet normal 1 0 0
    outer loop
      vertex 12.4 14.5225 35
      vertex 12.4 13.7165 25.8793
      vertex 12.4 14.5225 25.84
    endloop
  endfacet
  facet normal 0 0 0
    outer loop
      vertex 12.4 14.5225 45
      vertex 12.4 14.5225 35.84
      vertex 12.4 14.5225 12.7
    endloop
  endfacet
  facet normal 1 0 0
    outer loop
      vertex 12.4 14.5225 45
      vertex 12.4 13.7165 35.8793
      vertex 12.4 14.5225 35.84
    endloop
  endfacet
  facet normal 1 0 0
    outer loop
      vertex 12.4 -7 45
      vertex 12.4 13.7165 35
      vertex 12.4 13.7165 35.8793
    endloop
  endfacet
  facet normal 1 0 0
    outer loop
      vertex 12.4 13.7165 35
      vertex 12.4 -7 45
      vertex 12.4 13.7165 25.8793
    endloop
  endfacet
  facet normal 1 0 0
    outer loop
      vertex 12.4 -7 12.7
      vertex 12.4 13.7165 25.8793
      vertex 12.4 -7 45
    endloop
  endfacet
  facet normal 1 0 0
    outer loop
      vertex 12.4 13.7165 25
      vertex 12.4 -7 12.7
      vertex 12.4 13.7165 15.8793
    endloop
  endfacet
  facet normal 1 0 0
    outer loop
      vertex 12.4 13.7165 25.8793
      vertex 12.4 -7 12.7
      vertex 12.4 13.7165 25
    endloop
  endfacet
  facet normal 1 -0 0
    outer loop
      vertex 12.4 -7 45
      vertex 12.4 13.7165 35.8793
      vertex 12.4 14.5225 45
    endloop
  endfacet
  facet normal 0 -0 0
    outer loop
      vertex 12.4 14.5225 35
      vertex 12.4 14.5225 12.7
      vertex 12.4 14.5225 35.84
    endloop
  endfacet
  facet normal 0 -0 0
    outer loop
      vertex 12.4 14.5225 25.84
      vertex 12.4 14.5225 12.7
      vertex 12.4 14.5225 35
    endloop
  endfacet
  facet normal 0 -0 0
    outer loop
      vertex 12.4 14.5225 25
      vertex 12.4 14.5225 12.7
      vertex 12.4 14.5225 25.84
    endloop
  endfacet
  facet normal 0 -0 0
    outer loop
      vertex 12.4 14.5225 15.84
      vertex 12.4 14.5225 12.7
      vertex 12.4 14.5225 25
    endloop
  endfacet
  facet normal 0 -0 0
    outer loop
      vertex 12.4 14.5225 15
      vertex 12.4 14.5225 12.7
      vertex 12.4 14.5225 15.84
    endloop
  endfacet
  facet normal 1 -0 0
    outer loop
      vertex 12.4 13.7165 15
      vertex 12.4 14.5225 12.7
      vertex 12.4 14.5225 15
    endloop
  endfacet
  facet normal 1 0 0
    outer loop
      vertex 12.4 13.7165 15.8793
      vertex 12.4 -7 12.7
      vertex 12.4 13.7165 15
    endloop
  endfacet
  facet normal 1 0 0
    outer loop
      vertex 12.4 13.7165 15
      vertex 12.4 -7 12.7
      vertex 12.4 14.5225 12.7
    endloop
  endfacet
  facet normal 1 0 -0
    outer loop
      vertex 12.4 14.5225 11.5515
      vertex 12.4 14.5225 12.7
      vertex 12.4 14.3815 11.5515
    endloop
  endfacet
  facet normal -0.121917 0.99254 0
    outer loop
      vertex 5.3 13.6508 4.45147
      vertex 4.7 13.5771 5
      vertex 5.3 13.6508 5
    endloop
  endfacet
  facet normal -0.121899 0.992542 1.96406e-05
    outer loop
      vertex 5.3 13.6508 4.45147
      vertex 0.3 13.0368 0.6
      vertex 4.7 13.5771 5
    endloop
  endfacet
  facet normal -0.121914 0.992541 3.9447e-05
    outer loop
      vertex 0.3 13.0368 0.6
      vertex 5.3 13.6508 4.45147
      vertex 0.848529 13.1042 0
    endloop
  endfacet
  facet normal -0.121869 0.992546 2.07494e-08
    outer loop
      vertex 4.15147 13.5097 5
      vertex 0.3 13.0368 1.14853
      vertex -15 11.1582 5
    endloop
  endfacet
  facet normal -0.121869 0.992546 2.49055e-06
    outer loop
      vertex 12.4 14.5225 45
      vertex 11.0104 14.3519 36.4
      vertex -15 11.1582 45
    endloop
  endfacet
  facet normal -0.121854 0.992548 0
    outer loop
      vertex 12.4 14.5225 45
      vertex 12.4 14.5225 35.84
      vertex 11.0104 14.3519 36.4
    endloop
  endfacet
  facet normal 0 0 0
    outer loop
      vertex 12.4 14.5225 45
      vertex 12.4 14.5225 35
      vertex 12.4 14.5225 35.84
    endloop
  endfacet
  facet normal -0.121869 0.992546 2.49055e-06
    outer loop
      vertex 12.4 14.5225 35
      vertex 11.0104 14.3519 26.4
      vertex -15 11.1582 35
    endloop
  endfacet
  facet normal -0.121854 0.992548 0
    outer loop
      vertex 12.4 14.5225 35
      vertex 12.4 14.5225 25.84
      vertex 11.0104 14.3519 26.4
    endloop
  endfacet
  facet normal 0 0 0
    outer loop
      vertex 12.4 14.5225 45
      vertex 12.4 14.5225 25.84
      vertex 12.4 14.5225 35
    endloop
  endfacet
  facet normal 0 0 0
    outer loop
      vertex 12.4 14.5225 45
      vertex 12.4 14.5225 25
      vertex 12.4 14.5225 25.84
    endloop
  endfacet
  facet normal -0.121869 0.992546 2.49055e-06
    outer loop
      vertex 12.4 14.5225 25
      vertex 11.0104 14.3519 16.4
      vertex -15 11.1582 25
    endloop
  endfacet
  facet normal -0.121854 0.992548 0
    outer loop
      vertex 12.4 14.5225 25
      vertex 12.4 14.5225 15.84
      vertex 11.0104 14.3519 16.4
    endloop
  endfacet
  facet normal 0 0 0
    outer loop
      vertex 12.4 14.5225 45
      vertex 12.4 14.5225 15.84
      vertex 12.4 14.5225 25
    endloop
  endfacet
  facet normal 0 0 0
    outer loop
      vertex 12.4 14.5225 45
      vertex 12.4 14.5225 15
      vertex 12.4 14.5225 15.84
    endloop
  endfacet
  facet normal -0.121785 0.992557 0
    outer loop
      vertex 11.8515 14.4552 12.7
      vertex 12.4 14.5225 15
      vertex 12.4 14.5225 12.7
    endloop
  endfacet
  facet normal 0 0 0
    outer loop
      vertex 12.4 14.5225 12.7
      vertex 12.4 14.5225 15
      vertex 12.4 14.5225 45
    endloop
  endfacet
  facet normal -0.121871 0.992546 -2.77168e-06
    outer loop
      vertex -13.6104 11.3288 36.4
      vertex -15 11.1582 45
      vertex 11.0104 14.3519 36.4
    endloop
  endfacet
  facet normal -0.121854 0.992548 0
    outer loop
      vertex -15 11.1582 35.84
      vertex -15 11.1582 45
      vertex -13.6104 11.3288 36.4
    endloop
  endfacet
  facet normal 0 0 0
    outer loop
      vertex -15 11.1582 35
      vertex -15 11.1582 45
      vertex -15 11.1582 35.84
    endloop
  endfacet
  facet normal -0.121871 0.992546 -2.77168e-06
    outer loop
      vertex -13.6104 11.3288 26.4
      vertex -15 11.1582 35
      vertex 11.0104 14.3519 26.4
    endloop
  endfacet
  facet normal -0.121854 0.992548 0
    outer loop
      vertex -15 11.1582 25.84
      vertex -15 11.1582 35
      vertex -13.6104 11.3288 26.4
    endloop
  endfacet
  facet normal 0 0 0
    outer loop
      vertex -15 11.1582 25.84
      vertex -15 11.1582 45
      vertex -15 11.1582 35
    endloop
  endfacet
  facet normal 0 0 0
    outer loop
      vertex -15 11.1582 25
      vertex -15 11.1582 45
      vertex -15 11.1582 25.84
    endloop
  endfacet
  facet normal -0.121871 0.992546 -2.77168e-06
    outer loop
      vertex -13.6104 11.3288 16.4
      vertex -15 11.1582 25
      vertex 11.0104 14.3519 16.4
    endloop
  endfacet
  facet normal -0.121854 0.992548 0
    outer loop
      vertex -15 11.1582 15.84
      vertex -15 11.1582 25
      vertex -13.6104 11.3288 16.4
    endloop
  endfacet
  facet normal 0 0 0
    outer loop
      vertex -15 11.1582 15.84
      vertex -15 11.1582 45
      vertex -15 11.1582 25
    endloop
  endfacet
  facet normal 0 0 0
    outer loop
      vertex -15 11.1582 15
      vertex -15 11.1582 45
      vertex -15 11.1582 15.84
    endloop
  endfacet
  facet normal -0.121907 0.992542 2.94655e-05
    outer loop
      vertex 5.55147 13.6816 6.39999
      vertex 12.4 14.5225 15
      vertex 11.8515 14.4552 12.7
    endloop
  endfacet
  facet normal -0.121869 0.992546 -6.34013e-07
    outer loop
      vertex 12.4 14.5225 15
      vertex 5.55147 13.6816 6.39999
      vertex -15 11.1582 15
    endloop
  endfacet
  facet normal -0.12187 0.992546 -2.62518e-06
    outer loop
      vertex -13.6104 11.3288 6.39999
      vertex -15 11.1582 15
      vertex 5.55147 13.6816 6.39999
    endloop
  endfacet
  facet normal -0.121854 0.992548 0
    outer loop
      vertex -15 11.1582 5.84
      vertex -15 11.1582 15
      vertex -13.6104 11.3288 6.39999
    endloop
  endfacet
  facet normal 0 0 0
    outer loop
      vertex -15 11.1582 5.84
      vertex -15 11.1582 45
      vertex -15 11.1582 15
    endloop
  endfacet
  facet normal 0 0 0
    outer loop
      vertex -15 11.1582 5
      vertex -15 11.1582 45
      vertex -15 11.1582 5.84
    endloop
  endfacet
  facet normal -0.121869 0.992546 0
    outer loop
      vertex -15 11.1582 0
      vertex 0.3 13.0368 1.14853
      vertex 0.3 13.0368 0.6
    endloop
  endfacet
  facet normal -0.121872 0.992546 7.86408e-05
    outer loop
      vertex -15 11.1582 0
      vertex 0.3 13.0368 0.6
      vertex 0.848529 13.1042 0
    endloop
  endfacet
  facet normal 0 -0 0
    outer loop
      vertex -15 11.1582 5
      vertex -15 11.1582 0
      vertex -15 11.1582 45
    endloop
  endfacet
  facet normal -0.121869 0.992546 0
    outer loop
      vertex 0.3 13.0368 1.14853
      vertex -15 11.1582 0
      vertex -15 11.1582 5
    endloop
  endfacet
  facet normal -0.121874 0.992546 0
    outer loop
      vertex 12.4 14.5225 11.5515
      vertex 6.69999 13.8226 6.99999
      vertex 12.4 14.5225 12.7
    endloop
  endfacet
  facet normal -0.121909 0.992541 4.43755e-05
    outer loop
      vertex 7.24852 13.89 6.39999
      vertex 6.69999 13.8226 6.99999
      vertex 12.4 14.5225 11.5515
    endloop
  endfacet
  facet normal -0.121957 0.992535 0
    outer loop
      vertex 6.69999 13.8226 6.99999
      vertex 7.24852 13.89 6.39999
      vertex 6.69999 13.8226 6.39999
    endloop
  endfacet
  facet normal -1 0 0
    outer loop
      vertex -15 -4 0
      vertex -15 11.1582 45
      vertex -15 11.1582 0
    endloop
  endfacet
  facet normal -1 -0 0
    outer loop
      vertex -15 11.1582 45
      vertex -15 -4 0
      vertex -15 -4 45
    endloop
  endfacet
  facet normal 0 -1 0
    outer loop
      vertex -15 -4 0
      vertex -13.5 -4 45
      vertex -15 -4 45
    endloop
  endfacet
  facet normal 0 -1 -0
    outer loop
      vertex -13.5 -4 45
      vertex -15 -4 0
      vertex -13.5 -4 0
    endloop
  endfacet
  facet normal 1 -0 0
    outer loop
      vertex -13.5 -4 45
      vertex -13.5 -2.02 0
      vertex -13.5 -2.02 45
    endloop
  endfacet
  facet normal 1 0 0
    outer loop
      vertex -13.5 -2.02 0
      vertex -13.5 -4 45
      vertex -13.5 -4 0
    endloop
  endfacet
  facet normal 1 -0 0
    outer loop
      vertex -13.5 -2.02 45
      vertex -13.5 1 0
      vertex -13.5 1 45
    endloop
  endfacet
  facet normal 1 0 0
    outer loop
      vertex -13.5 1 0
      vertex -13.5 -2.02 45
      vertex -13.5 -2.02 0
    endloop
  endfacet
  facet normal 0 -1 0
    outer loop
      vertex -3.5 -2 0
      vertex -2 -2 45
      vertex -3.5 -2 45
    endloop
  endfacet
  facet normal 0 -1 -0
    outer loop
      vertex -2 -2 45
      vertex -3.5 -2 0
      vertex -2 -2 0
    endloop
  endfacet
  facet normal -1 0 0
    outer loop
      vertex -2 -7 0
      vertex -2 -2 45
      vertex -2 -2 0
    endloop
  endfacet
  facet normal -1 -0 0
    outer loop
      vertex -2 -2 45
      vertex -2 -7 0
      vertex -2 -7 45
    endloop
  endfacet
  facet normal 0 -1 0
    outer loop
      vertex -2 -7 0
      vertex 0 -7 45
      vertex -2 -7 45
    endloop
  endfacet
  facet normal 0 -1 -0
    outer loop
      vertex 0 -7 45
      vertex -2 -7 0
      vertex 0 -7 0
    endloop
  endfacet
  facet normal 1 -0 0
    outer loop
      vertex 0 -7 45
      vertex 0 0 0
      vertex 0 0 45
    endloop
  endfacet
  facet normal 1 0 0
    outer loop
      vertex 0 0 0
      vertex 0 -7 45
      vertex 0 -7 0
    endloop
  endfacet
  facet normal -1 0 0
    outer loop
      vertex -3.5 -2 0
      vertex -3.5 1 45
      vertex -3.5 1 0
    endloop
  endfacet
  facet normal -1 -0 0
    outer loop
      vertex -3.5 1 45
      vertex -3.5 -2 0
      vertex -3.5 -2 45
    endloop
  endfacet
  facet normal 0 -1 0
    outer loop
      vertex -13.5 1 0
      vertex -3.5 1 45
      vertex -13.5 1 45
    endloop
  endfacet
  facet normal 0 -1 -0
    outer loop
      vertex -3.5 1 45
      vertex -13.5 1 0
      vertex -3.5 1 0
    endloop
  endfacet
  facet normal 0.707109 0 -0.707105
    outer loop
      vertex 12.4 14.3815 11.5515
      vertex 7.24852 13.89 6.39999
      vertex 12.4 14.5225 11.5515
    endloop
  endfacet
  facet normal 0.707112 -5.97814e-05 -0.707102
    outer loop
      vertex 7.24852 13.89 6.39999
      vertex 12.4 14.3815 11.5515
      vertex 6.69999 13.6816 5.85147
    endloop
  endfacet
  facet normal 0.70711 -5.01322e-05 -0.707104
    outer loop
      vertex 7.24852 14.696 6.39999
      vertex 6.69999 14.4876 5.85147
      vertex 5.84853 14.5241 5
    endloop
  endfacet
  facet normal 0.7071 0 -0.707113
    outer loop
      vertex 7.24852 13.89 6.39999
      vertex 6.69999 14.4876 5.85147
      vertex 7.24852 14.696 6.39999
    endloop
  endfacet
  facet normal 0.7071 0 -0.707113
    outer loop
      vertex 6.69999 14.4876 5.85147
      vertex 7.24852 13.89 6.39999
      vertex 6.69999 13.6816 5.85147
    endloop
  endfacet
  facet normal 0.707111 0 -0.707103
    outer loop
      vertex 5.84853 14.5241 5
      vertex 6.69999 14.4876 5.85147
      vertex 5.84853 14.3831 5
    endloop
  endfacet
  facet normal 0.707107 0 -0.707107
    outer loop
      vertex 5.3 13.5097 4.45147
      vertex 0.848529 13.1042 0
      vertex 5.3 13.6508 4.45147
    endloop
  endfacet
  facet normal 0.707107 0 -0.707107
    outer loop
      vertex 0.848529 13.1042 0
      vertex 5.3 13.5097 4.45147
      vertex 0.848529 12.9632 0
    endloop
  endfacet
  facet normal 0.707116 0 -0.707098
    outer loop
      vertex 11.5485 -7 10.7
      vertex 10.4 0 9.55147
      vertex 11.5485 0 10.7
    endloop
  endfacet
  facet normal 0.707116 0 -0.707098
    outer loop
      vertex 10.4 0 9.55147
      vertex 11.5485 -7 10.7
      vertex 10.4 -7 9.55147
    endloop
  endfacet
  facet normal 0 -0.121865 -0.992547
    outer loop
      vertex 5.3 11.1582 -14.7
      vertex 6.14 11.9523 -14.7975
      vertex 6.14 11.1582 -14.7
    endloop
  endfacet
  facet normal -0 -0.121865 -0.992547
    outer loop
      vertex 6.14 11.9523 -14.7975
      vertex 5.3 11.1582 -14.7
      vertex 5.3 11.9523 -14.7975
    endloop
  endfacet
  facet normal 1 -0 0
    outer loop
      vertex 6.69999 13.6816 5.85147
      vertex 6.69999 12.1229 -13.4079
      vertex 6.69999 14.4876 5.85147
    endloop
  endfacet
  facet normal 1 0 -0
    outer loop
      vertex 6.69999 12.1229 -13.4079
      vertex 6.69999 13.6816 5.85147
      vertex 6.69999 11.3288 -13.3104
    endloop
  endfacet
  facet normal 1 0 0
    outer loop
      vertex 6.69999 13.8226 6.99999
      vertex 6.69999 14.696 7.54852
      vertex 6.69999 13.89 7.54852
    endloop
  endfacet
  facet normal 1 0 0
    outer loop
      vertex 6.69999 14.696 7.54852
      vertex 6.69999 13.8226 6.99999
      vertex 6.69999 14.555 6.39999
    endloop
  endfacet
  facet normal 1 0 0
    outer loop
      vertex 6.69999 14.555 6.39999
      vertex 6.69999 13.8226 6.99999
      vertex 6.69999 13.8226 6.39999
    endloop
  endfacet
  facet normal 5.2473e-05 0.992546 -0.121867
    outer loop
      vertex 6.69999 12.1229 -13.4079
      vertex 5.84853 14.3831 5
      vertex 6.69999 14.4876 5.85147
    endloop
  endfacet
  facet normal 0 0.992546 -0.121869
    outer loop
      vertex 6.69999 12.1229 -13.4079
      vertex 5.3 14.3831 5
      vertex 5.84853 14.3831 5
    endloop
  endfacet
  facet normal 0 0.992548 -0.121854
    outer loop
      vertex 5.3 11.9523 -14.7975
      vertex 6.69999 12.1229 -13.4079
      vertex 6.14 11.9523 -14.7975
    endloop
  endfacet
  facet normal 1.38295e-05 0.992546 -0.121868
    outer loop
      vertex 6.69999 12.1229 -13.4079
      vertex 5.3 11.9523 -14.7975
      vertex 5.3 14.3831 5
    endloop
  endfacet
  facet normal 0 0.992548 -0.121851
    outer loop
      vertex 6.09999 14.555 6.39999
      vertex 6.69999 14.696 7.54852
      vertex 6.69999 14.555 6.39999
    endloop
  endfacet
  facet normal -4.35789e-05 0.992551 -0.121828
    outer loop
      vertex 6.09999 14.555 6.39999
      vertex 5.3 14.5241 6.14853
      vertex 6.69999 14.696 7.54852
    endloop
  endfacet
  facet normal -5.95306e-05 0.992557 -0.121778
    outer loop
      vertex 5.3 14.5241 6.14853
      vertex 6.09999 14.555 6.39999
      vertex 5.3 14.4568 5.6
    endloop
  endfacet
  facet normal -1 0 0
    outer loop
      vertex 5.3 11.9523 -14.7975
      vertex 5.3 13.6508 4.45147
      vertex 5.3 14.3831 5
    endloop
  endfacet
  facet normal -1 0 0
    outer loop
      vertex 5.3 11.9523 -14.7975
      vertex 5.3 13.5097 4.45147
      vertex 5.3 13.6508 4.45147
    endloop
  endfacet
  facet normal -1 0 0
    outer loop
      vertex 5.3 13.5097 4.45147
      vertex 5.3 11.9523 -14.7975
      vertex 5.3 11.1582 -14.7
    endloop
  endfacet
  facet normal -1 -0 0
    outer loop
      vertex 5.3 14.3831 5
      vertex 5.3 13.6508 4.45147
      vertex 5.3 13.6508 5
    endloop
  endfacet
  facet normal -1 0 0
    outer loop
      vertex 5.3 14.4568 6.14853
      vertex 5.3 14.5241 6.14853
      vertex 5.3 14.4568 5.6
    endloop
  endfacet
  facet normal 0.928482 -0.045258 -0.368609
    outer loop
      vertex 6.69999 11.3288 -13.3104
      vertex 6.14 11.9523 -14.7975
      vertex 6.69999 12.1229 -13.4079
    endloop
  endfacet
  facet normal 0.928482 -0.045258 -0.368609
    outer loop
      vertex 6.14 11.9523 -14.7975
      vertex 6.69999 11.3288 -13.3104
      vertex 6.14 11.1582 -14.7
    endloop
  endfacet
  facet normal -0 0.12188 0.992545
    outer loop
      vertex 15.3 14.5225 12.7
      vertex 16.14 13.7285 12.7975
      vertex 16.14 14.5225 12.7
    endloop
  endfacet
  facet normal 0 0.12188 0.992545
    outer loop
      vertex 16.14 13.7285 12.7975
      vertex 15.3 14.5225 12.7
      vertex 15.3 13.7285 12.7975
    endloop
  endfacet
  facet normal -0 0.121865 0.992547
    outer loop
      vertex 15.3 15.3166 12.6025
      vertex 16.14 14.5225 12.7
      vertex 16.14 15.3166 12.6025
    endloop
  endfacet
  facet normal 0 0.121865 0.992547
    outer loop
      vertex 16.14 14.5225 12.7
      vertex 15.3 15.3166 12.6025
      vertex 15.3 14.5225 12.7
    endloop
  endfacet
  facet normal 0 -0.992511 0.122155
    outer loop
      vertex 15.3 13.7165 12.7
      vertex 16.14 13.7285 12.7975
      vertex 15.3 13.7285 12.7975
    endloop
  endfacet
  facet normal 0 -0.992511 0.122155
    outer loop
      vertex 16.14 13.7285 12.7975
      vertex 15.3 13.7165 12.7
      vertex 16.1793 13.7165 12.7
    endloop
  endfacet
  facet normal -1 0 -0
    outer loop
      vertex 15.3 13.7285 12.7975
      vertex 15.3 14.5225 12.7
      vertex 15.3 13.7165 12.7
    endloop
  endfacet
  facet normal -1 0 0
    outer loop
      vertex 15.3 11.9523 -14.7975
      vertex 15.3 14.5225 12.7
      vertex 15.3 15.3166 12.6025
    endloop
  endfacet
  facet normal -1 0 0
    outer loop
      vertex 15.3 14.5225 12.7
      vertex 15.3 11.9523 -14.7975
      vertex 15.3 11.1582 -14.7
    endloop
  endfacet
  facet normal 0 -0.121865 -0.992547
    outer loop
      vertex 15.3 11.1582 -14.7
      vertex 16.14 11.9523 -14.7975
      vertex 16.14 11.1582 -14.7
    endloop
  endfacet
  facet normal -0 -0.121865 -0.992547
    outer loop
      vertex 16.14 11.9523 -14.7975
      vertex 15.3 11.1582 -14.7
      vertex 15.3 11.9523 -14.7975
    endloop
  endfacet
  facet normal 1 0 0
    outer loop
      vertex 16.7 14.3519 11.3104
      vertex 16.7 12.1229 -13.4079
      vertex 16.7 15.1459 11.2129
    endloop
  endfacet
  facet normal 1 0 -0
    outer loop
      vertex 16.7 12.1229 -13.4079
      vertex 16.7 14.3519 11.3104
      vertex 16.7 11.3288 -13.3104
    endloop
  endfacet
  facet normal 0 0.992539 -0.121925
    outer loop
      vertex 16.7 15.1459 11.2129
      vertex 15.3 15.3166 12.6025
      vertex 16.14 15.3166 12.6025
    endloop
  endfacet
  facet normal 5.78715e-05 0.992546 -0.121867
    outer loop
      vertex 16.7 12.1229 -13.4079
      vertex 15.3 15.3166 12.6025
      vertex 16.7 15.1459 11.2129
    endloop
  endfacet
  facet normal 0 0.992548 -0.121854
    outer loop
      vertex 15.3 11.9523 -14.7975
      vertex 16.7 12.1229 -13.4079
      vertex 16.14 11.9523 -14.7975
    endloop
  endfacet
  facet normal 1.52991e-05 0.992546 -0.121869
    outer loop
      vertex 16.7 12.1229 -13.4079
      vertex 15.3 11.9523 -14.7975
      vertex 15.3 15.3166 12.6025
    endloop
  endfacet
  facet normal 0.92848 -0.0452587 -0.368615
    outer loop
      vertex 16.7 11.3288 -13.3104
      vertex 16.14 11.9523 -14.7975
      vertex 16.7 12.1229 -13.4079
    endloop
  endfacet
  facet normal 0.92848 -0.0452587 -0.368615
    outer loop
      vertex 16.14 11.9523 -14.7975
      vertex 16.7 11.3288 -13.3104
      vertex 16.14 11.1582 -14.7
    endloop
  endfacet
  facet normal 0.928481 0.0452584 0.368612
    outer loop
      vertex 16.14 14.5225 12.7
      vertex 16.7 15.1459 11.2129
      vertex 16.14 15.3166 12.6025
    endloop
  endfacet
  facet normal 0.92848 0.0452644 0.368614
    outer loop
      vertex 16.7 15.1459 11.2129
      vertex 16.14 14.5225 12.7
      vertex 16.7 14.3519 11.3104
    endloop
  endfacet
  facet normal 0.928458 0.045271 0.368668
    outer loop
      vertex 16.1793 13.7165 12.7
      vertex 16.14 14.5225 12.7
      vertex 16.14 13.7285 12.7975
    endloop
  endfacet
  facet normal -0 0.121865 0.992547
    outer loop
      vertex 25.3 15.3166 12.6025
      vertex 26.14 14.5225 12.7
      vertex 26.14 15.3166 12.6025
    endloop
  endfacet
  facet normal 0 0.121865 0.992547
    outer loop
      vertex 26.14 14.5225 12.7
      vertex 25.3 15.3166 12.6025
      vertex 25.3 14.5225 12.7
    endloop
  endfacet
  facet normal -0 0.12188 0.992545
    outer loop
      vertex 25.3 14.5225 12.7
      vertex 26.14 13.7285 12.7975
      vertex 26.14 14.5225 12.7
    endloop
  endfacet
  facet normal 0 0.12188 0.992545
    outer loop
      vertex 26.14 13.7285 12.7975
      vertex 25.3 14.5225 12.7
      vertex 25.3 13.7285 12.7975
    endloop
  endfacet
  facet normal 0 -0.992511 0.122155
    outer loop
      vertex 25.3 13.7165 12.7
      vertex 26.14 13.7285 12.7975
      vertex 25.3 13.7285 12.7975
    endloop
  endfacet
  facet normal 0 -0.992511 0.122155
    outer loop
      vertex 26.14 13.7285 12.7975
      vertex 25.3 13.7165 12.7
      vertex 26.1793 13.7165 12.7
    endloop
  endfacet
  facet normal 0 -0.121865 -0.992547
    outer loop
      vertex 25.3 11.1582 -14.7
      vertex 26.14 11.9523 -14.7975
      vertex 26.14 11.1582 -14.7
    endloop
  endfacet
  facet normal -0 -0.121865 -0.992547
    outer loop
      vertex 26.14 11.9523 -14.7975
      vertex 25.3 11.1582 -14.7
      vertex 25.3 11.9523 -14.7975
    endloop
  endfacet
  facet normal 1 0 0
    outer loop
      vertex 26.7 14.3519 11.3104
      vertex 26.7 12.1229 -13.4079
      vertex 26.7 15.1459 11.2129
    endloop
  endfacet
  facet normal 1 0 -0
    outer loop
      vertex 26.7 12.1229 -13.4079
      vertex 26.7 14.3519 11.3104
      vertex 26.7 11.3288 -13.3104
    endloop
  endfacet
  facet normal 0 0.992539 -0.121925
    outer loop
      vertex 26.7 15.1459 11.2129
      vertex 25.3 15.3166 12.6025
      vertex 26.14 15.3166 12.6025
    endloop
  endfacet
  facet normal 5.78715e-05 0.992546 -0.121867
    outer loop
      vertex 26.7 12.1229 -13.4079
      vertex 25.3 15.3166 12.6025
      vertex 26.7 15.1459 11.2129
    endloop
  endfacet
  facet normal 0 0.992548 -0.121854
    outer loop
      vertex 25.3 11.9523 -14.7975
      vertex 26.7 12.1229 -13.4079
      vertex 26.14 11.9523 -14.7975
    endloop
  endfacet
  facet normal 1.52991e-05 0.992546 -0.121869
    outer loop
      vertex 26.7 12.1229 -13.4079
      vertex 25.3 11.9523 -14.7975
      vertex 25.3 15.3166 12.6025
    endloop
  endfacet
  facet normal -1 0 -0
    outer loop
      vertex 25.3 13.7285 12.7975
      vertex 25.3 14.5225 12.7
      vertex 25.3 13.7165 12.7
    endloop
  endfacet
  facet normal -1 0 0
    outer loop
      vertex 25.3 11.9523 -14.7975
      vertex 25.3 14.5225 12.7
      vertex 25.3 15.3166 12.6025
    endloop
  endfacet
  facet normal -1 0 0
    outer loop
      vertex 25.3 14.5225 12.7
      vertex 25.3 11.9523 -14.7975
      vertex 25.3 11.1582 -14.7
    endloop
  endfacet
  facet normal 0.92848 -0.0452587 -0.368615
    outer loop
      vertex 26.7 11.3288 -13.3104
      vertex 26.14 11.9523 -14.7975
      vertex 26.7 12.1229 -13.4079
    endloop
  endfacet
  facet normal 0.92848 -0.0452587 -0.368615
    outer loop
      vertex 26.14 11.9523 -14.7975
      vertex 26.7 11.3288 -13.3104
      vertex 26.14 11.1582 -14.7
    endloop
  endfacet
  facet normal 0.928481 0.0452584 0.368612
    outer loop
      vertex 26.14 14.5225 12.7
      vertex 26.7 15.1459 11.2129
      vertex 26.14 15.3166 12.6025
    endloop
  endfacet
  facet normal 0.92848 0.0452644 0.368614
    outer loop
      vertex 26.7 15.1459 11.2129
      vertex 26.14 14.5225 12.7
      vertex 26.7 14.3519 11.3104
    endloop
  endfacet
  facet normal 0.928458 0.045271 0.368668
    outer loop
      vertex 26.1793 13.7165 12.7
      vertex 26.14 14.5225 12.7
      vertex 26.14 13.7285 12.7975
    endloop
  endfacet
  facet normal -0 0.12188 0.992545
    outer loop
      vertex 35.3 14.5225 12.7
      vertex 36.14 13.7285 12.7975
      vertex 36.14 14.5225 12.7
    endloop
  endfacet
  facet normal 0 0.12188 0.992545
    outer loop
      vertex 36.14 13.7285 12.7975
      vertex 35.3 14.5225 12.7
      vertex 35.3 13.7285 12.7975
    endloop
  endfacet
  facet normal -0 0.121865 0.992547
    outer loop
      vertex 35.3 15.3166 12.6025
      vertex 36.14 14.5225 12.7
      vertex 36.14 15.3166 12.6025
    endloop
  endfacet
  facet normal 0 0.121865 0.992547
    outer loop
      vertex 36.14 14.5225 12.7
      vertex 35.3 15.3166 12.6025
      vertex 35.3 14.5225 12.7
    endloop
  endfacet
  facet normal 0 -0.992511 0.122155
    outer loop
      vertex 35.3 13.7165 12.7
      vertex 36.14 13.7285 12.7975
      vertex 35.3 13.7285 12.7975
    endloop
  endfacet
  facet normal 0 -0.992511 0.122155
    outer loop
      vertex 36.14 13.7285 12.7975
      vertex 35.3 13.7165 12.7
      vertex 36.1793 13.7165 12.7
    endloop
  endfacet
  facet normal -1 0 -0
    outer loop
      vertex 35.3 13.7285 12.7975
      vertex 35.3 14.5225 12.7
      vertex 35.3 13.7165 12.7
    endloop
  endfacet
  facet normal -1 0 0
    outer loop
      vertex 35.3 11.9523 -14.7975
      vertex 35.3 14.5225 12.7
      vertex 35.3 15.3166 12.6025
    endloop
  endfacet
  facet normal -1 0 0
    outer loop
      vertex 35.3 14.5225 12.7
      vertex 35.3 11.9523 -14.7975
      vertex 35.3 11.1582 -14.7
    endloop
  endfacet
  facet normal 0 -0.121865 -0.992547
    outer loop
      vertex 35.3 11.1582 -14.7
      vertex 36.14 11.9523 -14.7975
      vertex 36.14 11.1582 -14.7
    endloop
  endfacet
  facet normal -0 -0.121865 -0.992547
    outer loop
      vertex 36.14 11.9523 -14.7975
      vertex 35.3 11.1582 -14.7
      vertex 35.3 11.9523 -14.7975
    endloop
  endfacet
  facet normal 1 0 0
    outer loop
      vertex 36.7 14.3519 11.3104
      vertex 36.7 12.1229 -13.4079
      vertex 36.7 15.1459 11.2129
    endloop
  endfacet
  facet normal 1 0 -0
    outer loop
      vertex 36.7 12.1229 -13.4079
      vertex 36.7 14.3519 11.3104
      vertex 36.7 11.3288 -13.3104
    endloop
  endfacet
  facet normal 0 0.992539 -0.121925
    outer loop
      vertex 36.7 15.1459 11.2129
      vertex 35.3 15.3166 12.6025
      vertex 36.14 15.3166 12.6025
    endloop
  endfacet
  facet normal 5.78715e-05 0.992546 -0.121867
    outer loop
      vertex 36.7 12.1229 -13.4079
      vertex 35.3 15.3166 12.6025
      vertex 36.7 15.1459 11.2129
    endloop
  endfacet
  facet normal 0 0.992548 -0.121854
    outer loop
      vertex 35.3 11.9523 -14.7975
      vertex 36.7 12.1229 -13.4079
      vertex 36.14 11.9523 -14.7975
    endloop
  endfacet
  facet normal 1.52991e-05 0.992546 -0.121869
    outer loop
      vertex 36.7 12.1229 -13.4079
      vertex 35.3 11.9523 -14.7975
      vertex 35.3 15.3166 12.6025
    endloop
  endfacet
  facet normal 0.92848 -0.0452587 -0.368615
    outer loop
      vertex 36.7 11.3288 -13.3104
      vertex 36.14 11.9523 -14.7975
      vertex 36.7 12.1229 -13.4079
    endloop
  endfacet
  facet normal 0.92848 -0.0452587 -0.368615
    outer loop
      vertex 36.14 11.9523 -14.7975
      vertex 36.7 11.3288 -13.3104
      vertex 36.14 11.1582 -14.7
    endloop
  endfacet
  facet normal 0.928481 0.0452584 0.368612
    outer loop
      vertex 36.14 14.5225 12.7
      vertex 36.7 15.1459 11.2129
      vertex 36.14 15.3166 12.6025
    endloop
  endfacet
  facet normal 0.92848 0.0452644 0.368614
    outer loop
      vertex 36.7 15.1459 11.2129
      vertex 36.14 14.5225 12.7
      vertex 36.7 14.3519 11.3104
    endloop
  endfacet
  facet normal 0.928458 0.045271 0.368668
    outer loop
      vertex 36.1793 13.7165 12.7
      vertex 36.14 14.5225 12.7
      vertex 36.14 13.7285 12.7975
    endloop
  endfacet
  facet normal -1 0 0
    outer loop
      vertex 0.3 -4 -14.7
      vertex 0.3 1 -13.2
      vertex 0.3 11.1582 -14.7
    endloop
  endfacet
  facet normal -1 -0 0
    outer loop
      vertex 0.3 1 -13.2
      vertex 0.3 -4 -14.7
      vertex 0.3 -2.02 -13.2
    endloop
  endfacet
  facet normal -1 -0 0
    outer loop
      vertex 0.3 -2.02 -13.2
      vertex 0.3 -4 -14.7
      vertex 0.3 -4 -13.2
    endloop
  endfacet
  facet normal -1 0 0
    outer loop
      vertex 0.3 1 -3.2
      vertex 0.3 11.1582 -14.7
      vertex 0.3 1 -13.2
    endloop
  endfacet
  facet normal -1 0 0
    outer loop
      vertex 0.3 11.1582 -14.7
      vertex 0.3 1 -3.2
      vertex 0.3 12.9632 0
    endloop
  endfacet
  facet normal -1 0 0
    outer loop
      vertex 0.3 1 -3.2
      vertex 0.3 0 0
      vertex 0.3 12.9632 0
    endloop
  endfacet
  facet normal -1 0 0
    outer loop
      vertex 0.3 -2 -1.7
      vertex 0.3 1 -3.2
      vertex 0.3 -2 -3.2
    endloop
  endfacet
  facet normal -1 0 0
    outer loop
      vertex 0.3 1 -3.2
      vertex 0.3 -2 -1.7
      vertex 0.3 0 0
    endloop
  endfacet
  facet normal -1 -0 0
    outer loop
      vertex 0.3 0 0
      vertex 0.3 -2 -1.7
      vertex 0.3 0 0.3
    endloop
  endfacet
  facet normal -1 0 0
    outer loop
      vertex 0.3 -7 0.3
      vertex 0.3 -2 -1.7
      vertex 0.3 -7 -1.7
    endloop
  endfacet
  facet normal -1 0 0
    outer loop
      vertex 0.3 -2 -1.7
      vertex 0.3 -7 0.3
      vertex 0.3 0 0.3
    endloop
  endfacet
  facet normal -1 -0 0
    outer loop
      vertex 0.3 13.1042 1.14853
      vertex 0.3 13.0368 0.6
      vertex 0.3 13.0368 1.14853
    endloop
  endfacet
  facet normal 1 -0 0
    outer loop
      vertex 45.3 -7 0.3
      vertex 45.3 -2 -1.7
      vertex 45.3 0 0.3
    endloop
  endfacet
  facet normal 1 0 0
    outer loop
      vertex 45.3 -2 -1.7
      vertex 45.3 -7 0.3
      vertex 45.3 -7 -1.7
    endloop
  endfacet
  facet normal 1 0 0
    outer loop
      vertex 45.3 14.5225 12.7
      vertex 45.3 1 -3.2
      vertex 45.3 11.1582 -14.7
    endloop
  endfacet
  facet normal 1 0 0
    outer loop
      vertex 45.3 0 0.3
      vertex 45.3 14.5225 12.7
      vertex 45.3 0 10.7
    endloop
  endfacet
  facet normal 1 -0 0
    outer loop
      vertex 45.3 -7 12.7
      vertex 45.3 0 10.7
      vertex 45.3 14.5225 12.7
    endloop
  endfacet
  facet normal 1 0 0
    outer loop
      vertex 45.3 0 10.7
      vertex 45.3 -7 12.7
      vertex 45.3 -7 10.7
    endloop
  endfacet
  facet normal 1 -0 0
    outer loop
      vertex 45.3 1 -13.2
      vertex 45.3 11.1582 -14.7
      vertex 45.3 1 -3.2
    endloop
  endfacet
  facet normal 1 0 0
    outer loop
      vertex 45.3 -4 -14.7
      vertex 45.3 1 -13.2
      vertex 45.3 -2.02 -13.2
    endloop
  endfacet
  facet normal 1 0 0
    outer loop
      vertex 45.3 -4 -14.7
      vertex 45.3 -2.02 -13.2
      vertex 45.3 -4 -13.2
    endloop
  endfacet
  facet normal 1 0 0
    outer loop
      vertex 45.3 1 -13.2
      vertex 45.3 -4 -14.7
      vertex 45.3 11.1582 -14.7
    endloop
  endfacet
  facet normal 1 0 0
    outer loop
      vertex 45.3 14.5225 12.7
      vertex 45.3 0 0.3
      vertex 45.3 1 -3.2
    endloop
  endfacet
  facet normal 1 -0 0
    outer loop
      vertex 45.3 -2 -1.7
      vertex 45.3 1 -3.2
      vertex 45.3 0 0.3
    endloop
  endfacet
  facet normal 1 0 0
    outer loop
      vertex 45.3 1 -3.2
      vertex 45.3 -2 -1.7
      vertex 45.3 -2 -3.2
    endloop
  endfacet
  facet normal 0 0 -1
    outer loop
      vertex 11.5485 -7 10.7
      vertex 45.3 0 10.7
      vertex 45.3 -7 10.7
    endloop
  endfacet
  facet normal -0 0 -1
    outer loop
      vertex 45.3 0 10.7
      vertex 11.5485 -7 10.7
      vertex 11.5485 0 10.7
    endloop
  endfacet
  facet normal 0 0 -1
    outer loop
      vertex 9.85147 -7 10.7
      vertex 10.4 0 10.7
      vertex 10.4 -7 10.7
    endloop
  endfacet
  facet normal -0 0 -1
    outer loop
      vertex 10.4 0 10.7
      vertex 9.85147 -7 10.7
      vertex 9.85147 0 10.7
    endloop
  endfacet
  facet normal 0 0 1
    outer loop
      vertex 45.3 14.5225 12.7
      vertex 36.1793 13.7165 12.7
      vertex 45.3 -7 12.7
    endloop
  endfacet
  facet normal 0 0 1
    outer loop
      vertex 45.3 14.5225 12.7
      vertex 36.14 14.5225 12.7
      vertex 36.1793 13.7165 12.7
    endloop
  endfacet
  facet normal 0 0 0
    outer loop
      vertex 45.3 14.5225 12.7
      vertex 35.3 14.5225 12.7
      vertex 36.14 14.5225 12.7
    endloop
  endfacet
  facet normal 0 0 1
    outer loop
      vertex 35.3 14.5225 12.7
      vertex 26.1793 13.7165 12.7
      vertex 35.3 13.7165 12.7
    endloop
  endfacet
  facet normal 0 0 1
    outer loop
      vertex 35.3 14.5225 12.7
      vertex 26.14 14.5225 12.7
      vertex 26.1793 13.7165 12.7
    endloop
  endfacet
  facet normal 0 0 0
    outer loop
      vertex 45.3 14.5225 12.7
      vertex 26.14 14.5225 12.7
      vertex 35.3 14.5225 12.7
    endloop
  endfacet
  facet normal 0 0 0
    outer loop
      vertex 45.3 14.5225 12.7
      vertex 25.3 14.5225 12.7
      vertex 26.14 14.5225 12.7
    endloop
  endfacet
  facet normal 0 0 1
    outer loop
      vertex 25.3 14.5225 12.7
      vertex 16.1793 13.7165 12.7
      vertex 25.3 13.7165 12.7
    endloop
  endfacet
  facet normal 0 0 1
    outer loop
      vertex 25.3 14.5225 12.7
      vertex 16.14 14.5225 12.7
      vertex 16.1793 13.7165 12.7
    endloop
  endfacet
  facet normal 0 0 0
    outer loop
      vertex 45.3 14.5225 12.7
      vertex 16.14 14.5225 12.7
      vertex 25.3 14.5225 12.7
    endloop
  endfacet
  facet normal 0 0 0
    outer loop
      vertex 45.3 14.5225 12.7
      vertex 15.3 14.5225 12.7
      vertex 16.14 14.5225 12.7
    endloop
  endfacet
  facet normal 0 0 1
    outer loop
      vertex 15.3 14.5225 12.7
      vertex 12.4 14.5225 12.7
      vertex 15.3 13.7165 12.7
    endloop
  endfacet
  facet normal 0 0 0
    outer loop
      vertex 12.4 14.5225 12.7
      vertex 15.3 14.5225 12.7
      vertex 45.3 14.5225 12.7
    endloop
  endfacet
  facet normal -0 0 1
    outer loop
      vertex 35.3 13.7165 12.7
      vertex 45.3 -7 12.7
      vertex 36.1793 13.7165 12.7
    endloop
  endfacet
  facet normal -0 0 1
    outer loop
      vertex 26.1793 13.7165 12.7
      vertex 45.3 -7 12.7
      vertex 35.3 13.7165 12.7
    endloop
  endfacet
  facet normal 0 0 1
    outer loop
      vertex 12.4 -7 12.7
      vertex 26.1793 13.7165 12.7
      vertex 25.3 13.7165 12.7
    endloop
  endfacet
  facet normal 0 0 1
    outer loop
      vertex 12.4 -7 12.7
      vertex 25.3 13.7165 12.7
      vertex 16.1793 13.7165 12.7
    endloop
  endfacet
  facet normal 0 0 1
    outer loop
      vertex 12.4 -7 12.7
      vertex 16.1793 13.7165 12.7
      vertex 15.3 13.7165 12.7
    endloop
  endfacet
  facet normal 0 0 1
    outer loop
      vertex 12.4 -7 12.7
      vertex 15.3 13.7165 12.7
      vertex 12.4 14.5225 12.7
    endloop
  endfacet
  facet normal 0 0 1
    outer loop
      vertex 26.1793 13.7165 12.7
      vertex 12.4 -7 12.7
      vertex 45.3 -7 12.7
    endloop
  endfacet
  facet normal -0 0 1
    outer loop
      vertex 11.8515 14.5225 12.7
      vertex 11.8515 14.4552 12.7
      vertex 12.4 14.5225 12.7
    endloop
  endfacet
  facet normal 0 0.992548 -0.121854
    outer loop
      vertex 25.3 14.5225 12.7
      vertex 16.7 14.3519 11.3104
      vertex 16.14 14.5225 12.7
    endloop
  endfacet
  facet normal 2.77168e-06 0.992546 -0.121871
    outer loop
      vertex 25.3 14.5225 12.7
      vertex 16.7 11.3288 -13.3104
      vertex 16.7 14.3519 11.3104
    endloop
  endfacet
  facet normal -2.49055e-06 0.992546 -0.121869
    outer loop
      vertex 25.3 11.1582 -14.7
      vertex 16.7 11.3288 -13.3104
      vertex 25.3 14.5225 12.7
    endloop
  endfacet
  facet normal 0 0.992548 -0.121854
    outer loop
      vertex 16.7 11.3288 -13.3104
      vertex 25.3 11.1582 -14.7
      vertex 16.14 11.1582 -14.7
    endloop
  endfacet
  facet normal 0 0.992548 -0.121854
    outer loop
      vertex 35.3 14.5225 12.7
      vertex 26.7 14.3519 11.3104
      vertex 26.14 14.5225 12.7
    endloop
  endfacet
  facet normal 2.77168e-06 0.992546 -0.121871
    outer loop
      vertex 35.3 14.5225 12.7
      vertex 26.7 11.3288 -13.3104
      vertex 26.7 14.3519 11.3104
    endloop
  endfacet
  facet normal -2.49055e-06 0.992546 -0.121869
    outer loop
      vertex 35.3 11.1582 -14.7
      vertex 26.7 11.3288 -13.3104
      vertex 35.3 14.5225 12.7
    endloop
  endfacet
  facet normal 0 0.992548 -0.121854
    outer loop
      vertex 26.7 11.3288 -13.3104
      vertex 35.3 11.1582 -14.7
      vertex 26.14 11.1582 -14.7
    endloop
  endfacet
  facet normal 0 0 0
    outer loop
      vertex 45.3 14.5225 12.7
      vertex 36.14 14.5225 12.7
      vertex 12.4 14.5225 12.7
    endloop
  endfacet
  facet normal 0 0.992548 -0.121854
    outer loop
      vertex 45.3 14.5225 12.7
      vertex 36.7 14.3519 11.3104
      vertex 36.14 14.5225 12.7
    endloop
  endfacet
  facet normal 2.77168e-06 0.992546 -0.121871
    outer loop
      vertex 45.3 14.5225 12.7
      vertex 36.7 11.3288 -13.3104
      vertex 36.7 14.3519 11.3104
    endloop
  endfacet
  facet normal 0 0 0
    outer loop
      vertex 36.14 11.1582 -14.7
      vertex 26.14 11.1582 -14.7
      vertex 35.3 11.1582 -14.7
    endloop
  endfacet
  facet normal 0 0 0
    outer loop
      vertex 36.14 11.1582 -14.7
      vertex 25.3 11.1582 -14.7
      vertex 26.14 11.1582 -14.7
    endloop
  endfacet
  facet normal 0 0 0
    outer loop
      vertex 36.14 11.1582 -14.7
      vertex 16.14 11.1582 -14.7
      vertex 25.3 11.1582 -14.7
    endloop
  endfacet
  facet normal 0 0 0
    outer loop
      vertex 36.14 11.1582 -14.7
      vertex 15.3 11.1582 -14.7
      vertex 16.14 11.1582 -14.7
    endloop
  endfacet
  facet normal 0 0 0
    outer loop
      vertex 36.14 11.1582 -14.7
      vertex 6.14 11.1582 -14.7
      vertex 15.3 11.1582 -14.7
    endloop
  endfacet
  facet normal 0 0 0
    outer loop
      vertex 36.14 11.1582 -14.7
      vertex 5.3 11.1582 -14.7
      vertex 6.14 11.1582 -14.7
    endloop
  endfacet
  facet normal 0 -0 0
    outer loop
      vertex 36.14 11.1582 -14.7
      vertex 45.3 11.1582 -14.7
      vertex 5.3 11.1582 -14.7
    endloop
  endfacet
  facet normal 0 0.992548 -0.121854
    outer loop
      vertex 36.7 11.3288 -13.3104
      vertex 45.3 11.1582 -14.7
      vertex 36.14 11.1582 -14.7
    endloop
  endfacet
  facet normal -2.49055e-06 0.992546 -0.121869
    outer loop
      vertex 45.3 11.1582 -14.7
      vertex 36.7 11.3288 -13.3104
      vertex 45.3 14.5225 12.7
    endloop
  endfacet
  facet normal 0 0 -0
    outer loop
      vertex 35.3 14.5225 12.7
      vertex 12.4 14.5225 12.7
      vertex 36.14 14.5225 12.7
    endloop
  endfacet
  facet normal 0 0 -0
    outer loop
      vertex 26.14 14.5225 12.7
      vertex 12.4 14.5225 12.7
      vertex 35.3 14.5225 12.7
    endloop
  endfacet
  facet normal 0 0 -0
    outer loop
      vertex 25.3 14.5225 12.7
      vertex 12.4 14.5225 12.7
      vertex 26.14 14.5225 12.7
    endloop
  endfacet
  facet normal 0 0 -0
    outer loop
      vertex 16.14 14.5225 12.7
      vertex 12.4 14.5225 12.7
      vertex 25.3 14.5225 12.7
    endloop
  endfacet
  facet normal 0 0 -0
    outer loop
      vertex 15.3 14.5225 12.7
      vertex 12.4 14.5225 12.7
      vertex 16.14 14.5225 12.7
    endloop
  endfacet
  facet normal 0 0.992548 -0.121854
    outer loop
      vertex 15.3 14.5225 12.7
      vertex 12.4 14.3815 11.5515
      vertex 12.4 14.5225 12.7
    endloop
  endfacet
  facet normal 1.30157e-05 0.992544 -0.121886
    outer loop
      vertex 15.3 14.5225 12.7
      vertex 6.69999 13.6816 5.85147
      vertex 12.4 14.3815 11.5515
    endloop
  endfacet
  facet normal -6.34013e-07 0.992546 -0.121869
    outer loop
      vertex 15.3 11.1582 -14.7
      vertex 6.69999 13.6816 5.85147
      vertex 15.3 14.5225 12.7
    endloop
  endfacet
  facet normal -2.62518e-06 0.992546 -0.12187
    outer loop
      vertex 6.69999 13.6816 5.85147
      vertex 15.3 11.1582 -14.7
      vertex 6.69999 11.3288 -13.3104
    endloop
  endfacet
  facet normal 0 0.992548 -0.121854
    outer loop
      vertex 6.69999 11.3288 -13.3104
      vertex 15.3 11.1582 -14.7
      vertex 6.14 11.1582 -14.7
    endloop
  endfacet
  facet normal 1.57563e-05 0.992546 -0.121869
    outer loop
      vertex 5.3 11.1582 -14.7
      vertex 0.848529 12.9632 0
      vertex 5.3 13.5097 4.45147
    endloop
  endfacet
  facet normal 0 0.992546 -0.121874
    outer loop
      vertex 0.3 11.1582 -14.7
      vertex 0.848529 12.9632 0
      vertex 5.3 11.1582 -14.7
    endloop
  endfacet
  facet normal 0 0.992546 -0.121874
    outer loop
      vertex 0.848529 12.9632 0
      vertex 0.3 11.1582 -14.7
      vertex 0.3 12.9632 0
    endloop
  endfacet
  facet normal 0 0 0
    outer loop
      vertex 0.3 11.1582 -14.7
      vertex 5.3 11.1582 -14.7
      vertex 45.3 11.1582 -14.7
    endloop
  endfacet
  facet normal 0 0.992546 -0.121869
    outer loop
      vertex 4.7 13.5771 5
      vertex 0.3 13.1042 1.14853
      vertex 4.15147 13.5771 5
    endloop
  endfacet
  facet normal 7.7823e-05 0.992535 -0.121957
    outer loop
      vertex 0.3 13.1042 1.14853
      vertex 4.7 13.5771 5
      vertex 0.3 13.0368 0.6
    endloop
  endfacet
  facet normal 0 0.992547 -0.121865
    outer loop
      vertex 12.4 14.5225 12.7
      vertex 6.69999 13.89 7.54852
      vertex 11.8515 14.5225 12.7
    endloop
  endfacet
  facet normal 8.39731e-05 0.992535 -0.121957
    outer loop
      vertex 6.69999 13.89 7.54852
      vertex 12.4 14.5225 12.7
      vertex 6.69999 13.8226 6.99999
    endloop
  endfacet
  facet normal 0 0 -1
    outer loop
      vertex 0.3 -4 -14.7
      vertex 45.3 11.1582 -14.7
      vertex 45.3 -4 -14.7
    endloop
  endfacet
  facet normal -0 0 -1
    outer loop
      vertex 45.3 11.1582 -14.7
      vertex 0.3 -4 -14.7
      vertex 0.3 11.1582 -14.7
    endloop
  endfacet
  facet normal 0 -1 0
    outer loop
      vertex 0.3 -4 -14.7
      vertex 45.3 -4 -13.2
      vertex 0.3 -4 -13.2
    endloop
  endfacet
  facet normal 0 -1 -0
    outer loop
      vertex 45.3 -4 -13.2
      vertex 0.3 -4 -14.7
      vertex 45.3 -4 -14.7
    endloop
  endfacet
  facet normal -0 0 1
    outer loop
      vertex 0.3 -2.02 -13.2
      vertex 45.3 -4 -13.2
      vertex 45.3 -2.02 -13.2
    endloop
  endfacet
  facet normal 0 0 1
    outer loop
      vertex 45.3 -4 -13.2
      vertex 0.3 -2.02 -13.2
      vertex 0.3 -4 -13.2
    endloop
  endfacet
  facet normal -0 0 1
    outer loop
      vertex 0.3 1 -13.2
      vertex 45.3 -2.02 -13.2
      vertex 45.3 1 -13.2
    endloop
  endfacet
  facet normal 0 0 1
    outer loop
      vertex 45.3 -2.02 -13.2
      vertex 0.3 1 -13.2
      vertex 0.3 -2.02 -13.2
    endloop
  endfacet
  facet normal 0 -1 0
    outer loop
      vertex 0.3 -2 -3.2
      vertex 45.3 -2 -1.7
      vertex 0.3 -2 -1.7
    endloop
  endfacet
  facet normal 0 -1 -0
    outer loop
      vertex 45.3 -2 -1.7
      vertex 0.3 -2 -3.2
      vertex 45.3 -2 -3.2
    endloop
  endfacet
  facet normal 0 0 -1
    outer loop
      vertex 0.3 -7 -1.7
      vertex 45.3 -2 -1.7
      vertex 45.3 -7 -1.7
    endloop
  endfacet
  facet normal -0 0 -1
    outer loop
      vertex 45.3 -2 -1.7
      vertex 0.3 -7 -1.7
      vertex 0.3 -2 -1.7
    endloop
  endfacet
  facet normal 0 -1 0
    outer loop
      vertex 0.3 -7 -1.7
      vertex 45.3 -7 0.3
      vertex 0.3 -7 0.3
    endloop
  endfacet
  facet normal 0 -1 -0
    outer loop
      vertex 45.3 -7 0.3
      vertex 0.3 -7 -1.7
      vertex 45.3 -7 -1.7
    endloop
  endfacet
  facet normal -0 0 1
    outer loop
      vertex 0.3 0 0.3
      vertex 45.3 -7 0.3
      vertex 45.3 0 0.3
    endloop
  endfacet
  facet normal 0 0 1
    outer loop
      vertex 45.3 -7 0.3
      vertex 0.3 0 0.3
      vertex 0.3 -7 0.3
    endloop
  endfacet
  facet normal 0 0 -1
    outer loop
      vertex 0.3 -2 -3.2
      vertex 45.3 1 -3.2
      vertex 45.3 -2 -3.2
    endloop
  endfacet
  facet normal -0 0 -1
    outer loop
      vertex 45.3 1 -3.2
      vertex 0.3 -2 -3.2
      vertex 0.3 1 -3.2
    endloop
  endfacet
  facet normal 0 -1 0
    outer loop
      vertex 0.3 1 -13.2
      vertex 45.3 1 -3.2
      vertex 0.3 1 -3.2
    endloop
  endfacet
  facet normal 0 -1 -0
    outer loop
      vertex 45.3 1 -3.2
      vertex 0.3 1 -13.2
      vertex 45.3 1 -13.2
    endloop
  endfacet
  facet normal -0.707093 0 0.707121
    outer loop
      vertex 5.3 14.5241 6.14853
      vertex 5.3 14.4568 6.14853
      vertex 5.55147 14.4876 6.39999
    endloop
  endfacet
  facet normal -0.7071 -0.000104949 0.707113
    outer loop
      vertex 5.55147 14.4876 6.39999
      vertex 6.69999 14.696 7.54852
      vertex 5.3 14.5241 6.14853
    endloop
  endfacet
  facet normal -0.70711 0 0.707104
    outer loop
      vertex 5.55147 14.4876 6.39999
      vertex 6.69999 13.89 7.54852
      vertex 6.69999 14.696 7.54852
    endloop
  endfacet
  facet normal -0.70711 0 0.707104
    outer loop
      vertex 6.69999 13.89 7.54852
      vertex 5.55147 14.4876 6.39999
      vertex 5.55147 13.6816 6.39999
    endloop
  endfacet
  facet normal -0.707105 0 0.707109
    outer loop
      vertex 6.69999 13.89 7.54852
      vertex 11.8515 14.4552 12.7
      vertex 11.8515 14.5225 12.7
    endloop
  endfacet
  facet normal -0.707097 -0.00014323 0.707117
    outer loop
      vertex 11.8515 14.4552 12.7
      vertex 6.69999 13.89 7.54852
      vertex 5.55147 13.6816 6.39999
    endloop
  endfacet
  facet normal -0.707107 0 0.707107
    outer loop
      vertex 0.3 13.1042 1.14853
      vertex 4.15147 13.5097 5
      vertex 4.15147 13.5771 5
    endloop
  endfacet
  facet normal -0.707107 0 0.707107
    outer loop
      vertex 4.15147 13.5097 5
      vertex 0.3 13.1042 1.14853
      vertex 0.3 13.0368 1.14853
    endloop
  endfacet
  facet normal -0.707087 0 0.707126
    outer loop
      vertex 9.85147 -7 10.7
      vertex 10.4 0 11.2485
      vertex 9.85147 0 10.7
    endloop
  endfacet
  facet normal -0.707087 0 0.707126
    outer loop
      vertex 10.4 0 11.2485
      vertex 9.85147 -7 10.7
      vertex 10.4 -7 11.2485
    endloop
  endfacet
endsolid OpenSCAD_Model
