solid plate_chamfered_72x63_5x1mm
  facet normal 0.000000e+00 0.000000e+00 -1.000000e+00
    outer loop
      vertex 1.000000e+01 0.000000e+00 0.000000e+00
      vertex 7.200000e+01 1.000000e+01 0.000000e+00
      vertex 6.200000e+01 0.000000e+00 0.000000e+00
    endloop
  endfacet
  facet normal 0.000000e+00 0.000000e+00 -1.000000e+00
    outer loop
      vertex 1.000000e+01 0.000000e+00 0.000000e+00
      vertex 7.200000e+01 5.350000e+01 0.000000e+00
      vertex 7.200000e+01 1.000000e+01 0.000000e+00
    endloop
  endfacet
  facet normal 0.000000e+00 0.000000e+00 -1.000000e+00
    outer loop
      vertex 1.000000e+01 0.000000e+00 0.000000e+00
      vertex 6.200000e+01 6.350000e+01 0.000000e+00
      vertex 7.200000e+01 5.350000e+01 0.000000e+00
    endloop
  endfacet
  facet normal 0.000000e+00 0.000000e+00 -1.000000e+00
    outer loop
      vertex 1.000000e+01 0.000000e+00 0.000000e+00
      vertex 1.000000e+01 6.350000e+01 0.000000e+00
      vertex 6.200000e+01 6.350000e+01 0.000000e+00
    endloop
  endfacet
  facet normal 0.000000e+00 0.000000e+00 -1.000000e+00
    outer loop
      vertex 1.000000e+01 0.000000e+00 0.000000e+00
      vertex 0.000000e+00 5.350000e+01 0.000000e+00
      vertex 1.000000e+01 6.350000e+01 0.000000e+00
    endloop
  endfacet
  facet normal 0.000000e+00 0.000000e+00 -1.000000e+00
    outer loop
      vertex 1.000000e+01 0.000000e+00 0.000000e+00
      vertex 0.000000e+00 1.000000e+01 0.000000e+00
      vertex 0.000000e+00 5.350000e+01 0.000000e+00
    endloop
  endfacet
  facet normal 0.000000e+00 0.000000e+00 1.000000e+00
    outer loop
      vertex 1.000000e+01 0.000000e+00 1.000000e+00
      vertex 6.200000e+01 0.000000e+00 1.000000e+00
      vertex 7.200000e+01 1.000000e+01 1.000000e+00
    endloop
  endfacet
  facet normal 0.000000e+00 0.000000e+00 1.000000e+00
    outer loop
      vertex 1.000000e+01 0.000000e+00 1.000000e+00
      vertex 7.200000e+01 1.000000e+01 1.000000e+00
      vertex 7.200000e+01 5.350000e+01 1.000000e+00
    endloop
  endfacet
  facet normal 0.000000e+00 0.000000e+00 1.000000e+00
    outer loop
      vertex 1.000000e+01 0.000000e+00 1.000000e+00
      vertex 7.200000e+01 5.350000e+01 1.000000e+00
      vertex 6.200000e+01 6.350000e+01 1.000000e+00
    endloop
  endfacet
  facet normal 0.000000e+00 0.000000e+00 1.000000e+00
    outer loop
      vertex 1.000000e+01 0.000000e+00 1.000000e+00
      vertex 6.200000e+01 6.350000e+01 1.000000e+00
      vertex 1.000000e+01 6.350000e+01 1.000000e+00
    endloop
  endfacet
  facet normal 0.000000e+00 -0.000000e+00 1.000000e+00
    outer loop
      vertex 1.000000e+01 0.000000e+00 1.000000e+00
      vertex 1.000000e+01 6.350000e+01 1.000000e+00
      vertex 0.000000e+00 5.350000e+01 1.000000e+00
    endloop
  endfacet
  facet normal 0.000000e+00 0.000000e+00 1.000000e+00
    outer loop
      vertex 1.000000e+01 0.000000e+00 1.000000e+00
      vertex 0.000000e+00 5.350000e+01 1.000000e+00
      vertex 0.000000e+00 1.000000e+01 1.000000e+00
    endloop
  endfacet
  facet normal 0.000000e+00 -1.000000e+00 0.000000e+00
    outer loop
      vertex 1.000000e+01 0.000000e+00 0.000000e+00
      vertex 6.200000e+01 0.000000e+00 0.000000e+00
      vertex 6.200000e+01 0.000000e+00 1.000000e+00
    endloop
  endfacet
  facet normal 0.000000e+00 -1.000000e+00 0.000000e+00
    outer loop
      vertex 1.000000e+01 0.000000e+00 0.000000e+00
      vertex 6.200000e+01 0.000000e+00 1.000000e+00
      vertex 1.000000e+01 0.000000e+00 1.000000e+00
    endloop
  endfacet
  facet normal 7.071068e-01 -7.071068e-01 0.000000e+00
    outer loop
      vertex 6.200000e+01 0.000000e+00 0.000000e+00
      vertex 7.200000e+01 1.000000e+01 0.000000e+00
      vertex 7.200000e+01 1.000000e+01 1.000000e+00
    endloop
  endfacet
  facet normal 7.071068e-01 -7.071068e-01 0.000000e+00
    outer loop
      vertex 6.200000e+01 0.000000e+00 0.000000e+00
      vertex 7.200000e+01 1.000000e+01 1.000000e+00
      vertex 6.200000e+01 0.000000e+00 1.000000e+00
    endloop
  endfacet
  facet normal 1.000000e+00 0.000000e+00 0.000000e+00
    outer loop
      vertex 7.200000e+01 1.000000e+01 0.000000e+00
      vertex 7.200000e+01 5.350000e+01 0.000000e+00
      vertex 7.200000e+01 5.350000e+01 1.000000e+00
    endloop
  endfacet
  facet normal 1.000000e+00 0.000000e+00 0.000000e+00
    outer loop
      vertex 7.200000e+01 1.000000e+01 0.000000e+00
      vertex 7.200000e+01 5.350000e+01 1.000000e+00
      vertex 7.200000e+01 1.000000e+01 1.000000e+00
    endloop
  endfacet
  facet normal 7.071068e-01 7.071068e-01 0.000000e+00
    outer loop
      vertex 7.200000e+01 5.350000e+01 0.000000e+00
      vertex 6.200000e+01 6.350000e+01 0.000000e+00
      vertex 6.200000e+01 6.350000e+01 1.000000e+00
    endloop
  endfacet
  facet normal 7.071068e-01 7.071068e-01 -0.000000e+00
    outer loop
      vertex 7.200000e+01 5.350000e+01 0.000000e+00
      vertex 6.200000e+01 6.350000e+01 1.000000e+00
      vertex 7.200000e+01 5.350000e+01 1.000000e+00
    endloop
  endfacet
  facet normal 0.000000e+00 1.000000e+00 0.000000e+00
    outer loop
      vertex 6.200000e+01 6.350000e+01 0.000000e+00
      vertex 1.000000e+01 6.350000e+01 0.000000e+00
      vertex 1.000000e+01 6.350000e+01 1.000000e+00
    endloop
  endfacet
  facet normal 0.000000e+00 1.000000e+00 -0.000000e+00
    outer loop
      vertex 6.200000e+01 6.350000e+01 0.000000e+00
      vertex 1.000000e+01 6.350000e+01 1.000000e+00
      vertex 6.200000e+01 6.350000e+01 1.000000e+00
    endloop
  endfacet
  facet normal -7.071068e-01 7.071068e-01 0.000000e+00
    outer loop
      vertex 1.000000e+01 6.350000e+01 0.000000e+00
      vertex 0.000000e+00 5.350000e+01 0.000000e+00
      vertex 0.000000e+00 5.350000e+01 1.000000e+00
    endloop
  endfacet
  facet normal -7.071068e-01 7.071068e-01 0.000000e+00
    outer loop
      vertex 1.000000e+01 6.350000e+01 0.000000e+00
      vertex 0.000000e+00 5.350000e+01 1.000000e+00
      vertex 1.000000e+01 6.350000e+01 1.000000e+00
    endloop
  endfacet
  facet normal -1.000000e+00 0.000000e+00 0.000000e+00
    outer loop
      vertex 0.000000e+00 5.350000e+01 0.000000e+00
      vertex 0.000000e+00 1.000000e+01 0.000000e+00
      vertex 0.000000e+00 1.000000e+01 1.000000e+00
    endloop
  endfacet
  facet normal -1.000000e+00 0.000000e+00 0.000000e+00
    outer loop
      vertex 0.000000e+00 5.350000e+01 0.000000e+00
      vertex 0.000000e+00 1.000000e+01 1.000000e+00
      vertex 0.000000e+00 5.350000e+01 1.000000e+00
    endloop
  endfacet
  facet normal -7.071068e-01 -7.071068e-01 0.000000e+00
    outer loop
      vertex 0.000000e+00 1.000000e+01 0.000000e+00
      vertex 1.000000e+01 0.000000e+00 0.000000e+00
      vertex 1.000000e+01 0.000000e+00 1.000000e+00
    endloop
  endfacet
  facet normal -7.071068e-01 -7.071068e-01 0.000000e+00
    outer loop
      vertex 0.000000e+00 1.000000e+01 0.000000e+00
      vertex 1.000000e+01 0.000000e+00 1.000000e+00
      vertex 0.000000e+00 1.000000e+01 1.000000e+00
    endloop
  endfacet
endsolid plate_chamfered_72x63_5x1mm
