<svg xmlns="http://www.w3.org/2000/svg" width="460" height="360" viewBox="0 0 460 360">
<rect width="460" height="360" fill="#f4f2ec"/>
<text x="20" y="30" font-family="Helvetica,Arial" font-size="20" font-weight="700" fill="#2f3b32">bold-wave</text>
<text x="20" y="50" font-family="Helvetica,Arial" font-size="12" fill="#2f3b32">9 waves &#183; 6.5mm depth &#183; H 125mm &#183; &#8960;132mm &#183; interior &#8960;105mm</text>
<path d="M 251.86,210.00 L 251.84,210.98 L 251.77,211.95 L 251.67,212.92 L 251.52,213.89 L 251.33,214.86 L 251.11,215.82 L 250.84,216.78 L 250.53,217.73 L 250.20,218.67 L 249.82,219.61 L 249.42,220.54 L 248.98,221.45 L 248.52,222.36 L 248.03,223.26 L 247.52,224.16 L 246.99,225.04 L 246.44,225.91 L 245.88,226.77 L 245.30,227.62 L 244.72,228.46 L 244.13,229.30 L 243.53,230.12 L 242.94,230.94 L 242.34,231.75 L 241.75,232.56 L 241.17,233.36 L 240.59,234.15 L 240.03,234.94 L 239.47,235.73 L 238.94,236.51 L 238.42,237.29 L 237.92,238.08 L 237.44,238.86 L 236.98,239.65 L 236.55,240.44 L 236.13,241.24 L 235.75,242.04 L 235.38,242.84 L 235.04,243.66 L 234.73,244.48 L 234.44,245.31 L 234.18,246.15 L 233.94,247.00 L 233.72,247.87 L 233.52,248.74 L 233.35,249.62 L 233.20,250.52 L 233.06,251.43 L 232.94,252.35 L 232.83,253.29 L 232.74,254.23 L 232.65,255.19 L 232.58,256.16 L 232.51,257.14 L 232.44,258.12 L 232.38,259.12 L 232.32,260.12 L 232.25,261.13 L 232.17,262.15 L 232.09,263.17 L 231.99,264.19 L 231.89,265.21 L 231.77,266.23 L 231.63,267.25 L 231.47,268.27 L 231.28,269.28 L 231.08,270.28 L 230.85,271.28 L 230.59,272.26 L 230.30,273.23 L 229.99,274.19 L 229.64,275.13 L 229.26,276.05 L 228.85,276.96 L 228.41,277.84 L 227.93,278.70 L 227.42,279.54 L 226.88,280.35 L 226.30,281.14 L 225.69,281.90 L 225.05,282.64 L 224.37,283.34 L 223.66,284.02 L 222.93,284.67 L 222.16,285.29 L 221.37,285.88 L 220.55,286.44 L 219.71,286.97 L 218.84,287.48 L 217.95,287.95 L 217.05,288.40 L 216.12,288.83 L 215.18,289.23 L 214.23,289.60 L 213.27,289.96 L 212.29,290.29 L 211.31,290.61 L 210.33,290.90 L 209.34,291.19 L 208.35,291.46 L 207.36,291.72 L 206.37,291.97 L 205.39,292.21 L 204.42,292.45 L 203.45,292.68 L 202.48,292.92 L 201.53,293.16 L 200.59,293.40 L 199.67,293.65 L 198.75,293.90 L 197.85,294.17 L 196.96,294.45 L 196.09,294.74 L 195.23,295.05 L 194.39,295.38 L 193.56,295.72 L 192.75,296.08 L 191.96,296.47 L 191.17,296.88 L 190.41,297.30 L 189.65,297.76 L 188.91,298.23 L 188.18,298.73 L 187.45,299.25 L 186.74,299.79 L 186.04,300.36 L 185.34,300.95 L 184.65,301.56 L 183.97,302.18 L 183.29,302.83 L 182.61,303.50 L 181.93,304.18 L 181.25,304.87 L 180.57,305.57 L 179.88,306.29 L 179.19,307.01 L 178.50,307.74 L 177.80,308.47 L 177.09,309.20 L 176.37,309.92 L 175.64,310.64 L 174.90,311.36 L 174.15,312.06 L 173.39,312.75 L 172.61,313.43 L 171.82,314.09 L 171.02,314.72 L 170.21,315.34 L 169.38,315.93 L 168.53,316.49 L 167.68,317.02 L 166.81,317.51 L 165.92,317.98 L 165.03,318.41 L 164.12,318.80 L 163.20,319.15 L 162.27,319.46 L 161.33,319.74 L 160.38,319.97 L 159.42,320.16 L 158.46,320.31 L 157.49,320.42 L 156.51,320.48 L 155.53,320.50 L 154.55,320.49 L 153.56,320.43 L 152.57,320.33 L 151.58,320.20 L 150.59,320.03 L 149.61,319.82 L 148.62,319.58 L 147.64,319.32 L 146.67,319.02 L 145.70,318.69 L 144.73,318.35 L 143.77,317.98 L 142.82,317.59 L 141.87,317.18 L 140.93,316.76 L 140.00,316.33 L 139.08,315.90 L 138.16,315.45 L 137.25,315.01 L 136.35,314.56 L 135.45,314.12 L 134.57,313.68 L 133.68,313.26 L 132.81,312.84 L 131.94,312.43 L 131.07,312.04 L 130.21,311.66 L 129.35,311.31 L 128.50,310.97 L 127.64,310.66 L 126.79,310.36 L 125.93,310.10 L 125.08,309.85 L 124.22,309.64 L 123.36,309.44 L 122.49,309.28 L 121.63,309.14 L 120.75,309.02 L 119.87,308.94 L 118.98,308.87 L 118.09,308.83 L 117.19,308.81 L 116.28,308.82 L 115.36,308.84 L 114.43,308.88 L 113.49,308.94 L 112.54,309.01 L 111.59,309.09 L 110.62,309.19 L 109.64,309.29 L 108.66,309.40 L 107.67,309.51 L 106.67,309.62 L 105.66,309.72 L 104.65,309.83 L 103.63,309.92 L 102.61,310.01 L 101.58,310.08 L 100.56,310.14 L 99.53,310.18 L 98.50,310.19 L 97.47,310.19 L 96.45,310.16 L 95.43,310.11 L 94.42,310.03 L 93.41,309.91 L 92.41,309.77 L 91.43,309.59 L 90.45,309.38 L 89.49,309.13 L 88.54,308.85 L 87.61,308.53 L 86.70,308.17 L 85.80,307.78 L 84.93,307.34 L 84.07,306.87 L 83.24,306.37 L 82.42,305.82 L 81.63,305.25 L 80.87,304.63 L 80.12,303.99 L 79.40,303.31 L 78.71,302.60 L 78.04,301.86 L 77.39,301.10 L 76.77,300.30 L 76.17,299.49 L 75.59,298.65 L 75.03,297.80 L 74.50,296.93 L 73.98,296.04 L 73.48,295.14 L 73.00,294.23 L 72.54,293.31 L 72.09,292.39 L 71.65,291.46 L 71.22,290.53 L 70.80,289.60 L 70.39,288.67 L 69.99,287.75 L 69.59,286.84 L 69.19,285.93 L 68.79,285.04 L 68.39,284.15 L 67.98,283.28 L 67.57,282.43 L 67.15,281.59 L 66.72,280.76 L 66.28,279.95 L 65.83,279.16 L 65.36,278.39 L 64.88,277.64 L 64.38,276.90 L 63.87,276.18 L 63.33,275.48 L 62.78,274.80 L 62.20,274.13 L 61.60,273.48 L 60.99,272.85 L 60.35,272.23 L 59.69,271.63 L 59.01,271.03 L 58.31,270.45 L 57.59,269.87 L 56.85,269.31 L 56.10,268.75 L 55.32,268.20 L 54.54,267.65 L 53.74,267.10 L 52.92,266.55 L 52.10,266.00 L 51.27,265.44 L 50.43,264.89 L 49.59,264.32 L 48.75,263.75 L 47.91,263.17 L 47.07,262.58 L 46.24,261.97 L 45.42,261.35 L 44.60,260.72 L 43.80,260.08 L 43.02,259.41 L 42.25,258.73 L 41.51,258.04 L 40.78,257.32 L 40.09,256.59 L 39.42,255.84 L 38.77,255.07 L 38.16,254.28 L 37.59,253.47 L 37.04,252.65 L 36.54,251.80 L 36.07,250.94 L 35.63,250.06 L 35.24,249.17 L 34.89,248.26 L 34.57,247.33 L 34.30,246.40 L 34.07,245.45 L 33.87,244.48 L 33.72,243.51 L 33.60,242.53 L 33.53,241.54 L 33.49,240.54 L 33.48,239.54 L 33.51,238.53 L 33.58,237.52 L 33.67,236.51 L 33.80,235.50 L 33.95,234.48 L 34.12,233.47 L 34.32,232.46 L 34.54,231.46 L 34.77,230.45 L 35.02,229.46 L 35.28,228.46 L 35.55,227.48 L 35.83,226.50 L 36.11,225.53 L 36.39,224.56 L 36.67,223.60 L 36.95,222.65 L 37.22,221.71 L 37.48,220.78 L 37.73,219.85 L 37.96,218.93 L 38.18,218.01 L 38.38,217.11 L 38.57,216.20 L 38.73,215.31 L 38.87,214.42 L 38.98,213.53 L 39.07,212.64 L 39.14,211.76 L 39.18,210.88 L 39.19,210.00 L 39.18,209.12 L 39.14,208.24 L 39.07,207.36 L 38.98,206.47 L 38.87,205.58 L 38.73,204.69 L 38.57,203.80 L 38.38,202.89 L 38.18,201.99 L 37.96,201.07 L 37.73,200.15 L 37.48,199.22 L 37.22,198.29 L 36.95,197.35 L 36.67,196.40 L 36.39,195.44 L 36.11,194.47 L 35.83,193.50 L 35.55,192.52 L 35.28,191.54 L 35.02,190.54 L 34.77,189.55 L 34.54,188.54 L 34.32,187.54 L 34.12,186.53 L 33.95,185.52 L 33.80,184.50 L 33.67,183.49 L 33.58,182.48 L 33.51,181.47 L 33.48,180.46 L 33.49,179.46 L 33.53,178.46 L 33.60,177.47 L 33.72,176.49 L 33.87,175.52 L 34.07,174.55 L 34.30,173.60 L 34.57,172.67 L 34.89,171.74 L 35.24,170.83 L 35.63,169.94 L 36.07,169.06 L 36.54,168.20 L 37.04,167.35 L 37.59,166.53 L 38.16,165.72 L 38.77,164.93 L 39.42,164.16 L 40.09,163.41 L 40.78,162.68 L 41.51,161.96 L 42.25,161.27 L 43.02,160.59 L 43.80,159.92 L 44.60,159.28 L 45.42,158.65 L 46.24,158.03 L 47.07,157.42 L 47.91,156.83 L 48.75,156.25 L 49.59,155.68 L 50.43,155.11 L 51.27,154.56 L 52.10,154.00 L 52.92,153.45 L 53.74,152.90 L 54.54,152.35 L 55.32,151.80 L 56.10,151.25 L 56.85,150.69 L 57.59,150.13 L 58.31,149.55 L 59.01,148.97 L 59.69,148.37 L 60.35,147.77 L 60.99,147.15 L 61.60,146.52 L 62.20,145.87 L 62.78,145.20 L 63.33,144.52 L 63.87,143.82 L 64.38,143.10 L 64.88,142.36 L 65.36,141.61 L 65.83,140.84 L 66.28,140.05 L 66.72,139.24 L 67.15,138.41 L 67.57,137.57 L 67.98,136.72 L 68.39,135.85 L 68.79,134.96 L 69.19,134.07 L 69.59,133.16 L 69.99,132.25 L 70.39,131.33 L 70.80,130.40 L 71.22,129.47 L 71.65,128.54 L 72.09,127.61 L 72.54,126.69 L 73.00,125.77 L 73.48,124.86 L 73.98,123.96 L 74.50,123.07 L 75.03,122.20 L 75.59,121.35 L 76.17,120.51 L 76.77,119.70 L 77.39,118.90 L 78.04,118.14 L 78.71,117.40 L 79.40,116.69 L 80.12,116.01 L 80.87,115.37 L 81.63,114.75 L 82.42,114.18 L 83.24,113.63 L 84.07,113.13 L 84.93,112.66 L 85.80,112.22 L 86.70,111.83 L 87.61,111.47 L 88.54,111.15 L 89.49,110.87 L 90.45,110.62 L 91.43,110.41 L 92.41,110.23 L 93.41,110.09 L 94.42,109.97 L 95.43,109.89 L 96.45,109.84 L 97.47,109.81 L 98.50,109.81 L 99.53,109.82 L 100.56,109.86 L 101.58,109.92 L 102.61,109.99 L 103.63,110.08 L 104.65,110.17 L 105.66,110.28 L 106.67,110.38 L 107.67,110.49 L 108.66,110.60 L 109.64,110.71 L 110.62,110.81 L 111.59,110.91 L 112.54,110.99 L 113.49,111.06 L 114.43,111.12 L 115.36,111.16 L 116.28,111.18 L 117.19,111.19 L 118.09,111.17 L 118.98,111.13 L 119.87,111.06 L 120.75,110.98 L 121.63,110.86 L 122.49,110.72 L 123.36,110.56 L 124.22,110.36 L 125.08,110.15 L 125.93,109.90 L 126.79,109.64 L 127.64,109.34 L 128.50,109.03 L 129.35,108.69 L 130.21,108.34 L 131.07,107.96 L 131.94,107.57 L 132.81,107.16 L 133.68,106.74 L 134.57,106.32 L 135.45,105.88 L 136.35,105.44 L 137.25,104.99 L 138.16,104.55 L 139.08,104.10 L 140.00,103.67 L 140.93,103.24 L 141.87,102.82 L 142.82,102.41 L 143.77,102.02 L 144.73,101.65 L 145.70,101.31 L 146.67,100.98 L 147.64,100.68 L 148.62,100.42 L 149.61,100.18 L 150.59,99.97 L 151.58,99.80 L 152.57,99.67 L 153.56,99.57 L 154.55,99.51 L 155.53,99.50 L 156.51,99.52 L 157.49,99.58 L 158.46,99.69 L 159.42,99.84 L 160.38,100.03 L 161.33,100.26 L 162.27,100.54 L 163.20,100.85 L 164.12,101.20 L 165.03,101.59 L 165.92,102.02 L 166.81,102.49 L 167.68,102.98 L 168.53,103.51 L 169.38,104.07 L 170.21,104.66 L 171.02,105.28 L 171.82,105.91 L 172.61,106.57 L 173.39,107.25 L 174.15,107.94 L 174.90,108.64 L 175.64,109.36 L 176.37,110.08 L 177.09,110.80 L 177.80,111.53 L 178.50,112.26 L 179.19,112.99 L 179.88,113.71 L 180.57,114.43 L 181.25,115.13 L 181.93,115.82 L 182.61,116.50 L 183.29,117.17 L 183.97,117.82 L 184.65,118.44 L 185.34,119.05 L 186.04,119.64 L 186.74,120.21 L 187.45,120.75 L 188.18,121.27 L 188.91,121.77 L 189.65,122.24 L 190.41,122.70 L 191.17,123.12 L 191.96,123.53 L 192.75,123.92 L 193.56,124.28 L 194.39,124.62 L 195.23,124.95 L 196.09,125.26 L 196.96,125.55 L 197.85,125.83 L 198.75,126.10 L 199.67,126.35 L 200.59,126.60 L 201.53,126.84 L 202.48,127.08 L 203.45,127.32 L 204.42,127.55 L 205.39,127.79 L 206.37,128.03 L 207.36,128.28 L 208.35,128.54 L 209.34,128.81 L 210.33,129.10 L 211.31,129.39 L 212.29,129.71 L 213.27,130.04 L 214.23,130.40 L 215.18,130.77 L 216.12,131.17 L 217.05,131.60 L 217.95,132.05 L 218.84,132.52 L 219.71,133.03 L 220.55,133.56 L 221.37,134.12 L 222.16,134.71 L 222.93,135.33 L 223.66,135.98 L 224.37,136.66 L 225.05,137.36 L 225.69,138.10 L 226.30,138.86 L 226.88,139.65 L 227.42,140.46 L 227.93,141.30 L 228.41,142.16 L 228.85,143.04 L 229.26,143.95 L 229.64,144.87 L 229.99,145.81 L 230.30,146.77 L 230.59,147.74 L 230.85,148.72 L 231.08,149.72 L 231.28,150.72 L 231.47,151.73 L 231.63,152.75 L 231.77,153.77 L 231.89,154.79 L 231.99,155.81 L 232.09,156.83 L 232.17,157.85 L 232.25,158.87 L 232.32,159.88 L 232.38,160.88 L 232.44,161.88 L 232.51,162.86 L 232.58,163.84 L 232.65,164.81 L 232.74,165.77 L 232.83,166.71 L 232.94,167.65 L 233.06,168.57 L 233.20,169.48 L 233.35,170.38 L 233.52,171.26 L 233.72,172.13 L 233.94,173.00 L 234.18,173.85 L 234.44,174.69 L 234.73,175.52 L 235.04,176.34 L 235.38,177.16 L 235.75,177.96 L 236.13,178.76 L 236.55,179.56 L 236.98,180.35 L 237.44,181.14 L 237.92,181.92 L 238.42,182.71 L 238.94,183.49 L 239.47,184.27 L 240.03,185.06 L 240.59,185.85 L 241.17,186.64 L 241.75,187.44 L 242.34,188.25 L 242.94,189.06 L 243.53,189.88 L 244.13,190.70 L 244.72,191.54 L 245.30,192.38 L 245.88,193.23 L 246.44,194.09 L 246.99,194.96 L 247.52,195.84 L 248.03,196.74 L 248.52,197.64 L 248.98,198.55 L 249.42,199.46 L 249.82,200.39 L 250.20,201.33 L 250.53,202.27 L 250.84,203.22 L 251.11,204.18 L 251.33,205.14 L 251.52,206.11 L 251.67,207.08 L 251.77,208.05 L 251.84,209.02 L 251.86,210.00 Z" fill="#3a4a3f" stroke="#2f3b32" stroke-width="1.2"/>
<circle cx="140" cy="210" r="89.25" fill="#cfe3d6" stroke="#2f3b32" stroke-width="0.8"/>
<circle cx="140" cy="210" r="64.60" fill="#7bb661" stroke="#2f3b32" stroke-width="0.8"/>
<text x="140" y="330" font-family="Helvetica,Arial" font-size="11" fill="#2f3b32" text-anchor="middle">top &#8212; flutes + beads (green = bunch)</text>
<path d="M 239.94,307.50 L 239.94,95.00 L 239.58,98.54 L 239.23,102.08 L 238.88,105.62 L 238.53,109.17 L 238.18,112.71 L 237.84,116.25 L 237.50,119.79 L 237.17,123.33 L 236.85,126.88 L 236.54,130.42 L 236.24,133.96 L 235.94,137.50 L 235.66,141.04 L 235.39,144.58 L 235.13,148.12 L 234.89,151.67 L 234.66,155.21 L 234.44,158.75 L 234.24,162.29 L 234.05,165.83 L 233.88,169.38 L 233.73,172.92 L 233.59,176.46 L 233.47,180.00 L 233.37,183.54 L 233.29,187.08 L 233.22,190.62 L 233.18,194.17 L 233.15,197.71 L 233.14,201.25 L 233.15,204.79 L 233.18,208.33 L 233.22,211.88 L 233.29,215.42 L 233.37,218.96 L 233.47,222.50 L 233.59,226.04 L 233.73,229.58 L 233.88,233.12 L 234.05,236.67 L 234.24,240.21 L 234.44,243.75 L 234.66,247.29 L 234.89,250.83 L 235.13,254.38 L 235.39,257.92 L 235.66,261.46 L 235.94,265.00 L 236.24,268.54 L 236.54,272.08 L 236.85,275.62 L 237.17,279.17 L 237.50,282.71 L 237.84,286.25 L 238.18,289.79 L 238.53,293.33 L 238.88,296.88 L 239.23,300.42 L 239.58,303.96 L 239.94,307.50 L 450.06,307.50 L 450.42,303.96 L 450.77,300.42 L 451.12,296.88 L 451.47,293.33 L 451.82,289.79 L 452.16,286.25 L 452.50,282.71 L 452.83,279.17 L 453.15,275.62 L 453.46,272.08 L 453.76,268.54 L 454.06,265.00 L 454.34,261.46 L 454.61,257.92 L 454.87,254.38 L 455.11,250.83 L 455.34,247.29 L 455.56,243.75 L 455.76,240.21 L 455.95,236.67 L 456.12,233.12 L 456.27,229.58 L 456.41,226.04 L 456.53,222.50 L 456.63,218.96 L 456.71,215.42 L 456.78,211.88 L 456.82,208.33 L 456.85,204.79 L 456.86,201.25 L 456.85,197.71 L 456.82,194.17 L 456.78,190.62 L 456.71,187.08 L 456.63,183.54 L 456.53,180.00 L 456.41,176.46 L 456.27,172.92 L 456.12,169.38 L 455.95,165.83 L 455.76,162.29 L 455.56,158.75 L 455.34,155.21 L 455.11,151.67 L 454.87,148.12 L 454.61,144.58 L 454.34,141.04 L 454.06,137.50 L 453.76,133.96 L 453.46,130.42 L 453.15,126.88 L 452.83,123.33 L 452.50,119.79 L 452.16,116.25 L 451.82,112.71 L 451.47,109.17 L 451.12,105.62 L 450.77,102.08 L 450.42,98.54 L 450.06,95.00 Z" fill="#4b5f51" stroke="#2f3b32" stroke-width="1.2"/>
<rect x="255.75" y="95.00" width="178.50" height="205.70" fill="#dfeee6" fill-opacity="0.55" stroke="#2f3b32" stroke-width="0.7" stroke-dasharray="4 3"/>
<text x="345" y="330" font-family="Helvetica,Arial" font-size="11" fill="#2f3b32" text-anchor="middle">side &#8212; dashed = water/bead cavity</text>
</svg>