<svg xmlns="http://www.w3.org/2000/svg" width="460" height="360" viewBox="0 0 460 360">
<rect width="460" height="360" fill="#f4f2ec"/>
<text x="20" y="30" font-family="Helvetica,Arial" font-size="20" font-weight="700" fill="#2f3b32">fine-flute</text>
<text x="20" y="50" font-family="Helvetica,Arial" font-size="12" fill="#2f3b32">24 waves &#183; 2.5mm depth &#183; H 130mm &#183; &#8960;116mm &#183; interior &#8960;105mm</text>
<path d="M 238.26,210.00 L 238.21,210.86 L 238.06,211.71 L 237.82,212.56 L 237.50,213.40 L 237.10,214.24 L 236.66,215.07 L 236.18,215.88 L 235.68,216.69 L 235.18,217.49 L 234.71,218.29 L 234.28,219.08 L 233.90,219.87 L 233.59,220.66 L 233.36,221.46 L 233.21,222.27 L 233.14,223.09 L 233.16,223.92 L 233.25,224.77 L 233.41,225.63 L 233.63,226.51 L 233.88,227.40 L 234.15,228.30 L 234.42,229.21 L 234.68,230.12 L 234.89,231.04 L 235.06,231.95 L 235.15,232.84 L 235.16,233.73 L 235.09,234.59 L 234.91,235.43 L 234.64,236.25 L 234.28,237.03 L 233.82,237.79 L 233.29,238.52 L 232.70,239.23 L 232.05,239.91 L 231.38,240.57 L 230.69,241.23 L 230.00,241.87 L 229.34,242.52 L 228.72,243.17 L 228.14,243.84 L 227.64,244.52 L 227.21,245.23 L 226.85,245.98 L 226.58,246.75 L 226.38,247.56 L 226.25,248.40 L 226.19,249.28 L 226.16,250.18 L 226.18,251.10 L 226.21,252.05 L 226.23,252.99 L 226.24,253.94 L 226.22,254.88 L 226.14,255.80 L 226.00,256.69 L 225.78,257.55 L 225.48,258.36 L 225.10,259.13 L 224.62,259.85 L 224.07,260.51 L 223.43,261.13 L 222.73,261.70 L 221.98,262.22 L 221.18,262.72 L 220.35,263.18 L 219.52,263.63 L 218.69,264.08 L 217.88,264.53 L 217.11,265.00 L 216.38,265.50 L 215.72,266.03 L 215.12,266.60 L 214.58,267.23 L 214.12,267.91 L 213.72,268.64 L 213.37,269.42 L 213.08,270.24 L 212.83,271.11 L 212.60,272.01 L 212.39,272.92 L 212.17,273.85 L 211.93,274.77 L 211.66,275.67 L 211.35,276.53 L 210.98,277.36 L 210.55,278.13 L 210.05,278.84 L 209.48,279.48 L 208.84,280.05 L 208.13,280.55 L 207.36,280.98 L 206.53,281.35 L 205.67,281.66 L 204.77,281.93 L 203.85,282.17 L 202.92,282.39 L 202.01,282.60 L 201.11,282.83 L 200.24,283.08 L 199.42,283.37 L 198.64,283.72 L 197.91,284.12 L 197.23,284.58 L 196.60,285.12 L 196.03,285.72 L 195.50,286.38 L 195.00,287.11 L 194.53,287.88 L 194.08,288.69 L 193.63,289.52 L 193.18,290.35 L 192.72,291.18 L 192.22,291.98 L 191.70,292.73 L 191.13,293.43 L 190.51,294.07 L 189.85,294.62 L 189.13,295.10 L 188.36,295.48 L 187.55,295.78 L 186.69,296.00 L 185.80,296.14 L 184.88,296.22 L 183.94,296.24 L 182.99,296.23 L 182.05,296.21 L 181.10,296.18 L 180.18,296.16 L 179.28,296.19 L 178.40,296.25 L 177.56,296.38 L 176.75,296.58 L 175.98,296.85 L 175.23,297.21 L 174.52,297.64 L 173.84,298.14 L 173.17,298.72 L 172.52,299.34 L 171.87,300.00 L 171.23,300.69 L 170.57,301.38 L 169.91,302.05 L 169.23,302.70 L 168.52,303.29 L 167.79,303.82 L 167.03,304.28 L 166.25,304.64 L 165.43,304.91 L 164.59,305.09 L 163.73,305.16 L 162.84,305.15 L 161.95,305.06 L 161.04,304.89 L 160.12,304.68 L 159.21,304.42 L 158.30,304.15 L 157.40,303.88 L 156.51,303.63 L 155.63,303.41 L 154.77,303.25 L 153.92,303.16 L 153.09,303.14 L 152.27,303.21 L 151.46,303.36 L 150.66,303.59 L 149.87,303.90 L 149.08,304.28 L 148.29,304.71 L 147.49,305.18 L 146.69,305.68 L 145.88,306.18 L 145.07,306.66 L 144.24,307.10 L 143.40,307.50 L 142.56,307.82 L 141.71,308.06 L 140.86,308.21 L 140.00,308.26 L 139.14,308.21 L 138.29,308.06 L 137.44,307.82 L 136.60,307.50 L 135.76,307.10 L 134.93,306.66 L 134.12,306.18 L 133.31,305.68 L 132.51,305.18 L 131.71,304.71 L 130.92,304.28 L 130.13,303.90 L 129.34,303.59 L 128.54,303.36 L 127.73,303.21 L 126.91,303.14 L 126.08,303.16 L 125.23,303.25 L 124.37,303.41 L 123.49,303.63 L 122.60,303.88 L 121.70,304.15 L 120.79,304.42 L 119.88,304.68 L 118.96,304.89 L 118.05,305.06 L 117.16,305.15 L 116.27,305.16 L 115.41,305.09 L 114.57,304.91 L 113.75,304.64 L 112.97,304.28 L 112.21,303.82 L 111.48,303.29 L 110.77,302.70 L 110.09,302.05 L 109.43,301.38 L 108.77,300.69 L 108.13,300.00 L 107.48,299.34 L 106.83,298.72 L 106.16,298.14 L 105.48,297.64 L 104.77,297.21 L 104.02,296.85 L 103.25,296.58 L 102.44,296.38 L 101.60,296.25 L 100.72,296.19 L 99.82,296.16 L 98.90,296.18 L 97.95,296.21 L 97.01,296.23 L 96.06,296.24 L 95.12,296.22 L 94.20,296.14 L 93.31,296.00 L 92.45,295.78 L 91.64,295.48 L 90.87,295.10 L 90.15,294.62 L 89.49,294.07 L 88.87,293.43 L 88.30,292.73 L 87.78,291.98 L 87.28,291.18 L 86.82,290.35 L 86.37,289.52 L 85.92,288.69 L 85.47,287.88 L 85.00,287.11 L 84.50,286.38 L 83.97,285.72 L 83.40,285.12 L 82.77,284.58 L 82.09,284.12 L 81.36,283.72 L 80.58,283.37 L 79.76,283.08 L 78.89,282.83 L 77.99,282.60 L 77.08,282.39 L 76.15,282.17 L 75.23,281.93 L 74.33,281.66 L 73.47,281.35 L 72.64,280.98 L 71.87,280.55 L 71.16,280.05 L 70.52,279.48 L 69.95,278.84 L 69.45,278.13 L 69.02,277.36 L 68.65,276.53 L 68.34,275.67 L 68.07,274.77 L 67.83,273.85 L 67.61,272.92 L 67.40,272.01 L 67.17,271.11 L 66.92,270.24 L 66.63,269.42 L 66.28,268.64 L 65.88,267.91 L 65.42,267.23 L 64.88,266.60 L 64.28,266.03 L 63.62,265.50 L 62.89,265.00 L 62.12,264.53 L 61.31,264.08 L 60.48,263.63 L 59.65,263.18 L 58.82,262.72 L 58.02,262.22 L 57.27,261.70 L 56.57,261.13 L 55.93,260.51 L 55.38,259.85 L 54.90,259.13 L 54.52,258.36 L 54.22,257.55 L 54.00,256.69 L 53.86,255.80 L 53.78,254.88 L 53.76,253.94 L 53.77,252.99 L 53.79,252.05 L 53.82,251.10 L 53.84,250.18 L 53.81,249.28 L 53.75,248.40 L 53.62,247.56 L 53.42,246.75 L 53.15,245.98 L 52.79,245.23 L 52.36,244.52 L 51.86,243.84 L 51.28,243.17 L 50.66,242.52 L 50.00,241.87 L 49.31,241.23 L 48.62,240.57 L 47.95,239.91 L 47.30,239.23 L 46.71,238.52 L 46.18,237.79 L 45.72,237.03 L 45.36,236.25 L 45.09,235.43 L 44.91,234.59 L 44.84,233.73 L 44.85,232.84 L 44.94,231.95 L 45.11,231.04 L 45.32,230.12 L 45.58,229.21 L 45.85,228.30 L 46.12,227.40 L 46.37,226.51 L 46.59,225.63 L 46.75,224.77 L 46.84,223.92 L 46.86,223.09 L 46.79,222.27 L 46.64,221.46 L 46.41,220.66 L 46.10,219.87 L 45.72,219.08 L 45.29,218.29 L 44.82,217.49 L 44.32,216.69 L 43.82,215.88 L 43.34,215.07 L 42.90,214.24 L 42.50,213.40 L 42.18,212.56 L 41.94,211.71 L 41.79,210.86 L 41.74,210.00 L 41.79,209.14 L 41.94,208.29 L 42.18,207.44 L 42.50,206.60 L 42.90,205.76 L 43.34,204.93 L 43.82,204.12 L 44.32,203.31 L 44.82,202.51 L 45.29,201.71 L 45.72,200.92 L 46.10,200.13 L 46.41,199.34 L 46.64,198.54 L 46.79,197.73 L 46.86,196.91 L 46.84,196.08 L 46.75,195.23 L 46.59,194.37 L 46.37,193.49 L 46.12,192.60 L 45.85,191.70 L 45.58,190.79 L 45.32,189.88 L 45.11,188.96 L 44.94,188.05 L 44.85,187.16 L 44.84,186.27 L 44.91,185.41 L 45.09,184.57 L 45.36,183.75 L 45.72,182.97 L 46.18,182.21 L 46.71,181.48 L 47.30,180.77 L 47.95,180.09 L 48.62,179.43 L 49.31,178.77 L 50.00,178.13 L 50.66,177.48 L 51.28,176.83 L 51.86,176.16 L 52.36,175.48 L 52.79,174.77 L 53.15,174.02 L 53.42,173.25 L 53.62,172.44 L 53.75,171.60 L 53.81,170.72 L 53.84,169.82 L 53.82,168.90 L 53.79,167.95 L 53.77,167.01 L 53.76,166.06 L 53.78,165.12 L 53.86,164.20 L 54.00,163.31 L 54.22,162.45 L 54.52,161.64 L 54.90,160.87 L 55.38,160.15 L 55.93,159.49 L 56.57,158.87 L 57.27,158.30 L 58.02,157.78 L 58.82,157.28 L 59.65,156.82 L 60.48,156.37 L 61.31,155.92 L 62.12,155.47 L 62.89,155.00 L 63.62,154.50 L 64.28,153.97 L 64.88,153.40 L 65.42,152.77 L 65.88,152.09 L 66.28,151.36 L 66.63,150.58 L 66.92,149.76 L 67.17,148.89 L 67.40,147.99 L 67.61,147.08 L 67.83,146.15 L 68.07,145.23 L 68.34,144.33 L 68.65,143.47 L 69.02,142.64 L 69.45,141.87 L 69.95,141.16 L 70.52,140.52 L 71.16,139.95 L 71.87,139.45 L 72.64,139.02 L 73.47,138.65 L 74.33,138.34 L 75.23,138.07 L 76.15,137.83 L 77.08,137.61 L 77.99,137.40 L 78.89,137.17 L 79.76,136.92 L 80.58,136.63 L 81.36,136.28 L 82.09,135.88 L 82.77,135.42 L 83.40,134.88 L 83.97,134.28 L 84.50,133.62 L 85.00,132.89 L 85.47,132.12 L 85.92,131.31 L 86.37,130.48 L 86.82,129.65 L 87.28,128.82 L 87.78,128.02 L 88.30,127.27 L 88.87,126.57 L 89.49,125.93 L 90.15,125.38 L 90.87,124.90 L 91.64,124.52 L 92.45,124.22 L 93.31,124.00 L 94.20,123.86 L 95.12,123.78 L 96.06,123.76 L 97.01,123.77 L 97.95,123.79 L 98.90,123.82 L 99.82,123.84 L 100.72,123.81 L 101.60,123.75 L 102.44,123.62 L 103.25,123.42 L 104.02,123.15 L 104.77,122.79 L 105.48,122.36 L 106.16,121.86 L 106.83,121.28 L 107.48,120.66 L 108.13,120.00 L 108.77,119.31 L 109.43,118.62 L 110.09,117.95 L 110.77,117.30 L 111.48,116.71 L 112.21,116.18 L 112.97,115.72 L 113.75,115.36 L 114.57,115.09 L 115.41,114.91 L 116.27,114.84 L 117.16,114.85 L 118.05,114.94 L 118.96,115.11 L 119.88,115.32 L 120.79,115.58 L 121.70,115.85 L 122.60,116.12 L 123.49,116.37 L 124.37,116.59 L 125.23,116.75 L 126.08,116.84 L 126.91,116.86 L 127.73,116.79 L 128.54,116.64 L 129.34,116.41 L 130.13,116.10 L 130.92,115.72 L 131.71,115.29 L 132.51,114.82 L 133.31,114.32 L 134.12,113.82 L 134.93,113.34 L 135.76,112.90 L 136.60,112.50 L 137.44,112.18 L 138.29,111.94 L 139.14,111.79 L 140.00,111.74 L 140.86,111.79 L 141.71,111.94 L 142.56,112.18 L 143.40,112.50 L 144.24,112.90 L 145.07,113.34 L 145.88,113.82 L 146.69,114.32 L 147.49,114.82 L 148.29,115.29 L 149.08,115.72 L 149.87,116.10 L 150.66,116.41 L 151.46,116.64 L 152.27,116.79 L 153.09,116.86 L 153.92,116.84 L 154.77,116.75 L 155.63,116.59 L 156.51,116.37 L 157.40,116.12 L 158.30,115.85 L 159.21,115.58 L 160.12,115.32 L 161.04,115.11 L 161.95,114.94 L 162.84,114.85 L 163.73,114.84 L 164.59,114.91 L 165.43,115.09 L 166.25,115.36 L 167.03,115.72 L 167.79,116.18 L 168.52,116.71 L 169.23,117.30 L 169.91,117.95 L 170.57,118.62 L 171.23,119.31 L 171.87,120.00 L 172.52,120.66 L 173.17,121.28 L 173.84,121.86 L 174.52,122.36 L 175.23,122.79 L 175.98,123.15 L 176.75,123.42 L 177.56,123.62 L 178.40,123.75 L 179.28,123.81 L 180.18,123.84 L 181.10,123.82 L 182.05,123.79 L 182.99,123.77 L 183.94,123.76 L 184.88,123.78 L 185.80,123.86 L 186.69,124.00 L 187.55,124.22 L 188.36,124.52 L 189.13,124.90 L 189.85,125.38 L 190.51,125.93 L 191.13,126.57 L 191.70,127.27 L 192.22,128.02 L 192.72,128.82 L 193.18,129.65 L 193.63,130.48 L 194.08,131.31 L 194.53,132.12 L 195.00,132.89 L 195.50,133.62 L 196.03,134.28 L 196.60,134.88 L 197.23,135.42 L 197.91,135.88 L 198.64,136.28 L 199.42,136.63 L 200.24,136.92 L 201.11,137.17 L 202.01,137.40 L 202.92,137.61 L 203.85,137.83 L 204.77,138.07 L 205.67,138.34 L 206.53,138.65 L 207.36,139.02 L 208.13,139.45 L 208.84,139.95 L 209.48,140.52 L 210.05,141.16 L 210.55,141.87 L 210.98,142.64 L 211.35,143.47 L 211.66,144.33 L 211.93,145.23 L 212.17,146.15 L 212.39,147.08 L 212.60,147.99 L 212.83,148.89 L 213.08,149.76 L 213.37,150.58 L 213.72,151.36 L 214.12,152.09 L 214.58,152.77 L 215.12,153.40 L 215.72,153.97 L 216.38,154.50 L 217.11,155.00 L 217.88,155.47 L 218.69,155.92 L 219.52,156.37 L 220.35,156.82 L 221.18,157.28 L 221.98,157.78 L 222.73,158.30 L 223.43,158.87 L 224.07,159.49 L 224.62,160.15 L 225.10,160.87 L 225.48,161.64 L 225.78,162.45 L 226.00,163.31 L 226.14,164.20 L 226.22,165.12 L 226.24,166.06 L 226.23,167.01 L 226.21,167.95 L 226.18,168.90 L 226.16,169.82 L 226.19,170.72 L 226.25,171.60 L 226.38,172.44 L 226.58,173.25 L 226.85,174.02 L 227.21,174.77 L 227.64,175.48 L 228.14,176.16 L 228.72,176.83 L 229.34,177.48 L 230.00,178.13 L 230.69,178.77 L 231.38,179.43 L 232.05,180.09 L 232.70,180.77 L 233.29,181.48 L 233.82,182.21 L 234.28,182.97 L 234.64,183.75 L 234.91,184.57 L 235.09,185.41 L 235.16,186.27 L 235.15,187.16 L 235.06,188.05 L 234.89,188.96 L 234.68,189.88 L 234.42,190.79 L 234.15,191.70 L 233.88,192.60 L 233.63,193.49 L 233.41,194.37 L 233.25,195.23 L 233.16,196.08 L 233.14,196.91 L 233.21,197.73 L 233.36,198.54 L 233.59,199.34 L 233.90,200.13 L 234.28,200.92 L 234.71,201.71 L 235.18,202.51 L 235.68,203.31 L 236.18,204.12 L 236.66,204.93 L 237.10,205.76 L 237.50,206.60 L 237.82,207.44 L 238.06,208.29 L 238.21,209.14 L 238.26,210.00 Z" fill="#3a4a3f" stroke="#2f3b32" stroke-width="1.2"/>
<circle cx="140" cy="210" r="89.25" fill="#cfe3d6" stroke="#2f3b32" stroke-width="0.8"/>
<circle cx="140" cy="210" r="64.60" fill="#7bb661" stroke="#2f3b32" stroke-width="0.8"/>
<text x="140" y="330" font-family="Helvetica,Arial" font-size="11" fill="#2f3b32" text-anchor="middle">top &#8212; flutes + beads (green = bunch)</text>
<path d="M 246.74,316.00 L 246.74,95.00 L 246.74,98.68 L 246.74,102.37 L 246.74,106.05 L 246.74,109.73 L 246.74,113.42 L 246.74,117.10 L 246.74,120.78 L 246.74,124.47 L 246.74,128.15 L 246.74,131.83 L 246.74,135.52 L 246.74,139.20 L 246.74,142.88 L 246.74,146.57 L 246.74,150.25 L 246.74,153.93 L 246.74,157.62 L 246.74,161.30 L 246.74,164.98 L 246.74,168.67 L 246.74,172.35 L 246.74,176.03 L 246.74,179.72 L 246.74,183.40 L 246.74,187.08 L 246.74,190.77 L 246.74,194.45 L 246.74,198.13 L 246.74,201.82 L 246.74,205.50 L 246.74,209.18 L 246.74,212.87 L 246.74,216.55 L 246.74,220.23 L 246.74,223.92 L 246.74,227.60 L 246.74,231.28 L 246.74,234.97 L 246.74,238.65 L 246.74,242.33 L 246.74,246.02 L 246.74,249.70 L 246.74,253.38 L 246.74,257.07 L 246.74,260.75 L 246.74,264.43 L 246.74,268.12 L 246.74,271.80 L 246.74,275.48 L 246.74,279.17 L 246.74,282.85 L 246.74,286.53 L 246.74,290.22 L 246.74,293.90 L 246.74,297.58 L 246.74,301.27 L 246.74,304.95 L 246.74,308.63 L 246.74,312.32 L 246.74,316.00 L 443.26,316.00 L 443.26,312.32 L 443.26,308.63 L 443.26,304.95 L 443.26,301.27 L 443.26,297.58 L 443.26,293.90 L 443.26,290.22 L 443.26,286.53 L 443.26,282.85 L 443.26,279.17 L 443.26,275.48 L 443.26,271.80 L 443.26,268.12 L 443.26,264.43 L 443.26,260.75 L 443.26,257.07 L 443.26,253.38 L 443.26,249.70 L 443.26,246.02 L 443.26,242.33 L 443.26,238.65 L 443.26,234.97 L 443.26,231.28 L 443.26,227.60 L 443.26,223.92 L 443.26,220.23 L 443.26,216.55 L 443.26,212.87 L 443.26,209.18 L 443.26,205.50 L 443.26,201.82 L 443.26,198.13 L 443.26,194.45 L 443.26,190.77 L 443.26,187.08 L 443.26,183.40 L 443.26,179.72 L 443.26,176.03 L 443.26,172.35 L 443.26,168.67 L 443.26,164.98 L 443.26,161.30 L 443.26,157.62 L 443.26,153.93 L 443.26,150.25 L 443.26,146.57 L 443.26,142.88 L 443.26,139.20 L 443.26,135.52 L 443.26,131.83 L 443.26,128.15 L 443.26,124.47 L 443.26,120.78 L 443.26,117.10 L 443.26,113.42 L 443.26,109.73 L 443.26,106.05 L 443.26,102.37 L 443.26,98.68 L 443.26,95.00 Z" fill="#4b5f51" stroke="#2f3b32" stroke-width="1.2"/>
<rect x="255.75" y="95.00" width="178.50" height="214.20" fill="#dfeee6" fill-opacity="0.55" stroke="#2f3b32" stroke-width="0.7" stroke-dasharray="4 3"/>
<text x="345" y="330" font-family="Helvetica,Arial" font-size="11" fill="#2f3b32" text-anchor="middle">side &#8212; dashed = water/bead cavity</text>
</svg>