<svg xmlns="http://www.w3.org/2000/svg" width="460" height="360" viewBox="0 0 460 360">
<rect width="460" height="360" fill="#f4f2ec"/>
<text x="20" y="30" font-family="Helvetica,Arial" font-size="20" font-weight="700" fill="#2f3b32">zen-tall</text>
<text x="20" y="50" font-family="Helvetica,Arial" font-size="12" fill="#2f3b32">16 waves &#183; 3.5mm depth &#183; H 170mm &#183; &#8960;121mm &#183; interior &#8960;100mm</text>
<path d="M 242.51,210.00 L 242.48,210.89 L 242.38,211.79 L 242.22,212.68 L 242.00,213.56 L 241.72,214.44 L 241.39,215.31 L 241.01,216.18 L 240.59,217.03 L 240.14,217.88 L 239.67,218.72 L 239.18,219.55 L 238.68,220.37 L 238.18,221.19 L 237.69,221.99 L 237.21,222.80 L 236.75,223.60 L 236.33,224.40 L 235.93,225.19 L 235.58,225.99 L 235.27,226.80 L 235.01,227.61 L 234.79,228.43 L 234.63,229.25 L 234.51,230.09 L 234.45,230.94 L 234.42,231.80 L 234.44,232.67 L 234.50,233.56 L 234.59,234.46 L 234.71,235.38 L 234.84,236.30 L 234.99,237.24 L 235.14,238.18 L 235.29,239.13 L 235.42,240.09 L 235.54,241.04 L 235.63,242.00 L 235.69,242.95 L 235.70,243.89 L 235.67,244.82 L 235.59,245.74 L 235.46,246.64 L 235.27,247.53 L 235.02,248.39 L 234.71,249.23 L 234.33,250.04 L 233.90,250.83 L 233.41,251.59 L 232.87,252.32 L 232.27,253.03 L 231.64,253.71 L 230.96,254.36 L 230.24,254.99 L 229.51,255.61 L 228.75,256.20 L 227.98,256.78 L 227.20,257.35 L 226.43,257.91 L 225.66,258.46 L 224.91,259.02 L 224.18,259.59 L 223.48,260.16 L 222.82,260.75 L 222.18,261.35 L 221.59,261.98 L 221.04,262.63 L 220.53,263.30 L 220.06,264.00 L 219.63,264.73 L 219.24,265.49 L 218.89,266.27 L 218.58,267.09 L 218.29,267.93 L 218.03,268.80 L 217.79,269.69 L 217.56,270.59 L 217.33,271.51 L 217.11,272.44 L 216.88,273.38 L 216.64,274.31 L 216.39,275.24 L 216.10,276.16 L 215.79,277.06 L 215.45,277.93 L 215.07,278.78 L 214.64,279.60 L 214.17,280.39 L 213.66,281.13 L 213.09,281.83 L 212.49,282.49 L 211.83,283.09 L 211.13,283.66 L 210.39,284.17 L 209.60,284.64 L 208.78,285.07 L 207.93,285.45 L 207.06,285.79 L 206.16,286.10 L 205.24,286.39 L 204.31,286.64 L 203.38,286.88 L 202.44,287.11 L 201.51,287.33 L 200.59,287.56 L 199.69,287.79 L 198.80,288.03 L 197.93,288.29 L 197.09,288.58 L 196.27,288.89 L 195.49,289.24 L 194.73,289.63 L 194.00,290.06 L 193.30,290.53 L 192.63,291.04 L 191.98,291.59 L 191.35,292.18 L 190.75,292.82 L 190.16,293.48 L 189.59,294.18 L 189.02,294.91 L 188.46,295.66 L 187.91,296.43 L 187.35,297.20 L 186.78,297.98 L 186.20,298.75 L 185.61,299.51 L 184.99,300.24 L 184.36,300.96 L 183.71,301.64 L 183.03,302.27 L 182.32,302.87 L 181.59,303.41 L 180.83,303.90 L 180.04,304.33 L 179.23,304.71 L 178.39,305.02 L 177.53,305.27 L 176.64,305.46 L 175.74,305.59 L 174.82,305.67 L 173.89,305.70 L 172.95,305.69 L 172.00,305.63 L 171.04,305.54 L 170.09,305.42 L 169.13,305.29 L 168.18,305.14 L 167.24,304.99 L 166.30,304.84 L 165.38,304.71 L 164.46,304.59 L 163.56,304.50 L 162.67,304.44 L 161.80,304.42 L 160.94,304.45 L 160.09,304.51 L 159.25,304.63 L 158.43,304.79 L 157.61,305.01 L 156.80,305.27 L 155.99,305.58 L 155.19,305.93 L 154.40,306.33 L 153.60,306.75 L 152.80,307.21 L 151.99,307.69 L 151.19,308.18 L 150.37,308.68 L 149.55,309.18 L 148.72,309.67 L 147.88,310.14 L 147.03,310.59 L 146.18,311.01 L 145.31,311.39 L 144.44,311.72 L 143.56,312.00 L 142.68,312.22 L 141.79,312.38 L 140.89,312.48 L 140.00,312.51 L 139.11,312.48 L 138.21,312.38 L 137.32,312.22 L 136.44,312.00 L 135.56,311.72 L 134.69,311.39 L 133.82,311.01 L 132.97,310.59 L 132.12,310.14 L 131.28,309.67 L 130.45,309.18 L 129.63,308.68 L 128.81,308.18 L 128.01,307.69 L 127.20,307.21 L 126.40,306.75 L 125.60,306.33 L 124.81,305.93 L 124.01,305.58 L 123.20,305.27 L 122.39,305.01 L 121.57,304.79 L 120.75,304.63 L 119.91,304.51 L 119.06,304.45 L 118.20,304.42 L 117.33,304.44 L 116.44,304.50 L 115.54,304.59 L 114.62,304.71 L 113.70,304.84 L 112.76,304.99 L 111.82,305.14 L 110.87,305.29 L 109.91,305.42 L 108.96,305.54 L 108.00,305.63 L 107.05,305.69 L 106.11,305.70 L 105.18,305.67 L 104.26,305.59 L 103.36,305.46 L 102.47,305.27 L 101.61,305.02 L 100.77,304.71 L 99.96,304.33 L 99.17,303.90 L 98.41,303.41 L 97.68,302.87 L 96.97,302.27 L 96.29,301.64 L 95.64,300.96 L 95.01,300.24 L 94.39,299.51 L 93.80,298.75 L 93.22,297.98 L 92.65,297.20 L 92.09,296.43 L 91.54,295.66 L 90.98,294.91 L 90.41,294.18 L 89.84,293.48 L 89.25,292.82 L 88.65,292.18 L 88.02,291.59 L 87.37,291.04 L 86.70,290.53 L 86.00,290.06 L 85.27,289.63 L 84.51,289.24 L 83.73,288.89 L 82.91,288.58 L 82.07,288.29 L 81.20,288.03 L 80.31,287.79 L 79.41,287.56 L 78.49,287.33 L 77.56,287.11 L 76.62,286.88 L 75.69,286.64 L 74.76,286.39 L 73.84,286.10 L 72.94,285.79 L 72.07,285.45 L 71.22,285.07 L 70.40,284.64 L 69.61,284.17 L 68.87,283.66 L 68.17,283.09 L 67.51,282.49 L 66.91,281.83 L 66.34,281.13 L 65.83,280.39 L 65.36,279.60 L 64.93,278.78 L 64.55,277.93 L 64.21,277.06 L 63.90,276.16 L 63.61,275.24 L 63.36,274.31 L 63.12,273.38 L 62.89,272.44 L 62.67,271.51 L 62.44,270.59 L 62.21,269.69 L 61.97,268.80 L 61.71,267.93 L 61.42,267.09 L 61.11,266.27 L 60.76,265.49 L 60.37,264.73 L 59.94,264.00 L 59.47,263.30 L 58.96,262.63 L 58.41,261.98 L 57.82,261.35 L 57.18,260.75 L 56.52,260.16 L 55.82,259.59 L 55.09,259.02 L 54.34,258.46 L 53.57,257.91 L 52.80,257.35 L 52.02,256.78 L 51.25,256.20 L 50.49,255.61 L 49.76,254.99 L 49.04,254.36 L 48.36,253.71 L 47.73,253.03 L 47.13,252.32 L 46.59,251.59 L 46.10,250.83 L 45.67,250.04 L 45.29,249.23 L 44.98,248.39 L 44.73,247.53 L 44.54,246.64 L 44.41,245.74 L 44.33,244.82 L 44.30,243.89 L 44.31,242.95 L 44.37,242.00 L 44.46,241.04 L 44.58,240.09 L 44.71,239.13 L 44.86,238.18 L 45.01,237.24 L 45.16,236.30 L 45.29,235.38 L 45.41,234.46 L 45.50,233.56 L 45.56,232.67 L 45.58,231.80 L 45.55,230.94 L 45.49,230.09 L 45.37,229.25 L 45.21,228.43 L 44.99,227.61 L 44.73,226.80 L 44.42,225.99 L 44.07,225.19 L 43.67,224.40 L 43.25,223.60 L 42.79,222.80 L 42.31,221.99 L 41.82,221.19 L 41.32,220.37 L 40.82,219.55 L 40.33,218.72 L 39.86,217.88 L 39.41,217.03 L 38.99,216.18 L 38.61,215.31 L 38.28,214.44 L 38.00,213.56 L 37.78,212.68 L 37.62,211.79 L 37.52,210.89 L 37.49,210.00 L 37.52,209.11 L 37.62,208.21 L 37.78,207.32 L 38.00,206.44 L 38.28,205.56 L 38.61,204.69 L 38.99,203.82 L 39.41,202.97 L 39.86,202.12 L 40.33,201.28 L 40.82,200.45 L 41.32,199.63 L 41.82,198.81 L 42.31,198.01 L 42.79,197.20 L 43.25,196.40 L 43.67,195.60 L 44.07,194.81 L 44.42,194.01 L 44.73,193.20 L 44.99,192.39 L 45.21,191.57 L 45.37,190.75 L 45.49,189.91 L 45.55,189.06 L 45.58,188.20 L 45.56,187.33 L 45.50,186.44 L 45.41,185.54 L 45.29,184.62 L 45.16,183.70 L 45.01,182.76 L 44.86,181.82 L 44.71,180.87 L 44.58,179.91 L 44.46,178.96 L 44.37,178.00 L 44.31,177.05 L 44.30,176.11 L 44.33,175.18 L 44.41,174.26 L 44.54,173.36 L 44.73,172.47 L 44.98,171.61 L 45.29,170.77 L 45.67,169.96 L 46.10,169.17 L 46.59,168.41 L 47.13,167.68 L 47.73,166.97 L 48.36,166.29 L 49.04,165.64 L 49.76,165.01 L 50.49,164.39 L 51.25,163.80 L 52.02,163.22 L 52.80,162.65 L 53.57,162.09 L 54.34,161.54 L 55.09,160.98 L 55.82,160.41 L 56.52,159.84 L 57.18,159.25 L 57.82,158.65 L 58.41,158.02 L 58.96,157.37 L 59.47,156.70 L 59.94,156.00 L 60.37,155.27 L 60.76,154.51 L 61.11,153.73 L 61.42,152.91 L 61.71,152.07 L 61.97,151.20 L 62.21,150.31 L 62.44,149.41 L 62.67,148.49 L 62.89,147.56 L 63.12,146.62 L 63.36,145.69 L 63.61,144.76 L 63.90,143.84 L 64.21,142.94 L 64.55,142.07 L 64.93,141.22 L 65.36,140.40 L 65.83,139.61 L 66.34,138.87 L 66.91,138.17 L 67.51,137.51 L 68.17,136.91 L 68.87,136.34 L 69.61,135.83 L 70.40,135.36 L 71.22,134.93 L 72.07,134.55 L 72.94,134.21 L 73.84,133.90 L 74.76,133.61 L 75.69,133.36 L 76.62,133.12 L 77.56,132.89 L 78.49,132.67 L 79.41,132.44 L 80.31,132.21 L 81.20,131.97 L 82.07,131.71 L 82.91,131.42 L 83.73,131.11 L 84.51,130.76 L 85.27,130.37 L 86.00,129.94 L 86.70,129.47 L 87.37,128.96 L 88.02,128.41 L 88.65,127.82 L 89.25,127.18 L 89.84,126.52 L 90.41,125.82 L 90.98,125.09 L 91.54,124.34 L 92.09,123.57 L 92.65,122.80 L 93.22,122.02 L 93.80,121.25 L 94.39,120.49 L 95.01,119.76 L 95.64,119.04 L 96.29,118.36 L 96.97,117.73 L 97.68,117.13 L 98.41,116.59 L 99.17,116.10 L 99.96,115.67 L 100.77,115.29 L 101.61,114.98 L 102.47,114.73 L 103.36,114.54 L 104.26,114.41 L 105.18,114.33 L 106.11,114.30 L 107.05,114.31 L 108.00,114.37 L 108.96,114.46 L 109.91,114.58 L 110.87,114.71 L 111.82,114.86 L 112.76,115.01 L 113.70,115.16 L 114.62,115.29 L 115.54,115.41 L 116.44,115.50 L 117.33,115.56 L 118.20,115.58 L 119.06,115.55 L 119.91,115.49 L 120.75,115.37 L 121.57,115.21 L 122.39,114.99 L 123.20,114.73 L 124.01,114.42 L 124.81,114.07 L 125.60,113.67 L 126.40,113.25 L 127.20,112.79 L 128.01,112.31 L 128.81,111.82 L 129.63,111.32 L 130.45,110.82 L 131.28,110.33 L 132.12,109.86 L 132.97,109.41 L 133.82,108.99 L 134.69,108.61 L 135.56,108.28 L 136.44,108.00 L 137.32,107.78 L 138.21,107.62 L 139.11,107.52 L 140.00,107.49 L 140.89,107.52 L 141.79,107.62 L 142.68,107.78 L 143.56,108.00 L 144.44,108.28 L 145.31,108.61 L 146.18,108.99 L 147.03,109.41 L 147.88,109.86 L 148.72,110.33 L 149.55,110.82 L 150.37,111.32 L 151.19,111.82 L 151.99,112.31 L 152.80,112.79 L 153.60,113.25 L 154.40,113.67 L 155.19,114.07 L 155.99,114.42 L 156.80,114.73 L 157.61,114.99 L 158.43,115.21 L 159.25,115.37 L 160.09,115.49 L 160.94,115.55 L 161.80,115.58 L 162.67,115.56 L 163.56,115.50 L 164.46,115.41 L 165.38,115.29 L 166.30,115.16 L 167.24,115.01 L 168.18,114.86 L 169.13,114.71 L 170.09,114.58 L 171.04,114.46 L 172.00,114.37 L 172.95,114.31 L 173.89,114.30 L 174.82,114.33 L 175.74,114.41 L 176.64,114.54 L 177.53,114.73 L 178.39,114.98 L 179.23,115.29 L 180.04,115.67 L 180.83,116.10 L 181.59,116.59 L 182.32,117.13 L 183.03,117.73 L 183.71,118.36 L 184.36,119.04 L 184.99,119.76 L 185.61,120.49 L 186.20,121.25 L 186.78,122.02 L 187.35,122.80 L 187.91,123.57 L 188.46,124.34 L 189.02,125.09 L 189.59,125.82 L 190.16,126.52 L 190.75,127.18 L 191.35,127.82 L 191.98,128.41 L 192.63,128.96 L 193.30,129.47 L 194.00,129.94 L 194.73,130.37 L 195.49,130.76 L 196.27,131.11 L 197.09,131.42 L 197.93,131.71 L 198.80,131.97 L 199.69,132.21 L 200.59,132.44 L 201.51,132.67 L 202.44,132.89 L 203.38,133.12 L 204.31,133.36 L 205.24,133.61 L 206.16,133.90 L 207.06,134.21 L 207.93,134.55 L 208.78,134.93 L 209.60,135.36 L 210.39,135.83 L 211.13,136.34 L 211.83,136.91 L 212.49,137.51 L 213.09,138.17 L 213.66,138.87 L 214.17,139.61 L 214.64,140.40 L 215.07,141.22 L 215.45,142.07 L 215.79,142.94 L 216.10,143.84 L 216.39,144.76 L 216.64,145.69 L 216.88,146.62 L 217.11,147.56 L 217.33,148.49 L 217.56,149.41 L 217.79,150.31 L 218.03,151.20 L 218.29,152.07 L 218.58,152.91 L 218.89,153.73 L 219.24,154.51 L 219.63,155.27 L 220.06,156.00 L 220.53,156.70 L 221.04,157.37 L 221.59,158.02 L 222.18,158.65 L 222.82,159.25 L 223.48,159.84 L 224.18,160.41 L 224.91,160.98 L 225.66,161.54 L 226.43,162.09 L 227.20,162.65 L 227.98,163.22 L 228.75,163.80 L 229.51,164.39 L 230.24,165.01 L 230.96,165.64 L 231.64,166.29 L 232.27,166.97 L 232.87,167.68 L 233.41,168.41 L 233.90,169.17 L 234.33,169.96 L 234.71,170.77 L 235.02,171.61 L 235.27,172.47 L 235.46,173.36 L 235.59,174.26 L 235.67,175.18 L 235.70,176.11 L 235.69,177.05 L 235.63,178.00 L 235.54,178.96 L 235.42,179.91 L 235.29,180.87 L 235.14,181.82 L 234.99,182.76 L 234.84,183.70 L 234.71,184.62 L 234.59,185.54 L 234.50,186.44 L 234.44,187.33 L 234.42,188.20 L 234.45,189.06 L 234.51,189.91 L 234.63,190.75 L 234.79,191.57 L 235.01,192.39 L 235.27,193.20 L 235.58,194.01 L 235.93,194.81 L 236.33,195.60 L 236.75,196.40 L 237.21,197.20 L 237.69,198.01 L 238.18,198.81 L 238.68,199.63 L 239.18,200.45 L 239.67,201.28 L 240.14,202.12 L 240.59,202.97 L 241.01,203.82 L 241.39,204.69 L 241.72,205.56 L 242.00,206.44 L 242.22,207.32 L 242.38,208.21 L 242.48,209.11 L 242.51,210.00 Z" fill="#3a4a3f" stroke="#2f3b32" stroke-width="1.2"/>
<circle cx="140" cy="210" r="85.00" fill="#cfe3d6" stroke="#2f3b32" stroke-width="0.8"/>
<circle cx="140" cy="210" r="64.60" fill="#7bb661" stroke="#2f3b32" stroke-width="0.8"/>
<text x="140" y="330" font-family="Helvetica,Arial" font-size="11" fill="#2f3b32" text-anchor="middle">top &#8212; flutes + beads (green = bunch)</text>
<path d="M 249.29,384.00 L 249.29,95.00 L 248.93,99.82 L 248.58,104.63 L 248.23,109.45 L 247.88,114.27 L 247.53,119.08 L 247.19,123.90 L 246.85,128.72 L 246.52,133.53 L 246.20,138.35 L 245.89,143.17 L 245.59,147.98 L 245.29,152.80 L 245.01,157.62 L 244.74,162.43 L 244.48,167.25 L 244.24,172.07 L 244.01,176.88 L 243.79,181.70 L 243.59,186.52 L 243.40,191.33 L 243.23,196.15 L 243.08,200.97 L 242.94,205.78 L 242.82,210.60 L 242.72,215.42 L 242.64,220.23 L 242.57,225.05 L 242.53,229.87 L 242.50,234.68 L 242.49,239.50 L 242.50,244.32 L 242.53,249.13 L 242.57,253.95 L 242.64,258.77 L 242.72,263.58 L 242.82,268.40 L 242.94,273.22 L 243.08,278.03 L 243.23,282.85 L 243.40,287.67 L 243.59,292.48 L 243.79,297.30 L 244.01,302.12 L 244.24,306.93 L 244.48,311.75 L 244.74,316.57 L 245.01,321.38 L 245.29,326.20 L 245.59,331.02 L 245.89,335.83 L 246.20,340.65 L 246.52,345.47 L 246.85,350.28 L 247.19,355.10 L 247.53,359.92 L 247.88,364.73 L 248.23,369.55 L 248.58,374.37 L 248.93,379.18 L 249.29,384.00 L 440.71,384.00 L 441.07,379.18 L 441.42,374.37 L 441.77,369.55 L 442.12,364.73 L 442.47,359.92 L 442.81,355.10 L 443.15,350.28 L 443.48,345.47 L 443.80,340.65 L 444.11,335.83 L 444.41,331.02 L 444.71,326.20 L 444.99,321.38 L 445.26,316.57 L 445.52,311.75 L 445.76,306.93 L 445.99,302.12 L 446.21,297.30 L 446.41,292.48 L 446.60,287.67 L 446.77,282.85 L 446.92,278.03 L 447.06,273.22 L 447.18,268.40 L 447.28,263.58 L 447.36,258.77 L 447.43,253.95 L 447.47,249.13 L 447.50,244.32 L 447.51,239.50 L 447.50,234.68 L 447.47,229.87 L 447.43,225.05 L 447.36,220.23 L 447.28,215.42 L 447.18,210.60 L 447.06,205.78 L 446.92,200.97 L 446.77,196.15 L 446.60,191.33 L 446.41,186.52 L 446.21,181.70 L 445.99,176.88 L 445.76,172.07 L 445.52,167.25 L 445.26,162.43 L 444.99,157.62 L 444.71,152.80 L 444.41,147.98 L 444.11,143.17 L 443.80,138.35 L 443.48,133.53 L 443.15,128.72 L 442.81,123.90 L 442.47,119.08 L 442.12,114.27 L 441.77,109.45 L 441.42,104.63 L 441.07,99.82 L 440.71,95.00 Z" fill="#4b5f51" stroke="#2f3b32" stroke-width="1.2"/>
<rect x="260.00" y="95.00" width="170.00" height="282.20" fill="#dfeee6" fill-opacity="0.55" stroke="#2f3b32" stroke-width="0.7" stroke-dasharray="4 3"/>
<text x="345" y="330" font-family="Helvetica,Arial" font-size="11" fill="#2f3b32" text-anchor="middle">side &#8212; dashed = water/bead cavity</text>
</svg>