<svg xmlns="http://www.w3.org/2000/svg" width="460" height="360" viewBox="0 0 460 360">
<rect width="460" height="360" fill="#f4f2ec"/>
<text x="20" y="30" font-family="Helvetica,Arial" font-size="20" font-weight="700" fill="#2f3b32">zen-mini</text>
<text x="20" y="50" font-family="Helvetica,Arial" font-size="12" fill="#2f3b32">12 waves &#183; 4.0mm depth &#183; H 90mm &#183; &#8960;109mm &#183; interior &#8960;95mm</text>
<path d="M 232.31,210.00 L 232.29,210.81 L 232.22,211.61 L 232.11,212.41 L 231.96,213.21 L 231.77,214.01 L 231.54,214.80 L 231.27,215.58 L 230.96,216.36 L 230.63,217.13 L 230.27,217.90 L 229.88,218.65 L 229.47,219.40 L 229.04,220.14 L 228.60,220.88 L 228.15,221.61 L 227.69,222.32 L 227.23,223.04 L 226.78,223.74 L 226.33,224.45 L 225.89,225.14 L 225.46,225.84 L 225.04,226.53 L 224.65,227.22 L 224.28,227.91 L 223.93,228.61 L 223.60,229.30 L 223.31,230.00 L 223.04,230.70 L 222.80,231.41 L 222.60,232.13 L 222.42,232.86 L 222.27,233.59 L 222.15,234.33 L 222.05,235.09 L 221.99,235.85 L 221.94,236.62 L 221.92,237.41 L 221.91,238.21 L 221.93,239.01 L 221.95,239.83 L 221.98,240.65 L 222.02,241.49 L 222.07,242.33 L 222.11,243.17 L 222.14,244.02 L 222.17,244.88 L 222.18,245.73 L 222.18,246.59 L 222.16,247.44 L 222.12,248.29 L 222.05,249.14 L 221.96,249.97 L 221.83,250.80 L 221.67,251.61 L 221.48,252.41 L 221.25,253.20 L 220.98,253.97 L 220.67,254.72 L 220.33,255.45 L 219.94,256.15 L 219.52,256.84 L 219.06,257.50 L 218.57,258.14 L 218.03,258.76 L 217.47,259.35 L 216.87,259.92 L 216.25,260.47 L 215.60,260.99 L 214.92,261.49 L 214.22,261.97 L 213.51,262.43 L 212.78,262.88 L 212.04,263.31 L 211.29,263.72 L 210.54,264.12 L 209.78,264.52 L 209.03,264.91 L 208.28,265.29 L 207.54,265.67 L 206.81,266.06 L 206.09,266.44 L 205.38,266.84 L 204.70,267.24 L 204.03,267.65 L 203.38,268.08 L 202.75,268.52 L 202.15,268.98 L 201.56,269.45 L 201.00,269.95 L 200.46,270.46 L 199.95,271.00 L 199.45,271.56 L 198.98,272.15 L 198.52,272.75 L 198.08,273.38 L 197.65,274.03 L 197.24,274.70 L 196.84,275.38 L 196.44,276.09 L 196.06,276.81 L 195.67,277.54 L 195.29,278.28 L 194.91,279.03 L 194.52,279.78 L 194.12,280.54 L 193.72,281.29 L 193.31,282.04 L 192.88,282.78 L 192.43,283.51 L 191.97,284.22 L 191.49,284.92 L 190.99,285.60 L 190.47,286.25 L 189.92,286.87 L 189.35,287.47 L 188.76,288.03 L 188.14,288.57 L 187.50,289.06 L 186.84,289.52 L 186.16,289.94 L 185.45,290.33 L 184.72,290.67 L 183.97,290.98 L 183.20,291.25 L 182.41,291.48 L 181.61,291.67 L 180.80,291.83 L 179.97,291.96 L 179.14,292.05 L 178.29,292.12 L 177.44,292.16 L 176.59,292.18 L 175.73,292.18 L 174.88,292.17 L 174.02,292.14 L 173.17,292.11 L 172.33,292.07 L 171.49,292.02 L 170.65,291.98 L 169.83,291.95 L 169.01,291.93 L 168.21,291.91 L 167.41,291.92 L 166.62,291.94 L 165.85,291.99 L 165.09,292.05 L 164.33,292.15 L 163.59,292.27 L 162.86,292.42 L 162.13,292.60 L 161.41,292.80 L 160.70,293.04 L 160.00,293.31 L 159.30,293.60 L 158.61,293.93 L 157.91,294.28 L 157.22,294.65 L 156.53,295.04 L 155.84,295.46 L 155.14,295.89 L 154.45,296.33 L 153.74,296.78 L 153.04,297.23 L 152.32,297.69 L 151.61,298.15 L 150.88,298.60 L 150.14,299.04 L 149.40,299.47 L 148.65,299.88 L 147.90,300.27 L 147.13,300.63 L 146.36,300.96 L 145.58,301.27 L 144.80,301.54 L 144.01,301.77 L 143.21,301.96 L 142.41,302.11 L 141.61,302.22 L 140.81,302.29 L 140.00,302.31 L 139.19,302.29 L 138.39,302.22 L 137.59,302.11 L 136.79,301.96 L 135.99,301.77 L 135.20,301.54 L 134.42,301.27 L 133.64,300.96 L 132.87,300.63 L 132.10,300.27 L 131.35,299.88 L 130.60,299.47 L 129.86,299.04 L 129.12,298.60 L 128.39,298.15 L 127.68,297.69 L 126.96,297.23 L 126.26,296.78 L 125.55,296.33 L 124.86,295.89 L 124.16,295.46 L 123.47,295.04 L 122.78,294.65 L 122.09,294.28 L 121.39,293.93 L 120.70,293.60 L 120.00,293.31 L 119.30,293.04 L 118.59,292.80 L 117.87,292.60 L 117.14,292.42 L 116.41,292.27 L 115.67,292.15 L 114.91,292.05 L 114.15,291.99 L 113.38,291.94 L 112.59,291.92 L 111.79,291.91 L 110.99,291.93 L 110.17,291.95 L 109.35,291.98 L 108.51,292.02 L 107.67,292.07 L 106.83,292.11 L 105.98,292.14 L 105.12,292.17 L 104.27,292.18 L 103.41,292.18 L 102.56,292.16 L 101.71,292.12 L 100.86,292.05 L 100.03,291.96 L 99.20,291.83 L 98.39,291.67 L 97.59,291.48 L 96.80,291.25 L 96.03,290.98 L 95.28,290.67 L 94.55,290.33 L 93.85,289.94 L 93.16,289.52 L 92.50,289.06 L 91.86,288.57 L 91.24,288.03 L 90.65,287.47 L 90.08,286.87 L 89.53,286.25 L 89.01,285.60 L 88.51,284.92 L 88.03,284.22 L 87.57,283.51 L 87.12,282.78 L 86.69,282.04 L 86.28,281.29 L 85.88,280.54 L 85.48,279.78 L 85.09,279.03 L 84.71,278.28 L 84.33,277.54 L 83.94,276.81 L 83.56,276.09 L 83.16,275.38 L 82.76,274.70 L 82.35,274.03 L 81.92,273.38 L 81.48,272.75 L 81.02,272.15 L 80.55,271.56 L 80.05,271.00 L 79.54,270.46 L 79.00,269.95 L 78.44,269.45 L 77.85,268.98 L 77.25,268.52 L 76.62,268.08 L 75.97,267.65 L 75.30,267.24 L 74.62,266.84 L 73.91,266.44 L 73.19,266.06 L 72.46,265.67 L 71.72,265.29 L 70.97,264.91 L 70.22,264.52 L 69.46,264.12 L 68.71,263.72 L 67.96,263.31 L 67.22,262.88 L 66.49,262.43 L 65.78,261.97 L 65.08,261.49 L 64.40,260.99 L 63.75,260.47 L 63.13,259.92 L 62.53,259.35 L 61.97,258.76 L 61.43,258.14 L 60.94,257.50 L 60.48,256.84 L 60.06,256.15 L 59.67,255.45 L 59.33,254.72 L 59.02,253.97 L 58.75,253.20 L 58.52,252.41 L 58.33,251.61 L 58.17,250.80 L 58.04,249.97 L 57.95,249.14 L 57.88,248.29 L 57.84,247.44 L 57.82,246.59 L 57.82,245.73 L 57.83,244.88 L 57.86,244.02 L 57.89,243.17 L 57.93,242.33 L 57.98,241.49 L 58.02,240.65 L 58.05,239.83 L 58.07,239.01 L 58.09,238.21 L 58.08,237.41 L 58.06,236.62 L 58.01,235.85 L 57.95,235.09 L 57.85,234.33 L 57.73,233.59 L 57.58,232.86 L 57.40,232.13 L 57.20,231.41 L 56.96,230.70 L 56.69,230.00 L 56.40,229.30 L 56.07,228.61 L 55.72,227.91 L 55.35,227.22 L 54.96,226.53 L 54.54,225.84 L 54.11,225.14 L 53.67,224.45 L 53.22,223.74 L 52.77,223.04 L 52.31,222.32 L 51.85,221.61 L 51.40,220.88 L 50.96,220.14 L 50.53,219.40 L 50.12,218.65 L 49.73,217.90 L 49.37,217.13 L 49.04,216.36 L 48.73,215.58 L 48.46,214.80 L 48.23,214.01 L 48.04,213.21 L 47.89,212.41 L 47.78,211.61 L 47.71,210.81 L 47.69,210.00 L 47.71,209.19 L 47.78,208.39 L 47.89,207.59 L 48.04,206.79 L 48.23,205.99 L 48.46,205.20 L 48.73,204.42 L 49.04,203.64 L 49.37,202.87 L 49.73,202.10 L 50.12,201.35 L 50.53,200.60 L 50.96,199.86 L 51.40,199.12 L 51.85,198.39 L 52.31,197.68 L 52.77,196.96 L 53.22,196.26 L 53.67,195.55 L 54.11,194.86 L 54.54,194.16 L 54.96,193.47 L 55.35,192.78 L 55.72,192.09 L 56.07,191.39 L 56.40,190.70 L 56.69,190.00 L 56.96,189.30 L 57.20,188.59 L 57.40,187.87 L 57.58,187.14 L 57.73,186.41 L 57.85,185.67 L 57.95,184.91 L 58.01,184.15 L 58.06,183.38 L 58.08,182.59 L 58.09,181.79 L 58.07,180.99 L 58.05,180.17 L 58.02,179.35 L 57.98,178.51 L 57.93,177.67 L 57.89,176.83 L 57.86,175.98 L 57.83,175.12 L 57.82,174.27 L 57.82,173.41 L 57.84,172.56 L 57.88,171.71 L 57.95,170.86 L 58.04,170.03 L 58.17,169.20 L 58.33,168.39 L 58.52,167.59 L 58.75,166.80 L 59.02,166.03 L 59.33,165.28 L 59.67,164.55 L 60.06,163.84 L 60.48,163.16 L 60.94,162.50 L 61.43,161.86 L 61.97,161.24 L 62.53,160.65 L 63.13,160.08 L 63.75,159.53 L 64.40,159.01 L 65.08,158.51 L 65.78,158.03 L 66.49,157.57 L 67.22,157.12 L 67.96,156.69 L 68.71,156.28 L 69.46,155.88 L 70.22,155.48 L 70.97,155.09 L 71.72,154.71 L 72.46,154.33 L 73.19,153.94 L 73.91,153.56 L 74.62,153.16 L 75.30,152.76 L 75.97,152.35 L 76.62,151.92 L 77.25,151.48 L 77.85,151.02 L 78.44,150.55 L 79.00,150.05 L 79.54,149.54 L 80.05,149.00 L 80.55,148.44 L 81.02,147.85 L 81.48,147.25 L 81.92,146.62 L 82.35,145.97 L 82.76,145.30 L 83.16,144.62 L 83.56,143.91 L 83.94,143.19 L 84.33,142.46 L 84.71,141.72 L 85.09,140.97 L 85.48,140.22 L 85.88,139.46 L 86.28,138.71 L 86.69,137.96 L 87.12,137.22 L 87.57,136.49 L 88.03,135.78 L 88.51,135.08 L 89.01,134.40 L 89.53,133.75 L 90.08,133.13 L 90.65,132.53 L 91.24,131.97 L 91.86,131.43 L 92.50,130.94 L 93.16,130.48 L 93.84,130.06 L 94.55,129.67 L 95.28,129.33 L 96.03,129.02 L 96.80,128.75 L 97.59,128.52 L 98.39,128.33 L 99.20,128.17 L 100.03,128.04 L 100.86,127.95 L 101.71,127.88 L 102.56,127.84 L 103.41,127.82 L 104.27,127.82 L 105.12,127.83 L 105.98,127.86 L 106.83,127.89 L 107.67,127.93 L 108.51,127.98 L 109.35,128.02 L 110.17,128.05 L 110.99,128.07 L 111.79,128.09 L 112.59,128.08 L 113.38,128.06 L 114.15,128.01 L 114.91,127.95 L 115.67,127.85 L 116.41,127.73 L 117.14,127.58 L 117.87,127.40 L 118.59,127.20 L 119.30,126.96 L 120.00,126.69 L 120.70,126.40 L 121.39,126.07 L 122.09,125.72 L 122.78,125.35 L 123.47,124.96 L 124.16,124.54 L 124.86,124.11 L 125.55,123.67 L 126.26,123.22 L 126.96,122.77 L 127.68,122.31 L 128.39,121.85 L 129.12,121.40 L 129.86,120.96 L 130.60,120.53 L 131.35,120.12 L 132.10,119.73 L 132.87,119.37 L 133.64,119.04 L 134.42,118.73 L 135.20,118.46 L 135.99,118.23 L 136.79,118.04 L 137.59,117.89 L 138.39,117.78 L 139.19,117.71 L 140.00,117.69 L 140.81,117.71 L 141.61,117.78 L 142.41,117.89 L 143.21,118.04 L 144.01,118.23 L 144.80,118.46 L 145.58,118.73 L 146.36,119.04 L 147.13,119.37 L 147.90,119.73 L 148.65,120.12 L 149.40,120.53 L 150.14,120.96 L 150.88,121.40 L 151.61,121.85 L 152.32,122.31 L 153.04,122.77 L 153.74,123.22 L 154.45,123.67 L 155.14,124.11 L 155.84,124.54 L 156.53,124.96 L 157.22,125.35 L 157.91,125.72 L 158.61,126.07 L 159.30,126.40 L 160.00,126.69 L 160.70,126.96 L 161.41,127.20 L 162.13,127.40 L 162.86,127.58 L 163.59,127.73 L 164.33,127.85 L 165.09,127.95 L 165.85,128.01 L 166.62,128.06 L 167.41,128.08 L 168.21,128.09 L 169.01,128.07 L 169.83,128.05 L 170.65,128.02 L 171.49,127.98 L 172.33,127.93 L 173.17,127.89 L 174.02,127.86 L 174.88,127.83 L 175.73,127.82 L 176.59,127.82 L 177.44,127.84 L 178.29,127.88 L 179.14,127.95 L 179.97,128.04 L 180.80,128.17 L 181.61,128.33 L 182.41,128.52 L 183.20,128.75 L 183.97,129.02 L 184.72,129.33 L 185.45,129.67 L 186.16,130.06 L 186.84,130.48 L 187.50,130.94 L 188.14,131.43 L 188.76,131.97 L 189.35,132.53 L 189.92,133.13 L 190.47,133.75 L 190.99,134.40 L 191.49,135.08 L 191.97,135.78 L 192.43,136.49 L 192.88,137.22 L 193.31,137.96 L 193.72,138.71 L 194.12,139.46 L 194.52,140.22 L 194.91,140.97 L 195.29,141.72 L 195.67,142.46 L 196.06,143.19 L 196.44,143.91 L 196.84,144.62 L 197.24,145.30 L 197.65,145.97 L 198.08,146.62 L 198.52,147.25 L 198.98,147.85 L 199.45,148.44 L 199.95,149.00 L 200.46,149.54 L 201.00,150.05 L 201.56,150.55 L 202.15,151.02 L 202.75,151.48 L 203.38,151.92 L 204.03,152.35 L 204.70,152.76 L 205.38,153.16 L 206.09,153.56 L 206.81,153.94 L 207.54,154.33 L 208.28,154.71 L 209.03,155.09 L 209.78,155.48 L 210.54,155.88 L 211.29,156.28 L 212.04,156.69 L 212.78,157.12 L 213.51,157.57 L 214.22,158.03 L 214.92,158.51 L 215.60,159.01 L 216.25,159.53 L 216.87,160.08 L 217.47,160.65 L 218.03,161.24 L 218.57,161.86 L 219.06,162.50 L 219.52,163.16 L 219.94,163.84 L 220.33,164.55 L 220.67,165.28 L 220.98,166.03 L 221.25,166.80 L 221.48,167.59 L 221.67,168.39 L 221.83,169.20 L 221.96,170.03 L 222.05,170.86 L 222.12,171.71 L 222.16,172.56 L 222.18,173.41 L 222.18,174.27 L 222.17,175.12 L 222.14,175.98 L 222.11,176.83 L 222.07,177.67 L 222.02,178.51 L 221.98,179.35 L 221.95,180.17 L 221.93,180.99 L 221.91,181.79 L 221.92,182.59 L 221.94,183.38 L 221.99,184.15 L 222.05,184.91 L 222.15,185.67 L 222.27,186.41 L 222.42,187.14 L 222.60,187.87 L 222.80,188.59 L 223.04,189.30 L 223.31,190.00 L 223.60,190.70 L 223.93,191.39 L 224.28,192.09 L 224.65,192.78 L 225.04,193.47 L 225.46,194.16 L 225.89,194.86 L 226.33,195.55 L 226.78,196.26 L 227.23,196.96 L 227.69,197.68 L 228.15,198.39 L 228.60,199.12 L 229.04,199.86 L 229.47,200.60 L 229.88,201.35 L 230.27,202.10 L 230.63,202.87 L 230.96,203.64 L 231.27,204.42 L 231.54,205.20 L 231.77,205.99 L 231.96,206.79 L 232.11,207.59 L 232.22,208.39 L 232.29,209.19 L 232.31,210.00 Z" fill="#3a4a3f" stroke="#2f3b32" stroke-width="1.2"/>
<circle cx="140" cy="210" r="80.75" fill="#cfe3d6" stroke="#2f3b32" stroke-width="0.8"/>
<circle cx="140" cy="210" r="64.60" fill="#7bb661" stroke="#2f3b32" stroke-width="0.8"/>
<text x="140" y="330" font-family="Helvetica,Arial" font-size="11" fill="#2f3b32" text-anchor="middle">top &#8212; flutes + beads (green = bunch)</text>
<path d="M 252.69,248.00 L 252.69,95.00 L 252.69,97.55 L 252.69,100.10 L 252.69,102.65 L 252.69,105.20 L 252.69,107.75 L 252.69,110.30 L 252.69,112.85 L 252.69,115.40 L 252.69,117.95 L 252.69,120.50 L 252.69,123.05 L 252.69,125.60 L 252.69,128.15 L 252.69,130.70 L 252.69,133.25 L 252.69,135.80 L 252.69,138.35 L 252.69,140.90 L 252.69,143.45 L 252.69,146.00 L 252.69,148.55 L 252.69,151.10 L 252.69,153.65 L 252.69,156.20 L 252.69,158.75 L 252.69,161.30 L 252.69,163.85 L 252.69,166.40 L 252.69,168.95 L 252.69,171.50 L 252.69,174.05 L 252.69,176.60 L 252.69,179.15 L 252.69,181.70 L 252.69,184.25 L 252.69,186.80 L 252.69,189.35 L 252.69,191.90 L 252.69,194.45 L 252.69,197.00 L 252.69,199.55 L 252.69,202.10 L 252.69,204.65 L 252.69,207.20 L 252.69,209.75 L 252.69,212.30 L 252.69,214.85 L 252.69,217.40 L 252.69,219.95 L 252.69,222.50 L 252.69,225.05 L 252.69,227.60 L 252.69,230.15 L 252.69,232.70 L 252.69,235.25 L 252.69,237.80 L 252.69,240.35 L 252.69,242.90 L 252.69,245.45 L 252.69,248.00 L 437.31,248.00 L 437.31,245.45 L 437.31,242.90 L 437.31,240.35 L 437.31,237.80 L 437.31,235.25 L 437.31,232.70 L 437.31,230.15 L 437.31,227.60 L 437.31,225.05 L 437.31,222.50 L 437.31,219.95 L 437.31,217.40 L 437.31,214.85 L 437.31,212.30 L 437.31,209.75 L 437.31,207.20 L 437.31,204.65 L 437.31,202.10 L 437.31,199.55 L 437.31,197.00 L 437.31,194.45 L 437.31,191.90 L 437.31,189.35 L 437.31,186.80 L 437.31,184.25 L 437.31,181.70 L 437.31,179.15 L 437.31,176.60 L 437.31,174.05 L 437.31,171.50 L 437.31,168.95 L 437.31,166.40 L 437.31,163.85 L 437.31,161.30 L 437.31,158.75 L 437.31,156.20 L 437.31,153.65 L 437.31,151.10 L 437.31,148.55 L 437.31,146.00 L 437.31,143.45 L 437.31,140.90 L 437.31,138.35 L 437.31,135.80 L 437.31,133.25 L 437.31,130.70 L 437.31,128.15 L 437.31,125.60 L 437.31,123.05 L 437.31,120.50 L 437.31,117.95 L 437.31,115.40 L 437.31,112.85 L 437.31,110.30 L 437.31,107.75 L 437.31,105.20 L 437.31,102.65 L 437.31,100.10 L 437.31,97.55 L 437.31,95.00 Z" fill="#4b5f51" stroke="#2f3b32" stroke-width="1.2"/>
<rect x="264.25" y="95.00" width="161.50" height="146.20" fill="#dfeee6" fill-opacity="0.55" stroke="#2f3b32" stroke-width="0.7" stroke-dasharray="4 3"/>
<text x="345" y="330" font-family="Helvetica,Arial" font-size="11" fill="#2f3b32" text-anchor="middle">side &#8212; dashed = water/bead cavity</text>
</svg>