<svg xmlns="http://www.w3.org/2000/svg" width="460" height="360" viewBox="0 0 460 360">
<rect width="460" height="360" fill="#f4f2ec"/>
<text x="20" y="30" font-family="Helvetica,Arial" font-size="20" font-weight="700" fill="#2f3b32">zen-squat</text>
<text x="20" y="50" font-family="Helvetica,Arial" font-size="12" fill="#2f3b32">12 waves &#183; 5.0mm depth &#183; H 95mm &#183; &#8960;128mm &#183; interior &#8960;112mm</text>
<path d="M 248.46,210.00 L 248.43,210.95 L 248.35,211.89 L 248.21,212.83 L 248.03,213.77 L 247.79,214.71 L 247.50,215.63 L 247.17,216.55 L 246.79,217.47 L 246.38,218.37 L 245.93,219.27 L 245.45,220.15 L 244.95,221.03 L 244.42,221.90 L 243.87,222.75 L 243.32,223.60 L 242.76,224.44 L 242.19,225.27 L 241.63,226.10 L 241.08,226.91 L 240.53,227.73 L 240.01,228.54 L 239.50,229.34 L 239.02,230.15 L 238.57,230.95 L 238.15,231.76 L 237.76,232.57 L 237.40,233.38 L 237.08,234.20 L 236.80,235.03 L 236.55,235.87 L 236.35,236.72 L 236.18,237.58 L 236.04,238.45 L 235.94,239.33 L 235.88,240.23 L 235.84,241.14 L 235.83,242.06 L 235.84,243.00 L 235.88,243.95 L 235.93,244.92 L 235.99,245.89 L 236.06,246.87 L 236.14,247.87 L 236.21,248.87 L 236.28,249.88 L 236.33,250.89 L 236.38,251.91 L 236.40,252.92 L 236.40,253.93 L 236.37,254.94 L 236.31,255.94 L 236.22,256.93 L 236.09,257.91 L 235.92,258.87 L 235.70,259.82 L 235.44,260.75 L 235.13,261.65 L 234.78,262.54 L 234.38,263.40 L 233.93,264.23 L 233.43,265.04 L 232.89,265.81 L 232.30,266.56 L 231.67,267.28 L 230.99,267.97 L 230.28,268.63 L 229.53,269.26 L 228.75,269.86 L 227.94,270.44 L 227.10,270.99 L 226.25,271.52 L 225.37,272.03 L 224.48,272.51 L 223.58,272.98 L 222.68,273.44 L 221.77,273.88 L 220.86,274.32 L 219.97,274.75 L 219.08,275.19 L 218.20,275.62 L 217.34,276.06 L 216.50,276.50 L 215.68,276.96 L 214.89,277.43 L 214.12,277.92 L 213.37,278.42 L 212.66,278.95 L 211.97,279.50 L 211.31,280.08 L 210.68,280.68 L 210.08,281.31 L 209.50,281.97 L 208.95,282.66 L 208.42,283.37 L 207.92,284.12 L 207.43,284.89 L 206.96,285.68 L 206.50,286.50 L 206.06,287.34 L 205.62,288.20 L 205.19,289.08 L 204.75,289.97 L 204.32,290.86 L 203.88,291.77 L 203.44,292.68 L 202.98,293.58 L 202.51,294.48 L 202.03,295.37 L 201.52,296.25 L 200.99,297.10 L 200.44,297.94 L 199.86,298.75 L 199.26,299.53 L 198.63,300.28 L 197.97,300.99 L 197.28,301.67 L 196.56,302.30 L 195.81,302.89 L 195.04,303.43 L 194.23,303.93 L 193.40,304.38 L 192.54,304.78 L 191.65,305.13 L 190.75,305.44 L 189.82,305.70 L 188.87,305.92 L 187.91,306.09 L 186.93,306.22 L 185.94,306.31 L 184.94,306.37 L 183.93,306.40 L 182.92,306.40 L 181.91,306.38 L 180.89,306.33 L 179.88,306.28 L 178.87,306.21 L 177.87,306.14 L 176.87,306.06 L 175.89,305.99 L 174.92,305.93 L 173.95,305.88 L 173.00,305.84 L 172.06,305.83 L 171.14,305.84 L 170.23,305.88 L 169.33,305.94 L 168.45,306.04 L 167.58,306.18 L 166.72,306.35 L 165.87,306.55 L 165.03,306.80 L 164.20,307.08 L 163.38,307.40 L 162.57,307.76 L 161.76,308.15 L 160.95,308.57 L 160.15,309.02 L 159.34,309.50 L 158.54,310.01 L 157.73,310.53 L 156.91,311.08 L 156.10,311.63 L 155.27,312.19 L 154.44,312.76 L 153.60,313.32 L 152.75,313.87 L 151.90,314.42 L 151.03,314.95 L 150.15,315.45 L 149.27,315.93 L 148.37,316.38 L 147.47,316.79 L 146.55,317.17 L 145.63,317.50 L 144.71,317.79 L 143.77,318.03 L 142.83,318.21 L 141.89,318.35 L 140.95,318.43 L 140.00,318.46 L 139.05,318.43 L 138.11,318.35 L 137.17,318.21 L 136.23,318.03 L 135.29,317.79 L 134.37,317.50 L 133.45,317.17 L 132.53,316.79 L 131.63,316.38 L 130.73,315.93 L 129.85,315.45 L 128.97,314.95 L 128.10,314.42 L 127.25,313.87 L 126.40,313.32 L 125.56,312.76 L 124.73,312.19 L 123.90,311.63 L 123.09,311.08 L 122.27,310.53 L 121.46,310.01 L 120.66,309.50 L 119.85,309.02 L 119.05,308.57 L 118.24,308.15 L 117.43,307.76 L 116.62,307.40 L 115.80,307.08 L 114.97,306.80 L 114.13,306.55 L 113.28,306.35 L 112.42,306.18 L 111.55,306.04 L 110.67,305.94 L 109.77,305.88 L 108.86,305.84 L 107.94,305.83 L 107.00,305.84 L 106.05,305.88 L 105.08,305.93 L 104.11,305.99 L 103.13,306.06 L 102.13,306.14 L 101.13,306.21 L 100.12,306.28 L 99.11,306.33 L 98.09,306.38 L 97.08,306.40 L 96.07,306.40 L 95.06,306.37 L 94.06,306.31 L 93.07,306.22 L 92.09,306.09 L 91.13,305.92 L 90.18,305.70 L 89.25,305.44 L 88.35,305.13 L 87.46,304.78 L 86.60,304.38 L 85.77,303.93 L 84.96,303.43 L 84.19,302.89 L 83.44,302.30 L 82.72,301.67 L 82.03,300.99 L 81.37,300.28 L 80.74,299.53 L 80.14,298.75 L 79.56,297.94 L 79.01,297.10 L 78.48,296.25 L 77.97,295.37 L 77.49,294.48 L 77.02,293.58 L 76.56,292.68 L 76.12,291.77 L 75.68,290.86 L 75.25,289.97 L 74.81,289.08 L 74.38,288.20 L 73.94,287.34 L 73.50,286.50 L 73.04,285.68 L 72.57,284.89 L 72.08,284.12 L 71.58,283.37 L 71.05,282.66 L 70.50,281.97 L 69.92,281.31 L 69.32,280.68 L 68.69,280.08 L 68.03,279.50 L 67.34,278.95 L 66.63,278.42 L 65.88,277.92 L 65.11,277.43 L 64.32,276.96 L 63.50,276.50 L 62.66,276.06 L 61.80,275.62 L 60.92,275.19 L 60.03,274.75 L 59.14,274.32 L 58.23,273.88 L 57.32,273.44 L 56.42,272.98 L 55.52,272.51 L 54.63,272.03 L 53.75,271.52 L 52.90,270.99 L 52.06,270.44 L 51.25,269.86 L 50.47,269.26 L 49.72,268.63 L 49.01,267.97 L 48.33,267.28 L 47.70,266.56 L 47.11,265.81 L 46.57,265.04 L 46.07,264.23 L 45.62,263.40 L 45.22,262.54 L 44.87,261.65 L 44.56,260.75 L 44.30,259.82 L 44.08,258.87 L 43.91,257.91 L 43.78,256.93 L 43.69,255.94 L 43.63,254.94 L 43.60,253.93 L 43.60,252.92 L 43.62,251.91 L 43.67,250.89 L 43.72,249.88 L 43.79,248.87 L 43.86,247.87 L 43.94,246.87 L 44.01,245.89 L 44.07,244.92 L 44.12,243.95 L 44.16,243.00 L 44.17,242.06 L 44.16,241.14 L 44.12,240.23 L 44.06,239.33 L 43.96,238.45 L 43.82,237.58 L 43.65,236.72 L 43.45,235.87 L 43.20,235.03 L 42.92,234.20 L 42.60,233.38 L 42.24,232.57 L 41.85,231.76 L 41.43,230.95 L 40.98,230.15 L 40.50,229.34 L 39.99,228.54 L 39.47,227.73 L 38.92,226.91 L 38.37,226.10 L 37.81,225.27 L 37.24,224.44 L 36.68,223.60 L 36.13,222.75 L 35.58,221.90 L 35.05,221.03 L 34.55,220.15 L 34.07,219.27 L 33.62,218.37 L 33.21,217.47 L 32.83,216.55 L 32.50,215.63 L 32.21,214.71 L 31.97,213.77 L 31.79,212.83 L 31.65,211.89 L 31.57,210.95 L 31.54,210.00 L 31.57,209.05 L 31.65,208.11 L 31.79,207.17 L 31.97,206.23 L 32.21,205.29 L 32.50,204.37 L 32.83,203.45 L 33.21,202.53 L 33.62,201.63 L 34.07,200.73 L 34.55,199.85 L 35.05,198.97 L 35.58,198.10 L 36.13,197.25 L 36.68,196.40 L 37.24,195.56 L 37.81,194.73 L 38.37,193.90 L 38.92,193.09 L 39.47,192.27 L 39.99,191.46 L 40.50,190.66 L 40.98,189.85 L 41.43,189.05 L 41.85,188.24 L 42.24,187.43 L 42.60,186.62 L 42.92,185.80 L 43.20,184.97 L 43.45,184.13 L 43.65,183.28 L 43.82,182.42 L 43.96,181.55 L 44.06,180.67 L 44.12,179.77 L 44.16,178.86 L 44.17,177.94 L 44.16,177.00 L 44.12,176.05 L 44.07,175.08 L 44.01,174.11 L 43.94,173.13 L 43.86,172.13 L 43.79,171.13 L 43.72,170.12 L 43.67,169.11 L 43.62,168.09 L 43.60,167.08 L 43.60,166.07 L 43.63,165.06 L 43.69,164.06 L 43.78,163.07 L 43.91,162.09 L 44.08,161.13 L 44.30,160.18 L 44.56,159.25 L 44.87,158.35 L 45.22,157.46 L 45.62,156.60 L 46.07,155.77 L 46.57,154.96 L 47.11,154.19 L 47.70,153.44 L 48.33,152.72 L 49.01,152.03 L 49.72,151.37 L 50.47,150.74 L 51.25,150.14 L 52.06,149.56 L 52.90,149.01 L 53.75,148.48 L 54.63,147.97 L 55.52,147.49 L 56.42,147.02 L 57.32,146.56 L 58.23,146.12 L 59.14,145.68 L 60.03,145.25 L 60.92,144.81 L 61.80,144.38 L 62.66,143.94 L 63.50,143.50 L 64.32,143.04 L 65.11,142.57 L 65.88,142.08 L 66.63,141.58 L 67.34,141.05 L 68.03,140.50 L 68.69,139.92 L 69.32,139.32 L 69.92,138.69 L 70.50,138.03 L 71.05,137.34 L 71.58,136.63 L 72.08,135.88 L 72.57,135.11 L 73.04,134.32 L 73.50,133.50 L 73.94,132.66 L 74.38,131.80 L 74.81,130.92 L 75.25,130.03 L 75.68,129.14 L 76.12,128.23 L 76.56,127.32 L 77.02,126.42 L 77.49,125.52 L 77.97,124.63 L 78.48,123.75 L 79.01,122.90 L 79.56,122.06 L 80.14,121.25 L 80.74,120.47 L 81.37,119.72 L 82.03,119.01 L 82.72,118.33 L 83.44,117.70 L 84.19,117.11 L 84.96,116.57 L 85.77,116.07 L 86.60,115.62 L 87.46,115.22 L 88.35,114.87 L 89.25,114.56 L 90.18,114.30 L 91.13,114.08 L 92.09,113.91 L 93.07,113.78 L 94.06,113.69 L 95.06,113.63 L 96.07,113.60 L 97.08,113.60 L 98.09,113.62 L 99.11,113.67 L 100.12,113.72 L 101.13,113.79 L 102.13,113.86 L 103.13,113.94 L 104.11,114.01 L 105.08,114.07 L 106.05,114.12 L 107.00,114.16 L 107.94,114.17 L 108.86,114.16 L 109.77,114.12 L 110.67,114.06 L 111.55,113.96 L 112.42,113.82 L 113.28,113.65 L 114.13,113.45 L 114.97,113.20 L 115.80,112.92 L 116.62,112.60 L 117.43,112.24 L 118.24,111.85 L 119.05,111.43 L 119.85,110.98 L 120.66,110.50 L 121.46,109.99 L 122.27,109.47 L 123.09,108.92 L 123.90,108.37 L 124.73,107.81 L 125.56,107.24 L 126.40,106.68 L 127.25,106.13 L 128.10,105.58 L 128.97,105.05 L 129.85,104.55 L 130.73,104.07 L 131.63,103.62 L 132.53,103.21 L 133.45,102.83 L 134.37,102.50 L 135.29,102.21 L 136.23,101.97 L 137.17,101.79 L 138.11,101.65 L 139.05,101.57 L 140.00,101.54 L 140.95,101.57 L 141.89,101.65 L 142.83,101.79 L 143.77,101.97 L 144.71,102.21 L 145.63,102.50 L 146.55,102.83 L 147.47,103.21 L 148.37,103.62 L 149.27,104.07 L 150.15,104.55 L 151.03,105.05 L 151.90,105.58 L 152.75,106.13 L 153.60,106.68 L 154.44,107.24 L 155.27,107.81 L 156.10,108.37 L 156.91,108.92 L 157.73,109.47 L 158.54,109.99 L 159.34,110.50 L 160.15,110.98 L 160.95,111.43 L 161.76,111.85 L 162.57,112.24 L 163.38,112.60 L 164.20,112.92 L 165.03,113.20 L 165.87,113.45 L 166.72,113.65 L 167.58,113.82 L 168.45,113.96 L 169.33,114.06 L 170.23,114.12 L 171.14,114.16 L 172.06,114.17 L 173.00,114.16 L 173.95,114.12 L 174.92,114.07 L 175.89,114.01 L 176.87,113.94 L 177.87,113.86 L 178.87,113.79 L 179.88,113.72 L 180.89,113.67 L 181.91,113.62 L 182.92,113.60 L 183.93,113.60 L 184.94,113.63 L 185.94,113.69 L 186.93,113.78 L 187.91,113.91 L 188.87,114.08 L 189.82,114.30 L 190.75,114.56 L 191.65,114.87 L 192.54,115.22 L 193.40,115.62 L 194.23,116.07 L 195.04,116.57 L 195.81,117.11 L 196.56,117.70 L 197.28,118.33 L 197.97,119.01 L 198.63,119.72 L 199.26,120.47 L 199.86,121.25 L 200.44,122.06 L 200.99,122.90 L 201.52,123.75 L 202.03,124.63 L 202.51,125.52 L 202.98,126.42 L 203.44,127.32 L 203.88,128.23 L 204.32,129.14 L 204.75,130.03 L 205.19,130.92 L 205.62,131.80 L 206.06,132.66 L 206.50,133.50 L 206.96,134.32 L 207.43,135.11 L 207.92,135.88 L 208.42,136.63 L 208.95,137.34 L 209.50,138.03 L 210.08,138.69 L 210.68,139.32 L 211.31,139.92 L 211.97,140.50 L 212.66,141.05 L 213.37,141.58 L 214.12,142.08 L 214.89,142.57 L 215.68,143.04 L 216.50,143.50 L 217.34,143.94 L 218.20,144.38 L 219.08,144.81 L 219.97,145.25 L 220.86,145.68 L 221.77,146.12 L 222.68,146.56 L 223.58,147.02 L 224.48,147.49 L 225.37,147.97 L 226.25,148.48 L 227.10,149.01 L 227.94,149.56 L 228.75,150.14 L 229.53,150.74 L 230.28,151.37 L 230.99,152.03 L 231.67,152.72 L 232.30,153.44 L 232.89,154.19 L 233.43,154.96 L 233.93,155.77 L 234.38,156.60 L 234.78,157.46 L 235.13,158.35 L 235.44,159.25 L 235.70,160.18 L 235.92,161.13 L 236.09,162.09 L 236.22,163.07 L 236.31,164.06 L 236.37,165.06 L 236.40,166.07 L 236.40,167.08 L 236.38,168.09 L 236.33,169.11 L 236.28,170.12 L 236.21,171.13 L 236.14,172.13 L 236.06,173.13 L 235.99,174.11 L 235.93,175.08 L 235.88,176.05 L 235.84,177.00 L 235.83,177.94 L 235.84,178.86 L 235.88,179.77 L 235.94,180.67 L 236.04,181.55 L 236.18,182.42 L 236.35,183.28 L 236.55,184.13 L 236.80,184.97 L 237.08,185.80 L 237.40,186.62 L 237.76,187.43 L 238.15,188.24 L 238.57,189.05 L 239.02,189.85 L 239.50,190.66 L 240.01,191.46 L 240.53,192.27 L 241.08,193.09 L 241.63,193.90 L 242.19,194.73 L 242.76,195.56 L 243.32,196.40 L 243.87,197.25 L 244.42,198.10 L 244.95,198.97 L 245.45,199.85 L 245.93,200.73 L 246.38,201.63 L 246.79,202.53 L 247.17,203.45 L 247.50,204.37 L 247.79,205.29 L 248.03,206.23 L 248.21,207.17 L 248.35,208.11 L 248.43,209.05 L 248.46,210.00 Z" fill="#3a4a3f" stroke="#2f3b32" stroke-width="1.2"/>
<circle cx="140" cy="210" r="95.20" fill="#cfe3d6" stroke="#2f3b32" stroke-width="0.8"/>
<circle cx="140" cy="210" r="64.60" fill="#7bb661" stroke="#2f3b32" stroke-width="0.8"/>
<text x="140" y="330" font-family="Helvetica,Arial" font-size="11" fill="#2f3b32" text-anchor="middle">top &#8212; flutes + beads (green = bunch)</text>
<path d="M 236.54,256.50 L 236.54,95.00 L 236.54,97.69 L 236.54,100.38 L 236.54,103.08 L 236.54,105.77 L 236.54,108.46 L 236.54,111.15 L 236.54,113.84 L 236.54,116.53 L 236.54,119.22 L 236.54,121.92 L 236.54,124.61 L 236.54,127.30 L 236.54,129.99 L 236.54,132.68 L 236.54,135.38 L 236.54,138.07 L 236.54,140.76 L 236.54,143.45 L 236.54,146.14 L 236.54,148.83 L 236.54,151.53 L 236.54,154.22 L 236.54,156.91 L 236.54,159.60 L 236.54,162.29 L 236.54,164.98 L 236.54,167.68 L 236.54,170.37 L 236.54,173.06 L 236.54,175.75 L 236.54,178.44 L 236.54,181.13 L 236.54,183.82 L 236.54,186.52 L 236.54,189.21 L 236.54,191.90 L 236.54,194.59 L 236.54,197.28 L 236.54,199.97 L 236.54,202.67 L 236.54,205.36 L 236.54,208.05 L 236.54,210.74 L 236.54,213.43 L 236.54,216.12 L 236.54,218.82 L 236.54,221.51 L 236.54,224.20 L 236.54,226.89 L 236.54,229.58 L 236.54,232.28 L 236.54,234.97 L 236.54,237.66 L 236.54,240.35 L 236.54,243.04 L 236.54,245.73 L 236.54,248.42 L 236.54,251.12 L 236.54,253.81 L 236.54,256.50 L 453.46,256.50 L 453.46,253.81 L 453.46,251.12 L 453.46,248.42 L 453.46,245.73 L 453.46,243.04 L 453.46,240.35 L 453.46,237.66 L 453.46,234.97 L 453.46,232.28 L 453.46,229.58 L 453.46,226.89 L 453.46,224.20 L 453.46,221.51 L 453.46,218.82 L 453.46,216.12 L 453.46,213.43 L 453.46,210.74 L 453.46,208.05 L 453.46,205.36 L 453.46,202.67 L 453.46,199.97 L 453.46,197.28 L 453.46,194.59 L 453.46,191.90 L 453.46,189.21 L 453.46,186.52 L 453.46,183.82 L 453.46,181.13 L 453.46,178.44 L 453.46,175.75 L 453.46,173.06 L 453.46,170.37 L 453.46,167.68 L 453.46,164.98 L 453.46,162.29 L 453.46,159.60 L 453.46,156.91 L 453.46,154.22 L 453.46,151.53 L 453.46,148.83 L 453.46,146.14 L 453.46,143.45 L 453.46,140.76 L 453.46,138.07 L 453.46,135.38 L 453.46,132.68 L 453.46,129.99 L 453.46,127.30 L 453.46,124.61 L 453.46,121.92 L 453.46,119.22 L 453.46,116.53 L 453.46,113.84 L 453.46,111.15 L 453.46,108.46 L 453.46,105.77 L 453.46,103.08 L 453.46,100.38 L 453.46,97.69 L 453.46,95.00 Z" fill="#4b5f51" stroke="#2f3b32" stroke-width="1.2"/>
<rect x="249.80" y="95.00" width="190.40" height="154.70" fill="#dfeee6" fill-opacity="0.55" stroke="#2f3b32" stroke-width="0.7" stroke-dasharray="4 3"/>
<text x="345" y="330" font-family="Helvetica,Arial" font-size="11" fill="#2f3b32" text-anchor="middle">side &#8212; dashed = water/bead cavity</text>
</svg>