<svg xmlns="http://www.w3.org/2000/svg" width="460" height="360" viewBox="0 0 460 360">
<rect width="460" height="360" fill="#f4f2ec"/>
<text x="20" y="30" font-family="Helvetica,Arial" font-size="20" font-weight="700" fill="#2f3b32">zen-classic</text>
<text x="20" y="50" font-family="Helvetica,Arial" font-size="12" fill="#2f3b32">14 waves &#183; 4.0mm depth &#183; H 130mm &#183; &#8960;125mm &#183; interior &#8960;105mm</text>
<path d="M 245.91,210.00 L 245.88,210.92 L 245.79,211.85 L 245.65,212.77 L 245.45,213.68 L 245.19,214.59 L 244.89,215.50 L 244.55,216.39 L 244.16,217.28 L 243.73,218.16 L 243.28,219.04 L 242.80,219.90 L 242.30,220.75 L 241.79,221.60 L 241.28,222.44 L 240.76,223.27 L 240.25,224.09 L 239.75,224.91 L 239.27,225.72 L 238.82,226.54 L 238.39,227.35 L 237.99,228.16 L 237.63,228.98 L 237.30,229.80 L 237.02,230.62 L 236.77,231.45 L 236.57,232.30 L 236.41,233.15 L 236.29,234.01 L 236.21,234.88 L 236.17,235.77 L 236.17,236.67 L 236.19,237.58 L 236.24,238.51 L 236.31,239.44 L 236.40,240.39 L 236.49,241.35 L 236.60,242.32 L 236.70,243.30 L 236.80,244.28 L 236.88,245.26 L 236.95,246.25 L 236.99,247.23 L 237.01,248.21 L 236.99,249.19 L 236.93,250.15 L 236.83,251.10 L 236.68,252.04 L 236.49,252.96 L 236.24,253.86 L 235.94,254.74 L 235.59,255.59 L 235.18,256.42 L 234.73,257.23 L 234.22,258.01 L 233.66,258.76 L 233.06,259.48 L 232.41,260.17 L 231.72,260.84 L 231.00,261.49 L 230.25,262.11 L 229.47,262.70 L 228.67,263.28 L 227.86,263.84 L 227.03,264.38 L 226.21,264.92 L 225.38,265.45 L 224.56,265.97 L 223.75,266.49 L 222.96,267.01 L 222.18,267.54 L 221.43,268.08 L 220.71,268.64 L 220.01,269.21 L 219.35,269.79 L 218.72,270.40 L 218.13,271.04 L 217.56,271.70 L 217.04,272.38 L 216.54,273.10 L 216.08,273.84 L 215.65,274.61 L 215.24,275.40 L 214.85,276.22 L 214.49,277.07 L 214.14,277.94 L 213.80,278.82 L 213.47,279.72 L 213.15,280.64 L 212.82,281.56 L 212.49,282.49 L 212.14,283.41 L 211.78,284.33 L 211.40,285.24 L 211.00,286.14 L 210.57,287.02 L 210.11,287.87 L 209.63,288.70 L 209.10,289.49 L 208.54,290.25 L 207.95,290.97 L 207.31,291.66 L 206.64,292.29 L 205.93,292.89 L 205.18,293.43 L 204.40,293.93 L 203.59,294.39 L 202.74,294.79 L 201.87,295.16 L 200.97,295.48 L 200.05,295.76 L 199.11,296.01 L 198.16,296.22 L 197.19,296.40 L 196.22,296.56 L 195.24,296.71 L 194.26,296.83 L 193.28,296.95 L 192.31,297.06 L 191.35,297.18 L 190.41,297.30 L 189.47,297.44 L 188.55,297.59 L 187.65,297.77 L 186.77,297.97 L 185.91,298.19 L 185.07,298.46 L 184.25,298.75 L 183.45,299.09 L 182.67,299.46 L 181.91,299.87 L 181.16,300.32 L 180.43,300.81 L 179.71,301.34 L 179.01,301.89 L 178.31,302.49 L 177.62,303.10 L 176.93,303.75 L 176.24,304.41 L 175.55,305.09 L 174.86,305.77 L 174.16,306.46 L 173.45,307.15 L 172.73,307.83 L 172.00,308.49 L 171.26,309.14 L 170.50,309.75 L 169.72,310.34 L 168.93,310.89 L 168.12,311.40 L 167.29,311.86 L 166.45,312.27 L 165.59,312.64 L 164.71,312.94 L 163.82,313.19 L 162.92,313.39 L 162.00,313.52 L 161.08,313.60 L 160.14,313.63 L 159.20,313.60 L 158.25,313.52 L 157.30,313.39 L 156.35,313.22 L 155.40,313.01 L 154.44,312.77 L 153.50,312.51 L 152.55,312.22 L 151.61,311.91 L 150.68,311.59 L 149.75,311.28 L 148.83,310.96 L 147.92,310.66 L 147.02,310.36 L 146.12,310.09 L 145.23,309.85 L 144.35,309.63 L 143.47,309.45 L 142.60,309.30 L 141.73,309.20 L 140.87,309.13 L 140.00,309.11 L 139.13,309.13 L 138.27,309.20 L 137.40,309.30 L 136.53,309.45 L 135.65,309.63 L 134.77,309.85 L 133.88,310.09 L 132.98,310.36 L 132.08,310.66 L 131.17,310.96 L 130.25,311.28 L 129.32,311.59 L 128.39,311.91 L 127.45,312.22 L 126.50,312.51 L 125.56,312.77 L 124.60,313.01 L 123.65,313.22 L 122.70,313.39 L 121.75,313.52 L 120.80,313.60 L 119.86,313.63 L 118.92,313.60 L 118.00,313.52 L 117.08,313.39 L 116.18,313.19 L 115.29,312.94 L 114.41,312.64 L 113.55,312.27 L 112.71,311.86 L 111.88,311.40 L 111.07,310.89 L 110.28,310.34 L 109.50,309.75 L 108.74,309.14 L 108.00,308.49 L 107.27,307.83 L 106.55,307.15 L 105.84,306.46 L 105.14,305.77 L 104.45,305.09 L 103.76,304.41 L 103.07,303.75 L 102.38,303.10 L 101.69,302.49 L 100.99,301.89 L 100.29,301.34 L 99.57,300.81 L 98.84,300.32 L 98.09,299.87 L 97.33,299.46 L 96.55,299.09 L 95.75,298.75 L 94.93,298.46 L 94.09,298.19 L 93.23,297.97 L 92.35,297.77 L 91.45,297.59 L 90.53,297.44 L 89.60,297.30 L 88.65,297.18 L 87.69,297.06 L 86.72,296.95 L 85.74,296.83 L 84.76,296.71 L 83.78,296.56 L 82.81,296.40 L 81.84,296.22 L 80.89,296.01 L 79.95,295.76 L 79.03,295.48 L 78.13,295.16 L 77.26,294.79 L 76.41,294.39 L 75.60,293.93 L 74.82,293.43 L 74.07,292.89 L 73.36,292.29 L 72.69,291.66 L 72.05,290.97 L 71.46,290.25 L 70.90,289.49 L 70.37,288.70 L 69.89,287.87 L 69.43,287.02 L 69.00,286.14 L 68.60,285.24 L 68.22,284.33 L 67.86,283.41 L 67.51,282.49 L 67.18,281.56 L 66.85,280.64 L 66.53,279.72 L 66.20,278.82 L 65.86,277.94 L 65.51,277.07 L 65.15,276.22 L 64.76,275.40 L 64.35,274.61 L 63.92,273.84 L 63.46,273.10 L 62.96,272.38 L 62.44,271.70 L 61.87,271.04 L 61.28,270.40 L 60.65,269.79 L 59.99,269.21 L 59.29,268.64 L 58.57,268.08 L 57.82,267.54 L 57.04,267.01 L 56.25,266.49 L 55.44,265.97 L 54.62,265.45 L 53.79,264.92 L 52.97,264.38 L 52.14,263.84 L 51.33,263.28 L 50.53,262.70 L 49.75,262.11 L 49.00,261.49 L 48.28,260.84 L 47.59,260.17 L 46.94,259.48 L 46.34,258.76 L 45.78,258.01 L 45.27,257.23 L 44.82,256.42 L 44.41,255.59 L 44.06,254.74 L 43.76,253.86 L 43.51,252.96 L 43.32,252.04 L 43.17,251.10 L 43.07,250.15 L 43.01,249.19 L 42.99,248.21 L 43.01,247.23 L 43.05,246.25 L 43.12,245.26 L 43.20,244.28 L 43.30,243.30 L 43.40,242.32 L 43.51,241.35 L 43.60,240.39 L 43.69,239.44 L 43.76,238.51 L 43.81,237.58 L 43.83,236.67 L 43.83,235.77 L 43.79,234.88 L 43.71,234.01 L 43.59,233.15 L 43.43,232.30 L 43.23,231.45 L 42.98,230.62 L 42.70,229.80 L 42.37,228.98 L 42.01,228.16 L 41.61,227.35 L 41.18,226.54 L 40.73,225.72 L 40.25,224.91 L 39.75,224.09 L 39.24,223.27 L 38.72,222.44 L 38.21,221.60 L 37.70,220.75 L 37.20,219.90 L 36.72,219.04 L 36.27,218.16 L 35.84,217.28 L 35.45,216.39 L 35.11,215.50 L 34.81,214.59 L 34.55,213.68 L 34.35,212.77 L 34.21,211.85 L 34.12,210.92 L 34.09,210.00 L 34.12,209.08 L 34.21,208.15 L 34.35,207.23 L 34.55,206.32 L 34.81,205.41 L 35.11,204.50 L 35.45,203.61 L 35.84,202.72 L 36.27,201.84 L 36.72,200.96 L 37.20,200.10 L 37.70,199.25 L 38.21,198.40 L 38.72,197.56 L 39.24,196.73 L 39.75,195.91 L 40.25,195.09 L 40.73,194.28 L 41.18,193.46 L 41.61,192.65 L 42.01,191.84 L 42.37,191.02 L 42.70,190.20 L 42.98,189.38 L 43.23,188.55 L 43.43,187.70 L 43.59,186.85 L 43.71,185.99 L 43.79,185.12 L 43.83,184.23 L 43.83,183.33 L 43.81,182.42 L 43.76,181.49 L 43.69,180.56 L 43.60,179.61 L 43.51,178.65 L 43.40,177.68 L 43.30,176.70 L 43.20,175.72 L 43.12,174.74 L 43.05,173.75 L 43.01,172.77 L 42.99,171.79 L 43.01,170.81 L 43.07,169.85 L 43.17,168.90 L 43.32,167.96 L 43.51,167.04 L 43.76,166.14 L 44.06,165.26 L 44.41,164.41 L 44.82,163.58 L 45.27,162.77 L 45.78,161.99 L 46.34,161.24 L 46.94,160.52 L 47.59,159.83 L 48.28,159.16 L 49.00,158.51 L 49.75,157.89 L 50.53,157.30 L 51.33,156.72 L 52.14,156.16 L 52.97,155.62 L 53.79,155.08 L 54.62,154.55 L 55.44,154.03 L 56.25,153.51 L 57.04,152.99 L 57.82,152.46 L 58.57,151.92 L 59.29,151.36 L 59.99,150.79 L 60.65,150.21 L 61.28,149.60 L 61.87,148.96 L 62.44,148.30 L 62.96,147.62 L 63.46,146.90 L 63.92,146.16 L 64.35,145.39 L 64.76,144.60 L 65.15,143.78 L 65.51,142.93 L 65.86,142.06 L 66.20,141.18 L 66.53,140.28 L 66.85,139.36 L 67.18,138.44 L 67.51,137.51 L 67.86,136.59 L 68.22,135.67 L 68.60,134.76 L 69.00,133.86 L 69.43,132.98 L 69.89,132.13 L 70.37,131.30 L 70.90,130.51 L 71.46,129.75 L 72.05,129.03 L 72.69,128.34 L 73.36,127.71 L 74.07,127.11 L 74.82,126.57 L 75.60,126.07 L 76.41,125.61 L 77.26,125.21 L 78.13,124.84 L 79.03,124.52 L 79.95,124.24 L 80.89,123.99 L 81.84,123.78 L 82.81,123.60 L 83.78,123.44 L 84.76,123.29 L 85.74,123.17 L 86.72,123.05 L 87.69,122.94 L 88.65,122.82 L 89.59,122.70 L 90.53,122.56 L 91.45,122.41 L 92.35,122.23 L 93.23,122.03 L 94.09,121.81 L 94.93,121.54 L 95.75,121.25 L 96.55,120.91 L 97.33,120.54 L 98.09,120.13 L 98.84,119.68 L 99.57,119.19 L 100.29,118.66 L 100.99,118.11 L 101.69,117.51 L 102.38,116.90 L 103.07,116.25 L 103.76,115.59 L 104.45,114.91 L 105.14,114.23 L 105.84,113.54 L 106.55,112.85 L 107.27,112.17 L 108.00,111.51 L 108.74,110.86 L 109.50,110.25 L 110.28,109.66 L 111.07,109.11 L 111.88,108.60 L 112.71,108.14 L 113.55,107.73 L 114.41,107.36 L 115.29,107.06 L 116.18,106.81 L 117.08,106.61 L 118.00,106.48 L 118.92,106.40 L 119.86,106.37 L 120.80,106.40 L 121.75,106.48 L 122.70,106.61 L 123.65,106.78 L 124.60,106.99 L 125.56,107.23 L 126.50,107.49 L 127.45,107.78 L 128.39,108.09 L 129.32,108.41 L 130.25,108.72 L 131.17,109.04 L 132.08,109.34 L 132.98,109.64 L 133.88,109.91 L 134.77,110.15 L 135.65,110.37 L 136.53,110.55 L 137.40,110.70 L 138.27,110.80 L 139.13,110.87 L 140.00,110.89 L 140.87,110.87 L 141.73,110.80 L 142.60,110.70 L 143.47,110.55 L 144.35,110.37 L 145.23,110.15 L 146.12,109.91 L 147.02,109.64 L 147.92,109.34 L 148.83,109.04 L 149.75,108.72 L 150.68,108.41 L 151.61,108.09 L 152.55,107.78 L 153.50,107.49 L 154.44,107.23 L 155.40,106.99 L 156.35,106.78 L 157.30,106.61 L 158.25,106.48 L 159.20,106.40 L 160.14,106.37 L 161.08,106.40 L 162.00,106.48 L 162.92,106.61 L 163.82,106.81 L 164.71,107.06 L 165.59,107.36 L 166.45,107.73 L 167.29,108.14 L 168.12,108.60 L 168.93,109.11 L 169.72,109.66 L 170.50,110.25 L 171.26,110.86 L 172.00,111.51 L 172.73,112.17 L 173.45,112.85 L 174.16,113.54 L 174.86,114.23 L 175.55,114.91 L 176.24,115.59 L 176.93,116.25 L 177.62,116.90 L 178.31,117.51 L 179.01,118.11 L 179.71,118.66 L 180.43,119.19 L 181.16,119.68 L 181.91,120.13 L 182.67,120.54 L 183.45,120.91 L 184.25,121.25 L 185.07,121.54 L 185.91,121.81 L 186.77,122.03 L 187.65,122.23 L 188.55,122.41 L 189.47,122.56 L 190.41,122.70 L 191.35,122.82 L 192.31,122.94 L 193.28,123.05 L 194.26,123.17 L 195.24,123.29 L 196.22,123.44 L 197.19,123.60 L 198.16,123.78 L 199.11,123.99 L 200.05,124.24 L 200.97,124.52 L 201.87,124.84 L 202.74,125.21 L 203.59,125.61 L 204.40,126.07 L 205.18,126.57 L 205.93,127.11 L 206.64,127.71 L 207.31,128.34 L 207.95,129.03 L 208.54,129.75 L 209.10,130.51 L 209.63,131.30 L 210.11,132.13 L 210.57,132.98 L 211.00,133.86 L 211.40,134.76 L 211.78,135.67 L 212.14,136.59 L 212.49,137.51 L 212.82,138.44 L 213.15,139.36 L 213.47,140.28 L 213.80,141.18 L 214.14,142.06 L 214.49,142.93 L 214.85,143.78 L 215.24,144.60 L 215.65,145.39 L 216.08,146.16 L 216.54,146.90 L 217.04,147.62 L 217.56,148.30 L 218.13,148.96 L 218.72,149.60 L 219.35,150.21 L 220.01,150.79 L 220.71,151.36 L 221.43,151.92 L 222.18,152.46 L 222.96,152.99 L 223.75,153.51 L 224.56,154.03 L 225.38,154.55 L 226.21,155.08 L 227.03,155.62 L 227.86,156.16 L 228.67,156.72 L 229.47,157.30 L 230.25,157.89 L 231.00,158.51 L 231.72,159.16 L 232.41,159.83 L 233.06,160.52 L 233.66,161.24 L 234.22,161.99 L 234.73,162.77 L 235.18,163.58 L 235.59,164.41 L 235.94,165.26 L 236.24,166.14 L 236.49,167.04 L 236.68,167.96 L 236.83,168.90 L 236.93,169.85 L 236.99,170.81 L 237.01,171.79 L 236.99,172.77 L 236.95,173.75 L 236.88,174.74 L 236.80,175.72 L 236.70,176.70 L 236.60,177.68 L 236.49,178.65 L 236.40,179.61 L 236.31,180.56 L 236.24,181.49 L 236.19,182.42 L 236.17,183.33 L 236.17,184.23 L 236.21,185.12 L 236.29,185.99 L 236.41,186.85 L 236.57,187.70 L 236.77,188.55 L 237.02,189.38 L 237.30,190.20 L 237.63,191.02 L 237.99,191.84 L 238.39,192.65 L 238.82,193.46 L 239.27,194.28 L 239.75,195.09 L 240.25,195.91 L 240.76,196.73 L 241.28,197.56 L 241.79,198.40 L 242.30,199.25 L 242.80,200.10 L 243.28,200.96 L 243.73,201.84 L 244.16,202.72 L 244.55,203.61 L 244.89,204.50 L 245.19,205.41 L 245.45,206.32 L 245.65,207.23 L 245.79,208.15 L 245.88,209.08 L 245.91,210.00 Z" fill="#3a4a3f" stroke="#2f3b32" stroke-width="1.2"/>
<circle cx="140" cy="210" r="89.25" fill="#cfe3d6" stroke="#2f3b32" stroke-width="0.8"/>
<circle cx="140" cy="210" r="64.60" fill="#7bb661" stroke="#2f3b32" stroke-width="0.8"/>
<text x="140" y="330" font-family="Helvetica,Arial" font-size="11" fill="#2f3b32" text-anchor="middle">top &#8212; flutes + beads (green = bunch)</text>
<path d="M 244.19,316.00 L 244.19,95.00 L 243.92,98.68 L 243.66,102.37 L 243.39,106.05 L 243.13,109.73 L 242.87,113.42 L 242.61,117.10 L 242.36,120.78 L 242.12,124.47 L 241.87,128.15 L 241.64,131.83 L 241.41,135.52 L 241.19,139.20 L 240.98,142.88 L 240.78,146.57 L 240.58,150.25 L 240.40,153.93 L 240.23,157.62 L 240.06,161.30 L 239.91,164.98 L 239.77,168.67 L 239.65,172.35 L 239.53,176.03 L 239.43,179.72 L 239.34,183.40 L 239.26,187.08 L 239.20,190.77 L 239.15,194.45 L 239.12,198.13 L 239.10,201.82 L 239.09,205.50 L 239.10,209.18 L 239.12,212.87 L 239.15,216.55 L 239.20,220.23 L 239.26,223.92 L 239.34,227.60 L 239.43,231.28 L 239.53,234.97 L 239.65,238.65 L 239.77,242.33 L 239.91,246.02 L 240.06,249.70 L 240.23,253.38 L 240.40,257.07 L 240.58,260.75 L 240.78,264.43 L 240.98,268.12 L 241.19,271.80 L 241.41,275.48 L 241.64,279.17 L 241.87,282.85 L 242.12,286.53 L 242.36,290.22 L 242.61,293.90 L 242.87,297.58 L 243.13,301.27 L 243.39,304.95 L 243.66,308.63 L 243.92,312.32 L 244.19,316.00 L 445.81,316.00 L 446.08,312.32 L 446.34,308.63 L 446.61,304.95 L 446.87,301.27 L 447.13,297.58 L 447.39,293.90 L 447.64,290.22 L 447.88,286.53 L 448.13,282.85 L 448.36,279.17 L 448.59,275.48 L 448.81,271.80 L 449.02,268.12 L 449.22,264.43 L 449.42,260.75 L 449.60,257.07 L 449.77,253.38 L 449.94,249.70 L 450.09,246.02 L 450.23,242.33 L 450.35,238.65 L 450.47,234.97 L 450.57,231.28 L 450.66,227.60 L 450.74,223.92 L 450.80,220.23 L 450.85,216.55 L 450.88,212.87 L 450.90,209.18 L 450.91,205.50 L 450.90,201.82 L 450.88,198.13 L 450.85,194.45 L 450.80,190.77 L 450.74,187.08 L 450.66,183.40 L 450.57,179.72 L 450.47,176.03 L 450.35,172.35 L 450.23,168.67 L 450.09,164.98 L 449.94,161.30 L 449.77,157.62 L 449.60,153.93 L 449.42,150.25 L 449.22,146.57 L 449.02,142.88 L 448.81,139.20 L 448.59,135.52 L 448.36,131.83 L 448.13,128.15 L 447.88,124.47 L 447.64,120.78 L 447.39,117.10 L 447.13,113.42 L 446.87,109.73 L 446.61,106.05 L 446.34,102.37 L 446.08,98.68 L 445.81,95.00 Z" fill="#4b5f51" stroke="#2f3b32" stroke-width="1.2"/>
<rect x="255.75" y="95.00" width="178.50" height="214.20" fill="#dfeee6" fill-opacity="0.55" stroke="#2f3b32" stroke-width="0.7" stroke-dasharray="4 3"/>
<text x="345" y="330" font-family="Helvetica,Arial" font-size="11" fill="#2f3b32" text-anchor="middle">side &#8212; dashed = water/bead cavity</text>
</svg>