<?xml version="1.0" encoding="UTF-8" standalone="no"?>
<!DOCTYPE svg PUBLIC "-//W3C//DTD SVG 20010904//EN"
              "http://www.w3.org/TR/2001/REC-SVG-20010904/DTD/svg10.dtd">

<svg xmlns="http://www.w3.org/2000/svg"
     width="10.2222in" height="11.8194in"
     viewBox="0 0 736 851">
  <path id="Selection"
        fill="none" stroke="black" stroke-width="1"
        d="M 367.00,0.00
           C 371.13,3.16 372.76,13.85 374.15,19.00
             374.15,19.00 387.48,66.00 387.48,66.00
             387.48,66.00 404.58,126.00 404.58,126.00
             404.58,126.00 432.58,225.00 432.58,225.00
             432.58,225.00 444.66,267.00 444.66,267.00
             445.64,270.22 447.61,280.48 449.72,282.31
             452.34,284.58 464.47,280.52 468.00,279.63
             468.00,279.63 520.00,266.37 520.00,266.37
             520.00,266.37 663.00,230.53 663.00,230.53
             663.00,230.53 721.00,215.77 721.00,215.77
             721.00,215.77 736.00,212.00 736.00,212.00
             733.06,218.22 726.94,222.80 722.42,228.00
             722.42,228.00 698.01,253.00 698.01,253.00
             698.01,253.00 683.00,269.00 683.00,269.00
             678.59,273.42 665.37,284.79 664.00,290.00
             659.94,291.28 654.16,298.77 650.99,302.00
             650.99,302.00 622.68,331.09 622.68,331.09
             622.68,331.09 598.04,356.00 598.04,356.00
             598.04,356.00 561.96,394.00 561.96,394.00
             561.96,394.00 531.00,426.00 531.00,426.00
             531.00,426.00 571.01,467.00 571.01,467.00
             571.01,467.00 590.96,487.00 590.96,487.00
             590.96,487.00 600.01,497.00 600.01,497.00
             600.01,497.00 624.96,522.00 624.96,522.00
             624.96,522.00 633.04,531.00 633.04,531.00
             633.04,531.00 656.96,555.00 656.96,555.00
             656.96,555.00 667.00,566.00 667.00,566.00
             667.00,566.00 712.00,612.00 712.00,612.00
             717.36,617.36 733.23,633.13 736.00,639.00
             736.00,639.00 721.00,635.23 721.00,635.23
             721.00,635.23 663.00,620.48 663.00,620.48
             663.00,620.48 595.00,603.53 595.00,603.53
             595.00,603.53 518.00,584.12 518.00,584.12
             518.00,584.12 449.00,567.00 449.00,567.00
             449.00,567.00 431.74,629.00 431.74,629.00
             431.74,629.00 397.42,750.00 397.42,750.00
             397.42,750.00 377.74,819.00 377.74,819.00
             377.74,819.00 368.00,851.00 368.00,851.00
             368.00,851.00 358.12,819.00 358.12,819.00
             358.12,819.00 342.28,763.00 342.28,763.00
             342.28,763.00 308.26,643.00 308.26,643.00
             308.26,643.00 294.29,594.00 294.29,594.00
             294.29,594.00 287.00,567.00 287.00,567.00
             287.00,567.00 256.00,574.53 256.00,574.53
             256.00,574.53 206.00,587.12 206.00,587.12
             206.00,587.12 73.00,620.48 73.00,620.48
             73.00,620.48 15.00,635.23 15.00,635.23
             15.00,635.23 0.00,639.00 0.00,639.00
             2.68,633.32 17.83,618.17 23.00,613.00
             23.00,613.00 67.00,568.00 67.00,568.00
             67.00,568.00 80.01,554.00 80.01,554.00
             80.01,554.00 145.04,487.00 145.04,487.00
             145.04,487.00 205.00,425.00 205.00,425.00
             205.00,425.00 164.99,384.00 164.99,384.00
             164.99,384.00 79.01,296.00 79.01,296.00
             79.01,296.00 68.00,284.00 68.00,284.00
             68.00,284.00 24.00,239.00 24.00,239.00
             18.65,233.65 2.79,217.90 0.00,212.00
             0.00,212.00 50.00,224.63 50.00,224.63
             50.00,224.63 157.00,251.47 157.00,251.47
             157.00,251.47 215.00,266.21 215.00,266.21
             215.00,266.21 267.00,279.37 267.00,279.37
             270.34,280.21 283.08,284.13 285.57,282.81
             288.44,281.28 290.58,269.49 291.66,266.00
             291.66,266.00 306.72,213.00 306.72,213.00
             306.72,213.00 321.42,161.00 321.42,161.00
             321.42,161.00 349.15,63.00 349.15,63.00
             349.15,63.00 367.00,0.00 367.00,0.00 Z
           M 369.00,26.00
           C 369.00,26.00 367.00,26.00 367.00,26.00
             367.00,26.00 359.42,54.00 359.42,54.00
             359.42,54.00 346.71,99.00 346.71,99.00
             346.71,99.00 313.58,216.00 313.58,216.00
             313.58,216.00 302.57,255.00 302.57,255.00
             302.57,255.00 292.00,293.00 292.00,293.00
             292.00,293.00 226.00,276.47 226.00,276.47
             226.00,276.47 100.00,244.87 100.00,244.87
             100.00,244.87 53.00,232.85 53.00,232.85
             53.00,232.85 23.00,226.00 23.00,226.00
             27.22,233.12 36.95,241.94 43.00,248.00
             43.00,248.00 72.00,278.00 72.00,278.00
             72.00,278.00 87.04,294.00 87.04,294.00
             87.04,294.00 124.04,332.00 124.04,332.00
             124.04,332.00 146.96,355.00 146.96,355.00
             146.96,355.00 159.00,368.00 159.00,368.00
             159.00,368.00 192.00,402.00 192.00,402.00
             199.29,409.29 209.64,418.56 215.00,427.00
             215.00,427.00 196.00,445.00 196.00,445.00
             196.00,445.00 174.96,467.00 174.96,467.00
             174.96,467.00 157.09,484.99 157.09,484.99
             157.09,484.99 139.77,504.00 139.77,504.00
             139.77,504.00 139.00,507.00 139.00,507.00
             133.17,508.10 128.08,514.78 124.04,519.00
             124.04,519.00 93.00,551.00 93.00,551.00
             88.83,555.18 81.66,560.94 81.00,567.00
             74.92,568.15 68.43,576.57 64.00,581.00
             64.00,581.00 40.00,606.00 40.00,606.00
             34.41,611.59 26.68,618.15 23.00,625.00
             23.00,625.00 48.00,619.37 48.00,619.37
             48.00,619.37 100.00,606.13 100.00,606.13
             100.00,606.13 224.00,575.11 224.00,575.11
             224.00,575.11 263.00,565.26 263.00,565.26
             263.00,565.26 292.00,558.00 292.00,558.00
             292.00,558.00 311.57,628.00 311.57,628.00
             311.57,628.00 349.42,762.00 349.42,762.00
             349.42,762.00 367.00,825.00 367.00,825.00
             367.00,825.00 369.00,825.00 369.00,825.00
             369.00,825.00 376.58,797.00 376.58,797.00
             376.58,797.00 392.28,742.00 392.28,742.00
             392.28,742.00 399.43,716.00 399.43,716.00
             399.43,716.00 424.43,628.00 424.43,628.00
             424.43,628.00 444.00,558.00 444.00,558.00
             444.00,558.00 512.00,575.11 512.00,575.11
             512.00,575.11 637.00,606.37 637.00,606.37
             637.00,606.37 682.00,617.88 682.00,617.88
             682.00,617.88 713.00,625.00 713.00,625.00
             710.78,620.89 709.78,618.91 705.00,618.00
             703.84,611.85 696.37,606.37 692.00,602.00
             692.00,602.00 677.96,587.00 677.96,587.00
             677.96,587.00 660.00,569.00 660.00,569.00
             660.00,569.00 648.99,557.00 648.99,557.00
             648.99,557.00 623.04,531.01 623.04,531.01
             623.04,531.01 611.96,519.00 611.96,519.00
             611.96,519.00 591.01,498.00 591.01,498.00
             591.01,498.00 562.01,468.00 562.01,468.00
             562.01,468.00 535.00,440.00 535.00,440.00
             530.93,435.92 525.98,429.52 521.00,427.00
             525.46,419.36 535.50,410.50 542.00,404.00
             542.00,404.00 572.00,373.00 572.00,373.00
             572.00,373.00 590.04,354.00 590.04,354.00
             590.04,354.00 619.07,324.04 619.07,324.04
             619.07,324.04 644.96,298.00 644.96,298.00
             644.96,298.00 657.00,285.00 657.00,285.00
             657.00,285.00 689.00,252.00 689.00,252.00
             696.91,244.06 706.86,235.16 713.00,226.00
             713.00,226.00 683.00,232.85 683.00,232.85
             683.00,232.85 636.00,244.87 636.00,244.87
             636.00,244.87 512.00,275.89 512.00,275.89
             512.00,275.89 444.00,293.00 444.00,293.00
             444.00,293.00 438.28,272.00 438.28,272.00
             438.28,272.00 420.42,209.00 420.42,209.00
             420.42,209.00 392.28,109.00 392.28,109.00
             392.28,109.00 376.86,55.00 376.86,55.00
             376.86,55.00 369.00,26.00 369.00,26.00 Z
           M 714.00,225.00
           C 714.00,225.00 713.00,225.00 713.00,225.00
             713.00,225.00 714.00,226.00 714.00,226.00
             714.00,226.00 714.00,225.00 714.00,225.00 Z
           M 78.00,281.00
           C 78.00,281.00 79.00,281.00 79.00,281.00
             79.00,281.00 78.00,282.00 78.00,282.00
             78.00,282.00 78.00,281.00 78.00,281.00 Z
           M 214.00,417.00
           C 214.00,417.00 215.00,417.00 215.00,417.00
             215.00,417.00 214.00,418.00 214.00,418.00
             214.00,418.00 214.00,417.00 214.00,417.00 Z
           M 97.00,529.00
           C 97.00,529.00 98.00,529.00 98.00,529.00
             98.00,529.00 97.00,530.00 97.00,530.00
             97.00,530.00 97.00,529.00 97.00,529.00 Z" />
</svg>
