<svg xmlns="http://www.w3.org/2000/svg" width="1355" height="360" style="background:#111827">
  <rect x="15" y="45" width="320" height="300" rx="6" fill="#0d1117" stroke="#334155" stroke-width="1"/>
  <text x="175" y="41" text-anchor="middle" fill="#94a3b8" font-size="13" font-family="monospace">Design 6: Granada Arcade</text>
  <path d="M 320.0,319.7 L 30.0,319.7 L 30.0,302.3 L 35.8,302.3 L 34.7,302.2 L 33.6,301.9 L 32.6,301.3 L 31.7,300.6 L 31.0,299.7 L 30.4,298.7 L 30.1,297.6 L 30.0,296.5 L 30.0,76.1 L 30.1,75.0 L 30.4,73.9 L 31.0,72.9 L 31.7,72.0 L 32.6,71.3 L 33.6,70.7 L 34.7,70.4 L 35.8,70.3 L 314.2,70.3 L 315.3,70.4 L 316.4,70.7 L 317.4,71.3 L 318.3,72.0 L 319.0,72.9 L 319.6,73.9 L 319.9,75.0 L 320.0,76.1 L 320.0,296.5 L 319.9,297.6 L 319.6,298.7 L 319.0,299.7 L 318.3,300.6 L 317.4,301.3 L 316.4,301.9 L 315.3,302.2 L 314.2,302.3 L 320.0,302.3 L 320.0,319.7 Z M 48.8,104.4 L 48.8,293.6 L 91.2,293.6 L 91.2,104.4 L 70.0,83.2 L 48.8,104.4 Z M 101.3,104.4 L 101.3,293.6 L 143.7,293.6 L 143.7,104.4 L 122.5,83.2 L 101.3,104.4 Z M 153.8,104.4 L 153.8,293.6 L 196.2,293.6 L 196.2,104.4 L 175.0,83.2 L 153.8,104.4 Z M 227.5,83.2 L 206.3,104.4 L 206.3,293.6 L 248.7,293.6 L 248.7,104.4 L 227.5,83.2 Z M 280.0,83.2 L 258.8,104.4 L 258.8,293.6 L 301.1,293.6 L 301.1,104.4 L 280.0,83.2 Z" fill="#1e3a5f" stroke="#60a5fa" stroke-width="0.8"/>
  <rect x="350" y="45" width="320" height="300" rx="6" fill="#0d1117" stroke="#334155" stroke-width="1"/>
  <text x="510" y="41" text-anchor="middle" fill="#94a3b8" font-size="13" font-family="monospace">Design 4: Diamond Trellis</text>
  <path d="M 365.0,302.3 L 370.8,302.3 L 369.7,302.2 L 368.6,301.9 L 367.6,301.3 L 366.7,300.6 L 366.0,299.7 L 365.4,298.7 L 365.1,297.6 L 365.0,296.5 L 365.0,76.1 L 365.1,75.0 L 365.4,73.9 L 366.0,72.9 L 366.7,72.0 L 367.6,71.3 L 368.6,70.7 L 369.7,70.4 L 370.8,70.3 L 649.2,70.3 L 650.3,70.4 L 651.4,70.7 L 652.4,71.3 L 653.3,72.0 L 654.0,72.9 L 654.6,73.9 L 654.9,75.0 L 655.0,76.1 L 655.0,296.5 L 654.9,297.6 L 654.6,298.7 L 654.0,299.7 L 653.3,300.6 L 652.4,301.3 L 651.4,301.9 L 650.3,302.2 L 649.2,302.3 L 655.0,302.3 L 655.0,319.7 L 365.0,319.7 L 365.0,302.3 Z M 637.0,79.5 L 638.2,79.0 L 636.4,79.0 L 637.0,79.5 Z M 615.7,82.0 L 610.0,84.5 L 614.8,89.3 L 630.6,82.4 L 629.5,81.3 L 631.8,79.0 L 614.4,79.0 L 615.7,82.0 Z M 605.1,79.5 L 606.3,79.0 L 604.5,79.0 L 605.1,79.5 Z M 583.8,82.0 L 578.1,84.5 L 582.9,89.3 L 598.7,82.4 L 597.6,81.3 L 599.9,79.0 L 582.5,79.0 L 583.8,82.0 Z M 573.2,79.5 L 574.4,79.0 L 572.6,79.0 L 573.2,79.5 Z M 551.9,82.0 L 546.2,84.5 L 551.0,89.3 L 566.8,82.4 L 565.7,81.3 L 568.0,79.0 L 550.6,79.0 L 551.9,82.0 Z M 541.3,79.5 L 542.5,79.0 L 540.7,79.0 L 541.3,79.5 Z M 520.0,82.0 L 514.3,84.5 L 519.1,89.3 L 534.9,82.4 L 533.8,81.3 L 536.1,79.0 L 518.7,79.0 L 520.0,82.0 Z M 509.4,79.5 L 510.6,79.0 L 508.8,79.0 L 509.4,79.5 Z M 488.1,82.0 L 482.4,84.5 L 487.2,89.3 L 503.0,82.4 L 501.9,81.3 L 504.2,79.0 L 486.8,79.0 L 488.1,82.0 Z M 477.5,79.5 L 478.7,79.0 L 476.9,79.0 L 477.5,79.5 Z M 456.2,82.0 L 450.5,84.5 L 455.3,89.3 L 471.1,82.4 L 470.0,81.3 L 472.3,79.0 L 454.9,79.0 L 456.2,82.0 Z M 445.6,79.5 L 446.8,79.0 L 445.0,79.0 L 445.6,79.5 Z M 424.3,82.0 L 418.6,84.5 L 423.4,89.3 L 439.2,82.4 L 438.1,81.3 L 440.4,79.0 L 423.0,79.0 L 424.3,82.0 Z M 413.7,79.5 L 414.9,79.0 L 413.1,79.0 L 413.7,79.5 Z M 392.4,82.0 L 386.7,84.5 L 391.5,89.3 L 407.3,82.4 L 406.2,81.3 L 408.5,79.0 L 391.1,79.0 L 392.4,82.0 Z M 381.8,79.5 L 383.0,79.0 L 381.2,79.0 L 381.8,79.5 Z M 373.7,83.1 L 375.4,82.4 L 374.3,81.3 L 376.6,79.0 L 373.7,79.0 L 373.7,83.1 Z M 385.1,92.1 L 380.3,87.3 L 373.7,90.2 L 373.7,97.2 L 385.1,92.1 Z M 382.5,121.4 L 377.7,116.6 L 373.7,118.3 L 373.7,125.3 L 382.5,121.4 Z M 376.5,138.1 L 392.2,131.1 L 387.4,126.3 L 373.7,132.4 L 373.7,135.3 L 376.5,138.1 Z M 379.8,150.7 L 375.0,145.8 L 373.7,146.4 L 373.7,153.4 L 379.8,150.7 Z M 373.9,167.3 L 389.6,160.4 L 384.8,155.6 L 373.7,160.5 L 373.7,167.2 L 373.9,167.3 Z M 377.2,179.9 L 373.7,176.4 L 373.7,181.5 L 377.2,179.9 Z M 387.0,189.7 L 382.2,184.9 L 373.7,188.6 L 373.7,195.5 L 387.0,189.7 Z M 374.6,209.2 L 373.7,208.3 L 373.7,209.6 L 374.6,209.2 Z M 384.3,218.9 L 379.5,214.1 L 373.7,216.7 L 373.7,223.6 L 384.3,218.9 Z M 378.3,235.6 L 394.1,228.7 L 389.3,223.9 L 373.7,230.7 L 373.7,231.0 L 378.3,235.6 Z M 381.7,248.2 L 376.9,243.4 L 373.7,244.8 L 373.7,251.7 L 381.7,248.2 Z M 375.7,264.9 L 391.4,258.0 L 386.6,253.1 L 373.7,258.8 L 373.7,262.9 L 375.7,264.9 Z M 379.0,277.5 L 374.2,272.7 L 373.7,272.9 L 373.7,279.8 L 379.0,277.5 Z M 382.4,293.6 L 381.1,290.6 L 388.8,287.2 L 384.0,282.4 L 373.7,286.9 L 373.7,293.6 L 382.4,293.6 Z M 393.8,292.2 L 390.5,293.6 L 395.2,293.6 L 393.8,292.2 Z M 413.0,290.6 L 420.7,287.2 L 415.9,282.4 L 400.2,289.3 L 402.1,291.3 L 399.8,293.6 L 414.3,293.6 L 413.0,290.6 Z M 425.7,292.2 L 422.4,293.6 L 427.1,293.6 L 425.7,292.2 Z M 444.9,290.6 L 452.6,287.2 L 447.8,282.4 L 432.1,289.3 L 434.0,291.3 L 431.7,293.6 L 446.2,293.6 L 444.9,290.6 Z M 457.6,292.2 L 454.3,293.6 L 459.0,293.6 L 457.6,292.2 Z M 476.8,290.6 L 484.5,287.2 L 479.7,282.4 L 464.0,289.3 L 465.9,291.3 L 463.6,293.6 L 478.1,293.6 L 476.8,290.6 Z M 489.5,292.2 L 486.2,293.6 L 490.9,293.6 L 489.5,292.2 Z M 508.7,290.6 L 516.4,287.2 L 511.6,282.4 L 495.9,289.3 L 497.8,291.3 L 495.5,293.6 L 510.0,293.6 L 508.7,290.6 Z M 521.4,292.2 L 518.1,293.6 L 522.8,293.6 L 521.4,292.2 Z M 540.6,290.6 L 548.3,287.2 L 543.5,282.4 L 527.8,289.3 L 529.7,291.3 L 527.4,293.6 L 541.9,293.6 L 540.6,290.6 Z M 553.3,292.2 L 550.0,293.6 L 554.7,293.6 L 553.3,292.2 Z M 572.5,290.6 L 580.2,287.2 L 575.4,282.4 L 559.7,289.3 L 561.6,291.3 L 559.3,293.6 L 573.8,293.6 L 572.5,290.6 Z M 585.2,292.2 L 581.9,293.6 L 586.6,293.6 L 585.2,292.2 Z M 604.4,290.6 L 612.1,287.2 L 607.3,282.4 L 591.6,289.3 L 593.5,291.3 L 591.2,293.6 L 605.7,293.6 L 604.4,290.6 Z M 617.1,292.2 L 613.8,293.6 L 618.5,293.6 L 617.1,292.2 Z M 636.3,290.6 L 644.0,287.2 L 639.2,282.4 L 623.5,289.3 L 625.4,291.3 L 623.1,293.6 L 637.6,293.6 L 636.3,290.6 Z M 646.3,293.3 L 645.7,293.6 L 646.3,293.6 L 646.3,293.3 Z M 645.6,279.6 L 646.3,280.3 L 646.3,279.3 L 645.6,279.6 Z M 635.8,269.8 L 640.7,274.6 L 646.3,272.2 L 646.3,265.2 L 635.8,269.8 Z M 641.8,253.1 L 626.1,260.1 L 630.9,264.9 L 646.3,258.1 L 646.3,257.6 L 641.8,253.1 Z M 638.5,240.6 L 643.3,245.4 L 646.3,244.0 L 646.3,237.1 L 638.5,240.6 Z M 644.5,223.9 L 628.7,230.8 L 633.5,235.6 L 646.3,230.0 L 646.3,225.7 L 644.5,223.9 Z M 641.1,211.3 L 645.9,216.1 L 646.3,215.9 L 646.3,209.0 L 641.1,211.3 Z M 631.4,201.6 L 636.2,206.4 L 646.3,201.9 L 646.3,195.0 L 631.4,201.6 Z M 643.8,182.0 L 646.3,184.6 L 646.3,180.9 L 643.8,182.0 Z M 634.0,172.3 L 638.8,177.1 L 646.3,173.8 L 646.3,166.9 L 634.0,172.3 Z M 636.6,143.0 L 641.4,147.8 L 646.3,145.7 L 646.3,138.8 L 636.6,143.0 Z M 642.6,126.3 L 626.9,133.3 L 631.7,138.1 L 646.3,131.6 L 646.3,130.0 L 642.6,126.3 Z M 639.3,113.8 L 644.1,118.6 L 646.3,117.6 L 646.3,110.7 L 639.3,113.8 Z M 645.3,97.1 L 629.5,104.0 L 634.3,108.8 L 646.3,103.5 L 646.3,98.1 L 645.3,97.1 Z M 641.9,84.5 L 646.3,88.9 L 646.3,82.6 L 641.9,84.5 Z M 412.2,87.3 L 396.5,94.3 L 401.3,99.1 L 417.0,92.1 L 412.2,87.3 Z M 390.1,97.1 L 374.3,104.0 L 379.1,108.8 L 394.9,101.9 L 390.1,97.1 Z M 444.1,87.3 L 428.4,94.3 L 433.2,99.1 L 448.9,92.1 L 444.1,87.3 Z M 422.0,97.1 L 406.2,104.0 L 411.0,108.8 L 426.8,101.9 L 422.0,97.1 Z M 399.8,106.8 L 384.1,113.8 L 388.9,118.6 L 404.6,111.6 L 399.8,106.8 Z M 476.0,87.3 L 460.3,94.3 L 465.1,99.1 L 480.8,92.1 L 476.0,87.3 Z M 453.9,97.1 L 438.1,104.0 L 442.9,108.8 L 458.7,101.9 L 453.9,97.1 Z M 431.7,106.8 L 416.0,113.8 L 420.8,118.6 L 436.5,111.6 L 431.7,106.8 Z M 409.6,116.6 L 393.8,123.5 L 398.6,128.3 L 414.4,121.4 L 409.6,116.6 Z M 507.9,87.3 L 492.2,94.3 L 497.0,99.1 L 512.7,92.1 L 507.9,87.3 Z M 485.8,97.1 L 470.0,104.0 L 474.8,108.8 L 490.6,101.9 L 485.8,97.1 Z M 463.6,106.8 L 447.9,113.8 L 452.7,118.6 L 468.4,111.6 L 463.6,106.8 Z M 441.5,116.6 L 425.7,123.5 L 430.5,128.3 L 446.3,121.4 L 441.5,116.6 Z M 419.3,126.3 L 403.6,133.3 L 408.4,138.1 L 424.1,131.1 L 419.3,126.3 Z M 539.8,87.3 L 524.1,94.3 L 528.9,99.1 L 544.6,92.1 L 539.8,87.3 Z M 517.7,97.1 L 501.9,104.0 L 506.7,108.8 L 522.5,101.9 L 517.7,97.1 Z M 495.5,106.8 L 479.8,113.8 L 484.6,118.6 L 500.3,111.6 L 495.5,106.8 Z M 473.4,116.6 L 457.6,123.5 L 462.4,128.3 L 478.2,121.4 L 473.4,116.6 Z M 451.2,126.3 L 435.5,133.3 L 440.3,138.1 L 456.0,131.1 L 451.2,126.3 Z M 429.1,136.1 L 413.3,143.0 L 418.1,147.8 L 433.9,140.9 L 429.1,136.1 Z M 571.7,87.3 L 556.0,94.3 L 560.8,99.1 L 576.5,92.1 L 571.7,87.3 Z M 549.6,97.1 L 533.8,104.0 L 538.6,108.8 L 554.4,101.9 L 549.6,97.1 Z M 527.4,106.8 L 511.7,113.8 L 516.5,118.6 L 532.2,111.6 L 527.4,106.8 Z M 505.3,116.6 L 489.5,123.5 L 494.3,128.3 L 510.1,121.4 L 505.3,116.6 Z M 483.1,126.3 L 467.4,133.3 L 472.2,138.1 L 487.9,131.1 L 483.1,126.3 Z M 461.0,136.1 L 445.2,143.0 L 450.0,147.8 L 465.8,140.9 L 461.0,136.1 Z M 438.8,145.8 L 423.1,152.8 L 427.9,157.6 L 443.6,150.7 L 438.8,145.8 Z M 603.6,87.3 L 587.9,94.3 L 592.7,99.1 L 608.4,92.1 L 603.6,87.3 Z M 581.5,97.1 L 565.7,104.0 L 570.5,108.8 L 586.3,101.9 L 581.5,97.1 Z M 559.3,106.8 L 543.6,113.8 L 548.4,118.6 L 564.1,111.6 L 559.3,106.8 Z M 537.2,116.6 L 521.4,123.5 L 526.2,128.3 L 542.0,121.4 L 537.2,116.6 Z M 515.0,126.3 L 499.3,133.3 L 504.1,138.1 L 519.8,131.1 L 515.0,126.3 Z M 492.9,136.1 L 477.1,143.0 L 481.9,147.8 L 497.7,140.9 L 492.9,136.1 Z M 470.7,145.8 L 455.0,152.8 L 459.8,157.6 L 475.5,150.7 L 470.7,145.8 Z M 448.6,155.6 L 432.8,162.5 L 437.7,167.3 L 453.4,160.4 L 448.6,155.6 Z M 635.5,87.3 L 619.8,94.3 L 624.6,99.1 L 640.3,92.1 L 635.5,87.3 Z M 613.4,97.1 L 597.6,104.0 L 602.4,108.8 L 618.2,101.9 L 613.4,97.1 Z M 591.2,106.8 L 575.5,113.8 L 580.3,118.6 L 596.0,111.6 L 591.2,106.8 Z M 569.1,116.6 L 553.3,123.5 L 558.1,128.3 L 573.9,121.4 L 569.1,116.6 Z M 546.9,126.3 L 531.2,133.3 L 536.0,138.1 L 551.7,131.1 L 546.9,126.3 Z M 524.8,136.1 L 509.0,143.0 L 513.8,147.8 L 529.6,140.9 L 524.8,136.1 Z M 502.6,145.8 L 486.9,152.8 L 491.7,157.6 L 507.4,150.7 L 502.6,145.8 Z M 480.5,155.6 L 464.7,162.5 L 469.6,167.3 L 485.3,160.4 L 480.5,155.6 Z M 458.3,165.4 L 442.6,172.3 L 447.4,177.1 L 463.1,170.2 L 458.3,165.4 Z M 623.1,106.8 L 607.4,113.8 L 612.2,118.6 L 627.9,111.6 L 623.1,106.8 Z M 601.0,116.6 L 585.2,123.5 L 590.0,128.3 L 605.8,121.4 L 601.0,116.6 Z M 578.8,126.3 L 563.1,133.3 L 567.9,138.1 L 583.6,131.1 L 578.8,126.3 Z M 556.7,136.1 L 540.9,143.0 L 545.7,147.8 L 561.5,140.9 L 556.7,136.1 Z M 534.5,145.8 L 518.8,152.8 L 523.6,157.6 L 539.3,150.7 L 534.5,145.8 Z M 512.4,155.6 L 496.6,162.5 L 501.5,167.3 L 517.2,160.4 L 512.4,155.6 Z M 490.2,165.4 L 474.5,172.3 L 479.3,177.1 L 495.0,170.2 L 490.2,165.4 Z M 468.1,175.1 L 452.4,182.0 L 457.2,186.8 L 472.9,179.9 L 468.1,175.1 Z M 632.9,116.6 L 617.1,123.5 L 621.9,128.3 L 637.7,121.4 L 632.9,116.6 Z M 610.7,126.3 L 595.0,133.3 L 599.8,138.1 L 615.5,131.1 L 610.7,126.3 Z M 588.6,136.1 L 572.8,143.0 L 577.6,147.8 L 593.4,140.9 L 588.6,136.1 Z M 566.4,145.8 L 550.7,152.8 L 555.5,157.6 L 571.2,150.7 L 566.4,145.8 Z M 544.3,155.6 L 528.5,162.5 L 533.4,167.3 L 549.1,160.4 L 544.3,155.6 Z M 522.1,165.4 L 506.4,172.3 L 511.2,177.1 L 526.9,170.2 L 522.1,165.4 Z M 500.0,175.1 L 484.3,182.0 L 489.1,186.8 L 504.8,179.9 L 500.0,175.1 Z M 477.9,184.9 L 462.1,191.8 L 466.9,196.6 L 482.7,189.7 L 477.9,184.9 Z M 471.9,201.6 L 476.7,206.4 L 492.4,199.4 L 487.6,194.6 L 471.9,201.6 Z M 481.6,211.3 L 486.4,216.1 L 502.2,209.2 L 497.4,204.4 L 481.6,211.3 Z M 491.4,221.1 L 496.2,225.9 L 511.9,218.9 L 507.1,214.1 L 491.4,221.1 Z M 501.1,230.8 L 505.9,235.6 L 521.7,228.7 L 516.9,223.9 L 501.1,230.8 Z M 510.9,240.6 L 515.7,245.4 L 531.4,238.4 L 526.6,233.6 L 510.9,240.6 Z M 520.6,250.3 L 525.4,255.1 L 541.2,248.2 L 536.4,243.4 L 520.6,250.3 Z M 530.4,260.1 L 535.2,264.9 L 550.9,258.0 L 546.1,253.1 L 530.4,260.1 Z M 540.1,269.8 L 545.0,274.6 L 560.7,267.7 L 555.9,262.9 L 540.1,269.8 Z M 549.9,279.6 L 554.7,284.4 L 570.4,277.5 L 565.6,272.7 L 549.9,279.6 Z M 538.5,277.5 L 533.7,272.7 L 518.0,279.6 L 522.8,284.4 L 538.5,277.5 Z M 528.8,267.7 L 524.0,262.9 L 508.2,269.8 L 513.1,274.6 L 528.8,267.7 Z M 519.0,258.0 L 514.2,253.1 L 498.5,260.1 L 503.3,264.9 L 519.0,258.0 Z M 509.3,248.2 L 504.5,243.4 L 488.7,250.3 L 493.5,255.1 L 509.3,248.2 Z M 499.5,238.4 L 494.7,233.6 L 479.0,240.6 L 483.8,245.4 L 499.5,238.4 Z M 489.8,228.7 L 485.0,223.9 L 469.2,230.8 L 474.0,235.6 L 489.8,228.7 Z M 480.0,218.9 L 475.2,214.1 L 459.5,221.1 L 464.3,225.9 L 480.0,218.9 Z M 470.3,209.2 L 465.5,204.4 L 449.7,211.3 L 454.5,216.1 L 470.3,209.2 Z M 460.5,199.4 L 455.7,194.6 L 440.0,201.6 L 444.8,206.4 L 460.5,199.4 Z M 506.6,277.5 L 501.8,272.7 L 486.1,279.6 L 490.9,284.4 L 506.6,277.5 Z M 496.9,267.7 L 492.1,262.9 L 476.3,269.8 L 481.2,274.6 L 496.9,267.7 Z M 487.1,258.0 L 482.3,253.1 L 466.6,260.1 L 471.4,264.9 L 487.1,258.0 Z M 477.4,248.2 L 472.6,243.4 L 456.8,250.3 L 461.6,255.1 L 477.4,248.2 Z M 467.6,238.4 L 462.8,233.6 L 447.1,240.6 L 451.9,245.4 L 467.6,238.4 Z M 457.9,228.7 L 453.1,223.9 L 437.3,230.8 L 442.1,235.6 L 457.9,228.7 Z M 448.1,218.9 L 443.3,214.1 L 427.6,221.1 L 432.4,225.9 L 448.1,218.9 Z M 438.4,209.2 L 433.6,204.4 L 417.8,211.3 L 422.6,216.1 L 438.4,209.2 Z M 474.7,277.5 L 469.9,272.7 L 454.2,279.6 L 459.0,284.4 L 474.7,277.5 Z M 465.0,267.7 L 460.2,262.9 L 444.4,269.8 L 449.3,274.6 L 465.0,267.7 Z M 455.2,258.0 L 450.4,253.1 L 434.7,260.1 L 439.5,264.9 L 455.2,258.0 Z M 445.5,248.2 L 440.7,243.4 L 424.9,250.3 L 429.7,255.1 L 445.5,248.2 Z M 435.7,238.4 L 430.9,233.6 L 415.2,240.6 L 420.0,245.4 L 435.7,238.4 Z M 426.0,228.7 L 421.2,223.9 L 405.4,230.8 L 410.2,235.6 L 426.0,228.7 Z M 416.2,218.9 L 411.4,214.1 L 395.7,221.1 L 400.5,225.9 L 416.2,218.9 Z M 442.8,277.5 L 438.0,272.7 L 422.3,279.6 L 427.1,284.4 L 442.8,277.5 Z M 433.1,267.7 L 428.3,262.9 L 412.5,269.8 L 417.4,274.6 L 433.1,267.7 Z M 423.3,258.0 L 418.5,253.1 L 402.8,260.1 L 407.6,264.9 L 423.3,258.0 Z M 413.6,248.2 L 408.8,243.4 L 393.0,250.3 L 397.8,255.1 L 413.6,248.2 Z M 403.8,238.4 L 399.0,233.6 L 383.3,240.6 L 388.1,245.4 L 403.8,238.4 Z M 410.9,277.5 L 406.1,272.7 L 390.4,279.6 L 395.2,284.4 L 410.9,277.5 Z M 401.2,267.7 L 396.4,262.9 L 380.6,269.8 L 385.5,274.6 L 401.2,267.7 Z M 386.2,147.8 L 402.0,140.9 L 397.2,136.1 L 381.4,143.0 L 386.2,147.8 Z M 396.0,157.6 L 411.7,150.7 L 406.9,145.8 L 391.2,152.8 L 396.0,157.6 Z M 421.5,160.4 L 416.7,155.6 L 400.9,162.5 L 405.8,167.3 L 421.5,160.4 Z M 399.3,170.2 L 394.5,165.4 L 378.8,172.3 L 383.6,177.1 L 399.3,170.2 Z M 431.2,170.2 L 426.4,165.4 L 410.7,172.3 L 415.5,177.1 L 431.2,170.2 Z M 409.1,179.9 L 404.3,175.1 L 388.6,182.0 L 393.4,186.8 L 409.1,179.9 Z M 414.1,184.9 L 398.3,191.8 L 403.1,196.6 L 418.9,189.7 L 414.1,184.9 Z M 423.8,194.6 L 408.1,201.6 L 412.9,206.4 L 428.6,199.4 L 423.8,194.6 Z M 390.7,216.1 L 406.5,209.2 L 401.7,204.4 L 385.9,211.3 L 390.7,216.1 Z M 381.0,206.4 L 396.7,199.4 L 391.9,194.6 L 376.2,201.6 L 381.0,206.4 Z M 436.2,175.1 L 420.5,182.0 L 425.3,186.8 L 441.0,179.9 L 436.2,175.1 Z M 430.2,191.8 L 435.0,196.6 L 450.8,189.7 L 446.0,184.9 L 430.2,191.8 Z M 632.1,243.4 L 616.3,250.3 L 621.1,255.1 L 636.9,248.2 L 632.1,243.4 Z M 629.4,272.7 L 613.7,279.6 L 618.5,284.4 L 634.2,277.5 L 629.4,272.7 Z M 619.7,262.9 L 603.9,269.8 L 608.8,274.6 L 624.5,267.7 L 619.7,262.9 Z M 609.9,253.1 L 594.2,260.1 L 599.0,264.9 L 614.7,258.0 L 609.9,253.1 Z M 597.5,272.7 L 581.8,279.6 L 586.6,284.4 L 602.3,277.5 L 597.5,272.7 Z M 587.8,262.9 L 572.0,269.8 L 576.9,274.6 L 592.6,267.7 L 587.8,262.9 Z M 609.5,147.8 L 625.3,140.9 L 620.5,136.1 L 604.7,143.0 L 609.5,147.8 Z M 587.4,157.6 L 603.1,150.7 L 598.3,145.8 L 582.6,152.8 L 587.4,157.6 Z M 619.3,157.6 L 635.0,150.7 L 630.2,145.8 L 614.5,152.8 L 619.3,157.6 Z M 597.2,167.3 L 612.9,160.4 L 608.1,155.6 L 592.3,162.5 L 597.2,167.3 Z M 629.1,167.3 L 644.8,160.4 L 640.0,155.6 L 624.2,162.5 L 629.1,167.3 Z M 606.9,177.1 L 622.6,170.2 L 617.8,165.4 L 602.1,172.3 L 606.9,177.1 Z M 616.7,186.8 L 632.4,179.9 L 627.6,175.1 L 611.9,182.0 L 616.7,186.8 Z M 642.2,189.7 L 637.4,184.9 L 621.6,191.8 L 626.4,196.6 L 642.2,189.7 Z M 619.0,221.1 L 623.8,225.9 L 639.5,218.9 L 634.7,214.1 L 619.0,221.1 Z M 609.2,211.3 L 614.0,216.1 L 629.8,209.2 L 625.0,204.4 L 609.2,211.3 Z M 599.5,201.6 L 604.3,206.4 L 620.0,199.4 L 615.2,194.6 L 599.5,201.6 Z M 589.7,191.8 L 594.5,196.6 L 610.3,189.7 L 605.5,184.9 L 589.7,191.8 Z M 606.6,240.6 L 611.4,245.4 L 627.1,238.4 L 622.3,233.6 L 606.6,240.6 Z M 596.8,230.8 L 601.6,235.6 L 617.4,228.7 L 612.6,223.9 L 596.8,230.8 Z M 587.1,221.1 L 591.9,225.9 L 607.6,218.9 L 602.8,214.1 L 587.1,221.1 Z M 577.3,211.3 L 582.1,216.1 L 597.9,209.2 L 593.1,204.4 L 577.3,211.3 Z M 567.6,201.6 L 572.4,206.4 L 588.1,199.4 L 583.3,194.6 L 567.6,201.6 Z M 584.4,250.3 L 589.2,255.1 L 605.0,248.2 L 600.2,243.4 L 584.4,250.3 Z M 574.7,240.6 L 579.5,245.4 L 595.2,238.4 L 590.4,233.6 L 574.7,240.6 Z M 564.9,230.8 L 569.7,235.6 L 585.5,228.7 L 580.7,223.9 L 564.9,230.8 Z M 555.2,221.1 L 560.0,225.9 L 575.7,218.9 L 570.9,214.1 L 555.2,221.1 Z M 545.4,211.3 L 550.2,216.1 L 566.0,209.2 L 561.2,204.4 L 545.4,211.3 Z M 562.3,260.1 L 567.1,264.9 L 582.8,258.0 L 578.0,253.1 L 562.3,260.1 Z M 552.5,250.3 L 557.3,255.1 L 573.1,248.2 L 568.3,243.4 L 552.5,250.3 Z M 542.8,240.6 L 547.6,245.4 L 563.3,238.4 L 558.5,233.6 L 542.8,240.6 Z M 533.0,230.8 L 537.8,235.6 L 553.6,228.7 L 548.8,223.9 L 533.0,230.8 Z M 523.3,221.1 L 528.1,225.9 L 543.8,218.9 L 539.0,214.1 L 523.3,221.1 Z M 581.0,160.4 L 576.2,155.6 L 560.4,162.5 L 565.3,167.3 L 581.0,160.4 Z M 558.8,170.2 L 554.0,165.4 L 538.3,172.3 L 543.1,177.1 L 558.8,170.2 Z M 536.7,179.9 L 531.9,175.1 L 516.2,182.0 L 521.0,186.8 L 536.7,179.9 Z M 590.7,170.2 L 585.9,165.4 L 570.2,172.3 L 575.0,177.1 L 590.7,170.2 Z M 568.6,179.9 L 563.8,175.1 L 548.1,182.0 L 552.9,186.8 L 568.6,179.9 Z M 546.5,189.7 L 541.7,184.9 L 525.9,191.8 L 530.7,196.6 L 546.5,189.7 Z M 551.4,194.6 L 535.7,201.6 L 540.5,206.4 L 556.2,199.4 L 551.4,194.6 Z M 518.3,216.1 L 534.1,209.2 L 529.3,204.4 L 513.5,211.3 L 518.3,216.1 Z M 508.6,206.4 L 524.3,199.4 L 519.5,194.6 L 503.8,201.6 L 508.6,206.4 Z M 509.8,184.9 L 494.0,191.8 L 498.8,196.6 L 514.6,189.7 L 509.8,184.9 Z M 595.7,175.1 L 580.0,182.0 L 584.8,186.8 L 600.5,179.9 L 595.7,175.1 Z M 573.6,184.9 L 557.8,191.8 L 562.6,196.6 L 578.4,189.7 L 573.6,184.9 Z" fill="#1e3a5f" stroke="#60a5fa" stroke-width="0.8"/>
  <rect x="685" y="45" width="320" height="300" rx="6" fill="#0d1117" stroke="#334155" stroke-width="1"/>
  <text x="845" y="41" text-anchor="middle" fill="#94a3b8" font-size="13" font-family="monospace">Design 5: Seville Clover</text>
  <path d="M 990.0,319.7 L 700.0,319.7 L 700.0,302.3 L 705.8,302.3 L 704.7,302.2 L 703.6,301.9 L 702.6,301.3 L 701.7,300.6 L 701.0,299.7 L 700.4,298.7 L 700.1,297.6 L 700.0,296.5 L 700.0,76.1 L 700.1,75.0 L 700.4,73.9 L 701.0,72.9 L 701.7,72.0 L 702.6,71.3 L 703.6,70.7 L 704.7,70.4 L 705.8,70.3 L 984.2,70.3 L 985.3,70.4 L 986.4,70.7 L 987.4,71.3 L 988.3,72.0 L 989.0,72.9 L 989.6,73.9 L 989.9,75.0 L 990.0,76.1 L 990.0,296.5 L 989.9,297.6 L 989.6,298.7 L 989.0,299.7 L 988.3,300.6 L 987.4,301.3 L 986.4,301.9 L 985.3,302.2 L 984.2,302.3 L 990.0,302.3 L 990.0,319.7 Z M 722.7,289.8 L 726.9,292.7 L 731.6,293.6 L 732.2,293.6 L 736.9,292.7 L 741.1,289.8 L 744.0,285.6 L 744.5,283.0 L 747.1,282.5 L 751.3,279.6 L 754.2,275.4 L 755.1,270.7 L 756.0,275.4 L 758.9,279.6 L 763.1,282.5 L 765.7,283.0 L 766.2,285.6 L 769.1,289.8 L 773.3,292.7 L 778.0,293.6 L 778.6,293.6 L 783.3,292.7 L 787.5,289.8 L 790.4,285.6 L 790.9,283.0 L 793.5,282.5 L 797.7,279.6 L 800.6,275.4 L 801.5,270.7 L 802.4,275.4 L 805.3,279.6 L 809.5,282.5 L 812.1,283.0 L 812.6,285.6 L 815.5,289.8 L 819.7,292.7 L 824.4,293.6 L 825.0,293.6 L 829.7,292.7 L 833.9,289.8 L 836.8,285.6 L 837.3,283.0 L 839.9,282.5 L 844.1,279.6 L 847.0,275.4 L 847.9,270.7 L 848.8,275.4 L 851.7,279.6 L 855.9,282.5 L 858.5,283.0 L 859.0,285.6 L 861.9,289.8 L 866.1,292.7 L 870.8,293.6 L 871.4,293.6 L 876.1,292.7 L 880.3,289.8 L 883.2,285.6 L 883.7,283.0 L 886.3,282.5 L 890.5,279.6 L 893.4,275.4 L 894.3,270.7 L 895.2,275.4 L 898.1,279.6 L 902.3,282.5 L 904.9,283.0 L 905.4,285.6 L 908.3,289.8 L 912.5,292.7 L 917.2,293.6 L 917.8,293.6 L 922.5,292.7 L 926.7,289.8 L 929.6,285.6 L 930.1,283.0 L 932.7,282.5 L 936.9,279.6 L 939.8,275.4 L 940.7,270.7 L 941.6,275.4 L 944.5,279.6 L 948.7,282.5 L 951.3,283.0 L 951.8,285.6 L 954.7,289.8 L 958.9,292.7 L 963.6,293.6 L 964.2,293.6 L 968.9,292.7 L 973.1,289.8 L 976.0,285.6 L 976.5,283.0 L 979.1,282.5 L 981.3,281.0 L 981.3,259.8 L 979.1,258.3 L 976.5,257.8 L 976.0,255.2 L 973.1,251.0 L 968.9,248.1 L 964.2,247.2 L 968.9,246.3 L 973.1,243.4 L 976.0,239.2 L 976.5,236.6 L 979.1,236.1 L 981.3,234.6 L 981.3,213.4 L 979.1,211.9 L 976.5,211.4 L 976.0,208.8 L 973.1,204.6 L 968.9,201.7 L 964.2,200.8 L 968.9,199.9 L 973.1,197.0 L 976.0,192.8 L 976.5,190.2 L 979.1,189.7 L 981.3,188.2 L 981.3,167.0 L 979.1,165.5 L 976.5,165.0 L 976.0,162.4 L 973.1,158.2 L 968.9,155.3 L 964.2,154.4 L 968.9,153.5 L 973.1,150.6 L 976.0,146.4 L 976.5,143.8 L 979.1,143.3 L 981.3,141.8 L 981.3,120.6 L 979.1,119.1 L 976.5,118.6 L 976.0,116.0 L 973.1,111.8 L 968.9,108.9 L 964.2,108.0 L 968.9,107.1 L 973.1,104.2 L 976.0,100.0 L 976.5,97.4 L 979.1,96.9 L 981.3,95.4 L 981.3,79.0 L 942.2,79.0 L 941.6,79.8 L 940.7,84.5 L 939.8,79.8 L 939.2,79.0 L 895.8,79.0 L 895.2,79.8 L 894.3,84.5 L 893.4,79.8 L 892.8,79.0 L 849.4,79.0 L 848.8,79.8 L 847.9,84.5 L 847.0,79.8 L 846.4,79.0 L 803.0,79.0 L 802.4,79.8 L 801.5,84.5 L 800.6,79.8 L 800.0,79.0 L 756.6,79.0 L 756.0,79.8 L 755.1,84.5 L 754.2,79.8 L 753.6,79.0 L 710.2,79.0 L 709.6,79.8 L 708.7,84.5 L 708.7,85.1 L 709.6,89.8 L 712.5,94.0 L 716.7,96.9 L 719.3,97.4 L 719.8,100.0 L 722.7,104.2 L 726.9,107.1 L 731.6,108.0 L 726.9,108.9 L 722.7,111.8 L 719.8,116.0 L 719.3,118.6 L 716.7,119.1 L 712.5,122.0 L 709.6,126.2 L 708.7,130.9 L 708.7,131.5 L 709.6,136.2 L 712.5,140.4 L 716.7,143.3 L 719.3,143.8 L 719.8,146.4 L 722.7,150.6 L 726.9,153.5 L 731.6,154.4 L 726.9,155.3 L 722.7,158.2 L 719.8,162.4 L 719.3,165.0 L 716.7,165.5 L 712.5,168.4 L 709.6,172.6 L 708.7,177.3 L 708.7,177.9 L 709.6,182.6 L 712.5,186.8 L 716.7,189.7 L 719.3,190.2 L 719.8,192.8 L 722.7,197.0 L 726.9,199.9 L 731.6,200.8 L 726.9,201.7 L 722.7,204.6 L 719.8,208.8 L 719.3,211.4 L 716.7,211.9 L 712.5,214.8 L 709.6,219.0 L 708.7,223.7 L 708.7,224.3 L 709.6,229.0 L 712.5,233.2 L 716.7,236.1 L 719.3,236.6 L 719.8,239.2 L 722.7,243.4 L 726.9,246.3 L 731.6,247.2 L 726.9,248.1 L 722.7,251.0 L 719.8,255.2 L 719.3,257.8 L 716.7,258.3 L 712.5,261.2 L 709.6,265.4 L 708.7,270.1 L 708.7,270.7 L 709.6,275.4 L 712.5,279.6 L 716.7,282.5 L 719.3,283.0 L 719.8,285.6 L 722.7,289.8 Z" fill="#1e3a5f" stroke="#60a5fa" stroke-width="0.8"/>
  <path d="M 847.0,89.8 L 847.9,85.1 L 848.8,89.8 L 851.7,94.0 L 855.9,96.9 L 858.5,97.4 L 859.0,100.0 L 861.9,104.2 L 866.1,107.1 L 870.8,108.0 L 866.1,108.9 L 861.9,111.8 L 859.0,116.0 L 858.5,118.6 L 855.9,119.1 L 851.7,122.0 L 848.8,126.2 L 847.9,130.9 L 847.0,126.2 L 844.1,122.0 L 839.9,119.1 L 837.3,118.6 L 836.8,116.0 L 833.9,111.8 L 829.7,108.9 L 825.0,108.0 L 829.7,107.1 L 833.9,104.2 L 836.8,100.0 L 837.3,97.4 L 839.9,96.9 L 844.1,94.0 L 847.0,89.8 Z" fill="#1e3a5f" stroke="#60a5fa" stroke-width="0.8"/>
  <path d="M 847.0,136.2 L 847.9,131.5 L 848.8,136.2 L 851.7,140.4 L 855.9,143.3 L 858.5,143.8 L 859.0,146.4 L 861.9,150.6 L 866.1,153.5 L 870.8,154.4 L 866.1,155.3 L 861.9,158.2 L 859.0,162.4 L 858.5,165.0 L 855.9,165.5 L 851.7,168.4 L 848.8,172.6 L 847.9,177.3 L 847.0,172.6 L 844.1,168.4 L 839.9,165.5 L 837.3,165.0 L 836.8,162.4 L 833.9,158.2 L 829.7,155.3 L 825.0,154.4 L 829.7,153.5 L 833.9,150.6 L 836.8,146.4 L 837.3,143.8 L 839.9,143.3 L 844.1,140.4 L 847.0,136.2 Z" fill="#1e3a5f" stroke="#60a5fa" stroke-width="0.8"/>
  <path d="M 847.0,182.6 L 847.9,177.9 L 848.8,182.6 L 851.7,186.8 L 855.9,189.7 L 858.5,190.2 L 859.0,192.8 L 861.9,197.0 L 866.1,199.9 L 870.8,200.8 L 866.1,201.7 L 861.9,204.6 L 859.0,208.8 L 858.5,211.4 L 855.9,211.9 L 851.7,214.8 L 848.8,219.0 L 847.9,223.7 L 847.0,219.0 L 844.1,214.8 L 839.9,211.9 L 837.3,211.4 L 836.8,208.8 L 833.9,204.6 L 829.7,201.7 L 825.0,200.8 L 829.7,199.9 L 833.9,197.0 L 836.8,192.8 L 837.3,190.2 L 839.9,189.7 L 844.1,186.8 L 847.0,182.6 Z" fill="#1e3a5f" stroke="#60a5fa" stroke-width="0.8"/>
  <path d="M 847.0,229.0 L 847.9,224.3 L 848.8,229.0 L 851.7,233.2 L 855.9,236.1 L 858.5,236.6 L 859.0,239.2 L 861.9,243.4 L 866.1,246.3 L 870.8,247.2 L 866.1,248.1 L 861.9,251.0 L 859.0,255.2 L 858.5,257.8 L 855.9,258.3 L 851.7,261.2 L 848.8,265.4 L 847.9,270.1 L 847.0,265.4 L 844.1,261.2 L 839.9,258.3 L 837.3,257.8 L 836.8,255.2 L 833.9,251.0 L 829.7,248.1 L 825.0,247.2 L 829.7,246.3 L 833.9,243.4 L 836.8,239.2 L 837.3,236.6 L 839.9,236.1 L 844.1,233.2 L 847.0,229.0 Z" fill="#1e3a5f" stroke="#60a5fa" stroke-width="0.8"/>
  <path d="M 741.1,158.2 L 736.9,155.3 L 732.2,154.4 L 736.9,153.5 L 741.1,150.6 L 744.0,146.4 L 744.5,143.8 L 747.1,143.3 L 751.3,140.4 L 754.2,136.2 L 755.1,131.5 L 756.0,136.2 L 758.9,140.4 L 763.1,143.3 L 765.7,143.8 L 766.2,146.4 L 769.1,150.6 L 773.3,153.5 L 778.0,154.4 L 773.3,155.3 L 769.1,158.2 L 766.2,162.4 L 765.7,165.0 L 763.1,165.5 L 758.9,168.4 L 756.0,172.6 L 755.1,177.3 L 754.2,172.6 L 751.3,168.4 L 747.1,165.5 L 744.5,165.0 L 744.0,162.4 L 741.1,158.2 Z" fill="#1e3a5f" stroke="#60a5fa" stroke-width="0.8"/>
  <path d="M 751.3,186.8 L 754.2,182.6 L 755.1,177.9 L 756.0,182.6 L 758.9,186.8 L 763.1,189.7 L 765.7,190.2 L 766.2,192.8 L 769.1,197.0 L 773.3,199.9 L 778.0,200.8 L 773.3,201.7 L 769.1,204.6 L 766.2,208.8 L 765.7,211.4 L 763.1,211.9 L 758.9,214.8 L 756.0,219.0 L 755.1,223.7 L 754.2,219.0 L 751.3,214.8 L 747.1,211.9 L 744.5,211.4 L 744.0,208.8 L 741.1,204.6 L 736.9,201.7 L 732.2,200.8 L 736.9,199.9 L 741.1,197.0 L 744.0,192.8 L 744.5,190.2 L 747.1,189.7 L 751.3,186.8 Z" fill="#1e3a5f" stroke="#60a5fa" stroke-width="0.8"/>
  <path d="M 787.5,204.6 L 783.3,201.7 L 778.6,200.8 L 783.3,199.9 L 787.5,197.0 L 790.4,192.8 L 790.9,190.2 L 793.5,189.7 L 797.7,186.8 L 800.6,182.6 L 801.5,177.9 L 802.4,182.6 L 805.3,186.8 L 809.5,189.7 L 812.1,190.2 L 812.6,192.8 L 815.5,197.0 L 819.7,199.9 L 824.4,200.8 L 819.7,201.7 L 815.5,204.6 L 812.6,208.8 L 812.1,211.4 L 809.5,211.9 L 805.3,214.8 L 802.4,219.0 L 801.5,223.7 L 800.6,219.0 L 797.7,214.8 L 793.5,211.9 L 790.9,211.4 L 790.4,208.8 L 787.5,204.6 Z" fill="#1e3a5f" stroke="#60a5fa" stroke-width="0.8"/>
  <path d="M 744.0,255.2 L 741.1,251.0 L 736.9,248.1 L 732.2,247.2 L 736.9,246.3 L 741.1,243.4 L 744.0,239.2 L 744.5,236.6 L 747.1,236.1 L 751.3,233.2 L 754.2,229.0 L 755.1,224.3 L 756.0,229.0 L 758.9,233.2 L 763.1,236.1 L 765.7,236.6 L 766.2,239.2 L 769.1,243.4 L 773.3,246.3 L 778.0,247.2 L 773.3,248.1 L 769.1,251.0 L 766.2,255.2 L 765.7,257.8 L 763.1,258.3 L 758.9,261.2 L 756.0,265.4 L 755.1,270.1 L 754.2,265.4 L 751.3,261.2 L 747.1,258.3 L 744.5,257.8 L 744.0,255.2 Z" fill="#1e3a5f" stroke="#60a5fa" stroke-width="0.8"/>
  <path d="M 790.4,255.2 L 787.5,251.0 L 783.3,248.1 L 778.6,247.2 L 783.3,246.3 L 787.5,243.4 L 790.4,239.2 L 790.9,236.6 L 793.5,236.1 L 797.7,233.2 L 800.6,229.0 L 801.5,224.3 L 802.4,229.0 L 805.3,233.2 L 809.5,236.1 L 812.1,236.6 L 812.6,239.2 L 815.5,243.4 L 819.7,246.3 L 824.4,247.2 L 819.7,248.1 L 815.5,251.0 L 812.6,255.2 L 812.1,257.8 L 809.5,258.3 L 805.3,261.2 L 802.4,265.4 L 801.5,270.1 L 800.6,265.4 L 797.7,261.2 L 793.5,258.3 L 790.9,257.8 L 790.4,255.2 Z" fill="#1e3a5f" stroke="#60a5fa" stroke-width="0.8"/>
  <path d="M 744.0,116.0 L 741.1,111.8 L 736.9,108.9 L 732.2,108.0 L 736.9,107.1 L 741.1,104.2 L 744.0,100.0 L 744.5,97.4 L 747.1,96.9 L 751.3,94.0 L 754.2,89.8 L 755.1,85.1 L 756.0,89.8 L 758.9,94.0 L 763.1,96.9 L 765.7,97.4 L 766.2,100.0 L 769.1,104.2 L 773.3,107.1 L 778.0,108.0 L 773.3,108.9 L 769.1,111.8 L 766.2,116.0 L 765.7,118.6 L 763.1,119.1 L 758.9,122.0 L 756.0,126.2 L 755.1,130.9 L 754.2,126.2 L 751.3,122.0 L 747.1,119.1 L 744.5,118.6 L 744.0,116.0 Z" fill="#1e3a5f" stroke="#60a5fa" stroke-width="0.8"/>
  <path d="M 790.4,116.0 L 787.5,111.8 L 783.3,108.9 L 778.6,108.0 L 783.3,107.1 L 787.5,104.2 L 790.4,100.0 L 790.9,97.4 L 793.5,96.9 L 797.7,94.0 L 800.6,89.8 L 801.5,85.1 L 802.4,89.8 L 805.3,94.0 L 809.5,96.9 L 812.1,97.4 L 812.6,100.0 L 815.5,104.2 L 819.7,107.1 L 824.4,108.0 L 819.7,108.9 L 815.5,111.8 L 812.6,116.0 L 812.1,118.6 L 809.5,119.1 L 805.3,122.0 L 802.4,126.2 L 801.5,130.9 L 800.6,126.2 L 797.7,122.0 L 793.5,119.1 L 790.9,118.6 L 790.4,116.0 Z" fill="#1e3a5f" stroke="#60a5fa" stroke-width="0.8"/>
  <path d="M 793.5,143.3 L 797.7,140.4 L 800.6,136.2 L 801.5,131.5 L 802.4,136.2 L 805.3,140.4 L 809.5,143.3 L 812.1,143.8 L 812.6,146.4 L 815.5,150.6 L 819.7,153.5 L 824.4,154.4 L 819.7,155.3 L 815.5,158.2 L 812.6,162.4 L 812.1,165.0 L 809.5,165.5 L 805.3,168.4 L 802.4,172.6 L 801.5,177.3 L 800.6,172.6 L 797.7,168.4 L 793.5,165.5 L 790.9,165.0 L 790.4,162.4 L 787.5,158.2 L 783.3,155.3 L 778.6,154.4 L 783.3,153.5 L 787.5,150.6 L 790.4,146.4 L 790.9,143.8 L 793.5,143.3 Z" fill="#1e3a5f" stroke="#60a5fa" stroke-width="0.8"/>
  <path d="M 880.3,158.2 L 876.1,155.3 L 871.4,154.4 L 876.1,153.5 L 880.3,150.6 L 883.2,146.4 L 883.7,143.8 L 886.3,143.3 L 890.5,140.4 L 893.4,136.2 L 894.3,131.5 L 895.2,136.2 L 898.1,140.4 L 902.3,143.3 L 904.9,143.8 L 905.4,146.4 L 908.3,150.6 L 912.5,153.5 L 917.2,154.4 L 912.5,155.3 L 908.3,158.2 L 905.4,162.4 L 904.9,165.0 L 902.3,165.5 L 898.1,168.4 L 895.2,172.6 L 894.3,177.3 L 893.4,172.6 L 890.5,168.4 L 886.3,165.5 L 883.7,165.0 L 883.2,162.4 L 880.3,158.2 Z" fill="#1e3a5f" stroke="#60a5fa" stroke-width="0.8"/>
  <path d="M 890.5,186.8 L 893.4,182.6 L 894.3,177.9 L 895.2,182.6 L 898.1,186.8 L 902.3,189.7 L 904.9,190.2 L 905.4,192.8 L 908.3,197.0 L 912.5,199.9 L 917.2,200.8 L 912.5,201.7 L 908.3,204.6 L 905.4,208.8 L 904.9,211.4 L 902.3,211.9 L 898.1,214.8 L 895.2,219.0 L 894.3,223.7 L 893.4,219.0 L 890.5,214.8 L 886.3,211.9 L 883.7,211.4 L 883.2,208.8 L 880.3,204.6 L 876.1,201.7 L 871.4,200.8 L 876.1,199.9 L 880.3,197.0 L 883.2,192.8 L 883.7,190.2 L 886.3,189.7 L 890.5,186.8 Z" fill="#1e3a5f" stroke="#60a5fa" stroke-width="0.8"/>
  <path d="M 926.7,204.6 L 922.5,201.7 L 917.8,200.8 L 922.5,199.9 L 926.7,197.0 L 929.6,192.8 L 930.1,190.2 L 932.7,189.7 L 936.9,186.8 L 939.8,182.6 L 940.7,177.9 L 941.6,182.6 L 944.5,186.8 L 948.7,189.7 L 951.3,190.2 L 951.8,192.8 L 954.7,197.0 L 958.9,199.9 L 963.6,200.8 L 958.9,201.7 L 954.7,204.6 L 951.8,208.8 L 951.3,211.4 L 948.7,211.9 L 944.5,214.8 L 941.6,219.0 L 940.7,223.7 L 939.8,219.0 L 936.9,214.8 L 932.7,211.9 L 930.1,211.4 L 929.6,208.8 L 926.7,204.6 Z" fill="#1e3a5f" stroke="#60a5fa" stroke-width="0.8"/>
  <path d="M 883.2,255.2 L 880.3,251.0 L 876.1,248.1 L 871.4,247.2 L 876.1,246.3 L 880.3,243.4 L 883.2,239.2 L 883.7,236.6 L 886.3,236.1 L 890.5,233.2 L 893.4,229.0 L 894.3,224.3 L 895.2,229.0 L 898.1,233.2 L 902.3,236.1 L 904.9,236.6 L 905.4,239.2 L 908.3,243.4 L 912.5,246.3 L 917.2,247.2 L 912.5,248.1 L 908.3,251.0 L 905.4,255.2 L 904.9,257.8 L 902.3,258.3 L 898.1,261.2 L 895.2,265.4 L 894.3,270.1 L 893.4,265.4 L 890.5,261.2 L 886.3,258.3 L 883.7,257.8 L 883.2,255.2 Z" fill="#1e3a5f" stroke="#60a5fa" stroke-width="0.8"/>
  <path d="M 929.6,255.2 L 926.7,251.0 L 922.5,248.1 L 917.8,247.2 L 922.5,246.3 L 926.7,243.4 L 929.6,239.2 L 930.1,236.6 L 932.7,236.1 L 936.9,233.2 L 939.8,229.0 L 940.7,224.3 L 941.6,229.0 L 944.5,233.2 L 948.7,236.1 L 951.3,236.6 L 951.8,239.2 L 954.7,243.4 L 958.9,246.3 L 963.6,247.2 L 958.9,248.1 L 954.7,251.0 L 951.8,255.2 L 951.3,257.8 L 948.7,258.3 L 944.5,261.2 L 941.6,265.4 L 940.7,270.1 L 939.8,265.4 L 936.9,261.2 L 932.7,258.3 L 930.1,257.8 L 929.6,255.2 Z" fill="#1e3a5f" stroke="#60a5fa" stroke-width="0.8"/>
  <path d="M 883.2,116.0 L 880.3,111.8 L 876.1,108.9 L 871.4,108.0 L 876.1,107.1 L 880.3,104.2 L 883.2,100.0 L 883.7,97.4 L 886.3,96.9 L 890.5,94.0 L 893.4,89.8 L 894.3,85.1 L 895.2,89.8 L 898.1,94.0 L 902.3,96.9 L 904.9,97.4 L 905.4,100.0 L 908.3,104.2 L 912.5,107.1 L 917.2,108.0 L 912.5,108.9 L 908.3,111.8 L 905.4,116.0 L 904.9,118.6 L 902.3,119.1 L 898.1,122.0 L 895.2,126.2 L 894.3,130.9 L 893.4,126.2 L 890.5,122.0 L 886.3,119.1 L 883.7,118.6 L 883.2,116.0 Z" fill="#1e3a5f" stroke="#60a5fa" stroke-width="0.8"/>
  <path d="M 929.6,116.0 L 926.7,111.8 L 922.5,108.9 L 917.8,108.0 L 922.5,107.1 L 926.7,104.2 L 929.6,100.0 L 930.1,97.4 L 932.7,96.9 L 936.9,94.0 L 939.8,89.8 L 940.7,85.1 L 941.6,89.8 L 944.5,94.0 L 948.7,96.9 L 951.3,97.4 L 951.8,100.0 L 954.7,104.2 L 958.9,107.1 L 963.6,108.0 L 958.9,108.9 L 954.7,111.8 L 951.8,116.0 L 951.3,118.6 L 948.7,119.1 L 944.5,122.0 L 941.6,126.2 L 940.7,130.9 L 939.8,126.2 L 936.9,122.0 L 932.7,119.1 L 930.1,118.6 L 929.6,116.0 Z" fill="#1e3a5f" stroke="#60a5fa" stroke-width="0.8"/>
  <path d="M 932.7,143.3 L 936.9,140.4 L 939.8,136.2 L 940.7,131.5 L 941.6,136.2 L 944.5,140.4 L 948.7,143.3 L 951.3,143.8 L 951.8,146.4 L 954.7,150.6 L 958.9,153.5 L 963.6,154.4 L 958.9,155.3 L 954.7,158.2 L 951.8,162.4 L 951.3,165.0 L 948.7,165.5 L 944.5,168.4 L 941.6,172.6 L 940.7,177.3 L 939.8,172.6 L 936.9,168.4 L 932.7,165.5 L 930.1,165.0 L 929.6,162.4 L 926.7,158.2 L 922.5,155.3 L 917.8,154.4 L 922.5,153.5 L 926.7,150.6 L 929.6,146.4 L 930.1,143.8 L 932.7,143.3 Z" fill="#1e3a5f" stroke="#60a5fa" stroke-width="0.8"/>
  <rect x="1020" y="45" width="320" height="300" rx="6" fill="#0d1117" stroke="#334155" stroke-width="1"/>
  <text x="1180" y="41" text-anchor="middle" fill="#94a3b8" font-size="13" font-family="monospace">Design 3: Teardrop Arch</text>
  <path d="M 1325.0,319.7 L 1035.0,319.7 L 1035.0,302.3 L 1040.8,302.3 L 1039.7,302.2 L 1038.6,301.9 L 1037.6,301.3 L 1036.7,300.6 L 1036.0,299.7 L 1035.4,298.7 L 1035.1,297.6 L 1035.0,296.5 L 1035.0,76.1 L 1035.1,75.0 L 1035.4,73.9 L 1036.0,72.9 L 1036.7,72.0 L 1037.6,71.3 L 1038.6,70.7 L 1039.7,70.4 L 1040.8,70.3 L 1319.2,70.3 L 1320.3,70.4 L 1321.4,70.7 L 1322.4,71.3 L 1323.3,72.0 L 1324.0,72.9 L 1324.6,73.9 L 1324.9,75.0 L 1325.0,76.1 L 1325.0,296.5 L 1324.9,297.6 L 1324.6,298.7 L 1324.0,299.7 L 1323.3,300.6 L 1322.4,301.3 L 1321.4,301.9 L 1320.3,302.2 L 1319.2,302.3 L 1325.0,302.3 L 1325.0,319.7 Z M 1063.0,264.6 L 1060.4,271.8 L 1057.7,279.1 L 1055.1,286.3 L 1052.4,293.6 L 1052.4,293.6 L 1083.9,293.6 L 1081.6,286.3 L 1079.0,279.1 L 1076.3,271.8 L 1073.7,264.6 L 1071.0,257.3 L 1069.9,254.4 L 1070.0,254.4 L 1072.2,254.0 L 1074.3,253.3 L 1076.3,252.3 L 1078.2,251.1 L 1079.8,249.6 L 1081.3,247.9 L 1082.4,246.0 L 1083.3,244.0 L 1084.0,241.8 L 1084.3,239.6 L 1081.6,231.2 L 1079.0,224.0 L 1076.3,216.8 L 1073.7,209.5 L 1071.0,202.2 L 1069.9,199.3 L 1070.0,199.3 L 1072.2,198.9 L 1074.3,198.2 L 1076.3,197.2 L 1078.2,196.0 L 1079.8,194.5 L 1081.3,192.8 L 1082.4,190.9 L 1083.3,188.9 L 1084.0,186.7 L 1084.3,184.5 L 1081.6,176.2 L 1079.0,168.9 L 1076.3,161.7 L 1073.7,154.4 L 1071.0,147.2 L 1069.9,144.2 L 1070.0,144.2 L 1072.2,143.8 L 1074.3,143.1 L 1076.3,142.1 L 1078.2,140.9 L 1079.8,139.4 L 1081.3,137.7 L 1082.4,135.8 L 1083.3,133.8 L 1084.0,131.6 L 1084.3,129.4 L 1081.6,121.0 L 1079.0,113.8 L 1076.3,106.5 L 1073.7,99.3 L 1071.0,92.0 L 1069.9,89.1 L 1070.0,89.1 L 1072.2,88.7 L 1074.3,88.0 L 1076.3,87.0 L 1078.2,85.8 L 1079.8,84.3 L 1081.3,82.6 L 1082.4,80.7 L 1083.2,79.0 L 1053.5,79.0 L 1053.8,79.7 L 1054.8,81.7 L 1056.1,83.5 L 1057.7,85.1 L 1059.4,86.4 L 1061.4,87.5 L 1063.4,88.4 L 1065.6,88.9 L 1066.8,89.0 L 1065.7,92.0 L 1063.0,99.3 L 1060.4,106.5 L 1057.7,113.8 L 1055.1,121.0 L 1052.4,128.3 L 1052.6,130.5 L 1053.0,132.7 L 1053.8,134.8 L 1054.8,136.8 L 1056.1,138.6 L 1057.7,140.2 L 1059.4,141.5 L 1061.4,142.6 L 1063.4,143.5 L 1065.6,144.0 L 1066.8,144.1 L 1065.7,147.2 L 1063.0,154.4 L 1060.4,161.7 L 1057.7,168.9 L 1055.1,176.2 L 1052.4,183.4 L 1052.6,185.6 L 1053.0,187.8 L 1053.8,189.9 L 1054.8,191.9 L 1056.1,193.7 L 1057.7,195.3 L 1059.4,196.6 L 1061.4,197.7 L 1063.4,198.6 L 1065.6,199.1 L 1066.8,199.2 L 1065.7,202.2 L 1063.0,209.5 L 1060.4,216.8 L 1057.7,224.0 L 1055.1,231.2 L 1052.4,238.5 L 1052.6,240.7 L 1053.0,242.9 L 1053.8,245.0 L 1054.8,247.0 L 1056.1,248.8 L 1057.7,250.4 L 1059.4,251.7 L 1061.4,252.8 L 1063.4,253.7 L 1065.6,254.2 L 1066.8,254.3 L 1065.7,257.3 L 1063.0,264.6 Z M 1164.3,257.3 L 1161.6,264.6 L 1159.0,271.8 L 1156.3,279.1 L 1153.7,286.3 L 1151.0,293.6 L 1151.0,293.6 L 1182.5,293.6 L 1180.2,286.3 L 1177.6,279.1 L 1174.9,271.8 L 1172.3,264.6 L 1169.6,257.3 L 1168.5,254.4 L 1168.6,254.4 L 1170.8,254.0 L 1172.9,253.3 L 1174.9,252.3 L 1176.8,251.1 L 1178.4,249.6 L 1179.9,247.9 L 1181.0,246.0 L 1181.9,244.0 L 1182.6,241.8 L 1182.9,239.6 L 1180.2,231.2 L 1177.6,224.0 L 1174.9,216.8 L 1172.3,209.5 L 1169.6,202.2 L 1168.5,199.3 L 1168.6,199.3 L 1170.8,198.9 L 1172.9,198.2 L 1174.9,197.2 L 1176.8,196.0 L 1178.4,194.5 L 1179.9,192.8 L 1181.0,190.9 L 1181.9,188.9 L 1182.6,186.7 L 1182.9,184.5 L 1180.2,176.2 L 1177.6,168.9 L 1174.9,161.7 L 1172.3,154.4 L 1169.6,147.2 L 1168.5,144.2 L 1168.6,144.2 L 1170.8,143.8 L 1172.9,143.1 L 1174.9,142.1 L 1176.8,140.9 L 1178.4,139.4 L 1179.9,137.7 L 1181.0,135.8 L 1181.9,133.8 L 1182.6,131.6 L 1182.9,129.4 L 1180.2,121.0 L 1177.6,113.8 L 1174.9,106.5 L 1172.3,99.3 L 1169.6,92.0 L 1168.5,89.1 L 1168.6,89.1 L 1170.8,88.7 L 1172.9,88.0 L 1174.9,87.0 L 1176.8,85.8 L 1178.4,84.3 L 1179.9,82.6 L 1181.0,80.7 L 1181.8,79.0 L 1152.1,79.0 L 1152.4,79.7 L 1153.4,81.7 L 1154.7,83.5 L 1156.3,85.1 L 1158.0,86.4 L 1160.0,87.5 L 1162.0,88.4 L 1164.2,88.9 L 1165.4,89.0 L 1164.3,92.0 L 1161.6,99.3 L 1159.0,106.5 L 1156.3,113.8 L 1153.7,121.0 L 1151.0,128.3 L 1151.2,130.5 L 1151.6,132.7 L 1152.4,134.8 L 1153.4,136.8 L 1154.7,138.6 L 1156.3,140.2 L 1158.0,141.5 L 1160.0,142.6 L 1162.0,143.5 L 1164.2,144.0 L 1165.4,144.1 L 1164.3,147.2 L 1161.6,154.4 L 1159.0,161.7 L 1156.3,168.9 L 1153.7,176.2 L 1151.0,183.4 L 1151.2,185.6 L 1151.6,187.8 L 1152.4,189.9 L 1153.4,191.9 L 1154.7,193.7 L 1156.3,195.3 L 1158.0,196.6 L 1160.0,197.7 L 1162.0,198.6 L 1164.2,199.1 L 1165.4,199.2 L 1164.3,202.2 L 1161.6,209.5 L 1159.0,216.8 L 1156.3,224.0 L 1153.7,231.2 L 1151.0,238.5 L 1151.2,240.7 L 1151.6,242.9 L 1152.4,245.0 L 1153.4,247.0 L 1154.7,248.8 L 1156.3,250.4 L 1158.0,251.7 L 1160.0,252.8 L 1162.0,253.7 L 1164.2,254.2 L 1165.4,254.3 L 1164.3,257.3 Z M 1115.0,229.8 L 1112.3,237.1 L 1109.7,244.3 L 1107.0,251.6 L 1104.4,258.8 L 1101.7,266.1 L 1101.9,268.3 L 1102.3,270.4 L 1103.1,272.5 L 1104.1,274.5 L 1105.4,276.3 L 1107.0,277.9 L 1108.7,279.3 L 1110.7,280.4 L 1112.7,281.2 L 1114.9,281.8 L 1117.1,282.0 L 1119.3,281.9 L 1121.5,281.5 L 1123.6,280.8 L 1125.6,279.9 L 1127.5,278.6 L 1129.1,277.1 L 1130.6,275.4 L 1131.7,273.5 L 1132.6,271.5 L 1133.3,269.4 L 1133.6,267.2 L 1130.9,258.8 L 1128.3,251.6 L 1125.6,244.3 L 1123.0,237.1 L 1120.3,229.8 L 1119.2,226.8 L 1119.3,226.8 L 1121.5,226.4 L 1123.6,225.7 L 1125.6,224.8 L 1127.5,223.5 L 1129.1,222.0 L 1130.6,220.3 L 1131.7,218.4 L 1132.6,216.4 L 1133.3,214.3 L 1133.6,212.1 L 1130.9,203.7 L 1128.3,196.4 L 1125.6,189.2 L 1123.0,181.9 L 1120.3,174.7 L 1119.2,171.7 L 1119.3,171.7 L 1121.5,171.3 L 1123.6,170.6 L 1125.6,169.7 L 1127.5,168.4 L 1129.1,166.9 L 1130.6,165.2 L 1131.7,163.3 L 1132.6,161.3 L 1133.3,159.2 L 1133.6,157.0 L 1130.9,148.6 L 1128.3,141.3 L 1125.6,134.1 L 1123.0,126.8 L 1120.3,119.6 L 1119.2,116.6 L 1119.3,116.6 L 1121.5,116.2 L 1123.6,115.5 L 1125.6,114.6 L 1127.5,113.3 L 1129.1,111.8 L 1130.6,110.1 L 1131.7,108.2 L 1132.6,106.2 L 1133.3,104.1 L 1133.6,101.9 L 1130.9,93.5 L 1128.3,86.2 L 1125.6,79.0 L 1109.7,79.0 L 1107.0,86.2 L 1104.4,93.5 L 1101.7,100.8 L 1101.9,103.0 L 1102.3,105.1 L 1103.1,107.2 L 1104.1,109.2 L 1105.4,111.0 L 1107.0,112.6 L 1108.7,114.0 L 1110.7,115.1 L 1112.7,115.9 L 1114.9,116.5 L 1116.1,116.6 L 1115.0,119.6 L 1112.3,126.8 L 1109.7,134.1 L 1107.0,141.3 L 1104.4,148.6 L 1101.7,155.8 L 1101.9,158.1 L 1102.3,160.2 L 1103.1,162.3 L 1104.1,164.3 L 1105.4,166.1 L 1107.0,167.7 L 1108.7,169.1 L 1110.7,170.2 L 1112.7,171.0 L 1114.9,171.6 L 1116.1,171.7 L 1115.0,174.7 L 1112.3,181.9 L 1109.7,189.2 L 1107.0,196.4 L 1104.4,203.7 L 1101.7,210.9 L 1101.9,213.2 L 1102.3,215.3 L 1103.1,217.4 L 1104.1,219.4 L 1105.4,221.2 L 1107.0,222.8 L 1108.7,224.2 L 1110.7,225.3 L 1112.7,226.1 L 1114.9,226.7 L 1116.1,226.8 L 1115.0,229.8 Z M 1260.2,264.6 L 1257.6,271.8 L 1254.9,279.1 L 1252.3,286.3 L 1249.6,293.6 L 1249.6,293.6 L 1281.1,293.6 L 1278.8,286.3 L 1276.2,279.1 L 1273.5,271.8 L 1270.9,264.6 L 1268.2,257.3 L 1267.1,254.4 L 1267.2,254.4 L 1269.4,254.0 L 1271.5,253.3 L 1273.5,252.3 L 1275.4,251.1 L 1277.0,249.6 L 1278.5,247.9 L 1279.6,246.0 L 1280.5,244.0 L 1281.2,241.8 L 1281.5,239.6 L 1278.8,231.2 L 1276.2,224.0 L 1273.5,216.8 L 1270.9,209.5 L 1268.2,202.2 L 1267.1,199.3 L 1267.2,199.3 L 1269.4,198.9 L 1271.5,198.2 L 1273.5,197.2 L 1275.4,196.0 L 1277.0,194.5 L 1278.5,192.8 L 1279.6,190.9 L 1280.5,188.9 L 1281.2,186.7 L 1281.5,184.5 L 1278.8,176.2 L 1276.2,168.9 L 1273.5,161.7 L 1270.9,154.4 L 1268.2,147.2 L 1267.1,144.2 L 1267.2,144.2 L 1269.4,143.8 L 1271.5,143.1 L 1273.5,142.1 L 1275.4,140.9 L 1277.0,139.4 L 1278.5,137.7 L 1279.6,135.8 L 1280.5,133.8 L 1281.2,131.6 L 1281.5,129.4 L 1278.8,121.0 L 1276.2,113.8 L 1273.5,106.5 L 1270.9,99.3 L 1268.2,92.0 L 1267.1,89.1 L 1267.2,89.1 L 1269.4,88.7 L 1271.5,88.0 L 1273.5,87.0 L 1275.4,85.8 L 1277.0,84.3 L 1278.5,82.6 L 1279.6,80.7 L 1280.4,79.0 L 1250.7,79.0 L 1251.0,79.7 L 1252.0,81.7 L 1253.3,83.5 L 1254.9,85.1 L 1256.6,86.4 L 1258.6,87.5 L 1260.6,88.4 L 1262.8,88.9 L 1264.0,89.0 L 1262.9,92.0 L 1260.2,99.3 L 1257.6,106.5 L 1254.9,113.8 L 1252.3,121.0 L 1249.6,128.3 L 1249.8,130.5 L 1250.2,132.7 L 1251.0,134.8 L 1252.0,136.8 L 1253.3,138.6 L 1254.9,140.2 L 1256.6,141.5 L 1258.6,142.6 L 1260.6,143.5 L 1262.8,144.0 L 1264.0,144.1 L 1262.9,147.2 L 1260.2,154.4 L 1257.6,161.7 L 1254.9,168.9 L 1252.3,176.2 L 1249.6,183.4 L 1249.8,185.6 L 1250.2,187.8 L 1251.0,189.9 L 1252.0,191.9 L 1253.3,193.7 L 1254.9,195.3 L 1256.6,196.6 L 1258.6,197.7 L 1260.6,198.6 L 1262.8,199.1 L 1264.0,199.2 L 1262.9,202.2 L 1260.2,209.5 L 1257.6,216.8 L 1254.9,224.0 L 1252.3,231.2 L 1249.6,238.5 L 1249.8,240.7 L 1250.2,242.9 L 1251.0,245.0 L 1252.0,247.0 L 1253.3,248.8 L 1254.9,250.4 L 1256.6,251.7 L 1258.6,252.8 L 1260.6,253.7 L 1262.8,254.2 L 1264.0,254.3 L 1262.9,257.3 L 1260.2,264.6 Z M 1213.6,229.8 L 1210.9,237.1 L 1208.3,244.3 L 1205.6,251.6 L 1203.0,258.8 L 1200.3,266.1 L 1200.5,268.3 L 1200.9,270.4 L 1201.7,272.5 L 1202.7,274.5 L 1204.0,276.3 L 1205.6,277.9 L 1207.3,279.3 L 1209.3,280.4 L 1211.3,281.2 L 1213.5,281.8 L 1215.7,282.0 L 1217.9,281.9 L 1220.1,281.5 L 1222.2,280.8 L 1224.2,279.9 L 1226.1,278.6 L 1227.7,277.1 L 1229.2,275.4 L 1230.3,273.5 L 1231.2,271.5 L 1231.9,269.4 L 1232.2,267.2 L 1229.5,258.8 L 1226.9,251.6 L 1224.2,244.3 L 1221.6,237.1 L 1218.9,229.8 L 1217.8,226.8 L 1217.9,226.8 L 1220.1,226.4 L 1222.2,225.7 L 1224.2,224.8 L 1226.1,223.5 L 1227.7,222.0 L 1229.2,220.3 L 1230.3,218.4 L 1231.2,216.4 L 1231.9,214.3 L 1232.2,212.1 L 1229.5,203.7 L 1226.9,196.4 L 1224.2,189.2 L 1221.6,181.9 L 1218.9,174.7 L 1217.8,171.7 L 1217.9,171.7 L 1220.1,171.3 L 1222.2,170.6 L 1224.2,169.7 L 1226.1,168.4 L 1227.7,166.9 L 1229.2,165.2 L 1230.3,163.3 L 1231.2,161.3 L 1231.9,159.2 L 1232.2,157.0 L 1229.5,148.6 L 1226.9,141.3 L 1224.2,134.1 L 1221.6,126.8 L 1218.9,119.6 L 1217.8,116.6 L 1217.9,116.6 L 1220.1,116.2 L 1222.2,115.5 L 1224.2,114.6 L 1226.1,113.3 L 1227.7,111.8 L 1229.2,110.1 L 1230.3,108.2 L 1231.2,106.2 L 1231.9,104.1 L 1232.2,101.9 L 1229.5,93.5 L 1226.9,86.2 L 1224.2,79.0 L 1208.3,79.0 L 1205.6,86.2 L 1203.0,93.5 L 1200.3,100.8 L 1200.5,103.0 L 1200.9,105.1 L 1201.7,107.2 L 1202.7,109.2 L 1204.0,111.0 L 1205.6,112.6 L 1207.3,114.0 L 1209.3,115.1 L 1211.3,115.9 L 1213.5,116.5 L 1214.7,116.6 L 1213.6,119.6 L 1210.9,126.8 L 1208.3,134.1 L 1205.6,141.3 L 1203.0,148.6 L 1200.3,155.8 L 1200.5,158.1 L 1200.9,160.2 L 1201.7,162.3 L 1202.7,164.3 L 1204.0,166.1 L 1205.6,167.7 L 1207.3,169.1 L 1209.3,170.2 L 1211.3,171.0 L 1213.5,171.6 L 1214.7,171.7 L 1213.6,174.7 L 1210.9,181.9 L 1208.3,189.2 L 1205.6,196.4 L 1203.0,203.7 L 1200.3,210.9 L 1200.5,213.2 L 1200.9,215.3 L 1201.7,217.4 L 1202.7,219.4 L 1204.0,221.2 L 1205.6,222.8 L 1207.3,224.2 L 1209.3,225.3 L 1211.3,226.1 L 1213.5,226.7 L 1214.7,226.8 L 1213.6,229.8 Z M 1312.2,229.8 L 1309.5,237.1 L 1306.9,244.3 L 1304.2,251.6 L 1301.6,258.8 L 1298.9,266.1 L 1299.1,268.3 L 1299.5,270.4 L 1300.3,272.5 L 1301.3,274.5 L 1302.6,276.3 L 1304.2,277.9 L 1305.9,279.3 L 1307.9,280.4 L 1309.9,281.2 L 1312.1,281.8 L 1314.3,282.0 L 1316.3,281.9 L 1316.3,79.0 L 1306.9,79.0 L 1304.2,86.2 L 1301.6,93.5 L 1298.9,100.8 L 1299.1,103.0 L 1299.5,105.1 L 1300.3,107.2 L 1301.3,109.2 L 1302.6,111.0 L 1304.2,112.6 L 1305.9,114.0 L 1307.9,115.1 L 1309.9,115.9 L 1312.1,116.5 L 1313.3,116.6 L 1312.2,119.6 L 1309.5,126.8 L 1306.9,134.1 L 1304.2,141.3 L 1301.6,148.6 L 1298.9,155.8 L 1299.1,158.1 L 1299.5,160.2 L 1300.3,162.3 L 1301.3,164.3 L 1302.6,166.1 L 1304.2,167.7 L 1305.9,169.1 L 1307.9,170.2 L 1309.9,171.0 L 1312.1,171.6 L 1313.3,171.7 L 1312.2,174.7 L 1309.5,181.9 L 1306.9,189.2 L 1304.2,196.4 L 1301.6,203.7 L 1298.9,210.9 L 1299.1,213.2 L 1299.5,215.3 L 1300.3,217.4 L 1301.3,219.4 L 1302.6,221.2 L 1304.2,222.8 L 1305.9,224.2 L 1307.9,225.3 L 1309.9,226.1 L 1312.1,226.7 L 1313.3,226.8 L 1312.2,229.8 Z" fill="#1e3a5f" stroke="#60a5fa" stroke-width="0.8"/>
</svg>