solid OpenSCAD_Model
  facet normal 1 0 0
    outer loop
      vertex 4 4 4
      vertex 4 2.4 3
      vertex 4 4 3
    endloop
  endfacet
  facet normal 1 0 0
    outer loop
      vertex 4 2.4 3
      vertex 4 1.5 3
      vertex 4 2.4 0
    endloop
  endfacet
  facet normal 1 0 0
    outer loop
      vertex 4 4 4
      vertex 4 1.5 3
      vertex 4 2.4 3
    endloop
  endfacet
  facet normal 1 -0 0
    outer loop
      vertex 4 -1 4
      vertex 4 1.5 3
      vertex 4 4 4
    endloop
  endfacet
  facet normal 1 0 0
    outer loop
      vertex 4 1.5 3
      vertex 4 -1 4
      vertex 4 0 3
    endloop
  endfacet
  facet normal 1 0 0
    outer loop
      vertex 4 -1 0
      vertex 4 0 3
      vertex 4 -1 4
    endloop
  endfacet
  facet normal 1 0 0
    outer loop
      vertex 4 0 3
      vertex 4 -1 0
      vertex 4 0 0
    endloop
  endfacet
  facet normal 1 0 0
    outer loop
      vertex 4 2.4 0
      vertex 4 1.5 3
      vertex 4 1.5 0
    endloop
  endfacet
  facet normal -0 0 1
    outer loop
      vertex -1 4 4
      vertex 4 -1 4
      vertex 4 4 4
    endloop
  endfacet
  facet normal 0 0 1
    outer loop
      vertex 4 -1 4
      vertex -1 4 4
      vertex -1 -1 4
    endloop
  endfacet
  facet normal 0 0 -1
    outer loop
      vertex 4 1.5 0
      vertex 2.4 2.4 0
      vertex 4 2.4 0
    endloop
  endfacet
  facet normal 0 0 -1
    outer loop
      vertex 1.5 1.5 0
      vertex 2.4 2.4 0
      vertex 4 1.5 0
    endloop
  endfacet
  facet normal 0 0 -1
    outer loop
      vertex 1.5 4 0
      vertex 2.4 2.4 0
      vertex 1.5 1.5 0
    endloop
  endfacet
  facet normal 0 0 -1
    outer loop
      vertex 2.4 2.4 0
      vertex 1.5 4 0
      vertex 2.4 4 0
    endloop
  endfacet
  facet normal 0 0 -1
    outer loop
      vertex 4 -1 0
      vertex 0 0 0
      vertex 4 0 0
    endloop
  endfacet
  facet normal 0 0 -1
    outer loop
      vertex -1 -1 0
      vertex 0 0 0
      vertex 4 -1 0
    endloop
  endfacet
  facet normal 0 0 -1
    outer loop
      vertex -1 4 0
      vertex 0 0 0
      vertex -1 -1 0
    endloop
  endfacet
  facet normal 0 0 -1
    outer loop
      vertex 0 0 0
      vertex -1 4 0
      vertex 0 4 0
    endloop
  endfacet
  facet normal -1 0 0
    outer loop
      vertex -1 -1 0
      vertex -1 4 4
      vertex -1 4 0
    endloop
  endfacet
  facet normal -1 -0 0
    outer loop
      vertex -1 4 4
      vertex -1 -1 0
      vertex -1 -1 4
    endloop
  endfacet
  facet normal 0 1 -0
    outer loop
      vertex 4 2.4 0
      vertex 2.4 2.4 3
      vertex 4 2.4 3
    endloop
  endfacet
  facet normal 0 1 0
    outer loop
      vertex 2.4 2.4 3
      vertex 4 2.4 0
      vertex 2.4 2.4 0
    endloop
  endfacet
  facet normal 0 -1 0
    outer loop
      vertex -1 -1 0
      vertex 4 -1 4
      vertex -1 -1 4
    endloop
  endfacet
  facet normal 0 -1 -0
    outer loop
      vertex 4 -1 4
      vertex -1 -1 0
      vertex 4 -1 0
    endloop
  endfacet
  facet normal 1 -0 0
    outer loop
      vertex 2.4 2.4 3
      vertex 2.4 4 0
      vertex 2.4 4 3
    endloop
  endfacet
  facet normal 1 0 0
    outer loop
      vertex 2.4 4 0
      vertex 2.4 2.4 3
      vertex 2.4 2.4 0
    endloop
  endfacet
  facet normal 0 1 -0
    outer loop
      vertex 2.4 4 0
      vertex 1.5 4 3
      vertex 2.4 4 3
    endloop
  endfacet
  facet normal 0 1 0
    outer loop
      vertex 1.5 4 3
      vertex 2.4 4 0
      vertex 1.5 4 0
    endloop
  endfacet
  facet normal 0 1 0
    outer loop
      vertex 2.4 4 3
      vertex 4 4 4
      vertex 4 4 3
    endloop
  endfacet
  facet normal 0 1 0
    outer loop
      vertex 1.5 4 3
      vertex 4 4 4
      vertex 2.4 4 3
    endloop
  endfacet
  facet normal 0 1 0
    outer loop
      vertex 4 4 4
      vertex 1.5 4 3
      vertex -1 4 4
    endloop
  endfacet
  facet normal 0 1 -0
    outer loop
      vertex 0 4 3
      vertex -1 4 4
      vertex 1.5 4 3
    endloop
  endfacet
  facet normal 0 1 0
    outer loop
      vertex -1 4 0
      vertex 0 4 3
      vertex 0 4 0
    endloop
  endfacet
  facet normal 0 1 0
    outer loop
      vertex 0 4 3
      vertex -1 4 0
      vertex -1 4 4
    endloop
  endfacet
  facet normal 0 0 -1
    outer loop
      vertex 2.4 2.4 3
      vertex 4 4 3
      vertex 4 2.4 3
    endloop
  endfacet
  facet normal -0 0 -1
    outer loop
      vertex 4 4 3
      vertex 2.4 2.4 3
      vertex 2.4 4 3
    endloop
  endfacet
  facet normal 0 0 -1
    outer loop
      vertex 4 0 3
      vertex 1.5 1.5 3
      vertex 4 1.5 3
    endloop
  endfacet
  facet normal 0 0 -1
    outer loop
      vertex 0 0 3
      vertex 1.5 1.5 3
      vertex 4 0 3
    endloop
  endfacet
  facet normal 0 0 -1
    outer loop
      vertex 0 4 3
      vertex 1.5 1.5 3
      vertex 0 0 3
    endloop
  endfacet
  facet normal 0 0 -1
    outer loop
      vertex 1.5 1.5 3
      vertex 0 4 3
      vertex 1.5 4 3
    endloop
  endfacet
  facet normal 1 -0 0
    outer loop
      vertex 0 0 3
      vertex 0 4 0
      vertex 0 4 3
    endloop
  endfacet
  facet normal 1 0 0
    outer loop
      vertex 0 4 0
      vertex 0 0 3
      vertex 0 0 0
    endloop
  endfacet
  facet normal 0 -1 0
    outer loop
      vertex 1.5 1.5 0
      vertex 4 1.5 3
      vertex 1.5 1.5 3
    endloop
  endfacet
  facet normal 0 -1 -0
    outer loop
      vertex 4 1.5 3
      vertex 1.5 1.5 0
      vertex 4 1.5 0
    endloop
  endfacet
  facet normal 0 1 -0
    outer loop
      vertex 4 0 0
      vertex 0 0 3
      vertex 4 0 3
    endloop
  endfacet
  facet normal 0 1 0
    outer loop
      vertex 0 0 3
      vertex 4 0 0
      vertex 0 0 0
    endloop
  endfacet
  facet normal -1 0 0
    outer loop
      vertex 1.5 1.5 0
      vertex 1.5 4 3
      vertex 1.5 4 0
    endloop
  endfacet
  facet normal -1 -0 0
    outer loop
      vertex 1.5 4 3
      vertex 1.5 1.5 0
      vertex 1.5 1.5 3
    endloop
  endfacet
endsolid OpenSCAD_Model
