solid OpenSCAD_Model
  facet normal 1 0 0
    outer loop
      vertex 4 4 3
      vertex 4 2.65 2
      vertex 4 4 2
    endloop
  endfacet
  facet normal 1 0 0
    outer loop
      vertex 4 2.65 2
      vertex 4 1.75 2
      vertex 4 2.65 0
    endloop
  endfacet
  facet normal 1 0 0
    outer loop
      vertex 4 4 3
      vertex 4 1.75 2
      vertex 4 2.65 2
    endloop
  endfacet
  facet normal 1 -0 0
    outer loop
      vertex 4 -1 3
      vertex 4 1.75 2
      vertex 4 4 3
    endloop
  endfacet
  facet normal 1 0 0
    outer loop
      vertex 4 1.75 2
      vertex 4 -1 3
      vertex 4 0 2
    endloop
  endfacet
  facet normal 1 0 0
    outer loop
      vertex 4 -1 0
      vertex 4 0 2
      vertex 4 -1 3
    endloop
  endfacet
  facet normal 1 0 0
    outer loop
      vertex 4 0 2
      vertex 4 -1 0
      vertex 4 0 0
    endloop
  endfacet
  facet normal 1 0 0
    outer loop
      vertex 4 2.65 0
      vertex 4 1.75 2
      vertex 4 1.75 0
    endloop
  endfacet
  facet normal -0 0 1
    outer loop
      vertex -1 4 3
      vertex 4 -1 3
      vertex 4 4 3
    endloop
  endfacet
  facet normal 0 0 1
    outer loop
      vertex 4 -1 3
      vertex -1 4 3
      vertex -1 -1 3
    endloop
  endfacet
  facet normal 0 0 -1
    outer loop
      vertex 4 1.75 0
      vertex 2.65 2.65 0
      vertex 4 2.65 0
    endloop
  endfacet
  facet normal 0 0 -1
    outer loop
      vertex 1.75 1.75 0
      vertex 2.65 2.65 0
      vertex 4 1.75 0
    endloop
  endfacet
  facet normal 0 0 -1
    outer loop
      vertex 1.75 4 0
      vertex 2.65 2.65 0
      vertex 1.75 1.75 0
    endloop
  endfacet
  facet normal 0 0 -1
    outer loop
      vertex 2.65 2.65 0
      vertex 1.75 4 0
      vertex 2.65 4 0
    endloop
  endfacet
  facet normal 0 0 -1
    outer loop
      vertex 4 -1 0
      vertex 0 0 0
      vertex 4 0 0
    endloop
  endfacet
  facet normal 0 0 -1
    outer loop
      vertex -1 -1 0
      vertex 0 0 0
      vertex 4 -1 0
    endloop
  endfacet
  facet normal 0 0 -1
    outer loop
      vertex -1 4 0
      vertex 0 0 0
      vertex -1 -1 0
    endloop
  endfacet
  facet normal 0 0 -1
    outer loop
      vertex 0 0 0
      vertex -1 4 0
      vertex 0 4 0
    endloop
  endfacet
  facet normal -1 0 0
    outer loop
      vertex -1 -1 0
      vertex -1 4 3
      vertex -1 4 0
    endloop
  endfacet
  facet normal -1 -0 0
    outer loop
      vertex -1 4 3
      vertex -1 -1 0
      vertex -1 -1 3
    endloop
  endfacet
  facet normal 0 1 -0
    outer loop
      vertex 4 2.65 0
      vertex 2.65 2.65 2
      vertex 4 2.65 2
    endloop
  endfacet
  facet normal 0 1 0
    outer loop
      vertex 2.65 2.65 2
      vertex 4 2.65 0
      vertex 2.65 2.65 0
    endloop
  endfacet
  facet normal 0 -1 0
    outer loop
      vertex -1 -1 0
      vertex 4 -1 3
      vertex -1 -1 3
    endloop
  endfacet
  facet normal 0 -1 -0
    outer loop
      vertex 4 -1 3
      vertex -1 -1 0
      vertex 4 -1 0
    endloop
  endfacet
  facet normal 1 -0 0
    outer loop
      vertex 2.65 2.65 2
      vertex 2.65 4 0
      vertex 2.65 4 2
    endloop
  endfacet
  facet normal 1 0 0
    outer loop
      vertex 2.65 4 0
      vertex 2.65 2.65 2
      vertex 2.65 2.65 0
    endloop
  endfacet
  facet normal 0 1 -0
    outer loop
      vertex 2.65 4 0
      vertex 1.75 4 2
      vertex 2.65 4 2
    endloop
  endfacet
  facet normal 0 1 0
    outer loop
      vertex 1.75 4 2
      vertex 2.65 4 0
      vertex 1.75 4 0
    endloop
  endfacet
  facet normal 0 1 0
    outer loop
      vertex 2.65 4 2
      vertex 4 4 3
      vertex 4 4 2
    endloop
  endfacet
  facet normal 0 1 0
    outer loop
      vertex 1.75 4 2
      vertex 4 4 3
      vertex 2.65 4 2
    endloop
  endfacet
  facet normal 0 1 0
    outer loop
      vertex 4 4 3
      vertex 1.75 4 2
      vertex -1 4 3
    endloop
  endfacet
  facet normal 0 1 -0
    outer loop
      vertex 0 4 2
      vertex -1 4 3
      vertex 1.75 4 2
    endloop
  endfacet
  facet normal 0 1 0
    outer loop
      vertex -1 4 0
      vertex 0 4 2
      vertex 0 4 0
    endloop
  endfacet
  facet normal 0 1 0
    outer loop
      vertex 0 4 2
      vertex -1 4 0
      vertex -1 4 3
    endloop
  endfacet
  facet normal 0 0 -1
    outer loop
      vertex 4 0 2
      vertex 1.75 1.75 2
      vertex 4 1.75 2
    endloop
  endfacet
  facet normal 0 0 -1
    outer loop
      vertex 0 0 2
      vertex 1.75 1.75 2
      vertex 4 0 2
    endloop
  endfacet
  facet normal 0 0 -1
    outer loop
      vertex 0 4 2
      vertex 1.75 1.75 2
      vertex 0 0 2
    endloop
  endfacet
  facet normal 0 0 -1
    outer loop
      vertex 1.75 1.75 2
      vertex 0 4 2
      vertex 1.75 4 2
    endloop
  endfacet
  facet normal 1 -0 0
    outer loop
      vertex 0 0 2
      vertex 0 4 0
      vertex 0 4 2
    endloop
  endfacet
  facet normal 1 0 0
    outer loop
      vertex 0 4 0
      vertex 0 0 2
      vertex 0 0 0
    endloop
  endfacet
  facet normal 0 -1 0
    outer loop
      vertex 1.75 1.75 0
      vertex 4 1.75 2
      vertex 1.75 1.75 2
    endloop
  endfacet
  facet normal 0 -1 -0
    outer loop
      vertex 4 1.75 2
      vertex 1.75 1.75 0
      vertex 4 1.75 0
    endloop
  endfacet
  facet normal 0 1 -0
    outer loop
      vertex 4 0 0
      vertex 0 0 2
      vertex 4 0 2
    endloop
  endfacet
  facet normal 0 1 0
    outer loop
      vertex 0 0 2
      vertex 4 0 0
      vertex 0 0 0
    endloop
  endfacet
  facet normal -1 0 0
    outer loop
      vertex 1.75 1.75 0
      vertex 1.75 4 2
      vertex 1.75 4 0
    endloop
  endfacet
  facet normal -1 -0 0
    outer loop
      vertex 1.75 4 2
      vertex 1.75 1.75 0
      vertex 1.75 1.75 2
    endloop
  endfacet
  facet normal 0 0 -1
    outer loop
      vertex 2.65 2.65 2
      vertex 4 4 2
      vertex 4 2.65 2
    endloop
  endfacet
  facet normal -0 0 -1
    outer loop
      vertex 4 4 2
      vertex 2.65 2.65 2
      vertex 2.65 4 2
    endloop
  endfacet
  facet normal 1 0 0
    outer loop
      vertex 14 4 4
      vertex 14 2.65 3
      vertex 14 4 3
    endloop
  endfacet
  facet normal 1 0 0
    outer loop
      vertex 14 2.65 3
      vertex 14 1.75 3
      vertex 14 2.65 0
    endloop
  endfacet
  facet normal 1 0 0
    outer loop
      vertex 14 4 4
      vertex 14 1.75 3
      vertex 14 2.65 3
    endloop
  endfacet
  facet normal 1 -0 0
    outer loop
      vertex 14 -1 4
      vertex 14 1.75 3
      vertex 14 4 4
    endloop
  endfacet
  facet normal 1 0 0
    outer loop
      vertex 14 1.75 3
      vertex 14 -1 4
      vertex 14 0 3
    endloop
  endfacet
  facet normal 1 0 0
    outer loop
      vertex 14 -1 0
      vertex 14 0 3
      vertex 14 -1 4
    endloop
  endfacet
  facet normal 1 0 0
    outer loop
      vertex 14 0 3
      vertex 14 -1 0
      vertex 14 0 0
    endloop
  endfacet
  facet normal 1 0 0
    outer loop
      vertex 14 2.65 0
      vertex 14 1.75 3
      vertex 14 1.75 0
    endloop
  endfacet
  facet normal -0 0 1
    outer loop
      vertex 9 4 4
      vertex 14 -1 4
      vertex 14 4 4
    endloop
  endfacet
  facet normal 0 0 1
    outer loop
      vertex 14 -1 4
      vertex 9 4 4
      vertex 9 -1 4
    endloop
  endfacet
  facet normal 0 0 -1
    outer loop
      vertex 14 1.75 0
      vertex 12.65 2.65 0
      vertex 14 2.65 0
    endloop
  endfacet
  facet normal 0 0 -1
    outer loop
      vertex 11.75 1.75 0
      vertex 12.65 2.65 0
      vertex 14 1.75 0
    endloop
  endfacet
  facet normal 0 0 -1
    outer loop
      vertex 11.75 4 0
      vertex 12.65 2.65 0
      vertex 11.75 1.75 0
    endloop
  endfacet
  facet normal 0 0 -1
    outer loop
      vertex 12.65 2.65 0
      vertex 11.75 4 0
      vertex 12.65 4 0
    endloop
  endfacet
  facet normal 0 0 -1
    outer loop
      vertex 14 -1 0
      vertex 10 0 0
      vertex 14 0 0
    endloop
  endfacet
  facet normal 0 0 -1
    outer loop
      vertex 9 -1 0
      vertex 10 0 0
      vertex 14 -1 0
    endloop
  endfacet
  facet normal 0 0 -1
    outer loop
      vertex 9 4 0
      vertex 10 0 0
      vertex 9 -1 0
    endloop
  endfacet
  facet normal 0 0 -1
    outer loop
      vertex 10 0 0
      vertex 9 4 0
      vertex 10 4 0
    endloop
  endfacet
  facet normal -1 0 0
    outer loop
      vertex 9 -1 0
      vertex 9 4 4
      vertex 9 4 0
    endloop
  endfacet
  facet normal -1 -0 0
    outer loop
      vertex 9 4 4
      vertex 9 -1 0
      vertex 9 -1 4
    endloop
  endfacet
  facet normal 0 1 -0
    outer loop
      vertex 14 2.65 0
      vertex 12.65 2.65 3
      vertex 14 2.65 3
    endloop
  endfacet
  facet normal 0 1 0
    outer loop
      vertex 12.65 2.65 3
      vertex 14 2.65 0
      vertex 12.65 2.65 0
    endloop
  endfacet
  facet normal 0 -1 0
    outer loop
      vertex 9 -1 0
      vertex 14 -1 4
      vertex 9 -1 4
    endloop
  endfacet
  facet normal 0 -1 -0
    outer loop
      vertex 14 -1 4
      vertex 9 -1 0
      vertex 14 -1 0
    endloop
  endfacet
  facet normal 1 -0 0
    outer loop
      vertex 12.65 2.65 3
      vertex 12.65 4 0
      vertex 12.65 4 3
    endloop
  endfacet
  facet normal 1 0 0
    outer loop
      vertex 12.65 4 0
      vertex 12.65 2.65 3
      vertex 12.65 2.65 0
    endloop
  endfacet
  facet normal 0 1 -0
    outer loop
      vertex 12.65 4 0
      vertex 11.75 4 3
      vertex 12.65 4 3
    endloop
  endfacet
  facet normal 0 1 0
    outer loop
      vertex 11.75 4 3
      vertex 12.65 4 0
      vertex 11.75 4 0
    endloop
  endfacet
  facet normal 0 1 0
    outer loop
      vertex 12.65 4 3
      vertex 14 4 4
      vertex 14 4 3
    endloop
  endfacet
  facet normal 0 1 0
    outer loop
      vertex 11.75 4 3
      vertex 14 4 4
      vertex 12.65 4 3
    endloop
  endfacet
  facet normal 0 1 0
    outer loop
      vertex 14 4 4
      vertex 11.75 4 3
      vertex 9 4 4
    endloop
  endfacet
  facet normal 0 1 -0
    outer loop
      vertex 10 4 3
      vertex 9 4 4
      vertex 11.75 4 3
    endloop
  endfacet
  facet normal 0 1 0
    outer loop
      vertex 9 4 0
      vertex 10 4 3
      vertex 10 4 0
    endloop
  endfacet
  facet normal 0 1 0
    outer loop
      vertex 10 4 3
      vertex 9 4 0
      vertex 9 4 4
    endloop
  endfacet
  facet normal 0 0 -1
    outer loop
      vertex 12.65 2.65 3
      vertex 14 4 3
      vertex 14 2.65 3
    endloop
  endfacet
  facet normal -0 0 -1
    outer loop
      vertex 14 4 3
      vertex 12.65 2.65 3
      vertex 12.65 4 3
    endloop
  endfacet
  facet normal 0 0 -1
    outer loop
      vertex 14 0 3
      vertex 11.75 1.75 3
      vertex 14 1.75 3
    endloop
  endfacet
  facet normal 0 0 -1
    outer loop
      vertex 10 0 3
      vertex 11.75 1.75 3
      vertex 14 0 3
    endloop
  endfacet
  facet normal 0 0 -1
    outer loop
      vertex 10 4 3
      vertex 11.75 1.75 3
      vertex 10 0 3
    endloop
  endfacet
  facet normal 0 0 -1
    outer loop
      vertex 11.75 1.75 3
      vertex 10 4 3
      vertex 11.75 4 3
    endloop
  endfacet
  facet normal 1 -0 0
    outer loop
      vertex 10 0 3
      vertex 10 4 0
      vertex 10 4 3
    endloop
  endfacet
  facet normal 1 0 0
    outer loop
      vertex 10 4 0
      vertex 10 0 3
      vertex 10 0 0
    endloop
  endfacet
  facet normal 0 -1 0
    outer loop
      vertex 11.75 1.75 0
      vertex 14 1.75 3
      vertex 11.75 1.75 3
    endloop
  endfacet
  facet normal 0 -1 -0
    outer loop
      vertex 14 1.75 3
      vertex 11.75 1.75 0
      vertex 14 1.75 0
    endloop
  endfacet
  facet normal 0 1 -0
    outer loop
      vertex 14 0 0
      vertex 10 0 3
      vertex 14 0 3
    endloop
  endfacet
  facet normal 0 1 0
    outer loop
      vertex 10 0 3
      vertex 14 0 0
      vertex 10 0 0
    endloop
  endfacet
  facet normal -1 0 0
    outer loop
      vertex 11.75 1.75 0
      vertex 11.75 4 3
      vertex 11.75 4 0
    endloop
  endfacet
  facet normal -1 -0 0
    outer loop
      vertex 11.75 4 3
      vertex 11.75 1.75 0
      vertex 11.75 1.75 3
    endloop
  endfacet
  facet normal 1 0 0
    outer loop
      vertex 24 4 5
      vertex 24 2.65 4
      vertex 24 4 4
    endloop
  endfacet
  facet normal 1 0 0
    outer loop
      vertex 24 2.65 4
      vertex 24 1.75 4
      vertex 24 2.65 0
    endloop
  endfacet
  facet normal 1 0 0
    outer loop
      vertex 24 4 5
      vertex 24 1.75 4
      vertex 24 2.65 4
    endloop
  endfacet
  facet normal 1 -0 0
    outer loop
      vertex 24 -1 5
      vertex 24 1.75 4
      vertex 24 4 5
    endloop
  endfacet
  facet normal 1 0 0
    outer loop
      vertex 24 1.75 4
      vertex 24 -1 5
      vertex 24 0 4
    endloop
  endfacet
  facet normal 1 0 0
    outer loop
      vertex 24 -1 0
      vertex 24 0 4
      vertex 24 -1 5
    endloop
  endfacet
  facet normal 1 0 0
    outer loop
      vertex 24 0 4
      vertex 24 -1 0
      vertex 24 0 0
    endloop
  endfacet
  facet normal 1 0 0
    outer loop
      vertex 24 2.65 0
      vertex 24 1.75 4
      vertex 24 1.75 0
    endloop
  endfacet
  facet normal -0 0 1
    outer loop
      vertex 19 4 5
      vertex 24 -1 5
      vertex 24 4 5
    endloop
  endfacet
  facet normal 0 0 1
    outer loop
      vertex 24 -1 5
      vertex 19 4 5
      vertex 19 -1 5
    endloop
  endfacet
  facet normal 0 0 -1
    outer loop
      vertex 24 1.75 0
      vertex 22.65 2.65 0
      vertex 24 2.65 0
    endloop
  endfacet
  facet normal 0 0 -1
    outer loop
      vertex 21.75 1.75 0
      vertex 22.65 2.65 0
      vertex 24 1.75 0
    endloop
  endfacet
  facet normal 0 0 -1
    outer loop
      vertex 21.75 4 0
      vertex 22.65 2.65 0
      vertex 21.75 1.75 0
    endloop
  endfacet
  facet normal 0 0 -1
    outer loop
      vertex 22.65 2.65 0
      vertex 21.75 4 0
      vertex 22.65 4 0
    endloop
  endfacet
  facet normal 0 0 -1
    outer loop
      vertex 24 -1 0
      vertex 20 0 0
      vertex 24 0 0
    endloop
  endfacet
  facet normal 0 0 -1
    outer loop
      vertex 19 -1 0
      vertex 20 0 0
      vertex 24 -1 0
    endloop
  endfacet
  facet normal 0 0 -1
    outer loop
      vertex 19 4 0
      vertex 20 0 0
      vertex 19 -1 0
    endloop
  endfacet
  facet normal 0 0 -1
    outer loop
      vertex 20 0 0
      vertex 19 4 0
      vertex 20 4 0
    endloop
  endfacet
  facet normal -1 0 0
    outer loop
      vertex 19 -1 0
      vertex 19 4 5
      vertex 19 4 0
    endloop
  endfacet
  facet normal -1 -0 0
    outer loop
      vertex 19 4 5
      vertex 19 -1 0
      vertex 19 -1 5
    endloop
  endfacet
  facet normal 0 1 -0
    outer loop
      vertex 24 2.65 0
      vertex 22.65 2.65 4
      vertex 24 2.65 4
    endloop
  endfacet
  facet normal 0 1 0
    outer loop
      vertex 22.65 2.65 4
      vertex 24 2.65 0
      vertex 22.65 2.65 0
    endloop
  endfacet
  facet normal 0 -1 0
    outer loop
      vertex 19 -1 0
      vertex 24 -1 5
      vertex 19 -1 5
    endloop
  endfacet
  facet normal 0 -1 -0
    outer loop
      vertex 24 -1 5
      vertex 19 -1 0
      vertex 24 -1 0
    endloop
  endfacet
  facet normal 1 -0 0
    outer loop
      vertex 22.65 2.65 4
      vertex 22.65 4 0
      vertex 22.65 4 4
    endloop
  endfacet
  facet normal 1 0 0
    outer loop
      vertex 22.65 4 0
      vertex 22.65 2.65 4
      vertex 22.65 2.65 0
    endloop
  endfacet
  facet normal 0 1 -0
    outer loop
      vertex 22.65 4 0
      vertex 21.75 4 4
      vertex 22.65 4 4
    endloop
  endfacet
  facet normal 0 1 0
    outer loop
      vertex 21.75 4 4
      vertex 22.65 4 0
      vertex 21.75 4 0
    endloop
  endfacet
  facet normal 0 1 0
    outer loop
      vertex 22.65 4 4
      vertex 24 4 5
      vertex 24 4 4
    endloop
  endfacet
  facet normal 0 1 0
    outer loop
      vertex 21.75 4 4
      vertex 24 4 5
      vertex 22.65 4 4
    endloop
  endfacet
  facet normal 0 1 0
    outer loop
      vertex 24 4 5
      vertex 21.75 4 4
      vertex 19 4 5
    endloop
  endfacet
  facet normal 0 1 -0
    outer loop
      vertex 20 4 4
      vertex 19 4 5
      vertex 21.75 4 4
    endloop
  endfacet
  facet normal 0 1 0
    outer loop
      vertex 19 4 0
      vertex 20 4 4
      vertex 20 4 0
    endloop
  endfacet
  facet normal 0 1 0
    outer loop
      vertex 20 4 4
      vertex 19 4 0
      vertex 19 4 5
    endloop
  endfacet
  facet normal 0 0 -1
    outer loop
      vertex 22.65 2.65 4
      vertex 24 4 4
      vertex 24 2.65 4
    endloop
  endfacet
  facet normal -0 0 -1
    outer loop
      vertex 24 4 4
      vertex 22.65 2.65 4
      vertex 22.65 4 4
    endloop
  endfacet
  facet normal 0 0 -1
    outer loop
      vertex 24 0 4
      vertex 21.75 1.75 4
      vertex 24 1.75 4
    endloop
  endfacet
  facet normal 0 0 -1
    outer loop
      vertex 20 0 4
      vertex 21.75 1.75 4
      vertex 24 0 4
    endloop
  endfacet
  facet normal 0 0 -1
    outer loop
      vertex 20 4 4
      vertex 21.75 1.75 4
      vertex 20 0 4
    endloop
  endfacet
  facet normal 0 0 -1
    outer loop
      vertex 21.75 1.75 4
      vertex 20 4 4
      vertex 21.75 4 4
    endloop
  endfacet
  facet normal 1 -0 0
    outer loop
      vertex 20 0 4
      vertex 20 4 0
      vertex 20 4 4
    endloop
  endfacet
  facet normal 1 0 0
    outer loop
      vertex 20 4 0
      vertex 20 0 4
      vertex 20 0 0
    endloop
  endfacet
  facet normal 0 -1 0
    outer loop
      vertex 21.75 1.75 0
      vertex 24 1.75 4
      vertex 21.75 1.75 4
    endloop
  endfacet
  facet normal 0 -1 -0
    outer loop
      vertex 24 1.75 4
      vertex 21.75 1.75 0
      vertex 24 1.75 0
    endloop
  endfacet
  facet normal 0 1 -0
    outer loop
      vertex 24 0 0
      vertex 20 0 4
      vertex 24 0 4
    endloop
  endfacet
  facet normal 0 1 0
    outer loop
      vertex 20 0 4
      vertex 24 0 0
      vertex 20 0 0
    endloop
  endfacet
  facet normal -1 0 0
    outer loop
      vertex 21.75 1.75 0
      vertex 21.75 4 4
      vertex 21.75 4 0
    endloop
  endfacet
  facet normal -1 -0 0
    outer loop
      vertex 21.75 4 4
      vertex 21.75 1.75 0
      vertex 21.75 1.75 4
    endloop
  endfacet
  facet normal 1 0 0
    outer loop
      vertex 34 4 6
      vertex 34 2.65 5
      vertex 34 4 5
    endloop
  endfacet
  facet normal 1 0 0
    outer loop
      vertex 34 2.65 5
      vertex 34 1.75 5
      vertex 34 2.65 0
    endloop
  endfacet
  facet normal 1 0 0
    outer loop
      vertex 34 4 6
      vertex 34 1.75 5
      vertex 34 2.65 5
    endloop
  endfacet
  facet normal 1 -0 0
    outer loop
      vertex 34 -1 6
      vertex 34 1.75 5
      vertex 34 4 6
    endloop
  endfacet
  facet normal 1 0 0
    outer loop
      vertex 34 1.75 5
      vertex 34 -1 6
      vertex 34 0 5
    endloop
  endfacet
  facet normal 1 0 0
    outer loop
      vertex 34 -1 0
      vertex 34 0 5
      vertex 34 -1 6
    endloop
  endfacet
  facet normal 1 0 0
    outer loop
      vertex 34 0 5
      vertex 34 -1 0
      vertex 34 0 0
    endloop
  endfacet
  facet normal 1 0 0
    outer loop
      vertex 34 2.65 0
      vertex 34 1.75 5
      vertex 34 1.75 0
    endloop
  endfacet
  facet normal -0 0 1
    outer loop
      vertex 29 4 6
      vertex 34 -1 6
      vertex 34 4 6
    endloop
  endfacet
  facet normal 0 0 1
    outer loop
      vertex 34 -1 6
      vertex 29 4 6
      vertex 29 -1 6
    endloop
  endfacet
  facet normal 0 0 -1
    outer loop
      vertex 34 1.75 0
      vertex 32.65 2.65 0
      vertex 34 2.65 0
    endloop
  endfacet
  facet normal 0 0 -1
    outer loop
      vertex 31.75 1.75 0
      vertex 32.65 2.65 0
      vertex 34 1.75 0
    endloop
  endfacet
  facet normal 0 0 -1
    outer loop
      vertex 31.75 4 0
      vertex 32.65 2.65 0
      vertex 31.75 1.75 0
    endloop
  endfacet
  facet normal 0 0 -1
    outer loop
      vertex 32.65 2.65 0
      vertex 31.75 4 0
      vertex 32.65 4 0
    endloop
  endfacet
  facet normal 0 0 -1
    outer loop
      vertex 34 -1 0
      vertex 30 0 0
      vertex 34 0 0
    endloop
  endfacet
  facet normal 0 0 -1
    outer loop
      vertex 29 -1 0
      vertex 30 0 0
      vertex 34 -1 0
    endloop
  endfacet
  facet normal 0 0 -1
    outer loop
      vertex 29 4 0
      vertex 30 0 0
      vertex 29 -1 0
    endloop
  endfacet
  facet normal 0 0 -1
    outer loop
      vertex 30 0 0
      vertex 29 4 0
      vertex 30 4 0
    endloop
  endfacet
  facet normal -1 0 0
    outer loop
      vertex 29 -1 0
      vertex 29 4 6
      vertex 29 4 0
    endloop
  endfacet
  facet normal -1 -0 0
    outer loop
      vertex 29 4 6
      vertex 29 -1 0
      vertex 29 -1 6
    endloop
  endfacet
  facet normal 0 1 -0
    outer loop
      vertex 34 2.65 0
      vertex 32.65 2.65 5
      vertex 34 2.65 5
    endloop
  endfacet
  facet normal 0 1 0
    outer loop
      vertex 32.65 2.65 5
      vertex 34 2.65 0
      vertex 32.65 2.65 0
    endloop
  endfacet
  facet normal 0 -1 0
    outer loop
      vertex 29 -1 0
      vertex 34 -1 6
      vertex 29 -1 6
    endloop
  endfacet
  facet normal 0 -1 -0
    outer loop
      vertex 34 -1 6
      vertex 29 -1 0
      vertex 34 -1 0
    endloop
  endfacet
  facet normal 1 -0 0
    outer loop
      vertex 32.65 2.65 5
      vertex 32.65 4 0
      vertex 32.65 4 5
    endloop
  endfacet
  facet normal 1 0 0
    outer loop
      vertex 32.65 4 0
      vertex 32.65 2.65 5
      vertex 32.65 2.65 0
    endloop
  endfacet
  facet normal 0 1 -0
    outer loop
      vertex 32.65 4 0
      vertex 31.75 4 5
      vertex 32.65 4 5
    endloop
  endfacet
  facet normal 0 1 0
    outer loop
      vertex 31.75 4 5
      vertex 32.65 4 0
      vertex 31.75 4 0
    endloop
  endfacet
  facet normal 0 1 0
    outer loop
      vertex 32.65 4 5
      vertex 34 4 6
      vertex 34 4 5
    endloop
  endfacet
  facet normal 0 1 0
    outer loop
      vertex 31.75 4 5
      vertex 34 4 6
      vertex 32.65 4 5
    endloop
  endfacet
  facet normal 0 1 0
    outer loop
      vertex 34 4 6
      vertex 31.75 4 5
      vertex 29 4 6
    endloop
  endfacet
  facet normal 0 1 -0
    outer loop
      vertex 30 4 5
      vertex 29 4 6
      vertex 31.75 4 5
    endloop
  endfacet
  facet normal 0 1 0
    outer loop
      vertex 29 4 0
      vertex 30 4 5
      vertex 30 4 0
    endloop
  endfacet
  facet normal 0 1 0
    outer loop
      vertex 30 4 5
      vertex 29 4 0
      vertex 29 4 6
    endloop
  endfacet
  facet normal 0 0 -1
    outer loop
      vertex 32.65 2.65 5
      vertex 34 4 5
      vertex 34 2.65 5
    endloop
  endfacet
  facet normal -0 0 -1
    outer loop
      vertex 34 4 5
      vertex 32.65 2.65 5
      vertex 32.65 4 5
    endloop
  endfacet
  facet normal 0 0 -1
    outer loop
      vertex 34 0 5
      vertex 31.75 1.75 5
      vertex 34 1.75 5
    endloop
  endfacet
  facet normal 0 0 -1
    outer loop
      vertex 30 0 5
      vertex 31.75 1.75 5
      vertex 34 0 5
    endloop
  endfacet
  facet normal 0 0 -1
    outer loop
      vertex 30 4 5
      vertex 31.75 1.75 5
      vertex 30 0 5
    endloop
  endfacet
  facet normal 0 0 -1
    outer loop
      vertex 31.75 1.75 5
      vertex 30 4 5
      vertex 31.75 4 5
    endloop
  endfacet
  facet normal 1 -0 0
    outer loop
      vertex 30 0 5
      vertex 30 4 0
      vertex 30 4 5
    endloop
  endfacet
  facet normal 1 0 0
    outer loop
      vertex 30 4 0
      vertex 30 0 5
      vertex 30 0 0
    endloop
  endfacet
  facet normal 0 -1 0
    outer loop
      vertex 31.75 1.75 0
      vertex 34 1.75 5
      vertex 31.75 1.75 5
    endloop
  endfacet
  facet normal 0 -1 -0
    outer loop
      vertex 34 1.75 5
      vertex 31.75 1.75 0
      vertex 34 1.75 0
    endloop
  endfacet
  facet normal 0 1 -0
    outer loop
      vertex 34 0 0
      vertex 30 0 5
      vertex 34 0 5
    endloop
  endfacet
  facet normal 0 1 0
    outer loop
      vertex 30 0 5
      vertex 34 0 0
      vertex 30 0 0
    endloop
  endfacet
  facet normal -1 0 0
    outer loop
      vertex 31.75 1.75 0
      vertex 31.75 4 5
      vertex 31.75 4 0
    endloop
  endfacet
  facet normal -1 -0 0
    outer loop
      vertex 31.75 4 5
      vertex 31.75 1.75 0
      vertex 31.75 1.75 5
    endloop
  endfacet
  facet normal 1 0 0
    outer loop
      vertex 3.2 16.2 4
      vertex 3.2 15.65 3
      vertex 3.2 16.2 3
    endloop
  endfacet
  facet normal 1 0 0
    outer loop
      vertex 3.2 15.65 3
      vertex 3.2 14.75 3
      vertex 3.2 15.65 0
    endloop
  endfacet
  facet normal 1 0 0
    outer loop
      vertex 3.2 16.2 4
      vertex 3.2 14.75 3
      vertex 3.2 15.65 3
    endloop
  endfacet
  facet normal 1 -0 0
    outer loop
      vertex 3.2 12 4
      vertex 3.2 14.75 3
      vertex 3.2 16.2 4
    endloop
  endfacet
  facet normal 1 0 0
    outer loop
      vertex 3.2 14.75 3
      vertex 3.2 12 4
      vertex 3.2 13 3
    endloop
  endfacet
  facet normal 1 0 0
    outer loop
      vertex 3.2 12 0
      vertex 3.2 13 3
      vertex 3.2 12 4
    endloop
  endfacet
  facet normal 1 0 0
    outer loop
      vertex 3.2 13 3
      vertex 3.2 12 0
      vertex 3.2 13 0
    endloop
  endfacet
  facet normal 1 0 0
    outer loop
      vertex 3.2 15.65 0
      vertex 3.2 14.75 3
      vertex 3.2 14.75 0
    endloop
  endfacet
  facet normal -0 0 1
    outer loop
      vertex -1 16.2 4
      vertex 3.2 12 4
      vertex 3.2 16.2 4
    endloop
  endfacet
  facet normal 0 0 1
    outer loop
      vertex 3.2 12 4
      vertex -1 16.2 4
      vertex -1 12 4
    endloop
  endfacet
  facet normal 0 0 -1
    outer loop
      vertex 3.2 14.75 0
      vertex 2.65 15.65 0
      vertex 3.2 15.65 0
    endloop
  endfacet
  facet normal 0 0 -1
    outer loop
      vertex 1.75 14.75 0
      vertex 2.65 15.65 0
      vertex 3.2 14.75 0
    endloop
  endfacet
  facet normal 0 0 -1
    outer loop
      vertex 1.75 16.2 0
      vertex 2.65 15.65 0
      vertex 1.75 14.75 0
    endloop
  endfacet
  facet normal 0 0 -1
    outer loop
      vertex 2.65 15.65 0
      vertex 1.75 16.2 0
      vertex 2.65 16.2 0
    endloop
  endfacet
  facet normal 0 0 -1
    outer loop
      vertex 3.2 12 0
      vertex 0 13 0
      vertex 3.2 13 0
    endloop
  endfacet
  facet normal 0 0 -1
    outer loop
      vertex -1 12 0
      vertex 0 13 0
      vertex 3.2 12 0
    endloop
  endfacet
  facet normal 0 0 -1
    outer loop
      vertex -1 16.2 0
      vertex 0 13 0
      vertex -1 12 0
    endloop
  endfacet
  facet normal 0 0 -1
    outer loop
      vertex 0 13 0
      vertex -1 16.2 0
      vertex 0 16.2 0
    endloop
  endfacet
  facet normal -1 0 0
    outer loop
      vertex -1 12 0
      vertex -1 16.2 4
      vertex -1 16.2 0
    endloop
  endfacet
  facet normal -1 -0 0
    outer loop
      vertex -1 16.2 4
      vertex -1 12 0
      vertex -1 12 4
    endloop
  endfacet
  facet normal 0 1 -0
    outer loop
      vertex 3.2 15.65 0
      vertex 2.65 15.65 3
      vertex 3.2 15.65 3
    endloop
  endfacet
  facet normal 0 1 0
    outer loop
      vertex 2.65 15.65 3
      vertex 3.2 15.65 0
      vertex 2.65 15.65 0
    endloop
  endfacet
  facet normal 0 -1 0
    outer loop
      vertex -1 12 0
      vertex 3.2 12 4
      vertex -1 12 4
    endloop
  endfacet
  facet normal 0 -1 -0
    outer loop
      vertex 3.2 12 4
      vertex -1 12 0
      vertex 3.2 12 0
    endloop
  endfacet
  facet normal 1 -0 0
    outer loop
      vertex 2.65 15.65 3
      vertex 2.65 16.2 0
      vertex 2.65 16.2 3
    endloop
  endfacet
  facet normal 1 0 0
    outer loop
      vertex 2.65 16.2 0
      vertex 2.65 15.65 3
      vertex 2.65 15.65 0
    endloop
  endfacet
  facet normal 0 1 -0
    outer loop
      vertex 2.65 16.2 0
      vertex 1.75 16.2 3
      vertex 2.65 16.2 3
    endloop
  endfacet
  facet normal 0 1 0
    outer loop
      vertex 1.75 16.2 3
      vertex 2.65 16.2 0
      vertex 1.75 16.2 0
    endloop
  endfacet
  facet normal 0 1 0
    outer loop
      vertex 2.65 16.2 3
      vertex 3.2 16.2 4
      vertex 3.2 16.2 3
    endloop
  endfacet
  facet normal 0 1 0
    outer loop
      vertex 1.75 16.2 3
      vertex 3.2 16.2 4
      vertex 2.65 16.2 3
    endloop
  endfacet
  facet normal 0 1 0
    outer loop
      vertex 3.2 16.2 4
      vertex 1.75 16.2 3
      vertex -1 16.2 4
    endloop
  endfacet
  facet normal 0 1 -0
    outer loop
      vertex 0 16.2 3
      vertex -1 16.2 4
      vertex 1.75 16.2 3
    endloop
  endfacet
  facet normal 0 1 0
    outer loop
      vertex -1 16.2 0
      vertex 0 16.2 3
      vertex 0 16.2 0
    endloop
  endfacet
  facet normal 0 1 0
    outer loop
      vertex 0 16.2 3
      vertex -1 16.2 0
      vertex -1 16.2 4
    endloop
  endfacet
  facet normal 0 0 -1
    outer loop
      vertex 2.65 15.65 3
      vertex 3.2 16.2 3
      vertex 3.2 15.65 3
    endloop
  endfacet
  facet normal -0 0 -1
    outer loop
      vertex 3.2 16.2 3
      vertex 2.65 15.65 3
      vertex 2.65 16.2 3
    endloop
  endfacet
  facet normal 0 0 -1
    outer loop
      vertex 3.2 13 3
      vertex 1.75 14.75 3
      vertex 3.2 14.75 3
    endloop
  endfacet
  facet normal 0 0 -1
    outer loop
      vertex 0 13 3
      vertex 1.75 14.75 3
      vertex 3.2 13 3
    endloop
  endfacet
  facet normal 0 0 -1
    outer loop
      vertex 0 16.2 3
      vertex 1.75 14.75 3
      vertex 0 13 3
    endloop
  endfacet
  facet normal 0 0 -1
    outer loop
      vertex 1.75 14.75 3
      vertex 0 16.2 3
      vertex 1.75 16.2 3
    endloop
  endfacet
  facet normal 1 -0 0
    outer loop
      vertex 0 13 3
      vertex 0 16.2 0
      vertex 0 16.2 3
    endloop
  endfacet
  facet normal 1 0 0
    outer loop
      vertex 0 16.2 0
      vertex 0 13 3
      vertex 0 13 0
    endloop
  endfacet
  facet normal 0 -1 0
    outer loop
      vertex 1.75 14.75 0
      vertex 3.2 14.75 3
      vertex 1.75 14.75 3
    endloop
  endfacet
  facet normal 0 -1 -0
    outer loop
      vertex 3.2 14.75 3
      vertex 1.75 14.75 0
      vertex 3.2 14.75 0
    endloop
  endfacet
  facet normal 0 1 -0
    outer loop
      vertex 3.2 13 0
      vertex 0 13 3
      vertex 3.2 13 3
    endloop
  endfacet
  facet normal 0 1 0
    outer loop
      vertex 0 13 3
      vertex 3.2 13 0
      vertex 0 13 0
    endloop
  endfacet
  facet normal -1 0 0
    outer loop
      vertex 1.75 14.75 0
      vertex 1.75 16.2 3
      vertex 1.75 16.2 0
    endloop
  endfacet
  facet normal -1 -0 0
    outer loop
      vertex 1.75 16.2 3
      vertex 1.75 14.75 0
      vertex 1.75 14.75 3
    endloop
  endfacet
  facet normal 1 0 0
    outer loop
      vertex 15 18 4
      vertex 15 15.65 3
      vertex 15 18 3
    endloop
  endfacet
  facet normal 1 0 0
    outer loop
      vertex 15 15.65 3
      vertex 15 14.75 3
      vertex 15 15.65 0
    endloop
  endfacet
  facet normal 1 0 0
    outer loop
      vertex 15 18 4
      vertex 15 14.75 3
      vertex 15 15.65 3
    endloop
  endfacet
  facet normal 1 -0 0
    outer loop
      vertex 15 12 4
      vertex 15 14.75 3
      vertex 15 18 4
    endloop
  endfacet
  facet normal 1 0 0
    outer loop
      vertex 15 14.75 3
      vertex 15 12 4
      vertex 15 13 3
    endloop
  endfacet
  facet normal 1 0 0
    outer loop
      vertex 15 12 0
      vertex 15 13 3
      vertex 15 12 4
    endloop
  endfacet
  facet normal 1 0 0
    outer loop
      vertex 15 13 3
      vertex 15 12 0
      vertex 15 13 0
    endloop
  endfacet
  facet normal 1 0 0
    outer loop
      vertex 15 15.65 0
      vertex 15 14.75 3
      vertex 15 14.75 0
    endloop
  endfacet
  facet normal -0 0 1
    outer loop
      vertex 9 18 4
      vertex 15 12 4
      vertex 15 18 4
    endloop
  endfacet
  facet normal 0 0 1
    outer loop
      vertex 15 12 4
      vertex 9 18 4
      vertex 9 12 4
    endloop
  endfacet
  facet normal 0 0 -1
    outer loop
      vertex 15 14.75 0
      vertex 12.65 15.65 0
      vertex 15 15.65 0
    endloop
  endfacet
  facet normal 0 0 -1
    outer loop
      vertex 11.75 14.75 0
      vertex 12.65 15.65 0
      vertex 15 14.75 0
    endloop
  endfacet
  facet normal 0 0 -1
    outer loop
      vertex 11.75 18 0
      vertex 12.65 15.65 0
      vertex 11.75 14.75 0
    endloop
  endfacet
  facet normal 0 0 -1
    outer loop
      vertex 12.65 15.65 0
      vertex 11.75 18 0
      vertex 12.65 18 0
    endloop
  endfacet
  facet normal 0 0 -1
    outer loop
      vertex 15 12 0
      vertex 10 13 0
      vertex 15 13 0
    endloop
  endfacet
  facet normal 0 0 -1
    outer loop
      vertex 9 12 0
      vertex 10 13 0
      vertex 15 12 0
    endloop
  endfacet
  facet normal 0 0 -1
    outer loop
      vertex 9 18 0
      vertex 10 13 0
      vertex 9 12 0
    endloop
  endfacet
  facet normal 0 0 -1
    outer loop
      vertex 10 13 0
      vertex 9 18 0
      vertex 10 18 0
    endloop
  endfacet
  facet normal -1 0 0
    outer loop
      vertex 9 12 0
      vertex 9 18 4
      vertex 9 18 0
    endloop
  endfacet
  facet normal -1 -0 0
    outer loop
      vertex 9 18 4
      vertex 9 12 0
      vertex 9 12 4
    endloop
  endfacet
  facet normal 0 1 -0
    outer loop
      vertex 15 15.65 0
      vertex 12.65 15.65 3
      vertex 15 15.65 3
    endloop
  endfacet
  facet normal 0 1 0
    outer loop
      vertex 12.65 15.65 3
      vertex 15 15.65 0
      vertex 12.65 15.65 0
    endloop
  endfacet
  facet normal 0 -1 0
    outer loop
      vertex 9 12 0
      vertex 15 12 4
      vertex 9 12 4
    endloop
  endfacet
  facet normal 0 -1 -0
    outer loop
      vertex 15 12 4
      vertex 9 12 0
      vertex 15 12 0
    endloop
  endfacet
  facet normal 1 -0 0
    outer loop
      vertex 12.65 15.65 3
      vertex 12.65 18 0
      vertex 12.65 18 3
    endloop
  endfacet
  facet normal 1 0 0
    outer loop
      vertex 12.65 18 0
      vertex 12.65 15.65 3
      vertex 12.65 15.65 0
    endloop
  endfacet
  facet normal 0 1 -0
    outer loop
      vertex 12.65 18 0
      vertex 11.75 18 3
      vertex 12.65 18 3
    endloop
  endfacet
  facet normal 0 1 0
    outer loop
      vertex 11.75 18 3
      vertex 12.65 18 0
      vertex 11.75 18 0
    endloop
  endfacet
  facet normal 0 1 0
    outer loop
      vertex 12.65 18 3
      vertex 15 18 4
      vertex 15 18 3
    endloop
  endfacet
  facet normal 0 1 0
    outer loop
      vertex 11.75 18 3
      vertex 15 18 4
      vertex 12.65 18 3
    endloop
  endfacet
  facet normal 0 1 0
    outer loop
      vertex 15 18 4
      vertex 11.75 18 3
      vertex 9 18 4
    endloop
  endfacet
  facet normal 0 1 -0
    outer loop
      vertex 10 18 3
      vertex 9 18 4
      vertex 11.75 18 3
    endloop
  endfacet
  facet normal 0 1 0
    outer loop
      vertex 9 18 0
      vertex 10 18 3
      vertex 10 18 0
    endloop
  endfacet
  facet normal 0 1 0
    outer loop
      vertex 10 18 3
      vertex 9 18 0
      vertex 9 18 4
    endloop
  endfacet
  facet normal 0 0 -1
    outer loop
      vertex 12.65 15.65 3
      vertex 15 18 3
      vertex 15 15.65 3
    endloop
  endfacet
  facet normal -0 0 -1
    outer loop
      vertex 15 18 3
      vertex 12.65 15.65 3
      vertex 12.65 18 3
    endloop
  endfacet
  facet normal 0 0 -1
    outer loop
      vertex 15 13 3
      vertex 11.75 14.75 3
      vertex 15 14.75 3
    endloop
  endfacet
  facet normal 0 0 -1
    outer loop
      vertex 10 13 3
      vertex 11.75 14.75 3
      vertex 15 13 3
    endloop
  endfacet
  facet normal 0 0 -1
    outer loop
      vertex 10 18 3
      vertex 11.75 14.75 3
      vertex 10 13 3
    endloop
  endfacet
  facet normal 0 0 -1
    outer loop
      vertex 11.75 14.75 3
      vertex 10 18 3
      vertex 11.75 18 3
    endloop
  endfacet
  facet normal 1 -0 0
    outer loop
      vertex 10 13 3
      vertex 10 18 0
      vertex 10 18 3
    endloop
  endfacet
  facet normal 1 0 0
    outer loop
      vertex 10 18 0
      vertex 10 13 3
      vertex 10 13 0
    endloop
  endfacet
  facet normal 0 -1 0
    outer loop
      vertex 11.75 14.75 0
      vertex 15 14.75 3
      vertex 11.75 14.75 3
    endloop
  endfacet
  facet normal 0 -1 -0
    outer loop
      vertex 15 14.75 3
      vertex 11.75 14.75 0
      vertex 15 14.75 0
    endloop
  endfacet
  facet normal 0 1 -0
    outer loop
      vertex 15 13 0
      vertex 10 13 3
      vertex 15 13 3
    endloop
  endfacet
  facet normal 0 1 0
    outer loop
      vertex 10 13 3
      vertex 15 13 0
      vertex 10 13 0
    endloop
  endfacet
  facet normal -1 0 0
    outer loop
      vertex 11.75 14.75 0
      vertex 11.75 18 3
      vertex 11.75 18 0
    endloop
  endfacet
  facet normal -1 -0 0
    outer loop
      vertex 11.75 18 3
      vertex 11.75 14.75 0
      vertex 11.75 14.75 3
    endloop
  endfacet
  facet normal 1 0 0
    outer loop
      vertex 24 17 4
      vertex 24 15.95 3
      vertex 24 17 3
    endloop
  endfacet
  facet normal 1 0 0
    outer loop
      vertex 24 15.95 3
      vertex 24 14.75 3
      vertex 24 15.95 0
    endloop
  endfacet
  facet normal 1 0 0
    outer loop
      vertex 24 17 4
      vertex 24 14.75 3
      vertex 24 15.95 3
    endloop
  endfacet
  facet normal 1 -0 0
    outer loop
      vertex 24 11.8 4
      vertex 24 14.75 3
      vertex 24 17 4
    endloop
  endfacet
  facet normal 1 0 0
    outer loop
      vertex 24 14.75 3
      vertex 24 11.8 4
      vertex 24 13 3
    endloop
  endfacet
  facet normal 1 0 0
    outer loop
      vertex 24 11.8 0
      vertex 24 13 3
      vertex 24 11.8 4
    endloop
  endfacet
  facet normal 1 0 0
    outer loop
      vertex 24 13 3
      vertex 24 11.8 0
      vertex 24 13 0
    endloop
  endfacet
  facet normal 1 0 0
    outer loop
      vertex 24 15.95 0
      vertex 24 14.75 3
      vertex 24 14.75 0
    endloop
  endfacet
  facet normal -0 0 1
    outer loop
      vertex 18.8 17 4
      vertex 24 11.8 4
      vertex 24 17 4
    endloop
  endfacet
  facet normal 0 0 1
    outer loop
      vertex 24 11.8 4
      vertex 18.8 17 4
      vertex 18.8 11.8 4
    endloop
  endfacet
  facet normal 0 0 -1
    outer loop
      vertex 24 14.75 0
      vertex 22.95 15.95 0
      vertex 24 15.95 0
    endloop
  endfacet
  facet normal 0 0 -1
    outer loop
      vertex 21.75 14.75 0
      vertex 22.95 15.95 0
      vertex 24 14.75 0
    endloop
  endfacet
  facet normal 0 0 -1
    outer loop
      vertex 21.75 17 0
      vertex 22.95 15.95 0
      vertex 21.75 14.75 0
    endloop
  endfacet
  facet normal 0 0 -1
    outer loop
      vertex 22.95 15.95 0
      vertex 21.75 17 0
      vertex 22.95 17 0
    endloop
  endfacet
  facet normal 0 0 -1
    outer loop
      vertex 24 11.8 0
      vertex 20 13 0
      vertex 24 13 0
    endloop
  endfacet
  facet normal 0 0 -1
    outer loop
      vertex 18.8 11.8 0
      vertex 20 13 0
      vertex 24 11.8 0
    endloop
  endfacet
  facet normal 0 0 -1
    outer loop
      vertex 18.8 17 0
      vertex 20 13 0
      vertex 18.8 11.8 0
    endloop
  endfacet
  facet normal 0 0 -1
    outer loop
      vertex 20 13 0
      vertex 18.8 17 0
      vertex 20 17 0
    endloop
  endfacet
  facet normal -1 0 0
    outer loop
      vertex 18.8 11.8 0
      vertex 18.8 17 4
      vertex 18.8 17 0
    endloop
  endfacet
  facet normal -1 -0 0
    outer loop
      vertex 18.8 17 4
      vertex 18.8 11.8 0
      vertex 18.8 11.8 4
    endloop
  endfacet
  facet normal 0 1 -0
    outer loop
      vertex 24 15.95 0
      vertex 22.95 15.95 3
      vertex 24 15.95 3
    endloop
  endfacet
  facet normal 0 1 0
    outer loop
      vertex 22.95 15.95 3
      vertex 24 15.95 0
      vertex 22.95 15.95 0
    endloop
  endfacet
  facet normal 0 -1 0
    outer loop
      vertex 18.8 11.8 0
      vertex 24 11.8 4
      vertex 18.8 11.8 4
    endloop
  endfacet
  facet normal 0 -1 -0
    outer loop
      vertex 24 11.8 4
      vertex 18.8 11.8 0
      vertex 24 11.8 0
    endloop
  endfacet
  facet normal 1 -0 0
    outer loop
      vertex 22.95 15.95 3
      vertex 22.95 17 0
      vertex 22.95 17 3
    endloop
  endfacet
  facet normal 1 0 0
    outer loop
      vertex 22.95 17 0
      vertex 22.95 15.95 3
      vertex 22.95 15.95 0
    endloop
  endfacet
  facet normal 0 1 -0
    outer loop
      vertex 22.95 17 0
      vertex 21.75 17 3
      vertex 22.95 17 3
    endloop
  endfacet
  facet normal 0 1 0
    outer loop
      vertex 21.75 17 3
      vertex 22.95 17 0
      vertex 21.75 17 0
    endloop
  endfacet
  facet normal 0 1 0
    outer loop
      vertex 22.95 17 3
      vertex 24 17 4
      vertex 24 17 3
    endloop
  endfacet
  facet normal 0 1 0
    outer loop
      vertex 21.75 17 3
      vertex 24 17 4
      vertex 22.95 17 3
    endloop
  endfacet
  facet normal 0 1 0
    outer loop
      vertex 24 17 4
      vertex 21.75 17 3
      vertex 18.8 17 4
    endloop
  endfacet
  facet normal 0 1 -0
    outer loop
      vertex 20 17 3
      vertex 18.8 17 4
      vertex 21.75 17 3
    endloop
  endfacet
  facet normal 0 1 0
    outer loop
      vertex 18.8 17 0
      vertex 20 17 3
      vertex 20 17 0
    endloop
  endfacet
  facet normal 0 1 0
    outer loop
      vertex 20 17 3
      vertex 18.8 17 0
      vertex 18.8 17 4
    endloop
  endfacet
  facet normal 0 0 -1
    outer loop
      vertex 22.95 15.95 3
      vertex 24 17 3
      vertex 24 15.95 3
    endloop
  endfacet
  facet normal -0 0 -1
    outer loop
      vertex 24 17 3
      vertex 22.95 15.95 3
      vertex 22.95 17 3
    endloop
  endfacet
  facet normal 0 0 -1
    outer loop
      vertex 24 13 3
      vertex 21.75 14.75 3
      vertex 24 14.75 3
    endloop
  endfacet
  facet normal 0 0 -1
    outer loop
      vertex 20 13 3
      vertex 21.75 14.75 3
      vertex 24 13 3
    endloop
  endfacet
  facet normal 0 0 -1
    outer loop
      vertex 20 17 3
      vertex 21.75 14.75 3
      vertex 20 13 3
    endloop
  endfacet
  facet normal 0 0 -1
    outer loop
      vertex 21.75 14.75 3
      vertex 20 17 3
      vertex 21.75 17 3
    endloop
  endfacet
  facet normal 1 -0 0
    outer loop
      vertex 20 13 3
      vertex 20 17 0
      vertex 20 17 3
    endloop
  endfacet
  facet normal 1 0 0
    outer loop
      vertex 20 17 0
      vertex 20 13 3
      vertex 20 13 0
    endloop
  endfacet
  facet normal 0 -1 0
    outer loop
      vertex 21.75 14.75 0
      vertex 24 14.75 3
      vertex 21.75 14.75 3
    endloop
  endfacet
  facet normal 0 -1 -0
    outer loop
      vertex 24 14.75 3
      vertex 21.75 14.75 0
      vertex 24 14.75 0
    endloop
  endfacet
  facet normal 0 1 -0
    outer loop
      vertex 24 13 0
      vertex 20 13 3
      vertex 24 13 3
    endloop
  endfacet
  facet normal 0 1 0
    outer loop
      vertex 20 13 3
      vertex 24 13 0
      vertex 20 13 0
    endloop
  endfacet
  facet normal -1 0 0
    outer loop
      vertex 21.75 14.75 0
      vertex 21.75 17 3
      vertex 21.75 17 0
    endloop
  endfacet
  facet normal -1 -0 0
    outer loop
      vertex 21.75 17 3
      vertex 21.75 14.75 0
      vertex 21.75 14.75 3
    endloop
  endfacet
  facet normal 1 0 0
    outer loop
      vertex 34 17 4
      vertex 34 15.45 3
      vertex 34 17 3
    endloop
  endfacet
  facet normal 1 0 0
    outer loop
      vertex 34 15.45 3
      vertex 34 14.75 3
      vertex 34 15.45 0
    endloop
  endfacet
  facet normal 1 0 0
    outer loop
      vertex 34 17 4
      vertex 34 14.75 3
      vertex 34 15.45 3
    endloop
  endfacet
  facet normal 1 -0 0
    outer loop
      vertex 34 12.2 4
      vertex 34 14.75 3
      vertex 34 17 4
    endloop
  endfacet
  facet normal 1 0 0
    outer loop
      vertex 34 14.75 3
      vertex 34 12.2 4
      vertex 34 13 3
    endloop
  endfacet
  facet normal 1 0 0
    outer loop
      vertex 34 12.2 0
      vertex 34 13 3
      vertex 34 12.2 4
    endloop
  endfacet
  facet normal 1 0 0
    outer loop
      vertex 34 13 3
      vertex 34 12.2 0
      vertex 34 13 0
    endloop
  endfacet
  facet normal 1 0 0
    outer loop
      vertex 34 15.45 0
      vertex 34 14.75 3
      vertex 34 14.75 0
    endloop
  endfacet
  facet normal -0 0 1
    outer loop
      vertex 29.2 17 4
      vertex 34 12.2 4
      vertex 34 17 4
    endloop
  endfacet
  facet normal 0 0 1
    outer loop
      vertex 34 12.2 4
      vertex 29.2 17 4
      vertex 29.2 12.2 4
    endloop
  endfacet
  facet normal 0 0 -1
    outer loop
      vertex 34 14.75 0
      vertex 32.45 15.45 0
      vertex 34 15.45 0
    endloop
  endfacet
  facet normal 0 0 -1
    outer loop
      vertex 31.75 14.75 0
      vertex 32.45 15.45 0
      vertex 34 14.75 0
    endloop
  endfacet
  facet normal 0 0 -1
    outer loop
      vertex 31.75 17 0
      vertex 32.45 15.45 0
      vertex 31.75 14.75 0
    endloop
  endfacet
  facet normal 0 0 -1
    outer loop
      vertex 32.45 15.45 0
      vertex 31.75 17 0
      vertex 32.45 17 0
    endloop
  endfacet
  facet normal 0 0 -1
    outer loop
      vertex 34 12.2 0
      vertex 30 13 0
      vertex 34 13 0
    endloop
  endfacet
  facet normal 0 0 -1
    outer loop
      vertex 29.2 12.2 0
      vertex 30 13 0
      vertex 34 12.2 0
    endloop
  endfacet
  facet normal 0 0 -1
    outer loop
      vertex 29.2 17 0
      vertex 30 13 0
      vertex 29.2 12.2 0
    endloop
  endfacet
  facet normal 0 0 -1
    outer loop
      vertex 30 13 0
      vertex 29.2 17 0
      vertex 30 17 0
    endloop
  endfacet
  facet normal -1 0 0
    outer loop
      vertex 29.2 12.2 0
      vertex 29.2 17 4
      vertex 29.2 17 0
    endloop
  endfacet
  facet normal -1 -0 0
    outer loop
      vertex 29.2 17 4
      vertex 29.2 12.2 0
      vertex 29.2 12.2 4
    endloop
  endfacet
  facet normal 0 1 -0
    outer loop
      vertex 34 15.45 0
      vertex 32.45 15.45 3
      vertex 34 15.45 3
    endloop
  endfacet
  facet normal 0 1 0
    outer loop
      vertex 32.45 15.45 3
      vertex 34 15.45 0
      vertex 32.45 15.45 0
    endloop
  endfacet
  facet normal 0 -1 0
    outer loop
      vertex 29.2 12.2 0
      vertex 34 12.2 4
      vertex 29.2 12.2 4
    endloop
  endfacet
  facet normal 0 -1 -0
    outer loop
      vertex 34 12.2 4
      vertex 29.2 12.2 0
      vertex 34 12.2 0
    endloop
  endfacet
  facet normal 1 -0 0
    outer loop
      vertex 32.45 15.45 3
      vertex 32.45 17 0
      vertex 32.45 17 3
    endloop
  endfacet
  facet normal 1 0 0
    outer loop
      vertex 32.45 17 0
      vertex 32.45 15.45 3
      vertex 32.45 15.45 0
    endloop
  endfacet
  facet normal 0 1 -0
    outer loop
      vertex 32.45 17 0
      vertex 31.75 17 3
      vertex 32.45 17 3
    endloop
  endfacet
  facet normal 0 1 0
    outer loop
      vertex 31.75 17 3
      vertex 32.45 17 0
      vertex 31.75 17 0
    endloop
  endfacet
  facet normal 0 1 0
    outer loop
      vertex 32.45 17 3
      vertex 34 17 4
      vertex 34 17 3
    endloop
  endfacet
  facet normal 0 1 0
    outer loop
      vertex 31.75 17 3
      vertex 34 17 4
      vertex 32.45 17 3
    endloop
  endfacet
  facet normal 0 1 0
    outer loop
      vertex 34 17 4
      vertex 31.75 17 3
      vertex 29.2 17 4
    endloop
  endfacet
  facet normal 0 1 -0
    outer loop
      vertex 30 17 3
      vertex 29.2 17 4
      vertex 31.75 17 3
    endloop
  endfacet
  facet normal 0 1 0
    outer loop
      vertex 29.2 17 0
      vertex 30 17 3
      vertex 30 17 0
    endloop
  endfacet
  facet normal 0 1 0
    outer loop
      vertex 30 17 3
      vertex 29.2 17 0
      vertex 29.2 17 4
    endloop
  endfacet
  facet normal 0 0 -1
    outer loop
      vertex 32.45 15.45 3
      vertex 34 17 3
      vertex 34 15.45 3
    endloop
  endfacet
  facet normal -0 0 -1
    outer loop
      vertex 34 17 3
      vertex 32.45 15.45 3
      vertex 32.45 17 3
    endloop
  endfacet
  facet normal 0 0 -1
    outer loop
      vertex 34 13 3
      vertex 31.75 14.75 3
      vertex 34 14.75 3
    endloop
  endfacet
  facet normal 0 0 -1
    outer loop
      vertex 30 13 3
      vertex 31.75 14.75 3
      vertex 34 13 3
    endloop
  endfacet
  facet normal 0 0 -1
    outer loop
      vertex 30 17 3
      vertex 31.75 14.75 3
      vertex 30 13 3
    endloop
  endfacet
  facet normal 0 0 -1
    outer loop
      vertex 31.75 14.75 3
      vertex 30 17 3
      vertex 31.75 17 3
    endloop
  endfacet
  facet normal 1 -0 0
    outer loop
      vertex 30 13 3
      vertex 30 17 0
      vertex 30 17 3
    endloop
  endfacet
  facet normal 1 0 0
    outer loop
      vertex 30 17 0
      vertex 30 13 3
      vertex 30 13 0
    endloop
  endfacet
  facet normal 0 -1 0
    outer loop
      vertex 31.75 14.75 0
      vertex 34 14.75 3
      vertex 31.75 14.75 3
    endloop
  endfacet
  facet normal 0 -1 -0
    outer loop
      vertex 34 14.75 3
      vertex 31.75 14.75 0
      vertex 34 14.75 0
    endloop
  endfacet
  facet normal 0 1 -0
    outer loop
      vertex 34 13 0
      vertex 30 13 3
      vertex 34 13 3
    endloop
  endfacet
  facet normal 0 1 0
    outer loop
      vertex 30 13 3
      vertex 34 13 0
      vertex 30 13 0
    endloop
  endfacet
  facet normal -1 0 0
    outer loop
      vertex 31.75 14.75 0
      vertex 31.75 17 3
      vertex 31.75 17 0
    endloop
  endfacet
  facet normal -1 -0 0
    outer loop
      vertex 31.75 17 3
      vertex 31.75 14.75 0
      vertex 31.75 14.75 3
    endloop
  endfacet
endsolid OpenSCAD_Model
