solid OpenSCAD_Model
  facet normal 1 0 0
    outer loop
      vertex 4 4 4
      vertex 4 2.65 3
      vertex 4 4 3
    endloop
  endfacet
  facet normal 1 0 0
    outer loop
      vertex 4 2.65 3
      vertex 4 1.75 3
      vertex 4 2.65 0
    endloop
  endfacet
  facet normal 1 0 0
    outer loop
      vertex 4 4 4
      vertex 4 1.75 3
      vertex 4 2.65 3
    endloop
  endfacet
  facet normal 1 -0 0
    outer loop
      vertex 4 -1 4
      vertex 4 1.75 3
      vertex 4 4 4
    endloop
  endfacet
  facet normal 1 0 0
    outer loop
      vertex 4 1.75 3
      vertex 4 -1 4
      vertex 4 0 3
    endloop
  endfacet
  facet normal 1 0 0
    outer loop
      vertex 4 -1 0
      vertex 4 0 3
      vertex 4 -1 4
    endloop
  endfacet
  facet normal 1 0 0
    outer loop
      vertex 4 0 3
      vertex 4 -1 0
      vertex 4 0 0
    endloop
  endfacet
  facet normal 1 0 0
    outer loop
      vertex 4 2.65 0
      vertex 4 1.75 3
      vertex 4 1.75 0
    endloop
  endfacet
  facet normal -0 0 1
    outer loop
      vertex -1 4 4
      vertex 4 -1 4
      vertex 4 4 4
    endloop
  endfacet
  facet normal 0 0 1
    outer loop
      vertex 4 -1 4
      vertex -1 4 4
      vertex -1 -1 4
    endloop
  endfacet
  facet normal 0 0 -1
    outer loop
      vertex 4 1.75 0
      vertex 2.65 2.65 0
      vertex 4 2.65 0
    endloop
  endfacet
  facet normal 0 0 -1
    outer loop
      vertex 1.75 1.75 0
      vertex 2.65 2.65 0
      vertex 4 1.75 0
    endloop
  endfacet
  facet normal 0 0 -1
    outer loop
      vertex 1.75 4 0
      vertex 2.65 2.65 0
      vertex 1.75 1.75 0
    endloop
  endfacet
  facet normal 0 0 -1
    outer loop
      vertex 2.65 2.65 0
      vertex 1.75 4 0
      vertex 2.65 4 0
    endloop
  endfacet
  facet normal 0 0 -1
    outer loop
      vertex 4 -1 0
      vertex 0 0 0
      vertex 4 0 0
    endloop
  endfacet
  facet normal 0 0 -1
    outer loop
      vertex -1 -1 0
      vertex 0 0 0
      vertex 4 -1 0
    endloop
  endfacet
  facet normal 0 0 -1
    outer loop
      vertex -1 4 0
      vertex 0 0 0
      vertex -1 -1 0
    endloop
  endfacet
  facet normal 0 0 -1
    outer loop
      vertex 0 0 0
      vertex -1 4 0
      vertex 0 4 0
    endloop
  endfacet
  facet normal -1 0 0
    outer loop
      vertex -1 -1 0
      vertex -1 4 4
      vertex -1 4 0
    endloop
  endfacet
  facet normal -1 -0 0
    outer loop
      vertex -1 4 4
      vertex -1 -1 0
      vertex -1 -1 4
    endloop
  endfacet
  facet normal 0 1 -0
    outer loop
      vertex 4 2.65 0
      vertex 2.65 2.65 3
      vertex 4 2.65 3
    endloop
  endfacet
  facet normal 0 1 0
    outer loop
      vertex 2.65 2.65 3
      vertex 4 2.65 0
      vertex 2.65 2.65 0
    endloop
  endfacet
  facet normal 0 -1 0
    outer loop
      vertex -1 -1 0
      vertex 4 -1 4
      vertex -1 -1 4
    endloop
  endfacet
  facet normal 0 -1 -0
    outer loop
      vertex 4 -1 4
      vertex -1 -1 0
      vertex 4 -1 0
    endloop
  endfacet
  facet normal 1 -0 0
    outer loop
      vertex 2.65 2.65 3
      vertex 2.65 4 0
      vertex 2.65 4 3
    endloop
  endfacet
  facet normal 1 0 0
    outer loop
      vertex 2.65 4 0
      vertex 2.65 2.65 3
      vertex 2.65 2.65 0
    endloop
  endfacet
  facet normal 0 1 -0
    outer loop
      vertex 2.65 4 0
      vertex 1.75 4 3
      vertex 2.65 4 3
    endloop
  endfacet
  facet normal 0 1 0
    outer loop
      vertex 1.75 4 3
      vertex 2.65 4 0
      vertex 1.75 4 0
    endloop
  endfacet
  facet normal 0 1 0
    outer loop
      vertex 2.65 4 3
      vertex 4 4 4
      vertex 4 4 3
    endloop
  endfacet
  facet normal 0 1 0
    outer loop
      vertex 1.75 4 3
      vertex 4 4 4
      vertex 2.65 4 3
    endloop
  endfacet
  facet normal 0 1 0
    outer loop
      vertex 4 4 4
      vertex 1.75 4 3
      vertex -1 4 4
    endloop
  endfacet
  facet normal 0 1 -0
    outer loop
      vertex 0 4 3
      vertex -1 4 4
      vertex 1.75 4 3
    endloop
  endfacet
  facet normal 0 1 0
    outer loop
      vertex -1 4 0
      vertex 0 4 3
      vertex 0 4 0
    endloop
  endfacet
  facet normal 0 1 0
    outer loop
      vertex 0 4 3
      vertex -1 4 0
      vertex -1 4 4
    endloop
  endfacet
  facet normal 0 0 -1
    outer loop
      vertex 2.65 2.65 3
      vertex 4 4 3
      vertex 4 2.65 3
    endloop
  endfacet
  facet normal -0 0 -1
    outer loop
      vertex 4 4 3
      vertex 2.65 2.65 3
      vertex 2.65 4 3
    endloop
  endfacet
  facet normal 0 0 -1
    outer loop
      vertex 4 0 3
      vertex 1.75 1.75 3
      vertex 4 1.75 3
    endloop
  endfacet
  facet normal 0 0 -1
    outer loop
      vertex 0 0 3
      vertex 1.75 1.75 3
      vertex 4 0 3
    endloop
  endfacet
  facet normal 0 0 -1
    outer loop
      vertex 0 4 3
      vertex 1.75 1.75 3
      vertex 0 0 3
    endloop
  endfacet
  facet normal 0 0 -1
    outer loop
      vertex 1.75 1.75 3
      vertex 0 4 3
      vertex 1.75 4 3
    endloop
  endfacet
  facet normal 1 -0 0
    outer loop
      vertex 0 0 3
      vertex 0 4 0
      vertex 0 4 3
    endloop
  endfacet
  facet normal 1 0 0
    outer loop
      vertex 0 4 0
      vertex 0 0 3
      vertex 0 0 0
    endloop
  endfacet
  facet normal 0 -1 0
    outer loop
      vertex 1.75 1.75 0
      vertex 4 1.75 3
      vertex 1.75 1.75 3
    endloop
  endfacet
  facet normal 0 -1 -0
    outer loop
      vertex 4 1.75 3
      vertex 1.75 1.75 0
      vertex 4 1.75 0
    endloop
  endfacet
  facet normal 0 1 -0
    outer loop
      vertex 4 0 0
      vertex 0 0 3
      vertex 4 0 3
    endloop
  endfacet
  facet normal 0 1 0
    outer loop
      vertex 0 0 3
      vertex 4 0 0
      vertex 0 0 0
    endloop
  endfacet
  facet normal -1 0 0
    outer loop
      vertex 1.75 1.75 0
      vertex 1.75 4 3
      vertex 1.75 4 0
    endloop
  endfacet
  facet normal -1 -0 0
    outer loop
      vertex 1.75 4 3
      vertex 1.75 1.75 0
      vertex 1.75 1.75 3
    endloop
  endfacet
  facet normal 1 0 0
    outer loop
      vertex 14 4 4
      vertex 14 2.9 3
      vertex 14 4 3
    endloop
  endfacet
  facet normal 1 0 0
    outer loop
      vertex 14 2.9 3
      vertex 14 2 3
      vertex 14 2.9 0
    endloop
  endfacet
  facet normal 1 0 0
    outer loop
      vertex 14 4 4
      vertex 14 2 3
      vertex 14 2.9 3
    endloop
  endfacet
  facet normal 1 -0 0
    outer loop
      vertex 14 -1 4
      vertex 14 2 3
      vertex 14 4 4
    endloop
  endfacet
  facet normal 1 0 0
    outer loop
      vertex 14 2 3
      vertex 14 -1 4
      vertex 14 0 3
    endloop
  endfacet
  facet normal 1 0 0
    outer loop
      vertex 14 -1 0
      vertex 14 0 3
      vertex 14 -1 4
    endloop
  endfacet
  facet normal 1 0 0
    outer loop
      vertex 14 0 3
      vertex 14 -1 0
      vertex 14 0 0
    endloop
  endfacet
  facet normal 1 0 0
    outer loop
      vertex 14 2.9 0
      vertex 14 2 3
      vertex 14 2 0
    endloop
  endfacet
  facet normal -0 0 1
    outer loop
      vertex 9 4 4
      vertex 14 -1 4
      vertex 14 4 4
    endloop
  endfacet
  facet normal 0 0 1
    outer loop
      vertex 14 -1 4
      vertex 9 4 4
      vertex 9 -1 4
    endloop
  endfacet
  facet normal 0 0 -1
    outer loop
      vertex 14 2 0
      vertex 12.9 2.9 0
      vertex 14 2.9 0
    endloop
  endfacet
  facet normal 0 0 -1
    outer loop
      vertex 12 2 0
      vertex 12.9 2.9 0
      vertex 14 2 0
    endloop
  endfacet
  facet normal 0 0 -1
    outer loop
      vertex 12 4 0
      vertex 12.9 2.9 0
      vertex 12 2 0
    endloop
  endfacet
  facet normal 0 0 -1
    outer loop
      vertex 12.9 2.9 0
      vertex 12 4 0
      vertex 12.9 4 0
    endloop
  endfacet
  facet normal 0 0 -1
    outer loop
      vertex 14 -1 0
      vertex 10 0 0
      vertex 14 0 0
    endloop
  endfacet
  facet normal 0 0 -1
    outer loop
      vertex 9 -1 0
      vertex 10 0 0
      vertex 14 -1 0
    endloop
  endfacet
  facet normal 0 0 -1
    outer loop
      vertex 9 4 0
      vertex 10 0 0
      vertex 9 -1 0
    endloop
  endfacet
  facet normal 0 0 -1
    outer loop
      vertex 10 0 0
      vertex 9 4 0
      vertex 10 4 0
    endloop
  endfacet
  facet normal -1 0 0
    outer loop
      vertex 9 -1 0
      vertex 9 4 4
      vertex 9 4 0
    endloop
  endfacet
  facet normal -1 -0 0
    outer loop
      vertex 9 4 4
      vertex 9 -1 0
      vertex 9 -1 4
    endloop
  endfacet
  facet normal 0 1 -0
    outer loop
      vertex 14 2.9 0
      vertex 12.9 2.9 3
      vertex 14 2.9 3
    endloop
  endfacet
  facet normal 0 1 0
    outer loop
      vertex 12.9 2.9 3
      vertex 14 2.9 0
      vertex 12.9 2.9 0
    endloop
  endfacet
  facet normal 0 -1 0
    outer loop
      vertex 9 -1 0
      vertex 14 -1 4
      vertex 9 -1 4
    endloop
  endfacet
  facet normal 0 -1 -0
    outer loop
      vertex 14 -1 4
      vertex 9 -1 0
      vertex 14 -1 0
    endloop
  endfacet
  facet normal 1 -0 0
    outer loop
      vertex 12.9 2.9 3
      vertex 12.9 4 0
      vertex 12.9 4 3
    endloop
  endfacet
  facet normal 1 0 0
    outer loop
      vertex 12.9 4 0
      vertex 12.9 2.9 3
      vertex 12.9 2.9 0
    endloop
  endfacet
  facet normal 0 1 -0
    outer loop
      vertex 12.9 4 0
      vertex 12 4 3
      vertex 12.9 4 3
    endloop
  endfacet
  facet normal 0 1 0
    outer loop
      vertex 12 4 3
      vertex 12.9 4 0
      vertex 12 4 0
    endloop
  endfacet
  facet normal 0 1 0
    outer loop
      vertex 12.9 4 3
      vertex 14 4 4
      vertex 14 4 3
    endloop
  endfacet
  facet normal 0 1 0
    outer loop
      vertex 12 4 3
      vertex 14 4 4
      vertex 12.9 4 3
    endloop
  endfacet
  facet normal 0 1 0
    outer loop
      vertex 14 4 4
      vertex 12 4 3
      vertex 9 4 4
    endloop
  endfacet
  facet normal 0 1 -0
    outer loop
      vertex 10 4 3
      vertex 9 4 4
      vertex 12 4 3
    endloop
  endfacet
  facet normal 0 1 0
    outer loop
      vertex 9 4 0
      vertex 10 4 3
      vertex 10 4 0
    endloop
  endfacet
  facet normal 0 1 0
    outer loop
      vertex 10 4 3
      vertex 9 4 0
      vertex 9 4 4
    endloop
  endfacet
  facet normal 0 0 -1
    outer loop
      vertex 12.9 2.9 3
      vertex 14 4 3
      vertex 14 2.9 3
    endloop
  endfacet
  facet normal -0 0 -1
    outer loop
      vertex 14 4 3
      vertex 12.9 2.9 3
      vertex 12.9 4 3
    endloop
  endfacet
  facet normal 0 0 -1
    outer loop
      vertex 14 0 3
      vertex 12 2 3
      vertex 14 2 3
    endloop
  endfacet
  facet normal 0 0 -1
    outer loop
      vertex 10 0 3
      vertex 12 2 3
      vertex 14 0 3
    endloop
  endfacet
  facet normal 0 0 -1
    outer loop
      vertex 10 4 3
      vertex 12 2 3
      vertex 10 0 3
    endloop
  endfacet
  facet normal 0 0 -1
    outer loop
      vertex 12 2 3
      vertex 10 4 3
      vertex 12 4 3
    endloop
  endfacet
  facet normal 1 -0 0
    outer loop
      vertex 10 0 3
      vertex 10 4 0
      vertex 10 4 3
    endloop
  endfacet
  facet normal 1 0 0
    outer loop
      vertex 10 4 0
      vertex 10 0 3
      vertex 10 0 0
    endloop
  endfacet
  facet normal 0 -1 0
    outer loop
      vertex 12 2 0
      vertex 14 2 3
      vertex 12 2 3
    endloop
  endfacet
  facet normal 0 -1 -0
    outer loop
      vertex 14 2 3
      vertex 12 2 0
      vertex 14 2 0
    endloop
  endfacet
  facet normal 0 1 -0
    outer loop
      vertex 14 0 0
      vertex 10 0 3
      vertex 14 0 3
    endloop
  endfacet
  facet normal 0 1 0
    outer loop
      vertex 10 0 3
      vertex 14 0 0
      vertex 10 0 0
    endloop
  endfacet
  facet normal -1 0 0
    outer loop
      vertex 12 2 0
      vertex 12 4 3
      vertex 12 4 0
    endloop
  endfacet
  facet normal -1 -0 0
    outer loop
      vertex 12 4 3
      vertex 12 2 0
      vertex 12 2 3
    endloop
  endfacet
  facet normal 1 0 0
    outer loop
      vertex 24 4 4
      vertex 24 3.15 3
      vertex 24 4 3
    endloop
  endfacet
  facet normal 1 0 0
    outer loop
      vertex 24 3.15 3
      vertex 24 2.25 3
      vertex 24 3.15 0
    endloop
  endfacet
  facet normal 1 0 0
    outer loop
      vertex 24 4 4
      vertex 24 2.25 3
      vertex 24 3.15 3
    endloop
  endfacet
  facet normal 1 -0 0
    outer loop
      vertex 24 -1 4
      vertex 24 2.25 3
      vertex 24 4 4
    endloop
  endfacet
  facet normal 1 0 0
    outer loop
      vertex 24 2.25 3
      vertex 24 -1 4
      vertex 24 0 3
    endloop
  endfacet
  facet normal 1 0 0
    outer loop
      vertex 24 -1 0
      vertex 24 0 3
      vertex 24 -1 4
    endloop
  endfacet
  facet normal 1 0 0
    outer loop
      vertex 24 0 3
      vertex 24 -1 0
      vertex 24 0 0
    endloop
  endfacet
  facet normal 1 0 0
    outer loop
      vertex 24 3.15 0
      vertex 24 2.25 3
      vertex 24 2.25 0
    endloop
  endfacet
  facet normal -0 0 1
    outer loop
      vertex 19 4 4
      vertex 24 -1 4
      vertex 24 4 4
    endloop
  endfacet
  facet normal 0 0 1
    outer loop
      vertex 24 -1 4
      vertex 19 4 4
      vertex 19 -1 4
    endloop
  endfacet
  facet normal 0 0 -1
    outer loop
      vertex 24 2.25 0
      vertex 23.15 3.15 0
      vertex 24 3.15 0
    endloop
  endfacet
  facet normal 0 0 -1
    outer loop
      vertex 22.25 2.25 0
      vertex 23.15 3.15 0
      vertex 24 2.25 0
    endloop
  endfacet
  facet normal 0 0 -1
    outer loop
      vertex 22.25 4 0
      vertex 23.15 3.15 0
      vertex 22.25 2.25 0
    endloop
  endfacet
  facet normal 0 0 -1
    outer loop
      vertex 23.15 3.15 0
      vertex 22.25 4 0
      vertex 23.15 4 0
    endloop
  endfacet
  facet normal 0 0 -1
    outer loop
      vertex 24 -1 0
      vertex 20 0 0
      vertex 24 0 0
    endloop
  endfacet
  facet normal 0 0 -1
    outer loop
      vertex 19 -1 0
      vertex 20 0 0
      vertex 24 -1 0
    endloop
  endfacet
  facet normal 0 0 -1
    outer loop
      vertex 19 4 0
      vertex 20 0 0
      vertex 19 -1 0
    endloop
  endfacet
  facet normal 0 0 -1
    outer loop
      vertex 20 0 0
      vertex 19 4 0
      vertex 20 4 0
    endloop
  endfacet
  facet normal -1 0 0
    outer loop
      vertex 19 -1 0
      vertex 19 4 4
      vertex 19 4 0
    endloop
  endfacet
  facet normal -1 -0 0
    outer loop
      vertex 19 4 4
      vertex 19 -1 0
      vertex 19 -1 4
    endloop
  endfacet
  facet normal 0 1 -0
    outer loop
      vertex 24 3.15 0
      vertex 23.15 3.15 3
      vertex 24 3.15 3
    endloop
  endfacet
  facet normal 0 1 0
    outer loop
      vertex 23.15 3.15 3
      vertex 24 3.15 0
      vertex 23.15 3.15 0
    endloop
  endfacet
  facet normal 0 -1 0
    outer loop
      vertex 19 -1 0
      vertex 24 -1 4
      vertex 19 -1 4
    endloop
  endfacet
  facet normal 0 -1 -0
    outer loop
      vertex 24 -1 4
      vertex 19 -1 0
      vertex 24 -1 0
    endloop
  endfacet
  facet normal 1 -0 0
    outer loop
      vertex 23.15 3.15 3
      vertex 23.15 4 0
      vertex 23.15 4 3
    endloop
  endfacet
  facet normal 1 0 0
    outer loop
      vertex 23.15 4 0
      vertex 23.15 3.15 3
      vertex 23.15 3.15 0
    endloop
  endfacet
  facet normal 0 1 -0
    outer loop
      vertex 23.15 4 0
      vertex 22.25 4 3
      vertex 23.15 4 3
    endloop
  endfacet
  facet normal 0 1 0
    outer loop
      vertex 22.25 4 3
      vertex 23.15 4 0
      vertex 22.25 4 0
    endloop
  endfacet
  facet normal 0 1 0
    outer loop
      vertex 23.15 4 3
      vertex 24 4 4
      vertex 24 4 3
    endloop
  endfacet
  facet normal 0 1 0
    outer loop
      vertex 22.25 4 3
      vertex 24 4 4
      vertex 23.15 4 3
    endloop
  endfacet
  facet normal 0 1 0
    outer loop
      vertex 24 4 4
      vertex 22.25 4 3
      vertex 19 4 4
    endloop
  endfacet
  facet normal 0 1 -0
    outer loop
      vertex 20 4 3
      vertex 19 4 4
      vertex 22.25 4 3
    endloop
  endfacet
  facet normal 0 1 0
    outer loop
      vertex 19 4 0
      vertex 20 4 3
      vertex 20 4 0
    endloop
  endfacet
  facet normal 0 1 0
    outer loop
      vertex 20 4 3
      vertex 19 4 0
      vertex 19 4 4
    endloop
  endfacet
  facet normal 0 0 -1
    outer loop
      vertex 23.15 3.15 3
      vertex 24 4 3
      vertex 24 3.15 3
    endloop
  endfacet
  facet normal -0 0 -1
    outer loop
      vertex 24 4 3
      vertex 23.15 3.15 3
      vertex 23.15 4 3
    endloop
  endfacet
  facet normal 0 0 -1
    outer loop
      vertex 24 0 3
      vertex 22.25 2.25 3
      vertex 24 2.25 3
    endloop
  endfacet
  facet normal 0 0 -1
    outer loop
      vertex 20 0 3
      vertex 22.25 2.25 3
      vertex 24 0 3
    endloop
  endfacet
  facet normal 0 0 -1
    outer loop
      vertex 20 4 3
      vertex 22.25 2.25 3
      vertex 20 0 3
    endloop
  endfacet
  facet normal 0 0 -1
    outer loop
      vertex 22.25 2.25 3
      vertex 20 4 3
      vertex 22.25 4 3
    endloop
  endfacet
  facet normal 1 -0 0
    outer loop
      vertex 20 0 3
      vertex 20 4 0
      vertex 20 4 3
    endloop
  endfacet
  facet normal 1 0 0
    outer loop
      vertex 20 4 0
      vertex 20 0 3
      vertex 20 0 0
    endloop
  endfacet
  facet normal 0 -1 0
    outer loop
      vertex 22.25 2.25 0
      vertex 24 2.25 3
      vertex 22.25 2.25 3
    endloop
  endfacet
  facet normal 0 -1 -0
    outer loop
      vertex 24 2.25 3
      vertex 22.25 2.25 0
      vertex 24 2.25 0
    endloop
  endfacet
  facet normal 0 1 -0
    outer loop
      vertex 24 0 0
      vertex 20 0 3
      vertex 24 0 3
    endloop
  endfacet
  facet normal 0 1 0
    outer loop
      vertex 20 0 3
      vertex 24 0 0
      vertex 20 0 0
    endloop
  endfacet
  facet normal -1 0 0
    outer loop
      vertex 22.25 2.25 0
      vertex 22.25 4 3
      vertex 22.25 4 0
    endloop
  endfacet
  facet normal -1 -0 0
    outer loop
      vertex 22.25 4 3
      vertex 22.25 2.25 0
      vertex 22.25 2.25 3
    endloop
  endfacet
  facet normal 1 0 0
    outer loop
      vertex 34 4 4
      vertex 34 3.4 3
      vertex 34 4 3
    endloop
  endfacet
  facet normal 1 0 0
    outer loop
      vertex 34 3.4 3
      vertex 34 2.5 3
      vertex 34 3.4 0
    endloop
  endfacet
  facet normal 1 0 0
    outer loop
      vertex 34 4 4
      vertex 34 2.5 3
      vertex 34 3.4 3
    endloop
  endfacet
  facet normal 1 -0 0
    outer loop
      vertex 34 -1 4
      vertex 34 2.5 3
      vertex 34 4 4
    endloop
  endfacet
  facet normal 1 0 0
    outer loop
      vertex 34 2.5 3
      vertex 34 -1 4
      vertex 34 0 3
    endloop
  endfacet
  facet normal 1 0 0
    outer loop
      vertex 34 -1 0
      vertex 34 0 3
      vertex 34 -1 4
    endloop
  endfacet
  facet normal 1 0 0
    outer loop
      vertex 34 0 3
      vertex 34 -1 0
      vertex 34 0 0
    endloop
  endfacet
  facet normal 1 0 0
    outer loop
      vertex 34 3.4 0
      vertex 34 2.5 3
      vertex 34 2.5 0
    endloop
  endfacet
  facet normal -0 0 1
    outer loop
      vertex 29 4 4
      vertex 34 -1 4
      vertex 34 4 4
    endloop
  endfacet
  facet normal 0 0 1
    outer loop
      vertex 34 -1 4
      vertex 29 4 4
      vertex 29 -1 4
    endloop
  endfacet
  facet normal 0 0 -1
    outer loop
      vertex 34 2.5 0
      vertex 33.4 3.4 0
      vertex 34 3.4 0
    endloop
  endfacet
  facet normal 0 0 -1
    outer loop
      vertex 32.5 2.5 0
      vertex 33.4 3.4 0
      vertex 34 2.5 0
    endloop
  endfacet
  facet normal 0 0 -1
    outer loop
      vertex 32.5 4 0
      vertex 33.4 3.4 0
      vertex 32.5 2.5 0
    endloop
  endfacet
  facet normal 0 0 -1
    outer loop
      vertex 33.4 3.4 0
      vertex 32.5 4 0
      vertex 33.4 4 0
    endloop
  endfacet
  facet normal 0 0 -1
    outer loop
      vertex 34 -1 0
      vertex 30 0 0
      vertex 34 0 0
    endloop
  endfacet
  facet normal 0 0 -1
    outer loop
      vertex 29 -1 0
      vertex 30 0 0
      vertex 34 -1 0
    endloop
  endfacet
  facet normal 0 0 -1
    outer loop
      vertex 29 4 0
      vertex 30 0 0
      vertex 29 -1 0
    endloop
  endfacet
  facet normal 0 0 -1
    outer loop
      vertex 30 0 0
      vertex 29 4 0
      vertex 30 4 0
    endloop
  endfacet
  facet normal -1 0 0
    outer loop
      vertex 29 -1 0
      vertex 29 4 4
      vertex 29 4 0
    endloop
  endfacet
  facet normal -1 -0 0
    outer loop
      vertex 29 4 4
      vertex 29 -1 0
      vertex 29 -1 4
    endloop
  endfacet
  facet normal 0 1 -0
    outer loop
      vertex 34 3.4 0
      vertex 33.4 3.4 3
      vertex 34 3.4 3
    endloop
  endfacet
  facet normal 0 1 0
    outer loop
      vertex 33.4 3.4 3
      vertex 34 3.4 0
      vertex 33.4 3.4 0
    endloop
  endfacet
  facet normal 0 -1 0
    outer loop
      vertex 29 -1 0
      vertex 34 -1 4
      vertex 29 -1 4
    endloop
  endfacet
  facet normal 0 -1 -0
    outer loop
      vertex 34 -1 4
      vertex 29 -1 0
      vertex 34 -1 0
    endloop
  endfacet
  facet normal 1 -0 0
    outer loop
      vertex 33.4 3.4 3
      vertex 33.4 4 0
      vertex 33.4 4 3
    endloop
  endfacet
  facet normal 1 0 0
    outer loop
      vertex 33.4 4 0
      vertex 33.4 3.4 3
      vertex 33.4 3.4 0
    endloop
  endfacet
  facet normal 0 1 -0
    outer loop
      vertex 33.4 4 0
      vertex 32.5 4 3
      vertex 33.4 4 3
    endloop
  endfacet
  facet normal 0 1 0
    outer loop
      vertex 32.5 4 3
      vertex 33.4 4 0
      vertex 32.5 4 0
    endloop
  endfacet
  facet normal 0 1 0
    outer loop
      vertex 33.4 4 3
      vertex 34 4 4
      vertex 34 4 3
    endloop
  endfacet
  facet normal 0 1 0
    outer loop
      vertex 32.5 4 3
      vertex 34 4 4
      vertex 33.4 4 3
    endloop
  endfacet
  facet normal 0 1 0
    outer loop
      vertex 34 4 4
      vertex 32.5 4 3
      vertex 29 4 4
    endloop
  endfacet
  facet normal 0 1 -0
    outer loop
      vertex 30 4 3
      vertex 29 4 4
      vertex 32.5 4 3
    endloop
  endfacet
  facet normal 0 1 0
    outer loop
      vertex 29 4 0
      vertex 30 4 3
      vertex 30 4 0
    endloop
  endfacet
  facet normal 0 1 0
    outer loop
      vertex 30 4 3
      vertex 29 4 0
      vertex 29 4 4
    endloop
  endfacet
  facet normal 0 0 -1
    outer loop
      vertex 33.4 3.4 3
      vertex 34 4 3
      vertex 34 3.4 3
    endloop
  endfacet
  facet normal -0 0 -1
    outer loop
      vertex 34 4 3
      vertex 33.4 3.4 3
      vertex 33.4 4 3
    endloop
  endfacet
  facet normal 0 0 -1
    outer loop
      vertex 34 0 3
      vertex 32.5 2.5 3
      vertex 34 2.5 3
    endloop
  endfacet
  facet normal 0 0 -1
    outer loop
      vertex 30 0 3
      vertex 32.5 2.5 3
      vertex 34 0 3
    endloop
  endfacet
  facet normal 0 0 -1
    outer loop
      vertex 30 4 3
      vertex 32.5 2.5 3
      vertex 30 0 3
    endloop
  endfacet
  facet normal 0 0 -1
    outer loop
      vertex 32.5 2.5 3
      vertex 30 4 3
      vertex 32.5 4 3
    endloop
  endfacet
  facet normal 1 -0 0
    outer loop
      vertex 30 0 3
      vertex 30 4 0
      vertex 30 4 3
    endloop
  endfacet
  facet normal 1 0 0
    outer loop
      vertex 30 4 0
      vertex 30 0 3
      vertex 30 0 0
    endloop
  endfacet
  facet normal 0 -1 0
    outer loop
      vertex 32.5 2.5 0
      vertex 34 2.5 3
      vertex 32.5 2.5 3
    endloop
  endfacet
  facet normal 0 -1 -0
    outer loop
      vertex 34 2.5 3
      vertex 32.5 2.5 0
      vertex 34 2.5 0
    endloop
  endfacet
  facet normal 0 1 -0
    outer loop
      vertex 34 0 0
      vertex 30 0 3
      vertex 34 0 3
    endloop
  endfacet
  facet normal 0 1 0
    outer loop
      vertex 30 0 3
      vertex 34 0 0
      vertex 30 0 0
    endloop
  endfacet
  facet normal -1 0 0
    outer loop
      vertex 32.5 2.5 0
      vertex 32.5 4 3
      vertex 32.5 4 0
    endloop
  endfacet
  facet normal -1 -0 0
    outer loop
      vertex 32.5 4 3
      vertex 32.5 2.5 0
      vertex 32.5 2.5 3
    endloop
  endfacet
endsolid OpenSCAD_Model
