<svg xmlns="http://www.w3.org/2000/svg" width="349" height="510" viewBox="0 0 349 510">
<rect width="100%" height="100%" fill="#f5f1e8"/>
<polygon points="314.1,480.0 315.6,476.7 316.6,473.5 317.0,470.2 316.9,467.0 317.8,463.7 319.0,460.4 318.3,457.2 317.7,453.9 308.0,450.7 299.7,447.4 299.5,444.1 299.7,440.9 308.1,437.6 308.4,434.3 307.6,431.1 306.8,427.8 303.1,424.6 297.2,421.3 296.4,418.0 296.8,414.8 297.3,411.5 297.6,408.3 297.7,405.0 298.0,401.7 298.0,398.5 296.9,395.2 295.6,392.0 294.6,388.7 294.0,385.4 293.8,382.2 293.1,378.9 292.1,375.7 292.3,372.4 292.9,369.1 293.4,365.9 293.8,362.6 294.6,359.3 301.3,356.1 309.5,352.8 312.2,349.6 313.4,346.3 314.5,343.0 315.4,339.8 315.8,336.5 313.5,333.3 306.3,330.0 298.9,326.7 295.9,323.5 294.9,320.2 294.2,317.0 294.0,313.7 294.1,310.4 295.0,307.2 299.7,303.9 305.4,300.7 307.4,297.4 307.3,294.1 307.1,290.9 306.9,287.6 306.8,284.3 305.8,281.1 301.5,277.8 297.7,274.6 297.3,271.3 297.0,268.0 296.3,264.8 295.2,261.5 293.9,258.3 293.6,255.0 297.3,251.7 302.5,248.5 305.9,245.2 306.7,242.0 307.9,238.7 309.3,235.4 310.7,232.2 311.8,228.9 312.4,225.7 309.1,222.4 304.2,219.1 301.3,215.9 301.9,212.6 302.6,209.3 303.4,206.1 304.0,202.8 303.7,199.6 301.5,196.3 300.4,193.0 299.3,189.8 298.0,186.5 296.9,183.3 296.9,180.0 297.1,176.7 297.2,173.5 297.5,170.2 297.9,167.0 298.1,163.7 298.6,160.4 300.9,157.2 303.4,153.9 304.5,150.7 303.7,147.4 303.0,144.1 302.7,140.9 302.5,137.6 302.5,134.3 302.3,131.1 301.8,127.8 301.0,124.6 300.5,121.3 300.1,118.0 300.0,114.8 300.4,111.5 301.4,108.3 303.6,105.0 306.2,101.7 308.0,98.5 309.5,95.2 310.6,92.0 310.2,88.7 306.9,85.4 306.0,82.2 305.4,78.9 304.9,75.7 312.3,72.4 315.1,69.1 314.8,65.9 310.4,62.6 304.7,59.3 303.9,56.1 302.9,52.8 306.5,49.6 309.6,46.3 309.0,43.0 308.9,39.8 309.1,36.5 309.7,33.3 310.3,30.0 36.0,30.0 36.8,33.3 37.5,36.5 37.9,39.8 37.9,43.0 37.5,46.3 40.7,49.6 44.4,52.8 43.5,56.1 42.9,59.3 37.4,62.6 33.1,65.9 33.0,69.1 35.8,72.4 43.2,75.7 42.7,78.9 42.2,82.2 41.4,85.4 38.3,88.7 38.0,92.0 39.1,95.2 40.6,98.5 42.4,101.7 45.0,105.0 47.1,108.3 48.1,111.5 48.5,114.8 48.5,118.0 48.2,121.3 47.7,124.6 46.9,127.8 46.4,131.1 46.2,134.3 46.2,137.6 46.0,140.9 45.6,144.1 44.9,147.4 44.1,150.7 45.1,153.9 47.6,157.2 49.8,160.4 50.2,163.7 50.5,167.0 50.9,170.2 51.2,173.5 51.3,176.7 51.5,180.0 51.6,183.3 50.6,186.5 49.5,189.8 48.5,193.0 47.5,196.3 45.5,199.6 45.3,202.8 45.9,206.1 46.7,209.3 47.6,212.6 48.2,215.9 45.5,219.1 40.9,222.4 37.9,225.7 38.6,228.9 39.8,232.2 41.2,235.4 42.6,238.7 43.9,242.0 44.8,245.2 48.2,248.5 53.2,251.7 56.8,255.0 56.6,258.3 55.4,261.5 54.4,264.8 53.7,268.0 53.3,271.3 52.8,274.6 48.9,277.8 44.5,281.1 43.2,284.3 42.7,287.6 42.1,290.9 41.5,294.1 41.0,297.4 42.4,300.7 47.3,303.9 51.3,307.2 51.7,310.4 51.4,313.7 50.9,317.0 50.0,320.2 48.7,323.5 45.8,326.7 38.7,330.0 32.0,333.3 30.0,336.5 30.5,339.8 31.5,343.0 32.8,346.3 34.2,349.6 37.0,352.8 45.0,356.1 51.5,359.3 52.6,362.6 53.4,365.9 54.3,369.1 55.3,372.4 55.9,375.7 55.4,378.9 55.1,382.2 55.3,385.4 55.1,388.7 54.5,392.0 53.7,395.2 53.0,398.5 53.2,401.7 53.7,405.0 53.9,408.3 54.3,411.5 54.8,414.8 55.3,418.0 54.7,421.3 49.4,424.6 46.2,427.8 45.5,431.1 44.8,434.3 45.2,437.6 52.9,440.9 53.2,444.1 53.1,447.4 45.6,450.7 36.9,453.9 36.5,457.2 35.9,460.4 37.0,463.7 37.9,467.0 37.9,470.2 38.4,473.5 39.3,476.7 40.8,480.0" fill="#d9b98a" stroke="#7a5a32" stroke-width="1.5"/>
<line x1="40.8" y1="480.0" x2="314.1" y2="480.0" stroke="#9c7038" stroke-width="0.6" opacity="0.55"/>
<line x1="37.0" y1="463.4" x2="317.8" y2="463.4" stroke="#9c7038" stroke-width="0.6" opacity="0.55"/>
<line x1="45.6" y1="450.8" x2="308.0" y2="450.8" stroke="#9c7038" stroke-width="0.6" opacity="0.55"/>
<line x1="45.2" y1="439.1" x2="308.1" y2="439.1" stroke="#9c7038" stroke-width="0.6" opacity="0.55"/>
<line x1="49.4" y1="423.6" x2="303.1" y2="423.6" stroke="#9c7038" stroke-width="0.6" opacity="0.55"/>
<line x1="53.2" y1="401.7" x2="298.0" y2="401.7" stroke="#9c7038" stroke-width="0.6" opacity="0.55"/>
<line x1="55.4" y1="378.0" x2="293.1" y2="378.0" stroke="#9c7038" stroke-width="0.6" opacity="0.55"/>
<line x1="45.0" y1="355.6" x2="301.3" y2="355.6" stroke="#9c7038" stroke-width="0.6" opacity="0.55"/>
<line x1="38.7" y1="330.1" x2="306.3" y2="330.1" stroke="#9c7038" stroke-width="0.6" opacity="0.55"/>
<line x1="47.3" y1="303.2" x2="299.7" y2="303.2" stroke="#9c7038" stroke-width="0.6" opacity="0.55"/>
<line x1="48.9" y1="278.2" x2="301.5" y2="278.2" stroke="#9c7038" stroke-width="0.6" opacity="0.55"/>
<line x1="53.2" y1="250.8" x2="297.3" y2="250.8" stroke="#9c7038" stroke-width="0.6" opacity="0.55"/>
<line x1="40.9" y1="221.0" x2="309.1" y2="221.0" stroke="#9c7038" stroke-width="0.6" opacity="0.55"/>
<line x1="45.5" y1="198.0" x2="303.7" y2="198.0" stroke="#9c7038" stroke-width="0.6" opacity="0.55"/>
<line x1="51.5" y1="180.5" x2="296.9" y2="180.5" stroke="#9c7038" stroke-width="0.6" opacity="0.55"/>
<line x1="47.6" y1="156.2" x2="300.9" y2="156.2" stroke="#9c7038" stroke-width="0.6" opacity="0.55"/>
<line x1="46.9" y1="127.6" x2="301.8" y2="127.6" stroke="#9c7038" stroke-width="0.6" opacity="0.55"/>
<line x1="45.0" y1="104.8" x2="303.6" y2="104.8" stroke="#9c7038" stroke-width="0.6" opacity="0.55"/>
<line x1="38.3" y1="87.3" x2="310.2" y2="87.3" stroke="#9c7038" stroke-width="0.6" opacity="0.55"/>
<line x1="35.8" y1="73.1" x2="312.3" y2="73.1" stroke="#9c7038" stroke-width="0.6" opacity="0.55"/>
<line x1="37.4" y1="62.5" x2="310.4" y2="62.5" stroke="#9c7038" stroke-width="0.6" opacity="0.55"/>
<line x1="40.7" y1="49.7" x2="306.5" y2="49.7" stroke="#9c7038" stroke-width="0.6" opacity="0.55"/>
<line x1="36.0" y1="30.0" x2="310.3" y2="30.0" stroke="#9c7038" stroke-width="0.6" opacity="0.55"/>
<text x="6" y="502" font-family="monospace" font-size="13" fill="#6b6457">geometric-sandstone (side)  150mm · 7 facets · 22 bands · blend 0.40 · twist 12°</text>
</svg>