solid OpenSCAD_Model
  facet normal -0 0 1
    outer loop
      vertex 24.8189 20.8477 3.51569
      vertex 33.4067 20.0538 3.51569
      vertex 33.4067 28.2951 3.51569
    endloop
  endfacet
  facet normal 0 0 1
    outer loop
      vertex 24.8189 14.7928 3.51569
      vertex 25.0691 20.0538 3.51569
      vertex 24.8189 20.8477 3.51569
    endloop
  endfacet
  facet normal 0 0 1
    outer loop
      vertex 33.4067 20.0538 3.51569
      vertex 24.8189 20.8477 3.51569
      vertex 25.0691 20.0538 3.51569
    endloop
  endfacet
  facet normal -0 0 1
    outer loop
      vertex 14.0511 28.2951 3.51569
      vertex 24.8189 20.8477 3.51569
      vertex 33.4067 28.2951 3.51569
    endloop
  endfacet
  facet normal 0 0 1
    outer loop
      vertex 24.8189 20.8477 3.51569
      vertex 14.0511 28.2951 3.51569
      vertex 14.1969 20.8477 3.51569
    endloop
  endfacet
  facet normal -0 0 1
    outer loop
      vertex 14.0511 21.0044 3.51569
      vertex 14.1969 20.8477 3.51569
      vertex 14.0511 28.2951 3.51569
    endloop
  endfacet
  facet normal 0 0 1
    outer loop
      vertex 13.9467 20.6885 3.51569
      vertex 14.1969 20.8477 3.51569
      vertex 14.0511 21.0044 3.51569
    endloop
  endfacet
  facet normal 0 0 1
    outer loop
      vertex 13.9467 20.6885 3.51569
      vertex 14.0511 21.0044 3.51569
      vertex 13.9467 21.0044 3.51569
    endloop
  endfacet
  facet normal 0 0 1
    outer loop
      vertex 14.1969 20.8477 3.51569
      vertex 13.9467 20.6885 3.51569
      vertex 14.1969 20.5318 3.51569
    endloop
  endfacet
  facet normal 0 0 1
    outer loop
      vertex 13.9467 20.6885 3.51569
      vertex 6.98464 20.5318 3.51569
      vertex 14.1969 20.5318 3.51569
    endloop
  endfacet
  facet normal -0 0 1
    outer loop
      vertex 6.79874 20.6885 3.51569
      vertex 6.98464 20.5318 3.51569
      vertex 13.9467 20.6885 3.51569
    endloop
  endfacet
  facet normal 0 0 1
    outer loop
      vertex 6.79874 15.1207 3.51569
      vertex 6.98464 20.5318 3.51569
      vertex 6.79874 20.6885 3.51569
    endloop
  endfacet
  facet normal 0 0 1
    outer loop
      vertex 6.98464 20.5318 3.51569
      vertex 6.79874 15.1207 3.51569
      vertex 6.98464 14.9434 3.51569
    endloop
  endfacet
  facet normal 0 0 1
    outer loop
      vertex 6.79874 15.1207 3.51569
      vertex 6.62757 14.9434 3.51569
      vertex 6.98464 14.9434 3.51569
    endloop
  endfacet
  facet normal -0 0 1
    outer loop
      vertex 6.44168 15.1207 3.51569
      vertex 6.62757 14.9434 3.51569
      vertex 6.79874 15.1207 3.51569
    endloop
  endfacet
  facet normal 0 0 1
    outer loop
      vertex 6.44168 14.8905 3.51569
      vertex 6.62757 14.9434 3.51569
      vertex 6.44168 15.1207 3.51569
    endloop
  endfacet
  facet normal 0 0 1
    outer loop
      vertex 6.62757 14.9434 3.51569
      vertex 6.44168 14.8905 3.51569
      vertex 6.62757 7.72503 3.51569
    endloop
  endfacet
  facet normal 0 0 1
    outer loop
      vertex 6.44168 14.8905 3.51569
      vertex 0.561752 7.72503 3.51569
      vertex 6.62757 7.72503 3.51569
    endloop
  endfacet
  facet normal 0 0 1
    outer loop
      vertex 0.4 -0.45 3.51569
      vertex 0.561752 7.72503 3.51569
      vertex 0.4 14.8905 3.51569
    endloop
  endfacet
  facet normal -0 0 1
    outer loop
      vertex 0.4 14.8905 3.51569
      vertex 0.561752 7.72503 3.51569
      vertex 6.44168 14.8905 3.51569
    endloop
  endfacet
  facet normal 0 0 1
    outer loop
      vertex 33.1972 14.7928 3.51569
      vertex 33.4027 14.8905 3.51569
      vertex 33.4027 14.97 3.51569
    endloop
  endfacet
  facet normal 0 0 1
    outer loop
      vertex 33.4027 14.8905 3.51569
      vertex 33.1972 14.7928 3.51569
      vertex 33.2012 7.72503 3.51569
    endloop
  endfacet
  facet normal -0 0 1
    outer loop
      vertex 25.0691 14.97 3.51569
      vertex 33.1972 14.7928 3.51569
      vertex 33.4027 14.97 3.51569
    endloop
  endfacet
  facet normal 0 0 1
    outer loop
      vertex 25.0691 14.97 3.51569
      vertex 24.8189 14.7928 3.51569
      vertex 33.1972 14.7928 3.51569
    endloop
  endfacet
  facet normal 0 0 1
    outer loop
      vertex 25.0691 20.0538 3.51569
      vertex 24.8189 14.7928 3.51569
      vertex 25.0691 14.97 3.51569
    endloop
  endfacet
  facet normal 0 0 1
    outer loop
      vertex 33.2012 7.72503 3.51569
      vertex 39.6 14.8905 3.51569
      vertex 33.4027 14.8905 3.51569
    endloop
  endfacet
  facet normal 0 0 1
    outer loop
      vertex 39.6 14.8905 3.51569
      vertex 33.2012 7.72503 3.51569
      vertex 39.6 -0.45 3.51569
    endloop
  endfacet
  facet normal -0 0 1
    outer loop
      vertex 33.2012 -0.261827 3.51569
      vertex 39.6 -0.45 3.51569
      vertex 33.2012 7.72503 3.51569
    endloop
  endfacet
  facet normal 0 0 1
    outer loop
      vertex 0.4 -0.45 3.51569
      vertex 33.2012 -0.261827 3.51569
      vertex 0.561752 -0.261827 3.51569
    endloop
  endfacet
  facet normal 0 0 1
    outer loop
      vertex 33.2012 -0.261827 3.51569
      vertex 0.4 -0.45 3.51569
      vertex 39.6 -0.45 3.51569
    endloop
  endfacet
  facet normal 0 0 1
    outer loop
      vertex 0.561752 7.72503 3.51569
      vertex 0.4 -0.45 3.51569
      vertex 0.561752 -0.261827 3.51569
    endloop
  endfacet
  facet normal 0 0 1
    outer loop
      vertex 33.2012 7.72503 3.51569
      vertex 33.1972 14.7928 3.51569
      vertex 33.1972 7.72503 3.51569
    endloop
  endfacet
  facet normal 0 0 -1
    outer loop
      vertex 39.6 -0.849991 0
      vertex 40 -0.449997 0
      vertex 39.9864 -0.553528 0
    endloop
  endfacet
  facet normal 0 0 -1
    outer loop
      vertex 40 -0.449997 0
      vertex 33.6365 15.2905 0
      vertex 40 14.8905 0
    endloop
  endfacet
  facet normal 0 0 -1
    outer loop
      vertex 39.6 -0.849991 0
      vertex 39.9864 -0.553528 0
      vertex 39.9464 -0.649994 0
    endloop
  endfacet
  facet normal -0 -0 -1
    outer loop
      vertex 39.6 15.2905 0
      vertex 40 14.8905 0
      vertex 33.6365 15.2905 0
    endloop
  endfacet
  facet normal 0 0 -1
    outer loop
      vertex 39.6 -0.849991 0
      vertex 39.9464 -0.649994 0
      vertex 39.8828 -0.732834 0
    endloop
  endfacet
  facet normal 0 0 -1
    outer loop
      vertex 40 14.8905 0
      vertex 39.6 15.2905 0
      vertex 39.9864 14.994 0
    endloop
  endfacet
  facet normal 0 0 -1
    outer loop
      vertex 39.6 -0.849991 0
      vertex 39.8828 -0.732834 0
      vertex 39.8 -0.796402 0
    endloop
  endfacet
  facet normal -0 0 -1
    outer loop
      vertex 40 -0.449997 0
      vertex 39.6 -0.849991 0
      vertex 33.6365 15.2905 0
    endloop
  endfacet
  facet normal 0 0 -1
    outer loop
      vertex 39.6 -0.849991 0
      vertex 39.8 -0.796402 0
      vertex 39.7035 -0.836365 0
    endloop
  endfacet
  facet normal 0 0 -1
    outer loop
      vertex 39.9864 14.994 0
      vertex 39.6 15.2905 0
      vertex 39.9464 15.0905 0
    endloop
  endfacet
  facet normal 0 0 -1
    outer loop
      vertex 39.8828 15.1733 0
      vertex 39.6 15.2905 0
      vertex 39.8 15.2369 0
    endloop
  endfacet
  facet normal 0 0 -1
    outer loop
      vertex 39.8 15.2369 0
      vertex 39.6 15.2905 0
      vertex 39.7035 15.2769 0
    endloop
  endfacet
  facet normal 0 0 -1
    outer loop
      vertex 39.9464 15.0905 0
      vertex 39.6 15.2905 0
      vertex 39.8828 15.1733 0
    endloop
  endfacet
  facet normal 0 0 -1
    outer loop
      vertex 33.4027 15.37 0
      vertex 33.6365 15.2905 0
      vertex 39.6 -0.849991 0
    endloop
  endfacet
  facet normal -0 -0 -1
    outer loop
      vertex 33.5062 15.3564 0
      vertex 33.6365 15.2905 0
      vertex 33.4027 15.37 0
    endloop
  endfacet
  facet normal 0 0 -1
    outer loop
      vertex 33.6365 15.2905 0
      vertex 33.5062 15.3564 0
      vertex 33.6027 15.3164 0
    endloop
  endfacet
  facet normal 0 0 -1
    outer loop
      vertex 39.6 -0.849991 0
      vertex 25.4691 15.37 0
      vertex 33.4027 15.37 0
    endloop
  endfacet
  facet normal 0 0 -1
    outer loop
      vertex 13.5577 21.0885 0
      vertex 25.4691 19.6538 0
      vertex 25.4691 15.37 0
    endloop
  endfacet
  facet normal 0 0 -1
    outer loop
      vertex 25.4691 19.6538 0
      vertex 13.651 21.2706 0
      vertex 14.051 28.6951 0
    endloop
  endfacet
  facet normal 0 0 -1
    outer loop
      vertex 13.651 28.2951 0
      vertex 14.051 28.6951 0
      vertex 13.651 21.2706 0
    endloop
  endfacet
  facet normal 0 0 -1
    outer loop
      vertex 0.399994 -0.849991 0
      vertex 25.4691 15.37 0
      vertex 39.6 -0.849991 0
    endloop
  endfacet
  facet normal 0 0 -1
    outer loop
      vertex 14.051 28.6951 0
      vertex 13.651 28.2951 0
      vertex 13.9475 28.6815 0
    endloop
  endfacet
  facet normal 0 0 -1
    outer loop
      vertex 13.9475 28.6815 0
      vertex 13.651 28.2951 0
      vertex 13.851 28.6415 0
    endloop
  endfacet
  facet normal 0 0 -1
    outer loop
      vertex 13.851 28.6415 0
      vertex 13.651 28.2951 0
      vertex 13.7682 28.578 0
    endloop
  endfacet
  facet normal 0 0 -1
    outer loop
      vertex 13.7682 28.578 0
      vertex 13.651 28.2951 0
      vertex 13.7046 28.4951 0
    endloop
  endfacet
  facet normal 0 0 -1
    outer loop
      vertex 25.4691 19.6538 0
      vertex 13.5577 21.0885 0
      vertex 13.651 21.2706 0
    endloop
  endfacet
  facet normal 0 0 -1
    outer loop
      vertex 13.651 21.2706 0
      vertex 13.5577 21.0885 0
      vertex 13.6003 21.2044 0
    endloop
  endfacet
  facet normal 0 0 -1
    outer loop
      vertex 13.6003 21.2044 0
      vertex 13.5577 21.0885 0
      vertex 13.5603 21.1079 0
    endloop
  endfacet
  facet normal 0 0 -1
    outer loop
      vertex 25.4691 15.37 0
      vertex 6.39874 15.515 0
      vertex 13.5577 21.0885 0
    endloop
  endfacet
  facet normal -0 0 -1
    outer loop
      vertex 13.5577 21.0885 0
      vertex 6.39874 15.515 0
      vertex 6.79874 21.0885 0
    endloop
  endfacet
  facet normal 0 0 -1
    outer loop
      vertex 6.39874 20.6885 0
      vertex 6.79874 21.0885 0
      vertex 6.39874 15.515 0
    endloop
  endfacet
  facet normal 0 0 -1
    outer loop
      vertex 6.79874 21.0885 0
      vertex 6.39874 20.6885 0
      vertex 6.69521 21.0748 0
    endloop
  endfacet
  facet normal 0 0 -1
    outer loop
      vertex 6.69521 21.0748 0
      vertex 6.39874 20.6885 0
      vertex 6.59874 21.0349 0
    endloop
  endfacet
  facet normal 0 0 -1
    outer loop
      vertex 6.59874 21.0349 0
      vertex 6.39874 20.6885 0
      vertex 6.5159 20.9713 0
    endloop
  endfacet
  facet normal 0 0 -1
    outer loop
      vertex 6.5159 20.9713 0
      vertex 6.39874 20.6885 0
      vertex 6.45233 20.8885 0
    endloop
  endfacet
  facet normal -0 0 -1
    outer loop
      vertex 25.4691 15.37 0
      vertex 0.399994 -0.849991 0
      vertex 6.39874 15.515 0
    endloop
  endfacet
  facet normal 0 -0 -1
    outer loop
      vertex 6.08276 15.2905 0
      vertex 6.39874 15.515 0
      vertex 0.399994 -0.849991 0
    endloop
  endfacet
  facet normal 0 0 -1
    outer loop
      vertex 6.39874 15.515 0
      vertex 6.24167 15.467 0
      vertex 6.33813 15.507 0
    endloop
  endfacet
  facet normal 0 0 -1
    outer loop
      vertex 6.24167 15.467 0
      vertex 6.08276 15.2905 0
      vertex 6.15883 15.4035 0
    endloop
  endfacet
  facet normal 0 0 -1
    outer loop
      vertex 6.15883 15.4035 0
      vertex 6.08276 15.2905 0
      vertex 6.09526 15.3206 0
    endloop
  endfacet
  facet normal 0 -0 -1
    outer loop
      vertex 6.24167 15.467 0
      vertex 6.39874 15.515 0
      vertex 6.08276 15.2905 0
    endloop
  endfacet
  facet normal 0 0 -1
    outer loop
      vertex 0 -0.449997 0
      vertex 6.08276 15.2905 0
      vertex 0.399994 -0.849991 0
    endloop
  endfacet
  facet normal 0 0 -1
    outer loop
      vertex 0 -0.449997 0
      vertex 0.399994 -0.849991 0
      vertex 0.296463 -0.836365 0
    endloop
  endfacet
  facet normal 0 0 -1
    outer loop
      vertex 0 14.8905 0
      vertex 6.08276 15.2905 0
      vertex 0 -0.449997 0
    endloop
  endfacet
  facet normal 0 0 -1
    outer loop
      vertex 0 -0.449997 0
      vertex 0.296463 -0.836365 0
      vertex 0.199997 -0.796402 0
    endloop
  endfacet
  facet normal -0 0 -1
    outer loop
      vertex 6.08276 15.2905 0
      vertex 0 14.8905 0
      vertex 0.399994 15.2905 0
    endloop
  endfacet
  facet normal 0 0 -1
    outer loop
      vertex 0 -0.449997 0
      vertex 0.199997 -0.796402 0
      vertex 0.117157 -0.732834 0
    endloop
  endfacet
  facet normal 0 0 -1
    outer loop
      vertex 0.399994 15.2905 0
      vertex 0 14.8905 0
      vertex 0.296463 15.2769 0
    endloop
  endfacet
  facet normal 0 0 -1
    outer loop
      vertex 0 -0.449997 0
      vertex 0.117157 -0.732834 0
      vertex 0.0535889 -0.649994 0
    endloop
  endfacet
  facet normal 0 0 -1
    outer loop
      vertex 0.296463 15.2769 0
      vertex 0 14.8905 0
      vertex 0.199997 15.2369 0
    endloop
  endfacet
  facet normal 0 0 -1
    outer loop
      vertex 0 -0.449997 0
      vertex 0.0535889 -0.649994 0
      vertex 0.0136261 -0.553528 0
    endloop
  endfacet
  facet normal 0 0 -1
    outer loop
      vertex 0.199997 15.2369 0
      vertex 0 14.8905 0
      vertex 0.117157 15.1733 0
    endloop
  endfacet
  facet normal 0 0 -1
    outer loop
      vertex 0.117157 15.1733 0
      vertex 0 14.8905 0
      vertex 0.0535889 15.0905 0
    endloop
  endfacet
  facet normal 0 0 -1
    outer loop
      vertex 0.0535889 15.0905 0
      vertex 0 14.8905 0
      vertex 0.0136261 14.994 0
    endloop
  endfacet
  facet normal 0 0 -1
    outer loop
      vertex 33.4067 19.6538 0
      vertex 33.8067 20.0538 0
      vertex 33.793 19.9503 0
    endloop
  endfacet
  facet normal 0 0 -1
    outer loop
      vertex 25.4691 19.6538 0
      vertex 33.8067 20.0538 0
      vertex 33.4067 19.6538 0
    endloop
  endfacet
  facet normal 0 0 -1
    outer loop
      vertex 33.4067 19.6538 0
      vertex 33.793 19.9503 0
      vertex 33.7531 19.8538 0
    endloop
  endfacet
  facet normal -0 0 -1
    outer loop
      vertex 33.8067 20.0538 0
      vertex 25.4691 19.6538 0
      vertex 33.8067 28.2951 0
    endloop
  endfacet
  facet normal 0 0 -1
    outer loop
      vertex 33.4067 19.6538 0
      vertex 33.7531 19.8538 0
      vertex 33.6895 19.771 0
    endloop
  endfacet
  facet normal 0 0 -1
    outer loop
      vertex 33.8067 28.2951 0
      vertex 33.4067 28.6951 0
      vertex 33.793 28.3987 0
    endloop
  endfacet
  facet normal 0 0 -1
    outer loop
      vertex 33.4067 19.6538 0
      vertex 33.6895 19.771 0
      vertex 33.6067 19.7074 0
    endloop
  endfacet
  facet normal 0 0 -1
    outer loop
      vertex 33.793 28.3987 0
      vertex 33.4067 28.6951 0
      vertex 33.7531 28.4951 0
    endloop
  endfacet
  facet normal 0 0 -1
    outer loop
      vertex 33.4067 19.6538 0
      vertex 33.6067 19.7074 0
      vertex 33.5102 19.6674 0
    endloop
  endfacet
  facet normal 0 0 -1
    outer loop
      vertex 33.7531 28.4951 0
      vertex 33.4067 28.6951 0
      vertex 33.6895 28.578 0
    endloop
  endfacet
  facet normal 0 0 -1
    outer loop
      vertex 33.6895 28.578 0
      vertex 33.4067 28.6951 0
      vertex 33.6067 28.6415 0
    endloop
  endfacet
  facet normal 0 0 -1
    outer loop
      vertex 33.6067 28.6415 0
      vertex 33.4067 28.6951 0
      vertex 33.5102 28.6815 0
    endloop
  endfacet
  facet normal -0 0 -1
    outer loop
      vertex 33.8067 28.2951 0
      vertex 25.4691 19.6538 0
      vertex 33.4067 28.6951 0
    endloop
  endfacet
  facet normal -0 0 -1
    outer loop
      vertex 33.4067 28.6951 0
      vertex 25.4691 19.6538 0
      vertex 14.051 28.6951 0
    endloop
  endfacet
  facet normal 0 0 -1
    outer loop
      vertex 13.7046 28.4951 0
      vertex 13.651 28.2951 0
      vertex 13.6647 28.3987 0
    endloop
  endfacet
  facet normal 0 0 -1
    outer loop
      vertex 6.45233 20.8885 0
      vertex 6.39874 20.6885 0
      vertex 6.41237 20.792 0
    endloop
  endfacet
  facet normal -1 0 0
    outer loop
      vertex 0.4 -0.45 0.4
      vertex 0.4 14.8905 3.51569
      vertex 0.4 14.8905 0.4
    endloop
  endfacet
  facet normal -1 -0 0
    outer loop
      vertex 0.4 14.8905 3.51569
      vertex 0.4 -0.45 0.4
      vertex 0.4 -0.45 3.51569
    endloop
  endfacet
  facet normal 0 -1 0
    outer loop
      vertex 0.4 -0.45 0.4
      vertex 39.6 -0.45 3.51569
      vertex 0.4 -0.45 3.51569
    endloop
  endfacet
  facet normal 0 -1 -0
    outer loop
      vertex 39.6 -0.45 3.51569
      vertex 0.4 -0.45 0.4
      vertex 39.6 -0.45 0.4
    endloop
  endfacet
  facet normal 0 0 1
    outer loop
      vertex 14.3319 7.59783 7.03138
      vertex 14.6704 14.0385 7.03138
      vertex 14.3319 14.0385 7.03138
    endloop
  endfacet
  facet normal 0 0 1
    outer loop
      vertex 14.6704 14.0385 7.03138
      vertex 14.3319 7.59783 7.03138
      vertex 14.6704 7.53686 7.03138
    endloop
  endfacet
  facet normal 0 0 1
    outer loop
      vertex 14.3319 7.59783 7.03138
      vertex 7.06079 7.53686 7.03138
      vertex 14.6704 7.53686 7.03138
    endloop
  endfacet
  facet normal 0 0 1
    outer loop
      vertex 7.06079 7.53686 7.03138
      vertex 6.81347 7.59783 7.03138
      vertex 7.06079 -0.0736551 7.03138
    endloop
  endfacet
  facet normal -0 0 1
    outer loop
      vertex 6.81347 7.59783 7.03138
      vertex 7.06079 7.53686 7.03138
      vertex 14.3319 7.59783 7.03138
    endloop
  endfacet
  facet normal 0 0 1
    outer loop
      vertex 24.8189 14.7928 7.03138
      vertex 24.5686 14.3544 7.03138
      vertex 24.7918 14.2375 7.03138
    endloop
  endfacet
  facet normal 0 0 1
    outer loop
      vertex 14.689 14.2375 7.03138
      vertex 24.5686 14.3544 7.03138
      vertex 14.689 14.3544 7.03138
    endloop
  endfacet
  facet normal 0 0 1
    outer loop
      vertex 24.5686 14.3544 7.03138
      vertex 14.689 14.2375 7.03138
      vertex 24.7918 14.2375 7.03138
    endloop
  endfacet
  facet normal 0 0 1
    outer loop
      vertex 24.6845 7.06911 7.03138
      vertex 24.673 7.06911 7.03138
      vertex 24.6845 -0.0736551 7.03138
    endloop
  endfacet
  facet normal -0 0 1
    outer loop
      vertex 24.5686 20.691 7.03138
      vertex 24.8189 14.7928 7.03138
      vertex 24.8189 20.8477 7.03138
    endloop
  endfacet
  facet normal 0 0 1
    outer loop
      vertex 24.5686 14.3544 7.03138
      vertex 24.8189 14.7928 7.03138
      vertex 24.5686 20.691 7.03138
    endloop
  endfacet
  facet normal 0 0 1
    outer loop
      vertex 24.8189 20.8477 7.03138
      vertex 14.4472 20.691 7.03138
      vertex 24.5686 20.691 7.03138
    endloop
  endfacet
  facet normal -0 0 1
    outer loop
      vertex 14.1969 20.8477 7.03138
      vertex 14.4472 20.691 7.03138
      vertex 24.8189 20.8477 7.03138
    endloop
  endfacet
  facet normal 0 0 1
    outer loop
      vertex 14.1969 20.5318 7.03138
      vertex 14.4472 20.691 7.03138
      vertex 14.1969 20.8477 7.03138
    endloop
  endfacet
  facet normal 0 0 1
    outer loop
      vertex 14.4472 20.691 7.03138
      vertex 14.1969 20.5318 7.03138
      vertex 14.4472 20.3751 7.03138
    endloop
  endfacet
  facet normal 0 0 1
    outer loop
      vertex 14.1969 20.5318 7.03138
      vertex 7.17054 20.3751 7.03138
      vertex 14.4472 20.3751 7.03138
    endloop
  endfacet
  facet normal -0 0 1
    outer loop
      vertex 6.98464 20.5318 7.03138
      vertex 7.17054 20.3751 7.03138
      vertex 14.1969 20.5318 7.03138
    endloop
  endfacet
  facet normal 0 0 1
    outer loop
      vertex 6.98464 14.9434 7.03138
      vertex 7.17054 20.3751 7.03138
      vertex 6.98464 20.5318 7.03138
    endloop
  endfacet
  facet normal 0 0 1
    outer loop
      vertex 7.17054 20.3751 7.03138
      vertex 6.98464 14.9434 7.03138
      vertex 7.17054 14.7662 7.03138
    endloop
  endfacet
  facet normal 0 0 1
    outer loop
      vertex 6.98464 14.9434 7.03138
      vertex 6.81347 14.7662 7.03138
      vertex 7.17054 14.7662 7.03138
    endloop
  endfacet
  facet normal 0 0 1
    outer loop
      vertex 6.62757 7.72503 7.03138
      vertex 6.81347 14.7662 7.03138
      vertex 6.62757 14.9434 7.03138
    endloop
  endfacet
  facet normal -0 0 1
    outer loop
      vertex 6.62757 14.9434 7.03138
      vertex 6.81347 14.7662 7.03138
      vertex 6.98464 14.9434 7.03138
    endloop
  endfacet
  facet normal 0 0 1
    outer loop
      vertex 33.1972 14.7928 7.03138
      vertex 32.9957 7.53686 7.03138
      vertex 33.1972 7.72503 7.03138
    endloop
  endfacet
  facet normal 0 0 1
    outer loop
      vertex 24.7918 14.2375 7.03138
      vertex 33.1972 14.7928 7.03138
      vertex 24.8189 14.7928 7.03138
    endloop
  endfacet
  facet normal 0 0 1
    outer loop
      vertex 33.1972 14.7928 7.03138
      vertex 24.7918 14.2375 7.03138
      vertex 32.9957 7.53686 7.03138
    endloop
  endfacet
  facet normal 0 0 1
    outer loop
      vertex 32.9957 7.53686 7.03138
      vertex 24.7918 14.2375 7.03138
      vertex 24.7918 7.53686 7.03138
    endloop
  endfacet
  facet normal 0 0 1
    outer loop
      vertex 32.9957 7.53686 7.03138
      vertex 33.2012 7.72503 7.03138
      vertex 33.1972 7.72503 7.03138
    endloop
  endfacet
  facet normal 0 0 1
    outer loop
      vertex 33.2012 7.72503 7.03138
      vertex 32.9957 7.53686 7.03138
      vertex 33.2012 -0.261827 7.03138
    endloop
  endfacet
  facet normal -0 0 1
    outer loop
      vertex 32.9957 -0.0736551 7.03138
      vertex 33.2012 -0.261827 7.03138
      vertex 32.9957 7.53686 7.03138
    endloop
  endfacet
  facet normal -0 0 1
    outer loop
      vertex 24.6845 -0.0736551 7.03138
      vertex 33.2012 -0.261827 7.03138
      vertex 32.9957 -0.0736551 7.03138
    endloop
  endfacet
  facet normal 0 0 1
    outer loop
      vertex 24.673 -0.0736551 7.03138
      vertex 24.6845 -0.0736551 7.03138
      vertex 24.673 7.06911 7.03138
    endloop
  endfacet
  facet normal -0 0 1
    outer loop
      vertex 24.673 -0.0736551 7.03138
      vertex 33.2012 -0.261827 7.03138
      vertex 24.6845 -0.0736551 7.03138
    endloop
  endfacet
  facet normal -0 0 1
    outer loop
      vertex 7.06079 -0.0736551 7.03138
      vertex 33.2012 -0.261827 7.03138
      vertex 24.673 -0.0736551 7.03138
    endloop
  endfacet
  facet normal 0 0 1
    outer loop
      vertex 6.81347 14.7662 7.03138
      vertex 6.62757 7.72503 7.03138
      vertex 6.81347 7.59783 7.03138
    endloop
  endfacet
  facet normal 0 0 1
    outer loop
      vertex 6.62757 7.72503 7.03138
      vertex 7.06079 -0.0736551 7.03138
      vertex 6.81347 7.59783 7.03138
    endloop
  endfacet
  facet normal 0 0 1
    outer loop
      vertex 0.561752 -0.261827 7.03138
      vertex 6.62757 7.72503 7.03138
      vertex 0.561752 7.72503 7.03138
    endloop
  endfacet
  facet normal 0 0 1
    outer loop
      vertex 7.06079 -0.0736551 7.03138
      vertex 0.561752 -0.261827 7.03138
      vertex 33.2012 -0.261827 7.03138
    endloop
  endfacet
  facet normal 0 0 1
    outer loop
      vertex 6.62757 7.72503 7.03138
      vertex 0.561752 -0.261827 7.03138
      vertex 7.06079 -0.0736551 7.03138
    endloop
  endfacet
  facet normal -1 0 0
    outer loop
      vertex 0.561752 -0.261827 3.51569
      vertex 0.561752 7.72503 7.03138
      vertex 0.561752 7.72503 3.51569
    endloop
  endfacet
  facet normal -1 -0 0
    outer loop
      vertex 0.561752 7.72503 7.03138
      vertex 0.561752 -0.261827 3.51569
      vertex 0.561752 -0.261827 7.03138
    endloop
  endfacet
  facet normal 0 1 -0
    outer loop
      vertex 6.62757 7.72503 3.51569
      vertex 0.561752 7.72503 7.03138
      vertex 6.62757 7.72503 7.03138
    endloop
  endfacet
  facet normal 0 1 0
    outer loop
      vertex 0.561752 7.72503 7.03138
      vertex 6.62757 7.72503 3.51569
      vertex 0.561752 7.72503 3.51569
    endloop
  endfacet
  facet normal 0 -1 0
    outer loop
      vertex 0.561752 -0.261827 3.51569
      vertex 33.2012 -0.261827 7.03138
      vertex 0.561752 -0.261827 7.03138
    endloop
  endfacet
  facet normal 0 -1 -0
    outer loop
      vertex 33.2012 -0.261827 7.03138
      vertex 0.561752 -0.261827 3.51569
      vertex 33.2012 -0.261827 3.51569
    endloop
  endfacet
  facet normal 0 1 -0
    outer loop
      vertex 6.44168 14.8905 0.4
      vertex 0.4 14.8905 3.51569
      vertex 6.44168 14.8905 3.51569
    endloop
  endfacet
  facet normal 0 1 0
    outer loop
      vertex 0.4 14.8905 3.51569
      vertex 6.44168 14.8905 0.4
      vertex 0.4 14.8905 0.4
    endloop
  endfacet
  facet normal -0 0 1
    outer loop
      vertex 7.06079 7.53686 10.5471
      vertex 14.3934 7.34869 10.5471
      vertex 14.6704 7.53686 10.5471
    endloop
  endfacet
  facet normal 0 0 1
    outer loop
      vertex 7.24668 7.34869 10.5471
      vertex 7.06079 7.53686 10.5471
      vertex 7.24668 0.114515 10.5471
    endloop
  endfacet
  facet normal 0 0 1
    outer loop
      vertex 14.3934 7.34869 10.5471
      vertex 7.06079 7.53686 10.5471
      vertex 7.24668 7.34869 10.5471
    endloop
  endfacet
  facet normal 0 0 1
    outer loop
      vertex 24.5686 20.691 10.5471
      vertex 14.689 14.3544 10.5471
      vertex 24.5686 14.3544 10.5471
    endloop
  endfacet
  facet normal 0 0 1
    outer loop
      vertex 14.3319 14.0385 10.5471
      vertex 14.689 14.2375 10.5471
      vertex 14.689 14.3544 10.5471
    endloop
  endfacet
  facet normal 0 0 1
    outer loop
      vertex 14.4472 20.3751 10.5471
      vertex 24.5686 20.691 10.5471
      vertex 14.4472 20.691 10.5471
    endloop
  endfacet
  facet normal 0 0 1
    outer loop
      vertex 24.5686 20.691 10.5471
      vertex 14.4472 20.3751 10.5471
      vertex 14.689 14.3544 10.5471
    endloop
  endfacet
  facet normal -0 0 1
    outer loop
      vertex 14.146 14.5889 10.5471
      vertex 14.689 14.3544 10.5471
      vertex 14.4472 20.3751 10.5471
    endloop
  endfacet
  facet normal 0 -0 1
    outer loop
      vertex 14.3319 14.0385 10.5471
      vertex 14.689 14.3544 10.5471
      vertex 14.146 14.5889 10.5471
    endloop
  endfacet
  facet normal 0 0 1
    outer loop
      vertex 14.146 7.77507 10.5471
      vertex 14.3319 14.0385 10.5471
      vertex 14.146 14.5889 10.5471
    endloop
  endfacet
  facet normal 0 0 1
    outer loop
      vertex 14.689 14.2375 10.5471
      vertex 14.3319 14.0385 10.5471
      vertex 14.6704 14.0385 10.5471
    endloop
  endfacet
  facet normal -0 0 1
    outer loop
      vertex 7.17054 20.3751 10.5471
      vertex 14.146 14.5889 10.5471
      vertex 14.4472 20.3751 10.5471
    endloop
  endfacet
  facet normal -0 0 1
    outer loop
      vertex 7.17054 14.7662 10.5471
      vertex 14.146 14.5889 10.5471
      vertex 7.17054 20.3751 10.5471
    endloop
  endfacet
  facet normal 0 0 1
    outer loop
      vertex 7.17054 14.7662 10.5471
      vertex 6.99936 14.5889 10.5471
      vertex 14.146 14.5889 10.5471
    endloop
  endfacet
  facet normal 0 0 1
    outer loop
      vertex 6.99936 14.5889 10.5471
      vertex 6.81347 14.7662 10.5471
      vertex 6.99936 7.77507 10.5471
    endloop
  endfacet
  facet normal -0 0 1
    outer loop
      vertex 6.81347 14.7662 10.5471
      vertex 6.99936 14.5889 10.5471
      vertex 7.17054 14.7662 10.5471
    endloop
  endfacet
  facet normal 0 0 1
    outer loop
      vertex 14.3319 14.0385 10.5471
      vertex 14.146 7.77507 10.5471
      vertex 14.3319 7.59783 10.5471
    endloop
  endfacet
  facet normal -0 0 1
    outer loop
      vertex 6.99936 7.77507 10.5471
      vertex 14.3319 7.59783 10.5471
      vertex 14.146 7.77507 10.5471
    endloop
  endfacet
  facet normal 0 0 1
    outer loop
      vertex 6.99936 7.77507 10.5471
      vertex 6.81347 7.59783 10.5471
      vertex 14.3319 7.59783 10.5471
    endloop
  endfacet
  facet normal 0 0 1
    outer loop
      vertex 6.81347 7.59783 10.5471
      vertex 6.99936 7.77507 10.5471
      vertex 6.81347 14.7662 10.5471
    endloop
  endfacet
  facet normal 0 0 1
    outer loop
      vertex 24.4227 7.34869 10.5471
      vertex 24.7918 7.53686 10.5471
      vertex 24.7918 14.2375 10.5471
    endloop
  endfacet
  facet normal 0 -0 1
    outer loop
      vertex 24.673 7.06911 10.5471
      vertex 24.7918 7.53686 10.5471
      vertex 24.4227 7.34869 10.5471
    endloop
  endfacet
  facet normal 0 0 1
    outer loop
      vertex 24.4227 0.114515 10.5471
      vertex 24.673 7.06911 10.5471
      vertex 24.4227 7.34869 10.5471
    endloop
  endfacet
  facet normal 0 0 1
    outer loop
      vertex 24.7918 7.53686 10.5471
      vertex 24.673 7.06911 10.5471
      vertex 24.6845 7.06911 10.5471
    endloop
  endfacet
  facet normal -0 0 1
    outer loop
      vertex 14.6704 14.0385 10.5471
      vertex 24.4227 7.34869 10.5471
      vertex 24.7918 14.2375 10.5471
    endloop
  endfacet
  facet normal 0 0 1
    outer loop
      vertex 24.4227 7.34869 10.5471
      vertex 14.6704 14.0385 10.5471
      vertex 14.8018 7.34869 10.5471
    endloop
  endfacet
  facet normal 0 0 1
    outer loop
      vertex 14.6704 14.0385 10.5471
      vertex 24.7918 14.2375 10.5471
      vertex 14.689 14.2375 10.5471
    endloop
  endfacet
  facet normal 0 0 1
    outer loop
      vertex 24.673 7.06911 10.5471
      vertex 24.4227 0.114515 10.5471
      vertex 24.673 -0.0736551 10.5471
    endloop
  endfacet
  facet normal -0 0 1
    outer loop
      vertex 14.8018 0.114515 10.5471
      vertex 24.673 -0.0736551 10.5471
      vertex 24.4227 0.114515 10.5471
    endloop
  endfacet
  facet normal 0 0 1
    outer loop
      vertex 14.8018 7.34869 10.5471
      vertex 14.6704 14.0385 10.5471
      vertex 14.6704 7.53686 10.5471
    endloop
  endfacet
  facet normal 0 0 1
    outer loop
      vertex 14.3934 7.34869 10.5471
      vertex 14.8018 7.34869 10.5471
      vertex 14.6704 7.53686 10.5471
    endloop
  endfacet
  facet normal 0 0 1
    outer loop
      vertex 14.8018 7.34869 10.5471
      vertex 14.3934 7.34869 10.5471
      vertex 14.8018 0.114515 10.5471
    endloop
  endfacet
  facet normal 0 0 1
    outer loop
      vertex 14.3934 0.114515 10.5471
      vertex 14.8018 0.114515 10.5471
      vertex 14.3934 7.34869 10.5471
    endloop
  endfacet
  facet normal -0 0 1
    outer loop
      vertex 14.3934 0.114515 10.5471
      vertex 24.673 -0.0736551 10.5471
      vertex 14.8018 0.114515 10.5471
    endloop
  endfacet
  facet normal 0 0 1
    outer loop
      vertex 7.06079 -0.0736551 10.5471
      vertex 14.3934 0.114515 10.5471
      vertex 7.24668 0.114515 10.5471
    endloop
  endfacet
  facet normal 0 0 1
    outer loop
      vertex 14.3934 0.114515 10.5471
      vertex 7.06079 -0.0736551 10.5471
      vertex 24.673 -0.0736551 10.5471
    endloop
  endfacet
  facet normal 0 0 1
    outer loop
      vertex 7.06079 -0.0736551 10.5471
      vertex 7.24668 0.114515 10.5471
      vertex 7.06079 7.53686 10.5471
    endloop
  endfacet
  facet normal 0 0 1
    outer loop
      vertex 32.9957 7.53686 10.5471
      vertex 32.7902 7.34869 10.5471
      vertex 32.9957 -0.0736551 10.5471
    endloop
  endfacet
  facet normal -0 0 1
    outer loop
      vertex 24.7918 7.53686 10.5471
      vertex 32.7902 7.34869 10.5471
      vertex 32.9957 7.53686 10.5471
    endloop
  endfacet
  facet normal 0 0 1
    outer loop
      vertex 24.6845 7.06911 10.5471
      vertex 24.89 7.34869 10.5471
      vertex 24.7918 7.53686 10.5471
    endloop
  endfacet
  facet normal 0 0 1
    outer loop
      vertex 32.7902 7.34869 10.5471
      vertex 24.7918 7.53686 10.5471
      vertex 24.89 7.34869 10.5471
    endloop
  endfacet
  facet normal -0 0 1
    outer loop
      vertex 32.7902 0.114515 10.5471
      vertex 32.9957 -0.0736551 10.5471
      vertex 32.7902 7.34869 10.5471
    endloop
  endfacet
  facet normal -0 0 1
    outer loop
      vertex 24.89 0.114515 10.5471
      vertex 32.9957 -0.0736551 10.5471
      vertex 32.7902 0.114515 10.5471
    endloop
  endfacet
  facet normal 0 0 1
    outer loop
      vertex 24.89 7.34869 10.5471
      vertex 24.6845 7.06911 10.5471
      vertex 24.89 0.114515 10.5471
    endloop
  endfacet
  facet normal 0 0 1
    outer loop
      vertex 24.89 0.114515 10.5471
      vertex 24.6845 -0.0736551 10.5471
      vertex 32.9957 -0.0736551 10.5471
    endloop
  endfacet
  facet normal 0 0 1
    outer loop
      vertex 24.6845 -0.0736551 10.5471
      vertex 24.89 0.114515 10.5471
      vertex 24.6845 7.06911 10.5471
    endloop
  endfacet
  facet normal -1 0 0
    outer loop
      vertex 7.06079 -0.0736551 7.03138
      vertex 7.06079 7.53686 10.5471
      vertex 7.06079 7.53686 7.03138
    endloop
  endfacet
  facet normal -1 -0 0
    outer loop
      vertex 7.06079 7.53686 10.5471
      vertex 7.06079 -0.0736551 7.03138
      vertex 7.06079 -0.0736551 10.5471
    endloop
  endfacet
  facet normal 0 1 -0
    outer loop
      vertex 14.6704 7.53686 7.03138
      vertex 7.06079 7.53686 10.5471
      vertex 14.6704 7.53686 10.5471
    endloop
  endfacet
  facet normal 0 1 0
    outer loop
      vertex 7.06079 7.53686 10.5471
      vertex 14.6704 7.53686 7.03138
      vertex 7.06079 7.53686 7.03138
    endloop
  endfacet
  facet normal 0 -1 0
    outer loop
      vertex 7.06079 -0.0736551 7.03138
      vertex 24.673 -0.0736551 10.5471
      vertex 7.06079 -0.0736551 10.5471
    endloop
  endfacet
  facet normal 0 -1 -0
    outer loop
      vertex 24.673 -0.0736551 10.5471
      vertex 7.06079 -0.0736551 7.03138
      vertex 24.673 -0.0736551 7.03138
    endloop
  endfacet
  facet normal 1 -0 0
    outer loop
      vertex 14.3934 0.114515 14.0628
      vertex 14.3934 7.34869 10.5471
      vertex 14.3934 7.34869 14.0628
    endloop
  endfacet
  facet normal 1 0 0
    outer loop
      vertex 14.3934 7.34869 10.5471
      vertex 14.3934 0.114515 14.0628
      vertex 14.3934 0.114515 10.5471
    endloop
  endfacet
  facet normal -0 0 1
    outer loop
      vertex 7.24668 7.34869 14.0628
      vertex 14.3934 0.114515 14.0628
      vertex 14.3934 7.34869 14.0628
    endloop
  endfacet
  facet normal 0 0 1
    outer loop
      vertex 14.3934 0.114515 14.0628
      vertex 7.24668 7.34869 14.0628
      vertex 7.24668 0.114515 14.0628
    endloop
  endfacet
  facet normal -1 0 0
    outer loop
      vertex 7.24668 0.114515 10.5471
      vertex 7.24668 7.34869 14.0628
      vertex 7.24668 7.34869 10.5471
    endloop
  endfacet
  facet normal -1 -0 0
    outer loop
      vertex 7.24668 7.34869 14.0628
      vertex 7.24668 0.114515 10.5471
      vertex 7.24668 0.114515 14.0628
    endloop
  endfacet
  facet normal 0 1 -0
    outer loop
      vertex 14.3934 7.34869 10.5471
      vertex 7.24668 7.34869 14.0628
      vertex 14.3934 7.34869 14.0628
    endloop
  endfacet
  facet normal 0 1 0
    outer loop
      vertex 7.24668 7.34869 14.0628
      vertex 14.3934 7.34869 10.5471
      vertex 7.24668 7.34869 10.5471
    endloop
  endfacet
  facet normal 0 -1 0
    outer loop
      vertex 7.24668 0.114515 10.5471
      vertex 14.3934 0.114515 14.0628
      vertex 7.24668 0.114515 14.0628
    endloop
  endfacet
  facet normal 0 -1 -0
    outer loop
      vertex 14.3934 0.114515 14.0628
      vertex 7.24668 0.114515 10.5471
      vertex 14.3934 0.114515 10.5471
    endloop
  endfacet
  facet normal -1 0 0
    outer loop
      vertex 6.44168 14.8905 0.4
      vertex 6.44168 15.1207 3.51569
      vertex 6.44168 15.1207 0.4
    endloop
  endfacet
  facet normal -1 -0 0
    outer loop
      vertex 6.44168 15.1207 3.51569
      vertex 6.44168 14.8905 0.4
      vertex 6.44168 14.8905 3.51569
    endloop
  endfacet
  facet normal 0 1 -0
    outer loop
      vertex 6.79874 15.1207 0.4
      vertex 6.44168 15.1207 3.51569
      vertex 6.79874 15.1207 3.51569
    endloop
  endfacet
  facet normal 0 1 0
    outer loop
      vertex 6.44168 15.1207 3.51569
      vertex 6.79874 15.1207 0.4
      vertex 6.44168 15.1207 0.4
    endloop
  endfacet
  facet normal -1 0 0
    outer loop
      vertex 6.62757 7.72503 3.51569
      vertex 6.62757 14.9434 7.03138
      vertex 6.62757 14.9434 3.51569
    endloop
  endfacet
  facet normal -1 -0 0
    outer loop
      vertex 6.62757 14.9434 7.03138
      vertex 6.62757 7.72503 3.51569
      vertex 6.62757 7.72503 7.03138
    endloop
  endfacet
  facet normal 0 1 -0
    outer loop
      vertex 6.98464 14.9434 3.51569
      vertex 6.62757 14.9434 7.03138
      vertex 6.98464 14.9434 7.03138
    endloop
  endfacet
  facet normal 0 1 0
    outer loop
      vertex 6.62757 14.9434 7.03138
      vertex 6.98464 14.9434 3.51569
      vertex 6.62757 14.9434 3.51569
    endloop
  endfacet
  facet normal 1 -0 0
    outer loop
      vertex 14.3319 7.59783 10.5471
      vertex 14.3319 14.0385 7.03138
      vertex 14.3319 14.0385 10.5471
    endloop
  endfacet
  facet normal 1 0 0
    outer loop
      vertex 14.3319 14.0385 7.03138
      vertex 14.3319 7.59783 10.5471
      vertex 14.3319 7.59783 7.03138
    endloop
  endfacet
  facet normal -1 0 0
    outer loop
      vertex 6.81347 7.59783 7.03138
      vertex 6.81347 14.7662 10.5471
      vertex 6.81347 14.7662 7.03138
    endloop
  endfacet
  facet normal -1 -0 0
    outer loop
      vertex 6.81347 14.7662 10.5471
      vertex 6.81347 7.59783 7.03138
      vertex 6.81347 7.59783 10.5471
    endloop
  endfacet
  facet normal 0 1 -0
    outer loop
      vertex 7.17054 14.7662 7.03138
      vertex 6.81347 14.7662 10.5471
      vertex 7.17054 14.7662 10.5471
    endloop
  endfacet
  facet normal 0 1 0
    outer loop
      vertex 6.81347 14.7662 10.5471
      vertex 7.17054 14.7662 7.03138
      vertex 6.81347 14.7662 7.03138
    endloop
  endfacet
  facet normal 0 -1 0
    outer loop
      vertex 6.81347 7.59783 7.03138
      vertex 14.3319 7.59783 10.5471
      vertex 6.81347 7.59783 10.5471
    endloop
  endfacet
  facet normal 0 -1 -0
    outer loop
      vertex 14.3319 7.59783 10.5471
      vertex 6.81347 7.59783 7.03138
      vertex 14.3319 7.59783 7.03138
    endloop
  endfacet
  facet normal 1 -0 0
    outer loop
      vertex 14.146 7.77507 14.0628
      vertex 14.146 14.5889 10.5471
      vertex 14.146 14.5889 14.0628
    endloop
  endfacet
  facet normal 1 0 0
    outer loop
      vertex 14.146 14.5889 10.5471
      vertex 14.146 7.77507 14.0628
      vertex 14.146 7.77507 10.5471
    endloop
  endfacet
  facet normal -0 0 1
    outer loop
      vertex 6.99936 14.5889 14.0628
      vertex 14.146 7.77507 14.0628
      vertex 14.146 14.5889 14.0628
    endloop
  endfacet
  facet normal 0 0 1
    outer loop
      vertex 14.146 7.77507 14.0628
      vertex 6.99936 14.5889 14.0628
      vertex 6.99936 7.77507 14.0628
    endloop
  endfacet
  facet normal -1 0 0
    outer loop
      vertex 6.99936 7.77507 10.5471
      vertex 6.99936 14.5889 14.0628
      vertex 6.99936 14.5889 10.5471
    endloop
  endfacet
  facet normal -1 -0 0
    outer loop
      vertex 6.99936 14.5889 14.0628
      vertex 6.99936 7.77507 10.5471
      vertex 6.99936 7.77507 14.0628
    endloop
  endfacet
  facet normal 0 1 -0
    outer loop
      vertex 14.146 14.5889 10.5471
      vertex 6.99936 14.5889 14.0628
      vertex 14.146 14.5889 14.0628
    endloop
  endfacet
  facet normal 0 1 0
    outer loop
      vertex 6.99936 14.5889 14.0628
      vertex 14.146 14.5889 10.5471
      vertex 6.99936 14.5889 10.5471
    endloop
  endfacet
  facet normal 0 -1 0
    outer loop
      vertex 6.99936 7.77507 10.5471
      vertex 14.146 7.77507 14.0628
      vertex 6.99936 7.77507 14.0628
    endloop
  endfacet
  facet normal 0 -1 -0
    outer loop
      vertex 14.146 7.77507 14.0628
      vertex 6.99936 7.77507 10.5471
      vertex 14.146 7.77507 10.5471
    endloop
  endfacet
  facet normal -1 0 0
    outer loop
      vertex 6.79874 15.1207 0.4
      vertex 6.79874 20.6885 3.51569
      vertex 6.79874 20.6885 0.4
    endloop
  endfacet
  facet normal -1 -0 0
    outer loop
      vertex 6.79874 20.6885 3.51569
      vertex 6.79874 15.1207 0.4
      vertex 6.79874 15.1207 3.51569
    endloop
  endfacet
  facet normal 0 1 -0
    outer loop
      vertex 13.9467 20.6885 0.4
      vertex 6.79874 20.6885 3.51569
      vertex 13.9467 20.6885 3.51569
    endloop
  endfacet
  facet normal 0 1 0
    outer loop
      vertex 6.79874 20.6885 3.51569
      vertex 13.9467 20.6885 0.4
      vertex 6.79874 20.6885 0.4
    endloop
  endfacet
  facet normal -1 0 0
    outer loop
      vertex 6.98464 14.9434 3.51569
      vertex 6.98464 20.5318 7.03138
      vertex 6.98464 20.5318 3.51569
    endloop
  endfacet
  facet normal -1 -0 0
    outer loop
      vertex 6.98464 20.5318 7.03138
      vertex 6.98464 14.9434 3.51569
      vertex 6.98464 14.9434 7.03138
    endloop
  endfacet
  facet normal 0 1 -0
    outer loop
      vertex 14.1969 20.5318 3.51569
      vertex 6.98464 20.5318 7.03138
      vertex 14.1969 20.5318 7.03138
    endloop
  endfacet
  facet normal 0 1 0
    outer loop
      vertex 6.98464 20.5318 7.03138
      vertex 14.1969 20.5318 3.51569
      vertex 6.98464 20.5318 3.51569
    endloop
  endfacet
  facet normal 1 -0 0
    outer loop
      vertex 14.689 14.2375 10.5471
      vertex 14.689 14.3544 7.03138
      vertex 14.689 14.3544 10.5471
    endloop
  endfacet
  facet normal 1 0 0
    outer loop
      vertex 14.689 14.3544 7.03138
      vertex 14.689 14.2375 10.5471
      vertex 14.689 14.2375 7.03138
    endloop
  endfacet
  facet normal -1 0 0
    outer loop
      vertex 7.17054 14.7662 7.03138
      vertex 7.17054 20.3751 10.5471
      vertex 7.17054 20.3751 7.03138
    endloop
  endfacet
  facet normal -1 -0 0
    outer loop
      vertex 7.17054 20.3751 10.5471
      vertex 7.17054 14.7662 7.03138
      vertex 7.17054 14.7662 10.5471
    endloop
  endfacet
  facet normal 0 1 -0
    outer loop
      vertex 14.4472 20.3751 7.03138
      vertex 7.17054 20.3751 10.5471
      vertex 14.4472 20.3751 10.5471
    endloop
  endfacet
  facet normal 0 1 0
    outer loop
      vertex 7.17054 20.3751 10.5471
      vertex 14.4472 20.3751 7.03138
      vertex 7.17054 20.3751 7.03138
    endloop
  endfacet
  facet normal 0 -1 0
    outer loop
      vertex 14.3319 14.0385 7.03138
      vertex 14.6704 14.0385 10.5471
      vertex 14.3319 14.0385 10.5471
    endloop
  endfacet
  facet normal 0 -1 -0
    outer loop
      vertex 14.6704 14.0385 10.5471
      vertex 14.3319 14.0385 7.03138
      vertex 14.6704 14.0385 7.03138
    endloop
  endfacet
  facet normal 1 -0 0
    outer loop
      vertex 24.673 -0.0736551 10.5471
      vertex 24.673 7.06911 7.03138
      vertex 24.673 7.06911 10.5471
    endloop
  endfacet
  facet normal 1 0 0
    outer loop
      vertex 24.673 7.06911 7.03138
      vertex 24.673 -0.0736551 10.5471
      vertex 24.673 -0.0736551 7.03138
    endloop
  endfacet
  facet normal 1 -0 0
    outer loop
      vertex 24.4227 0.114515 14.0628
      vertex 24.4227 7.34869 10.5471
      vertex 24.4227 7.34869 14.0628
    endloop
  endfacet
  facet normal 1 0 0
    outer loop
      vertex 24.4227 7.34869 10.5471
      vertex 24.4227 0.114515 14.0628
      vertex 24.4227 0.114515 10.5471
    endloop
  endfacet
  facet normal 0 0 1
    outer loop
      vertex 24.4227 7.34869 14.0628
      vertex 24.1725 7.16051 14.0628
      vertex 24.4227 0.114515 14.0628
    endloop
  endfacet
  facet normal 0 0 1
    outer loop
      vertex 24.4227 7.34869 14.0628
      vertex 15.0521 7.16051 14.0628
      vertex 24.1725 7.16051 14.0628
    endloop
  endfacet
  facet normal 0 0 1
    outer loop
      vertex 15.0521 7.16051 14.0628
      vertex 14.8018 7.34869 14.0628
      vertex 15.0521 0.302688 14.0628
    endloop
  endfacet
  facet normal -0 0 1
    outer loop
      vertex 14.8018 7.34869 14.0628
      vertex 15.0521 7.16051 14.0628
      vertex 24.4227 7.34869 14.0628
    endloop
  endfacet
  facet normal -0 0 1
    outer loop
      vertex 24.1725 0.302688 14.0628
      vertex 24.4227 0.114515 14.0628
      vertex 24.1725 7.16051 14.0628
    endloop
  endfacet
  facet normal -0 0 1
    outer loop
      vertex 15.0521 0.302688 14.0628
      vertex 24.4227 0.114515 14.0628
      vertex 24.1725 0.302688 14.0628
    endloop
  endfacet
  facet normal 0 0 1
    outer loop
      vertex 15.0521 0.302688 14.0628
      vertex 14.8018 0.114515 14.0628
      vertex 24.4227 0.114515 14.0628
    endloop
  endfacet
  facet normal 0 0 1
    outer loop
      vertex 14.8018 0.114515 14.0628
      vertex 15.0521 0.302688 14.0628
      vertex 14.8018 7.34869 14.0628
    endloop
  endfacet
  facet normal -1 0 0
    outer loop
      vertex 14.8018 0.114515 10.5471
      vertex 14.8018 7.34869 14.0628
      vertex 14.8018 7.34869 10.5471
    endloop
  endfacet
  facet normal -1 -0 0
    outer loop
      vertex 14.8018 7.34869 14.0628
      vertex 14.8018 0.114515 10.5471
      vertex 14.8018 0.114515 14.0628
    endloop
  endfacet
  facet normal 0 1 -0
    outer loop
      vertex 24.4227 7.34869 10.5471
      vertex 14.8018 7.34869 14.0628
      vertex 24.4227 7.34869 14.0628
    endloop
  endfacet
  facet normal 0 1 0
    outer loop
      vertex 14.8018 7.34869 14.0628
      vertex 24.4227 7.34869 10.5471
      vertex 14.8018 7.34869 10.5471
    endloop
  endfacet
  facet normal 0 -1 0
    outer loop
      vertex 14.8018 0.114515 10.5471
      vertex 24.4227 0.114515 14.0628
      vertex 14.8018 0.114515 14.0628
    endloop
  endfacet
  facet normal 0 -1 -0
    outer loop
      vertex 24.4227 0.114515 14.0628
      vertex 14.8018 0.114515 10.5471
      vertex 24.4227 0.114515 10.5471
    endloop
  endfacet
  facet normal 1 -0 0
    outer loop
      vertex 24.1725 0.302688 17.5785
      vertex 24.1725 7.16051 14.0628
      vertex 24.1725 7.16051 17.5785
    endloop
  endfacet
  facet normal 1 0 0
    outer loop
      vertex 24.1725 7.16051 14.0628
      vertex 24.1725 0.302688 17.5785
      vertex 24.1725 0.302688 14.0628
    endloop
  endfacet
  facet normal -0 0 1
    outer loop
      vertex 15.0521 7.16051 17.5785
      vertex 24.1725 0.302688 17.5785
      vertex 24.1725 7.16051 17.5785
    endloop
  endfacet
  facet normal 0 0 1
    outer loop
      vertex 24.1725 0.302688 17.5785
      vertex 15.0521 7.16051 17.5785
      vertex 15.0521 0.302688 17.5785
    endloop
  endfacet
  facet normal -1 0 0
    outer loop
      vertex 15.0521 0.302688 14.0628
      vertex 15.0521 7.16051 17.5785
      vertex 15.0521 7.16051 14.0628
    endloop
  endfacet
  facet normal -1 -0 0
    outer loop
      vertex 15.0521 7.16051 17.5785
      vertex 15.0521 0.302688 14.0628
      vertex 15.0521 0.302688 17.5785
    endloop
  endfacet
  facet normal 0 1 -0
    outer loop
      vertex 24.1725 7.16051 14.0628
      vertex 15.0521 7.16051 17.5785
      vertex 24.1725 7.16051 17.5785
    endloop
  endfacet
  facet normal 0 1 0
    outer loop
      vertex 15.0521 7.16051 17.5785
      vertex 24.1725 7.16051 14.0628
      vertex 15.0521 7.16051 14.0628
    endloop
  endfacet
  facet normal 0 -1 0
    outer loop
      vertex 15.0521 0.302688 14.0628
      vertex 24.1725 0.302688 17.5785
      vertex 15.0521 0.302688 17.5785
    endloop
  endfacet
  facet normal 0 -1 -0
    outer loop
      vertex 24.1725 0.302688 17.5785
      vertex 15.0521 0.302688 14.0628
      vertex 24.1725 0.302688 14.0628
    endloop
  endfacet
  facet normal 1 -0 0
    outer loop
      vertex 24.7918 7.53686 10.5471
      vertex 24.7918 14.2375 7.03138
      vertex 24.7918 14.2375 10.5471
    endloop
  endfacet
  facet normal 1 0 0
    outer loop
      vertex 24.7918 14.2375 7.03138
      vertex 24.7918 7.53686 10.5471
      vertex 24.7918 7.53686 7.03138
    endloop
  endfacet
  facet normal -1 0 0
    outer loop
      vertex 14.6704 7.53686 7.03138
      vertex 14.6704 14.0385 10.5471
      vertex 14.6704 14.0385 7.03138
    endloop
  endfacet
  facet normal -1 -0 0
    outer loop
      vertex 14.6704 14.0385 10.5471
      vertex 14.6704 7.53686 7.03138
      vertex 14.6704 7.53686 10.5471
    endloop
  endfacet
  facet normal 0 1 -0
    outer loop
      vertex 24.7918 14.2375 7.03138
      vertex 14.689 14.2375 10.5471
      vertex 24.7918 14.2375 10.5471
    endloop
  endfacet
  facet normal 0 1 0
    outer loop
      vertex 14.689 14.2375 10.5471
      vertex 24.7918 14.2375 7.03138
      vertex 14.689 14.2375 7.03138
    endloop
  endfacet
  facet normal 0 -1 0
    outer loop
      vertex 24.673 7.06911 7.03138
      vertex 24.6845 7.06911 10.5471
      vertex 24.673 7.06911 10.5471
    endloop
  endfacet
  facet normal 0 -1 -0
    outer loop
      vertex 24.6845 7.06911 10.5471
      vertex 24.673 7.06911 7.03138
      vertex 24.6845 7.06911 7.03138
    endloop
  endfacet
  facet normal 1 -0 0
    outer loop
      vertex 25.0691 14.97 3.51569
      vertex 25.0691 20.0538 0.4
      vertex 25.0691 20.0538 3.51569
    endloop
  endfacet
  facet normal 1 0 0
    outer loop
      vertex 25.0691 20.0538 0.4
      vertex 25.0691 14.97 3.51569
      vertex 25.0691 14.97 0.4
    endloop
  endfacet
  facet normal -1 0 0
    outer loop
      vertex 13.9467 20.6885 0.4
      vertex 13.9467 21.0044 3.51569
      vertex 13.9467 21.0044 0.4
    endloop
  endfacet
  facet normal -1 -0 0
    outer loop
      vertex 13.9467 21.0044 3.51569
      vertex 13.9467 20.6885 0.4
      vertex 13.9467 20.6885 3.51569
    endloop
  endfacet
  facet normal 0 1 -0
    outer loop
      vertex 14.0511 21.0044 0.4
      vertex 13.9467 21.0044 3.51569
      vertex 14.0511 21.0044 3.51569
    endloop
  endfacet
  facet normal 0 1 0
    outer loop
      vertex 13.9467 21.0044 3.51569
      vertex 14.0511 21.0044 0.4
      vertex 13.9467 21.0044 0.4
    endloop
  endfacet
  facet normal 1 -0 0
    outer loop
      vertex 24.8189 14.7928 7.03138
      vertex 24.8189 20.8477 3.51569
      vertex 24.8189 20.8477 7.03138
    endloop
  endfacet
  facet normal 1 0 0
    outer loop
      vertex 24.8189 20.8477 3.51569
      vertex 24.8189 14.7928 7.03138
      vertex 24.8189 14.7928 3.51569
    endloop
  endfacet
  facet normal -1 0 0
    outer loop
      vertex 14.1969 20.5318 3.51569
      vertex 14.1969 20.8477 7.03138
      vertex 14.1969 20.8477 3.51569
    endloop
  endfacet
  facet normal -1 -0 0
    outer loop
      vertex 14.1969 20.8477 7.03138
      vertex 14.1969 20.5318 3.51569
      vertex 14.1969 20.5318 7.03138
    endloop
  endfacet
  facet normal 0 1 -0
    outer loop
      vertex 24.8189 20.8477 3.51569
      vertex 14.1969 20.8477 7.03138
      vertex 24.8189 20.8477 7.03138
    endloop
  endfacet
  facet normal 0 1 0
    outer loop
      vertex 14.1969 20.8477 7.03138
      vertex 24.8189 20.8477 3.51569
      vertex 14.1969 20.8477 3.51569
    endloop
  endfacet
  facet normal 1 -0 0
    outer loop
      vertex 24.5686 14.3544 10.5471
      vertex 24.5686 20.691 7.03138
      vertex 24.5686 20.691 10.5471
    endloop
  endfacet
  facet normal 1 0 0
    outer loop
      vertex 24.5686 20.691 7.03138
      vertex 24.5686 14.3544 10.5471
      vertex 24.5686 14.3544 7.03138
    endloop
  endfacet
  facet normal -1 0 0
    outer loop
      vertex 14.4472 20.3751 7.03138
      vertex 14.4472 20.691 10.5471
      vertex 14.4472 20.691 7.03138
    endloop
  endfacet
  facet normal -1 -0 0
    outer loop
      vertex 14.4472 20.691 10.5471
      vertex 14.4472 20.3751 7.03138
      vertex 14.4472 20.3751 10.5471
    endloop
  endfacet
  facet normal 0 1 -0
    outer loop
      vertex 24.5686 20.691 7.03138
      vertex 14.4472 20.691 10.5471
      vertex 24.5686 20.691 10.5471
    endloop
  endfacet
  facet normal 0 1 0
    outer loop
      vertex 14.4472 20.691 10.5471
      vertex 24.5686 20.691 7.03138
      vertex 14.4472 20.691 7.03138
    endloop
  endfacet
  facet normal 0 -1 0
    outer loop
      vertex 14.689 14.3544 7.03138
      vertex 24.5686 14.3544 10.5471
      vertex 14.689 14.3544 10.5471
    endloop
  endfacet
  facet normal 0 -1 -0
    outer loop
      vertex 24.5686 14.3544 10.5471
      vertex 14.689 14.3544 7.03138
      vertex 24.5686 14.3544 7.03138
    endloop
  endfacet
  facet normal -1 0 0
    outer loop
      vertex 14.0511 21.0044 0.4
      vertex 14.0511 28.2951 3.51569
      vertex 14.0511 28.2951 0.4
    endloop
  endfacet
  facet normal -1 -0 0
    outer loop
      vertex 14.0511 28.2951 3.51569
      vertex 14.0511 21.0044 0.4
      vertex 14.0511 21.0044 3.51569
    endloop
  endfacet
  facet normal 0 1 -0
    outer loop
      vertex 33.4067 28.2951 0.4
      vertex 14.0511 28.2951 3.51569
      vertex 33.4067 28.2951 3.51569
    endloop
  endfacet
  facet normal 0 1 0
    outer loop
      vertex 14.0511 28.2951 3.51569
      vertex 33.4067 28.2951 0.4
      vertex 14.0511 28.2951 0.4
    endloop
  endfacet
  facet normal 0 -1 0
    outer loop
      vertex 25.0691 20.0538 0.4
      vertex 33.4067 20.0538 3.51569
      vertex 25.0691 20.0538 3.51569
    endloop
  endfacet
  facet normal 0 -1 -0
    outer loop
      vertex 33.4067 20.0538 3.51569
      vertex 25.0691 20.0538 0.4
      vertex 33.4067 20.0538 0.4
    endloop
  endfacet
  facet normal 1 -0 0
    outer loop
      vertex 33.2012 -0.261827 7.03138
      vertex 33.2012 7.72503 3.51569
      vertex 33.2012 7.72503 7.03138
    endloop
  endfacet
  facet normal 1 0 0
    outer loop
      vertex 33.2012 7.72503 3.51569
      vertex 33.2012 -0.261827 7.03138
      vertex 33.2012 -0.261827 3.51569
    endloop
  endfacet
  facet normal 0 1 -0
    outer loop
      vertex 33.2012 7.72503 3.51569
      vertex 33.1972 7.72503 7.03138
      vertex 33.2012 7.72503 7.03138
    endloop
  endfacet
  facet normal 0 1 0
    outer loop
      vertex 33.1972 7.72503 7.03138
      vertex 33.2012 7.72503 3.51569
      vertex 33.1972 7.72503 3.51569
    endloop
  endfacet
  facet normal 1 -0 0
    outer loop
      vertex 32.9957 -0.0736551 10.5471
      vertex 32.9957 7.53686 7.03138
      vertex 32.9957 7.53686 10.5471
    endloop
  endfacet
  facet normal 1 0 0
    outer loop
      vertex 32.9957 7.53686 7.03138
      vertex 32.9957 -0.0736551 10.5471
      vertex 32.9957 -0.0736551 7.03138
    endloop
  endfacet
  facet normal -1 0 0
    outer loop
      vertex 24.6845 -0.0736551 7.03138
      vertex 24.6845 7.06911 10.5471
      vertex 24.6845 7.06911 7.03138
    endloop
  endfacet
  facet normal -1 -0 0
    outer loop
      vertex 24.6845 7.06911 10.5471
      vertex 24.6845 -0.0736551 7.03138
      vertex 24.6845 -0.0736551 10.5471
    endloop
  endfacet
  facet normal 0 1 -0
    outer loop
      vertex 32.9957 7.53686 7.03138
      vertex 24.7918 7.53686 10.5471
      vertex 32.9957 7.53686 10.5471
    endloop
  endfacet
  facet normal 0 1 0
    outer loop
      vertex 24.7918 7.53686 10.5471
      vertex 32.9957 7.53686 7.03138
      vertex 24.7918 7.53686 7.03138
    endloop
  endfacet
  facet normal 0 -1 0
    outer loop
      vertex 24.6845 -0.0736551 7.03138
      vertex 32.9957 -0.0736551 10.5471
      vertex 24.6845 -0.0736551 10.5471
    endloop
  endfacet
  facet normal 0 -1 -0
    outer loop
      vertex 32.9957 -0.0736551 10.5471
      vertex 24.6845 -0.0736551 7.03138
      vertex 32.9957 -0.0736551 7.03138
    endloop
  endfacet
  facet normal 1 -0 0
    outer loop
      vertex 32.7902 0.114515 14.0628
      vertex 32.7902 7.34869 10.5471
      vertex 32.7902 7.34869 14.0628
    endloop
  endfacet
  facet normal 1 0 0
    outer loop
      vertex 32.7902 7.34869 10.5471
      vertex 32.7902 0.114515 14.0628
      vertex 32.7902 0.114515 10.5471
    endloop
  endfacet
  facet normal -0 0 1
    outer loop
      vertex 24.89 7.34869 14.0628
      vertex 32.7902 0.114515 14.0628
      vertex 32.7902 7.34869 14.0628
    endloop
  endfacet
  facet normal 0 0 1
    outer loop
      vertex 32.7902 0.114515 14.0628
      vertex 24.89 7.34869 14.0628
      vertex 24.89 0.114515 14.0628
    endloop
  endfacet
  facet normal -1 0 0
    outer loop
      vertex 24.89 0.114515 10.5471
      vertex 24.89 7.34869 14.0628
      vertex 24.89 7.34869 10.5471
    endloop
  endfacet
  facet normal -1 -0 0
    outer loop
      vertex 24.89 7.34869 14.0628
      vertex 24.89 0.114515 10.5471
      vertex 24.89 0.114515 14.0628
    endloop
  endfacet
  facet normal 0 1 -0
    outer loop
      vertex 32.7902 7.34869 10.5471
      vertex 24.89 7.34869 14.0628
      vertex 32.7902 7.34869 14.0628
    endloop
  endfacet
  facet normal 0 1 0
    outer loop
      vertex 24.89 7.34869 14.0628
      vertex 32.7902 7.34869 10.5471
      vertex 24.89 7.34869 10.5471
    endloop
  endfacet
  facet normal 0 -1 0
    outer loop
      vertex 24.89 0.114515 10.5471
      vertex 32.7902 0.114515 14.0628
      vertex 24.89 0.114515 14.0628
    endloop
  endfacet
  facet normal 0 -1 -0
    outer loop
      vertex 32.7902 0.114515 14.0628
      vertex 24.89 0.114515 10.5471
      vertex 32.7902 0.114515 10.5471
    endloop
  endfacet
  facet normal 1 -0 0
    outer loop
      vertex 33.4027 14.8905 3.51569
      vertex 33.4027 14.97 0.4
      vertex 33.4027 14.97 3.51569
    endloop
  endfacet
  facet normal 1 0 0
    outer loop
      vertex 33.4027 14.97 0.4
      vertex 33.4027 14.8905 3.51569
      vertex 33.4027 14.8905 0.4
    endloop
  endfacet
  facet normal 0 1 -0
    outer loop
      vertex 33.4027 14.97 0.4
      vertex 25.0691 14.97 3.51569
      vertex 33.4027 14.97 3.51569
    endloop
  endfacet
  facet normal 0 1 0
    outer loop
      vertex 25.0691 14.97 3.51569
      vertex 33.4027 14.97 0.4
      vertex 25.0691 14.97 0.4
    endloop
  endfacet
  facet normal 1 -0 0
    outer loop
      vertex 33.1972 7.72503 7.03138
      vertex 33.1972 14.7928 3.51569
      vertex 33.1972 14.7928 7.03138
    endloop
  endfacet
  facet normal 1 0 0
    outer loop
      vertex 33.1972 14.7928 3.51569
      vertex 33.1972 7.72503 7.03138
      vertex 33.1972 7.72503 3.51569
    endloop
  endfacet
  facet normal 0 1 -0
    outer loop
      vertex 33.1972 14.7928 3.51569
      vertex 24.8189 14.7928 7.03138
      vertex 33.1972 14.7928 7.03138
    endloop
  endfacet
  facet normal 0 1 0
    outer loop
      vertex 24.8189 14.7928 7.03138
      vertex 33.1972 14.7928 3.51569
      vertex 24.8189 14.7928 3.51569
    endloop
  endfacet
  facet normal 1 -0 0
    outer loop
      vertex 33.4067 20.0538 3.51569
      vertex 33.4067 28.2951 0.4
      vertex 33.4067 28.2951 3.51569
    endloop
  endfacet
  facet normal 1 0 0
    outer loop
      vertex 33.4067 28.2951 0.4
      vertex 33.4067 20.0538 3.51569
      vertex 33.4067 20.0538 0.4
    endloop
  endfacet
  facet normal 1 -0 0
    outer loop
      vertex 39.6 -0.45 3.51569
      vertex 39.6 14.8905 0.4
      vertex 39.6 14.8905 3.51569
    endloop
  endfacet
  facet normal 1 0 0
    outer loop
      vertex 39.6 14.8905 0.4
      vertex 39.6 -0.45 3.51569
      vertex 39.6 -0.45 0.4
    endloop
  endfacet
  facet normal 0 1 -0
    outer loop
      vertex 39.6 14.8905 0.4
      vertex 33.4027 14.8905 3.51569
      vertex 39.6 14.8905 3.51569
    endloop
  endfacet
  facet normal 0 1 0
    outer loop
      vertex 33.4027 14.8905 3.51569
      vertex 39.6 14.8905 0.4
      vertex 33.4027 14.8905 0.4
    endloop
  endfacet
  facet normal 0 0 1
    outer loop
      vertex 33.4067 28.2951 0.4
      vertex 33.8067 28.2951 0.4
      vertex 33.793 28.3987 0.4
    endloop
  endfacet
  facet normal 0 0 1
    outer loop
      vertex 33.8067 28.2951 0.4
      vertex 33.4067 28.2951 0.4
      vertex 33.8067 20.0538 0.4
    endloop
  endfacet
  facet normal 0 0 1
    outer loop
      vertex 33.4067 28.2951 0.4
      vertex 33.793 28.3987 0.4
      vertex 33.7531 28.4951 0.4
    endloop
  endfacet
  facet normal 0 0 1
    outer loop
      vertex 33.4067 20.0538 0.4
      vertex 33.8067 20.0538 0.4
      vertex 33.4067 28.2951 0.4
    endloop
  endfacet
  facet normal 0 0 1
    outer loop
      vertex 33.4067 28.2951 0.4
      vertex 33.7531 28.4951 0.4
      vertex 33.6895 28.578 0.4
    endloop
  endfacet
  facet normal 0 0 1
    outer loop
      vertex 33.8067 20.0538 0.4
      vertex 33.4067 20.0538 0.4
      vertex 33.793 19.9503 0.4
    endloop
  endfacet
  facet normal 0 0 1
    outer loop
      vertex 33.4067 28.2951 0.4
      vertex 33.6895 28.578 0.4
      vertex 33.6067 28.6415 0.4
    endloop
  endfacet
  facet normal 0 0 1
    outer loop
      vertex 33.793 19.9503 0.4
      vertex 33.4067 20.0538 0.4
      vertex 33.7531 19.8538 0.4
    endloop
  endfacet
  facet normal 0 0 1
    outer loop
      vertex 33.4067 28.2951 0.4
      vertex 33.6067 28.6415 0.4
      vertex 33.5102 28.6815 0.4
    endloop
  endfacet
  facet normal 0 0 1
    outer loop
      vertex 33.7531 19.8538 0.4
      vertex 33.4067 20.0538 0.4
      vertex 33.6895 19.771 0.4
    endloop
  endfacet
  facet normal 0 0 1
    outer loop
      vertex 33.6895 19.771 0.4
      vertex 33.4067 20.0538 0.4
      vertex 33.6067 19.7074 0.4
    endloop
  endfacet
  facet normal 0 0 1
    outer loop
      vertex 33.4067 28.6951 0.4
      vertex 33.4067 28.2951 0.4
      vertex 33.5102 28.6815 0.4
    endloop
  endfacet
  facet normal 0 0 1
    outer loop
      vertex 33.4067 28.6951 0.4
      vertex 14.0511 28.2951 0.4
      vertex 33.4067 28.2951 0.4
    endloop
  endfacet
  facet normal -0 0 1
    outer loop
      vertex 14.051 28.6951 0.4
      vertex 14.0511 28.2951 0.4
      vertex 33.4067 28.6951 0.4
    endloop
  endfacet
  facet normal -0 0 1
    outer loop
      vertex 13.9475 28.6815 0.4
      vertex 14.0511 28.2951 0.4
      vertex 14.051 28.6951 0.4
    endloop
  endfacet
  facet normal -0 0 1
    outer loop
      vertex 13.851 28.6415 0.4
      vertex 14.0511 28.2951 0.4
      vertex 13.9475 28.6815 0.4
    endloop
  endfacet
  facet normal 0 0 1
    outer loop
      vertex 13.651 21.2706 0.4
      vertex 14.0511 28.2951 0.4
      vertex 13.651 28.2951 0.4
    endloop
  endfacet
  facet normal -0 0 1
    outer loop
      vertex 13.7682 28.578 0.4
      vertex 14.0511 28.2951 0.4
      vertex 13.851 28.6415 0.4
    endloop
  endfacet
  facet normal 0 0 1
    outer loop
      vertex 14.0511 28.2951 0.4
      vertex 13.651 21.2706 0.4
      vertex 14.0511 21.0044 0.4
    endloop
  endfacet
  facet normal -0 0 1
    outer loop
      vertex 13.7046 28.4951 0.4
      vertex 14.0511 28.2951 0.4
      vertex 13.7682 28.578 0.4
    endloop
  endfacet
  facet normal -0 0 1
    outer loop
      vertex 13.6647 28.3987 0.4
      vertex 14.0511 28.2951 0.4
      vertex 13.7046 28.4951 0.4
    endloop
  endfacet
  facet normal 0 0 1
    outer loop
      vertex 14.0511 28.2951 0.4
      vertex 13.6647 28.3987 0.4
      vertex 13.651 28.2951 0.4
    endloop
  endfacet
  facet normal 0 0 1
    outer loop
      vertex 14.0511 21.0044 0.4
      vertex 13.651 21.2706 0.4
      vertex 13.9467 21.0044 0.4
    endloop
  endfacet
  facet normal -0 0 1
    outer loop
      vertex 13.6003 21.2044 0.4
      vertex 13.9467 21.0044 0.4
      vertex 13.651 21.2706 0.4
    endloop
  endfacet
  facet normal -0 0 1
    outer loop
      vertex 13.5603 21.1079 0.4
      vertex 13.9467 21.0044 0.4
      vertex 13.6003 21.2044 0.4
    endloop
  endfacet
  facet normal 0 0 1
    outer loop
      vertex 13.9467 21.0044 0.4
      vertex 13.5603 21.1079 0.4
      vertex 13.5577 21.0885 0.4
    endloop
  endfacet
  facet normal 0 0 1
    outer loop
      vertex 13.9467 21.0044 0.4
      vertex 13.5577 21.0885 0.4
      vertex 13.9467 20.6885 0.4
    endloop
  endfacet
  facet normal 0 0 1
    outer loop
      vertex 13.5577 21.0885 0.4
      vertex 6.79874 20.6885 0.4
      vertex 13.9467 20.6885 0.4
    endloop
  endfacet
  facet normal -0 0 1
    outer loop
      vertex 6.79874 21.0885 0.4
      vertex 6.79874 20.6885 0.4
      vertex 13.5577 21.0885 0.4
    endloop
  endfacet
  facet normal -0 0 1
    outer loop
      vertex 6.69521 21.0748 0.4
      vertex 6.79874 20.6885 0.4
      vertex 6.79874 21.0885 0.4
    endloop
  endfacet
  facet normal -0 0 1
    outer loop
      vertex 6.59874 21.0349 0.4
      vertex 6.79874 20.6885 0.4
      vertex 6.69521 21.0748 0.4
    endloop
  endfacet
  facet normal -0 0 1
    outer loop
      vertex 6.5159 20.9713 0.4
      vertex 6.79874 20.6885 0.4
      vertex 6.59874 21.0349 0.4
    endloop
  endfacet
  facet normal -0 0 1
    outer loop
      vertex 6.45233 20.8885 0.4
      vertex 6.79874 20.6885 0.4
      vertex 6.5159 20.9713 0.4
    endloop
  endfacet
  facet normal -0 0 1
    outer loop
      vertex 6.41237 20.792 0.4
      vertex 6.79874 20.6885 0.4
      vertex 6.45233 20.8885 0.4
    endloop
  endfacet
  facet normal 0 0 1
    outer loop
      vertex 6.39874 15.515 0.4
      vertex 6.79874 20.6885 0.4
      vertex 6.39874 20.6885 0.4
    endloop
  endfacet
  facet normal 0 0 1
    outer loop
      vertex 6.79874 20.6885 0.4
      vertex 6.41237 20.792 0.4
      vertex 6.39874 20.6885 0.4
    endloop
  endfacet
  facet normal 0 0 1
    outer loop
      vertex 6.79874 15.1207 0.4
      vertex 6.39874 15.515 0.4
      vertex 6.44168 15.1207 0.4
    endloop
  endfacet
  facet normal 0 0 1
    outer loop
      vertex 6.79874 20.6885 0.4
      vertex 6.39874 15.515 0.4
      vertex 6.79874 15.1207 0.4
    endloop
  endfacet
  facet normal -0 0 1
    outer loop
      vertex 6.33813 15.507 0.4
      vertex 6.44168 15.1207 0.4
      vertex 6.39874 15.515 0.4
    endloop
  endfacet
  facet normal -0 0 1
    outer loop
      vertex 6.24167 15.467 0.4
      vertex 6.44168 15.1207 0.4
      vertex 6.33813 15.507 0.4
    endloop
  endfacet
  facet normal -0 0 1
    outer loop
      vertex 6.15883 15.4035 0.4
      vertex 6.44168 15.1207 0.4
      vertex 6.24167 15.467 0.4
    endloop
  endfacet
  facet normal -0 0 1
    outer loop
      vertex 6.09526 15.3206 0.4
      vertex 6.44168 15.1207 0.4
      vertex 6.15883 15.4035 0.4
    endloop
  endfacet
  facet normal 0 0 1
    outer loop
      vertex 6.44168 15.1207 0.4
      vertex 6.09526 15.3206 0.4
      vertex 6.08276 15.2905 0.4
    endloop
  endfacet
  facet normal 0 0 1
    outer loop
      vertex 6.44168 15.1207 0.4
      vertex 6.08276 15.2905 0.4
      vertex 6.44168 14.8905 0.4
    endloop
  endfacet
  facet normal 0 0 1
    outer loop
      vertex 6.08276 15.2905 0.4
      vertex 0.4 14.8905 0.4
      vertex 6.44168 14.8905 0.4
    endloop
  endfacet
  facet normal -0 0 1
    outer loop
      vertex 0.296463 15.2769 0.4
      vertex 0.4 14.8905 0.4
      vertex 0.399994 15.2905 0.4
    endloop
  endfacet
  facet normal -0 0 1
    outer loop
      vertex 0.399994 15.2905 0.4
      vertex 0.4 14.8905 0.4
      vertex 6.08276 15.2905 0.4
    endloop
  endfacet
  facet normal 0 0 1
    outer loop
      vertex 33.6067 19.7074 0.4
      vertex 33.4067 20.0538 0.4
      vertex 33.5102 19.6674 0.4
    endloop
  endfacet
  facet normal 0 0 1
    outer loop
      vertex 33.4067 20.0538 0.4
      vertex 33.4067 19.6538 0.4
      vertex 33.5102 19.6674 0.4
    endloop
  endfacet
  facet normal 0 0 1
    outer loop
      vertex 33.4067 20.0538 0.4
      vertex 25.4691 19.6538 0.4
      vertex 33.4067 19.6538 0.4
    endloop
  endfacet
  facet normal 0 0 1
    outer loop
      vertex 25.4691 19.6538 0.4
      vertex 25.0691 20.0538 0.4
      vertex 25.4691 15.37 0.4
    endloop
  endfacet
  facet normal -0 0 1
    outer loop
      vertex 25.0691 20.0538 0.4
      vertex 25.4691 19.6538 0.4
      vertex 33.4067 20.0538 0.4
    endloop
  endfacet
  facet normal -0 0 1
    outer loop
      vertex 25.4691 15.37 0.4
      vertex 33.4027 14.97 0.4
      vertex 33.4027 15.37 0.4
    endloop
  endfacet
  facet normal 0 0 1
    outer loop
      vertex 25.4691 15.37 0.4
      vertex 25.0691 14.97 0.4
      vertex 33.4027 14.97 0.4
    endloop
  endfacet
  facet normal 0 0 1
    outer loop
      vertex 25.0691 14.97 0.4
      vertex 25.4691 15.37 0.4
      vertex 25.0691 20.0538 0.4
    endloop
  endfacet
  facet normal 0 0 1
    outer loop
      vertex 39.6 14.8905 0.4
      vertex 40 14.8905 0.4
      vertex 39.9864 14.994 0.4
    endloop
  endfacet
  facet normal 0 0 1
    outer loop
      vertex 40 14.8905 0.4
      vertex 39.6 14.8905 0.4
      vertex 40 -0.449997 0.4
    endloop
  endfacet
  facet normal 0 0 1
    outer loop
      vertex 39.6 14.8905 0.4
      vertex 39.9864 14.994 0.4
      vertex 39.9464 15.0905 0.4
    endloop
  endfacet
  facet normal 0 0 1
    outer loop
      vertex 39.6 -0.45 0.4
      vertex 40 -0.449997 0.4
      vertex 39.6 14.8905 0.4
    endloop
  endfacet
  facet normal 0 0 1
    outer loop
      vertex 39.6 14.8905 0.4
      vertex 39.9464 15.0905 0.4
      vertex 39.8828 15.1733 0.4
    endloop
  endfacet
  facet normal 0 0 1
    outer loop
      vertex 40 -0.449997 0.4
      vertex 39.6 -0.45 0.4
      vertex 39.9864 -0.553528 0.4
    endloop
  endfacet
  facet normal 0 0 1
    outer loop
      vertex 39.6 14.8905 0.4
      vertex 39.8828 15.1733 0.4
      vertex 39.8 15.2369 0.4
    endloop
  endfacet
  facet normal 0 0 1
    outer loop
      vertex 39.9864 -0.553528 0.4
      vertex 39.6 -0.45 0.4
      vertex 39.9464 -0.649994 0.4
    endloop
  endfacet
  facet normal 0 0 1
    outer loop
      vertex 39.6 14.8905 0.4
      vertex 39.8 15.2369 0.4
      vertex 39.7035 15.2769 0.4
    endloop
  endfacet
  facet normal 0 0 1
    outer loop
      vertex 39.9464 -0.649994 0.4
      vertex 39.6 -0.45 0.4
      vertex 39.8828 -0.732834 0.4
    endloop
  endfacet
  facet normal 0 0 1
    outer loop
      vertex 39.8828 -0.732834 0.4
      vertex 39.6 -0.45 0.4
      vertex 39.8 -0.796402 0.4
    endloop
  endfacet
  facet normal 0 0 1
    outer loop
      vertex 39.6 15.2905 0.4
      vertex 39.6 14.8905 0.4
      vertex 39.7035 15.2769 0.4
    endloop
  endfacet
  facet normal -0 0 1
    outer loop
      vertex 33.6365 15.2905 0.4
      vertex 39.6 14.8905 0.4
      vertex 39.6 15.2905 0.4
    endloop
  endfacet
  facet normal 0 0 1
    outer loop
      vertex 33.4027 14.97 0.4
      vertex 33.6027 15.3164 0.4
      vertex 33.5062 15.3564 0.4
    endloop
  endfacet
  facet normal 0 0 1
    outer loop
      vertex 33.4027 14.97 0.4
      vertex 33.5062 15.3564 0.4
      vertex 33.4027 15.37 0.4
    endloop
  endfacet
  facet normal 0 0 1
    outer loop
      vertex 33.6027 15.3164 0.4
      vertex 33.4027 14.97 0.4
      vertex 33.6365 15.2905 0.4
    endloop
  endfacet
  facet normal 0 0 1
    outer loop
      vertex 33.4027 14.8905 0.4
      vertex 33.6365 15.2905 0.4
      vertex 33.4027 14.97 0.4
    endloop
  endfacet
  facet normal 0 0 1
    outer loop
      vertex 33.6365 15.2905 0.4
      vertex 33.4027 14.8905 0.4
      vertex 39.6 14.8905 0.4
    endloop
  endfacet
  facet normal 0 0 1
    outer loop
      vertex 39.8 -0.796402 0.4
      vertex 39.6 -0.45 0.4
      vertex 39.7035 -0.836365 0.4
    endloop
  endfacet
  facet normal 0 0 1
    outer loop
      vertex 39.6 -0.45 0.4
      vertex 39.6 -0.849991 0.4
      vertex 39.7035 -0.836365 0.4
    endloop
  endfacet
  facet normal -0 0 1
    outer loop
      vertex 0.4 -0.45 0.4
      vertex 39.6 -0.849991 0.4
      vertex 39.6 -0.45 0.4
    endloop
  endfacet
  facet normal 0 0 1
    outer loop
      vertex 0.4 -0.45 0.4
      vertex 0.399994 -0.849991 0.4
      vertex 39.6 -0.849991 0.4
    endloop
  endfacet
  facet normal 0 0 1
    outer loop
      vertex 0.4 14.8905 0.4
      vertex 0 14.8905 0.4
      vertex 0.4 -0.45 0.4
    endloop
  endfacet
  facet normal -0 0 1
    outer loop
      vertex 0.199997 15.2369 0.4
      vertex 0.4 14.8905 0.4
      vertex 0.296463 15.2769 0.4
    endloop
  endfacet
  facet normal -0 0 1
    outer loop
      vertex 0 -0.449997 0.4
      vertex 0.4 -0.45 0.4
      vertex 0 14.8905 0.4
    endloop
  endfacet
  facet normal -0 0 1
    outer loop
      vertex 0.117157 15.1733 0.4
      vertex 0.4 14.8905 0.4
      vertex 0.199997 15.2369 0.4
    endloop
  endfacet
  facet normal 0 -0 1
    outer loop
      vertex 0.0136261 -0.553528 0.4
      vertex 0.4 -0.45 0.4
      vertex 0 -0.449997 0.4
    endloop
  endfacet
  facet normal -0 0 1
    outer loop
      vertex 0.0535889 15.0905 0.4
      vertex 0.4 14.8905 0.4
      vertex 0.117157 15.1733 0.4
    endloop
  endfacet
  facet normal 0 0 1
    outer loop
      vertex 0.4 -0.45 0.4
      vertex 0.296463 -0.836365 0.4
      vertex 0.399994 -0.849991 0.4
    endloop
  endfacet
  facet normal -0 0 1
    outer loop
      vertex 0.0136261 14.994 0.4
      vertex 0.4 14.8905 0.4
      vertex 0.0535889 15.0905 0.4
    endloop
  endfacet
  facet normal 0 0 1
    outer loop
      vertex 0.4 -0.45 0.4
      vertex 0.199997 -0.796402 0.4
      vertex 0.296463 -0.836365 0.4
    endloop
  endfacet
  facet normal 0 0 1
    outer loop
      vertex 0.4 14.8905 0.4
      vertex 0.0136261 14.994 0.4
      vertex 0 14.8905 0.4
    endloop
  endfacet
  facet normal 0 0 1
    outer loop
      vertex 0.4 -0.45 0.4
      vertex 0.117157 -0.732834 0.4
      vertex 0.199997 -0.796402 0.4
    endloop
  endfacet
  facet normal 0 0 1
    outer loop
      vertex 0.4 -0.45 0.4
      vertex 0.0535889 -0.649994 0.4
      vertex 0.117157 -0.732834 0.4
    endloop
  endfacet
  facet normal 0 0 1
    outer loop
      vertex 0.4 -0.45 0.4
      vertex 0.0136261 -0.553528 0.4
      vertex 0.0535889 -0.649994 0.4
    endloop
  endfacet
  facet normal 0.382613 -0.923909 0
    outer loop
      vertex 39.7035 -0.836365 0
      vertex 39.8 -0.796402 0.4
      vertex 39.7035 -0.836365 0.4
    endloop
  endfacet
  facet normal 0.382613 -0.923909 0
    outer loop
      vertex 39.8 -0.796402 0.4
      vertex 39.7035 -0.836365 0
      vertex 39.8 -0.796402 0
    endloop
  endfacet
  facet normal 0.608962 -0.793199 0
    outer loop
      vertex 39.8 -0.796402 0
      vertex 39.8828 -0.732834 0.4
      vertex 39.8 -0.796402 0.4
    endloop
  endfacet
  facet normal 0.608962 -0.793199 0
    outer loop
      vertex 39.8828 -0.732834 0.4
      vertex 39.8 -0.796402 0
      vertex 39.8828 -0.732834 0
    endloop
  endfacet
  facet normal 0.793193 -0.60897 0
    outer loop
      vertex 39.8828 -0.732834 0.4
      vertex 39.9464 -0.649994 0
      vertex 39.9464 -0.649994 0.4
    endloop
  endfacet
  facet normal 0.793193 -0.60897 0
    outer loop
      vertex 39.9464 -0.649994 0
      vertex 39.8828 -0.732834 0.4
      vertex 39.8828 -0.732834 0
    endloop
  endfacet
  facet normal 0.923736 -0.383031 0
    outer loop
      vertex 39.9464 -0.649994 0.4
      vertex 39.9864 -0.553528 0
      vertex 39.9864 -0.553528 0.4
    endloop
  endfacet
  facet normal 0.923736 -0.383031 0
    outer loop
      vertex 39.9864 -0.553528 0
      vertex 39.9464 -0.649994 0.4
      vertex 39.9464 -0.649994 0
    endloop
  endfacet
  facet normal 0.991482 -0.130243 0
    outer loop
      vertex 39.9864 -0.553528 0.4
      vertex 40 -0.449997 0
      vertex 40 -0.449997 0.4
    endloop
  endfacet
  facet normal 0.991482 -0.130243 0
    outer loop
      vertex 40 -0.449997 0
      vertex 39.9864 -0.553528 0.4
      vertex 39.9864 -0.553528 0
    endloop
  endfacet
  facet normal 1 -0 0
    outer loop
      vertex 40 -0.449997 0.4
      vertex 40 14.8905 0
      vertex 40 14.8905 0.4
    endloop
  endfacet
  facet normal 1 0 0
    outer loop
      vertex 40 14.8905 0
      vertex 40 -0.449997 0.4
      vertex 40 -0.449997 0
    endloop
  endfacet
  facet normal 0.991477 0.130281 0
    outer loop
      vertex 40 14.8905 0.4
      vertex 39.9864 14.994 0
      vertex 39.9864 14.994 0.4
    endloop
  endfacet
  facet normal 0.991477 0.130281 0
    outer loop
      vertex 39.9864 14.994 0
      vertex 40 14.8905 0.4
      vertex 40 14.8905 0
    endloop
  endfacet
  facet normal 0.923783 0.382915 0
    outer loop
      vertex 39.9864 14.994 0.4
      vertex 39.9464 15.0905 0
      vertex 39.9464 15.0905 0.4
    endloop
  endfacet
  facet normal 0.923783 0.382915 0
    outer loop
      vertex 39.9464 15.0905 0
      vertex 39.9864 14.994 0.4
      vertex 39.9864 14.994 0
    endloop
  endfacet
  facet normal 0.793051 0.609155 0
    outer loop
      vertex 39.9464 15.0905 0.4
      vertex 39.8828 15.1733 0
      vertex 39.8828 15.1733 0.4
    endloop
  endfacet
  facet normal 0.793051 0.609155 0
    outer loop
      vertex 39.8828 15.1733 0
      vertex 39.9464 15.0905 0.4
      vertex 39.9464 15.0905 0
    endloop
  endfacet
  facet normal 0.609155 0.793051 -0
    outer loop
      vertex 39.8828 15.1733 0
      vertex 39.8 15.2369 0.4
      vertex 39.8828 15.1733 0.4
    endloop
  endfacet
  facet normal 0.609155 0.793051 0
    outer loop
      vertex 39.8 15.2369 0.4
      vertex 39.8828 15.1733 0
      vertex 39.8 15.2369 0
    endloop
  endfacet
  facet normal 0.382915 0.923783 -0
    outer loop
      vertex 39.8 15.2369 0
      vertex 39.7035 15.2769 0.4
      vertex 39.8 15.2369 0.4
    endloop
  endfacet
  facet normal 0.382915 0.923783 0
    outer loop
      vertex 39.7035 15.2769 0.4
      vertex 39.8 15.2369 0
      vertex 39.7035 15.2769 0
    endloop
  endfacet
  facet normal 0.130281 0.991477 -0
    outer loop
      vertex 39.7035 15.2769 0
      vertex 39.6 15.2905 0.4
      vertex 39.7035 15.2769 0.4
    endloop
  endfacet
  facet normal 0.130281 0.991477 0
    outer loop
      vertex 39.6 15.2905 0.4
      vertex 39.7035 15.2769 0
      vertex 39.6 15.2905 0
    endloop
  endfacet
  facet normal 0 1 -0
    outer loop
      vertex 39.6 15.2905 0
      vertex 33.6365 15.2905 0.4
      vertex 39.6 15.2905 0.4
    endloop
  endfacet
  facet normal 0 1 0
    outer loop
      vertex 33.6365 15.2905 0.4
      vertex 39.6 15.2905 0
      vertex 33.6365 15.2905 0
    endloop
  endfacet
  facet normal 0.608234 0.793758 -0
    outer loop
      vertex 33.6365 15.2905 0
      vertex 33.6027 15.3164 0.4
      vertex 33.6365 15.2905 0.4
    endloop
  endfacet
  facet normal 0.608234 0.793758 0
    outer loop
      vertex 33.6027 15.3164 0.4
      vertex 33.6365 15.2905 0
      vertex 33.6027 15.3164 0
    endloop
  endfacet
  facet normal 0.382915 0.923783 -0
    outer loop
      vertex 33.6027 15.3164 0
      vertex 33.5062 15.3564 0.4
      vertex 33.6027 15.3164 0.4
    endloop
  endfacet
  facet normal 0.382915 0.923783 0
    outer loop
      vertex 33.5062 15.3564 0.4
      vertex 33.6027 15.3164 0
      vertex 33.5062 15.3564 0
    endloop
  endfacet
  facet normal 0.130281 0.991477 -0
    outer loop
      vertex 33.5062 15.3564 0
      vertex 33.4027 15.37 0.4
      vertex 33.5062 15.3564 0.4
    endloop
  endfacet
  facet normal 0.130281 0.991477 0
    outer loop
      vertex 33.4027 15.37 0.4
      vertex 33.5062 15.3564 0
      vertex 33.4027 15.37 0
    endloop
  endfacet
  facet normal 0 1 -0
    outer loop
      vertex 33.4027 15.37 0
      vertex 25.4691 15.37 0.4
      vertex 33.4027 15.37 0.4
    endloop
  endfacet
  facet normal 0 1 0
    outer loop
      vertex 25.4691 15.37 0.4
      vertex 33.4027 15.37 0
      vertex 25.4691 15.37 0
    endloop
  endfacet
  facet normal 1 -0 0
    outer loop
      vertex 25.4691 15.37 0.4
      vertex 25.4691 19.6538 0
      vertex 25.4691 19.6538 0.4
    endloop
  endfacet
  facet normal 1 0 0
    outer loop
      vertex 25.4691 19.6538 0
      vertex 25.4691 15.37 0.4
      vertex 25.4691 15.37 0
    endloop
  endfacet
  facet normal 0 -1 0
    outer loop
      vertex 25.4691 19.6538 0
      vertex 33.4067 19.6538 0.4
      vertex 25.4691 19.6538 0.4
    endloop
  endfacet
  facet normal 0 -1 -0
    outer loop
      vertex 33.4067 19.6538 0.4
      vertex 25.4691 19.6538 0
      vertex 33.4067 19.6538 0
    endloop
  endfacet
  facet normal 0.130281 -0.991477 0
    outer loop
      vertex 33.4067 19.6538 0
      vertex 33.5102 19.6674 0.4
      vertex 33.4067 19.6538 0.4
    endloop
  endfacet
  facet normal 0.130281 -0.991477 0
    outer loop
      vertex 33.5102 19.6674 0.4
      vertex 33.4067 19.6538 0
      vertex 33.5102 19.6674 0
    endloop
  endfacet
  facet normal 0.382915 -0.923783 0
    outer loop
      vertex 33.5102 19.6674 0
      vertex 33.6067 19.7074 0.4
      vertex 33.5102 19.6674 0.4
    endloop
  endfacet
  facet normal 0.382915 -0.923783 0
    outer loop
      vertex 33.6067 19.7074 0.4
      vertex 33.5102 19.6674 0
      vertex 33.6067 19.7074 0
    endloop
  endfacet
  facet normal 0.609155 -0.793051 0
    outer loop
      vertex 33.6067 19.7074 0
      vertex 33.6895 19.771 0.4
      vertex 33.6067 19.7074 0.4
    endloop
  endfacet
  facet normal 0.609155 -0.793051 0
    outer loop
      vertex 33.6895 19.771 0.4
      vertex 33.6067 19.7074 0
      vertex 33.6895 19.771 0
    endloop
  endfacet
  facet normal 0.793051 -0.609155 0
    outer loop
      vertex 33.6895 19.771 0.4
      vertex 33.7531 19.8538 0
      vertex 33.7531 19.8538 0.4
    endloop
  endfacet
  facet normal 0.793051 -0.609155 0
    outer loop
      vertex 33.7531 19.8538 0
      vertex 33.6895 19.771 0.4
      vertex 33.6895 19.771 0
    endloop
  endfacet
  facet normal 0.924122 -0.382098 0
    outer loop
      vertex 33.7531 19.8538 0.4
      vertex 33.793 19.9503 0
      vertex 33.793 19.9503 0.4
    endloop
  endfacet
  facet normal 0.924122 -0.382098 0
    outer loop
      vertex 33.793 19.9503 0
      vertex 33.7531 19.8538 0.4
      vertex 33.7531 19.8538 0
    endloop
  endfacet
  facet normal 0.991353 -0.131223 0
    outer loop
      vertex 33.793 19.9503 0.4
      vertex 33.8067 20.0538 0
      vertex 33.8067 20.0538 0.4
    endloop
  endfacet
  facet normal 0.991353 -0.131223 0
    outer loop
      vertex 33.8067 20.0538 0
      vertex 33.793 19.9503 0.4
      vertex 33.793 19.9503 0
    endloop
  endfacet
  facet normal 1 -0 0
    outer loop
      vertex 33.8067 20.0538 0.4
      vertex 33.8067 28.2951 0
      vertex 33.8067 28.2951 0.4
    endloop
  endfacet
  facet normal 1 0 0
    outer loop
      vertex 33.8067 28.2951 0
      vertex 33.8067 20.0538 0.4
      vertex 33.8067 20.0538 0
    endloop
  endfacet
  facet normal 0.991369 0.131098 0
    outer loop
      vertex 33.8067 28.2951 0.4
      vertex 33.793 28.3987 0
      vertex 33.793 28.3987 0.4
    endloop
  endfacet
  facet normal 0.991369 0.131098 0
    outer loop
      vertex 33.793 28.3987 0
      vertex 33.8067 28.2951 0.4
      vertex 33.8067 28.2951 0
    endloop
  endfacet
  facet normal 0.923982 0.382436 0
    outer loop
      vertex 33.793 28.3987 0.4
      vertex 33.7531 28.4951 0
      vertex 33.7531 28.4951 0.4
    endloop
  endfacet
  facet normal 0.923982 0.382436 0
    outer loop
      vertex 33.7531 28.4951 0
      vertex 33.793 28.3987 0.4
      vertex 33.793 28.3987 0
    endloop
  endfacet
  facet normal 0.793406 0.608693 0
    outer loop
      vertex 33.7531 28.4951 0.4
      vertex 33.6895 28.578 0
      vertex 33.6895 28.578 0.4
    endloop
  endfacet
  facet normal 0.793406 0.608693 0
    outer loop
      vertex 33.6895 28.578 0
      vertex 33.7531 28.4951 0.4
      vertex 33.7531 28.4951 0
    endloop
  endfacet
  facet normal 0.608552 0.793514 -0
    outer loop
      vertex 33.6895 28.578 0
      vertex 33.6067 28.6415 0.4
      vertex 33.6895 28.578 0.4
    endloop
  endfacet
  facet normal 0.608552 0.793514 0
    outer loop
      vertex 33.6067 28.6415 0.4
      vertex 33.6895 28.578 0
      vertex 33.6067 28.6415 0
    endloop
  endfacet
  facet normal 0.382915 0.923783 -0
    outer loop
      vertex 33.6067 28.6415 0
      vertex 33.5102 28.6815 0.4
      vertex 33.6067 28.6415 0.4
    endloop
  endfacet
  facet normal 0.382915 0.923783 0
    outer loop
      vertex 33.5102 28.6815 0.4
      vertex 33.6067 28.6415 0
      vertex 33.5102 28.6815 0
    endloop
  endfacet
  facet normal 0.130281 0.991477 -0
    outer loop
      vertex 33.5102 28.6815 0
      vertex 33.4067 28.6951 0.4
      vertex 33.5102 28.6815 0.4
    endloop
  endfacet
  facet normal 0.130281 0.991477 0
    outer loop
      vertex 33.4067 28.6951 0.4
      vertex 33.5102 28.6815 0
      vertex 33.4067 28.6951 0
    endloop
  endfacet
  facet normal 0 1 -0
    outer loop
      vertex 33.4067 28.6951 0
      vertex 14.051 28.6951 0.4
      vertex 33.4067 28.6951 0.4
    endloop
  endfacet
  facet normal 0 1 0
    outer loop
      vertex 14.051 28.6951 0.4
      vertex 33.4067 28.6951 0
      vertex 14.051 28.6951 0
    endloop
  endfacet
  facet normal -0.130281 0.991477 0
    outer loop
      vertex 14.051 28.6951 0
      vertex 13.9475 28.6815 0.4
      vertex 14.051 28.6951 0.4
    endloop
  endfacet
  facet normal -0.130281 0.991477 0
    outer loop
      vertex 13.9475 28.6815 0.4
      vertex 14.051 28.6951 0
      vertex 13.9475 28.6815 0
    endloop
  endfacet
  facet normal -0.382915 0.923783 0
    outer loop
      vertex 13.9475 28.6815 0
      vertex 13.851 28.6415 0.4
      vertex 13.9475 28.6815 0.4
    endloop
  endfacet
  facet normal -0.382915 0.923783 0
    outer loop
      vertex 13.851 28.6415 0.4
      vertex 13.9475 28.6815 0
      vertex 13.851 28.6415 0
    endloop
  endfacet
  facet normal -0.608552 0.793514 0
    outer loop
      vertex 13.851 28.6415 0
      vertex 13.7682 28.578 0.4
      vertex 13.851 28.6415 0.4
    endloop
  endfacet
  facet normal -0.608552 0.793514 0
    outer loop
      vertex 13.7682 28.578 0.4
      vertex 13.851 28.6415 0
      vertex 13.7682 28.578 0
    endloop
  endfacet
  facet normal -0.793406 0.608693 0
    outer loop
      vertex 13.7046 28.4951 0
      vertex 13.7682 28.578 0.4
      vertex 13.7682 28.578 0
    endloop
  endfacet
  facet normal -0.793406 0.608693 0
    outer loop
      vertex 13.7682 28.578 0.4
      vertex 13.7046 28.4951 0
      vertex 13.7046 28.4951 0.4
    endloop
  endfacet
  facet normal -0.923982 0.382436 0
    outer loop
      vertex 13.6647 28.3987 0
      vertex 13.7046 28.4951 0.4
      vertex 13.7046 28.4951 0
    endloop
  endfacet
  facet normal -0.923982 0.382436 0
    outer loop
      vertex 13.7046 28.4951 0.4
      vertex 13.6647 28.3987 0
      vertex 13.6647 28.3987 0.4
    endloop
  endfacet
  facet normal -0.991369 0.131098 0
    outer loop
      vertex 13.651 28.2951 0
      vertex 13.6647 28.3987 0.4
      vertex 13.6647 28.3987 0
    endloop
  endfacet
  facet normal -0.991369 0.131098 0
    outer loop
      vertex 13.6647 28.3987 0.4
      vertex 13.651 28.2951 0
      vertex 13.651 28.2951 0.4
    endloop
  endfacet
  facet normal -1 0 0
    outer loop
      vertex 13.651 21.2706 0
      vertex 13.651 28.2951 0.4
      vertex 13.651 28.2951 0
    endloop
  endfacet
  facet normal -1 -0 0
    outer loop
      vertex 13.651 28.2951 0.4
      vertex 13.651 21.2706 0
      vertex 13.651 21.2706 0.4
    endloop
  endfacet
  facet normal -0.793915 0.608029 0
    outer loop
      vertex 13.6003 21.2044 0
      vertex 13.651 21.2706 0.4
      vertex 13.651 21.2706 0
    endloop
  endfacet
  facet normal -0.793915 0.608029 0
    outer loop
      vertex 13.651 21.2706 0.4
      vertex 13.6003 21.2044 0
      vertex 13.6003 21.2044 0.4
    endloop
  endfacet
  facet normal -0.923783 0.382915 0
    outer loop
      vertex 13.5603 21.1079 0
      vertex 13.6003 21.2044 0.4
      vertex 13.6003 21.2044 0
    endloop
  endfacet
  facet normal -0.923783 0.382915 0
    outer loop
      vertex 13.6003 21.2044 0.4
      vertex 13.5603 21.1079 0
      vertex 13.5603 21.1079 0.4
    endloop
  endfacet
  facet normal -0.991138 0.132833 0
    outer loop
      vertex 13.5577 21.0885 0
      vertex 13.5603 21.1079 0.4
      vertex 13.5603 21.1079 0
    endloop
  endfacet
  facet normal -0.991138 0.132833 0
    outer loop
      vertex 13.5603 21.1079 0.4
      vertex 13.5577 21.0885 0
      vertex 13.5577 21.0885 0.4
    endloop
  endfacet
  facet normal 0 1 -0
    outer loop
      vertex 13.5577 21.0885 0
      vertex 6.79874 21.0885 0.4
      vertex 13.5577 21.0885 0.4
    endloop
  endfacet
  facet normal 0 1 0
    outer loop
      vertex 6.79874 21.0885 0.4
      vertex 13.5577 21.0885 0
      vertex 6.79874 21.0885 0
    endloop
  endfacet
  facet normal -0.131185 0.991358 0
    outer loop
      vertex 6.79874 21.0885 0
      vertex 6.69521 21.0748 0.4
      vertex 6.79874 21.0885 0.4
    endloop
  endfacet
  facet normal -0.131185 0.991358 0
    outer loop
      vertex 6.69521 21.0748 0.4
      vertex 6.79874 21.0885 0
      vertex 6.69521 21.0748 0
    endloop
  endfacet
  facet normal -0.382199 0.92408 0
    outer loop
      vertex 6.69521 21.0748 0
      vertex 6.59874 21.0349 0.4
      vertex 6.69521 21.0748 0.4
    endloop
  endfacet
  facet normal -0.382199 0.92408 0
    outer loop
      vertex 6.59874 21.0349 0.4
      vertex 6.69521 21.0748 0
      vertex 6.59874 21.0349 0
    endloop
  endfacet
  facet normal -0.60897 0.793193 0
    outer loop
      vertex 6.59874 21.0349 0
      vertex 6.5159 20.9713 0.4
      vertex 6.59874 21.0349 0.4
    endloop
  endfacet
  facet normal -0.60897 0.793193 0
    outer loop
      vertex 6.5159 20.9713 0.4
      vertex 6.59874 21.0349 0
      vertex 6.5159 20.9713 0
    endloop
  endfacet
  facet normal -0.79319 0.608974 0
    outer loop
      vertex 6.45233 20.8885 0
      vertex 6.5159 20.9713 0.4
      vertex 6.5159 20.9713 0
    endloop
  endfacet
  facet normal -0.79319 0.608974 0
    outer loop
      vertex 6.5159 20.9713 0.4
      vertex 6.45233 20.8885 0
      vertex 6.45233 20.8885 0.4
    endloop
  endfacet
  facet normal -0.923919 0.382589 0
    outer loop
      vertex 6.41237 20.792 0
      vertex 6.45233 20.8885 0.4
      vertex 6.45233 20.8885 0
    endloop
  endfacet
  facet normal -0.923919 0.382589 0
    outer loop
      vertex 6.45233 20.8885 0.4
      vertex 6.41237 20.792 0
      vertex 6.41237 20.792 0.4
    endloop
  endfacet
  facet normal -0.99144 0.130564 0
    outer loop
      vertex 6.39874 20.6885 0
      vertex 6.41237 20.792 0.4
      vertex 6.41237 20.792 0
    endloop
  endfacet
  facet normal -0.99144 0.130564 0
    outer loop
      vertex 6.41237 20.792 0.4
      vertex 6.39874 20.6885 0
      vertex 6.39874 20.6885 0.4
    endloop
  endfacet
  facet normal -1 0 0
    outer loop
      vertex 6.39874 15.515 0
      vertex 6.39874 20.6885 0.4
      vertex 6.39874 20.6885 0
    endloop
  endfacet
  facet normal -1 -0 0
    outer loop
      vertex 6.39874 20.6885 0.4
      vertex 6.39874 15.515 0
      vertex 6.39874 15.515 0.4
    endloop
  endfacet
  facet normal -0.130856 0.991401 0
    outer loop
      vertex 6.39874 15.515 0
      vertex 6.33813 15.507 0.4
      vertex 6.39874 15.515 0.4
    endloop
  endfacet
  facet normal -0.130856 0.991401 0
    outer loop
      vertex 6.33813 15.507 0.4
      vertex 6.39874 15.515 0
      vertex 6.33813 15.507 0
    endloop
  endfacet
  facet normal -0.383051 0.923727 0
    outer loop
      vertex 6.33813 15.507 0
      vertex 6.24167 15.467 0.4
      vertex 6.33813 15.507 0.4
    endloop
  endfacet
  facet normal -0.383051 0.923727 0
    outer loop
      vertex 6.24167 15.467 0.4
      vertex 6.33813 15.507 0
      vertex 6.24167 15.467 0
    endloop
  endfacet
  facet normal -0.608367 0.793656 0
    outer loop
      vertex 6.24167 15.467 0
      vertex 6.15883 15.4035 0.4
      vertex 6.24167 15.467 0.4
    endloop
  endfacet
  facet normal -0.608367 0.793656 0
    outer loop
      vertex 6.15883 15.4035 0.4
      vertex 6.24167 15.467 0
      vertex 6.15883 15.4035 0
    endloop
  endfacet
  facet normal -0.793545 0.608512 0
    outer loop
      vertex 6.09526 15.3206 0
      vertex 6.15883 15.4035 0.4
      vertex 6.15883 15.4035 0
    endloop
  endfacet
  facet normal -0.793545 0.608512 0
    outer loop
      vertex 6.15883 15.4035 0.4
      vertex 6.09526 15.3206 0
      vertex 6.09526 15.3206 0.4
    endloop
  endfacet
  facet normal -0.92353 0.383526 0
    outer loop
      vertex 6.08276 15.2905 0
      vertex 6.09526 15.3206 0.4
      vertex 6.09526 15.3206 0
    endloop
  endfacet
  facet normal -0.92353 0.383526 0
    outer loop
      vertex 6.09526 15.3206 0.4
      vertex 6.08276 15.2905 0
      vertex 6.08276 15.2905 0.4
    endloop
  endfacet
  facet normal 0 1 -0
    outer loop
      vertex 6.08276 15.2905 0
      vertex 0.399994 15.2905 0.4
      vertex 6.08276 15.2905 0.4
    endloop
  endfacet
  facet normal 0 1 0
    outer loop
      vertex 0.399994 15.2905 0.4
      vertex 6.08276 15.2905 0
      vertex 0.399994 15.2905 0
    endloop
  endfacet
  facet normal -0.130243 0.991482 0
    outer loop
      vertex 0.399994 15.2905 0
      vertex 0.296463 15.2769 0.4
      vertex 0.399994 15.2905 0.4
    endloop
  endfacet
  facet normal -0.130243 0.991482 0
    outer loop
      vertex 0.296463 15.2769 0.4
      vertex 0.399994 15.2905 0
      vertex 0.296463 15.2769 0
    endloop
  endfacet
  facet normal -0.383031 0.923736 0
    outer loop
      vertex 0.296463 15.2769 0
      vertex 0.199997 15.2369 0.4
      vertex 0.296463 15.2769 0.4
    endloop
  endfacet
  facet normal -0.383031 0.923736 0
    outer loop
      vertex 0.199997 15.2369 0.4
      vertex 0.296463 15.2769 0
      vertex 0.199997 15.2369 0
    endloop
  endfacet
  facet normal -0.60897 0.793193 0
    outer loop
      vertex 0.199997 15.2369 0
      vertex 0.117157 15.1733 0.4
      vertex 0.199997 15.2369 0.4
    endloop
  endfacet
  facet normal -0.60897 0.793193 0
    outer loop
      vertex 0.117157 15.1733 0.4
      vertex 0.199997 15.2369 0
      vertex 0.117157 15.1733 0
    endloop
  endfacet
  facet normal -0.793199 0.608963 0
    outer loop
      vertex 0.0535889 15.0905 0
      vertex 0.117157 15.1733 0.4
      vertex 0.117157 15.1733 0
    endloop
  endfacet
  facet normal -0.793199 0.608963 0
    outer loop
      vertex 0.117157 15.1733 0.4
      vertex 0.0535889 15.0905 0
      vertex 0.0535889 15.0905 0.4
    endloop
  endfacet
  facet normal -0.923909 0.382611 0
    outer loop
      vertex 0.0136261 14.994 0
      vertex 0.0535889 15.0905 0.4
      vertex 0.0535889 15.0905 0
    endloop
  endfacet
  facet normal -0.923909 0.382611 0
    outer loop
      vertex 0.0535889 15.0905 0.4
      vertex 0.0136261 14.994 0
      vertex 0.0136261 14.994 0.4
    endloop
  endfacet
  facet normal -0.991445 0.130527 0
    outer loop
      vertex 0 14.8905 0
      vertex 0.0136261 14.994 0.4
      vertex 0.0136261 14.994 0
    endloop
  endfacet
  facet normal -0.991445 0.130527 0
    outer loop
      vertex 0.0136261 14.994 0.4
      vertex 0 14.8905 0
      vertex 0 14.8905 0.4
    endloop
  endfacet
  facet normal -1 0 0
    outer loop
      vertex 0 -0.449997 0
      vertex 0 14.8905 0.4
      vertex 0 14.8905 0
    endloop
  endfacet
  facet normal -1 -0 0
    outer loop
      vertex 0 14.8905 0.4
      vertex 0 -0.449997 0
      vertex 0 -0.449997 0.4
    endloop
  endfacet
  facet normal -0.99145 -0.130488 0
    outer loop
      vertex 0.0136261 -0.553528 0
      vertex 0 -0.449997 0.4
      vertex 0 -0.449997 0
    endloop
  endfacet
  facet normal -0.99145 -0.130488 0
    outer loop
      vertex 0 -0.449997 0.4
      vertex 0.0136261 -0.553528 0
      vertex 0.0136261 -0.553528 0.4
    endloop
  endfacet
  facet normal -0.923862 -0.382727 0
    outer loop
      vertex 0.0535889 -0.649994 0
      vertex 0.0136261 -0.553528 0.4
      vertex 0.0136261 -0.553528 0
    endloop
  endfacet
  facet normal -0.923862 -0.382727 0
    outer loop
      vertex 0.0136261 -0.553528 0.4
      vertex 0.0535889 -0.649994 0
      vertex 0.0535889 -0.649994 0.4
    endloop
  endfacet
  facet normal -0.793341 -0.608778 0
    outer loop
      vertex 0.117157 -0.732834 0
      vertex 0.0535889 -0.649994 0.4
      vertex 0.0535889 -0.649994 0
    endloop
  endfacet
  facet normal -0.793341 -0.608778 0
    outer loop
      vertex 0.0535889 -0.649994 0.4
      vertex 0.117157 -0.732834 0
      vertex 0.117157 -0.732834 0.4
    endloop
  endfacet
  facet normal -0.608777 -0.793341 0
    outer loop
      vertex 0.117157 -0.732834 0
      vertex 0.199997 -0.796402 0.4
      vertex 0.117157 -0.732834 0.4
    endloop
  endfacet
  facet normal -0.608777 -0.793341 -0
    outer loop
      vertex 0.199997 -0.796402 0.4
      vertex 0.117157 -0.732834 0
      vertex 0.199997 -0.796402 0
    endloop
  endfacet
  facet normal -0.382728 -0.923861 0
    outer loop
      vertex 0.199997 -0.796402 0
      vertex 0.296463 -0.836365 0.4
      vertex 0.199997 -0.796402 0.4
    endloop
  endfacet
  facet normal -0.382728 -0.923861 -0
    outer loop
      vertex 0.296463 -0.836365 0.4
      vertex 0.199997 -0.796402 0
      vertex 0.296463 -0.836365 0
    endloop
  endfacet
  facet normal -0.130487 -0.99145 0
    outer loop
      vertex 0.296463 -0.836365 0
      vertex 0.399994 -0.849991 0.4
      vertex 0.296463 -0.836365 0.4
    endloop
  endfacet
  facet normal -0.130487 -0.99145 -0
    outer loop
      vertex 0.399994 -0.849991 0.4
      vertex 0.296463 -0.836365 0
      vertex 0.399994 -0.849991 0
    endloop
  endfacet
  facet normal 0 -1 0
    outer loop
      vertex 0.399994 -0.849991 0
      vertex 39.6 -0.849991 0.4
      vertex 0.399994 -0.849991 0.4
    endloop
  endfacet
  facet normal 0 -1 -0
    outer loop
      vertex 39.6 -0.849991 0.4
      vertex 0.399994 -0.849991 0
      vertex 39.6 -0.849991 0
    endloop
  endfacet
  facet normal 0.130526 -0.991445 0
    outer loop
      vertex 39.6 -0.849991 0
      vertex 39.7035 -0.836365 0.4
      vertex 39.6 -0.849991 0.4
    endloop
  endfacet
  facet normal 0.130526 -0.991445 0
    outer loop
      vertex 39.7035 -0.836365 0.4
      vertex 39.6 -0.849991 0
      vertex 39.7035 -0.836365 0
    endloop
  endfacet
endsolid OpenSCAD_Model
