<svg xmlns="http://www.w3.org/2000/svg" width="358" height="510" viewBox="0 0 358 510">
<rect width="100%" height="100%" fill="#f5f1e8"/>
<polygon points="323.1,480.0 324.6,476.7 325.6,473.5 326.0,470.2 325.9,467.0 326.8,463.7 328.0,460.4 327.3,457.2 326.7,453.9 317.0,450.7 308.7,447.4 308.4,444.1 308.6,440.9 317.0,437.6 317.3,434.3 316.4,431.1 315.6,427.8 311.9,424.6 306.0,421.3 305.2,418.0 305.6,414.8 306.0,411.5 306.2,408.3 306.3,405.0 306.6,401.7 306.5,398.5 305.4,395.2 304.1,392.0 303.0,388.7 302.4,385.4 302.2,382.2 301.4,378.9 300.4,375.7 300.5,372.4 301.1,369.1 301.6,365.9 301.9,362.6 302.6,359.3 309.2,356.1 317.3,352.8 319.8,349.6 321.0,346.3 322.0,343.0 322.8,339.8 323.1,336.5 320.8,333.3 313.6,330.0 306.2,326.7 303.2,323.5 302.1,320.2 301.4,317.0 301.1,313.7 301.2,310.4 301.9,307.2 306.5,303.9 312.0,300.7 313.9,297.4 313.7,294.1 313.6,290.9 313.5,287.6 313.5,284.3 312.7,281.1 308.6,277.8 305.1,274.6 304.9,271.3 304.7,268.0 304.2,264.8 303.3,261.5 302.3,258.3 302.1,255.0 305.9,251.7 311.1,248.5 314.6,245.2 315.5,242.0 316.8,238.7 318.3,235.4 319.7,232.2 320.9,228.9 321.6,225.7 318.4,222.4 313.6,219.1 310.8,215.9 311.4,212.6 312.2,209.3 313.0,206.1 313.6,202.8 313.3,199.6 311.2,196.3 310.1,193.0 309.1,189.8 307.9,186.5 306.9,183.3 307.0,180.0 307.2,176.7 307.4,173.5 307.7,170.2 308.2,167.0 308.4,163.7 308.9,160.4 311.2,157.2 313.8,153.9 314.8,150.7 313.9,147.4 313.1,144.1 312.5,140.9 312.1,137.6 311.8,134.3 311.3,131.1 310.5,127.8 309.4,124.6 308.5,121.3 307.8,118.0 307.5,114.8 307.6,111.5 308.3,108.3 310.3,105.0 312.7,101.7 314.4,98.5 315.9,95.2 317.0,92.0 316.6,88.7 313.5,85.4 312.7,82.2 312.4,78.9 312.1,75.7 319.9,72.4 323.0,69.1 323.0,65.9 318.7,62.6 313.2,59.3 312.7,56.1 311.9,52.8 315.8,49.6 319.2,46.3 318.8,43.0 318.8,39.8 319.2,36.5 319.9,33.3 320.6,30.0 33.8,30.0 34.7,33.3 35.6,36.5 36.2,39.8 36.4,43.0 36.2,46.3 39.8,49.6 43.7,52.8 43.1,56.1 42.6,59.3 37.2,62.6 32.9,65.9 32.9,69.1 36.0,72.4 43.8,75.7 43.4,78.9 43.0,82.2 42.2,85.4 39.1,88.7 38.8,92.0 40.0,95.2 41.6,98.5 43.4,101.7 46.1,105.0 48.3,108.3 49.2,111.5 49.6,114.8 49.5,118.0 49.1,121.3 48.5,124.6 47.7,127.8 47.1,131.1 46.9,134.3 46.9,137.6 46.7,140.9 46.3,144.1 45.7,147.4 45.0,150.7 46.3,153.9 49.0,157.2 51.6,160.4 52.3,163.7 52.8,167.0 53.5,170.2 54.2,173.5 54.7,176.7 55.2,180.0 55.6,183.3 55.0,186.5 54.1,189.8 53.4,193.0 52.5,196.3 50.7,199.6 50.7,202.8 51.5,206.1 52.4,209.3 53.3,212.6 54.0,215.9 51.2,219.1 46.4,222.4 43.2,225.7 43.9,228.9 45.1,232.2 46.5,235.4 47.5,238.7 47.9,242.0 48.0,245.2 50.7,248.5 55.1,251.7 58.1,255.0 57.3,258.3 55.7,261.5 54.3,264.8 53.3,268.0 52.9,271.3 52.3,274.6 48.4,277.8 43.9,281.1 42.6,284.3 42.3,287.6 41.8,290.9 41.3,294.1 40.9,297.4 42.6,300.7 47.9,303.9 52.3,307.2 52.9,310.4 52.8,313.7 52.3,317.0 51.4,320.2 50.2,323.5 47.1,326.7 39.6,330.0 32.3,333.3 30.0,336.5 30.3,339.8 31.1,343.0 32.2,346.3 33.5,349.6 36.2,352.8 44.5,356.1 51.3,359.3 52.2,362.6 52.9,365.9 53.6,369.1 54.5,372.4 55.0,375.7 54.3,378.9 53.8,382.2 54.0,385.4 53.6,388.7 52.9,392.0 51.8,395.2 51.0,398.5 51.1,401.7 51.6,405.0 51.8,408.3 52.2,411.5 52.7,414.8 53.1,418.0 52.4,421.3 46.5,424.6 42.9,427.8 42.1,431.1 41.2,434.3 41.5,437.6 49.9,440.9 50.1,444.1 49.8,447.4 41.5,450.7 31.8,453.9 31.2,457.2 30.4,460.4 31.6,463.7 32.5,467.0 32.3,470.2 32.7,473.5 33.6,476.7 35.1,480.0" fill="#d9b98a" stroke="#7a5a32" stroke-width="1.5"/>
<line x1="35.1" y1="480.0" x2="323.1" y2="480.0" stroke="#9c7038" stroke-width="0.6" opacity="0.55"/>
<line x1="31.6" y1="463.4" x2="326.8" y2="463.4" stroke="#9c7038" stroke-width="0.6" opacity="0.55"/>
<line x1="41.5" y1="450.8" x2="317.0" y2="450.8" stroke="#9c7038" stroke-width="0.6" opacity="0.55"/>
<line x1="41.5" y1="439.1" x2="317.0" y2="439.1" stroke="#9c7038" stroke-width="0.6" opacity="0.55"/>
<line x1="46.5" y1="423.6" x2="311.9" y2="423.6" stroke="#9c7038" stroke-width="0.6" opacity="0.55"/>
<line x1="51.1" y1="401.7" x2="306.6" y2="401.7" stroke="#9c7038" stroke-width="0.6" opacity="0.55"/>
<line x1="54.3" y1="378.0" x2="301.4" y2="378.0" stroke="#9c7038" stroke-width="0.6" opacity="0.55"/>
<line x1="44.5" y1="355.6" x2="309.2" y2="355.6" stroke="#9c7038" stroke-width="0.6" opacity="0.55"/>
<line x1="39.6" y1="330.1" x2="313.6" y2="330.1" stroke="#9c7038" stroke-width="0.6" opacity="0.55"/>
<line x1="47.9" y1="303.2" x2="306.5" y2="303.2" stroke="#9c7038" stroke-width="0.6" opacity="0.55"/>
<line x1="48.4" y1="278.2" x2="308.6" y2="278.2" stroke="#9c7038" stroke-width="0.6" opacity="0.55"/>
<line x1="55.1" y1="250.8" x2="305.9" y2="250.8" stroke="#9c7038" stroke-width="0.6" opacity="0.55"/>
<line x1="46.4" y1="221.0" x2="318.4" y2="221.0" stroke="#9c7038" stroke-width="0.6" opacity="0.55"/>
<line x1="50.7" y1="198.0" x2="313.3" y2="198.0" stroke="#9c7038" stroke-width="0.6" opacity="0.55"/>
<line x1="55.2" y1="180.5" x2="307.0" y2="180.5" stroke="#9c7038" stroke-width="0.6" opacity="0.55"/>
<line x1="49.0" y1="156.2" x2="311.2" y2="156.2" stroke="#9c7038" stroke-width="0.6" opacity="0.55"/>
<line x1="47.7" y1="127.6" x2="310.5" y2="127.6" stroke="#9c7038" stroke-width="0.6" opacity="0.55"/>
<line x1="46.1" y1="104.8" x2="310.3" y2="104.8" stroke="#9c7038" stroke-width="0.6" opacity="0.55"/>
<line x1="39.1" y1="87.3" x2="316.6" y2="87.3" stroke="#9c7038" stroke-width="0.6" opacity="0.55"/>
<line x1="36.0" y1="73.1" x2="319.9" y2="73.1" stroke="#9c7038" stroke-width="0.6" opacity="0.55"/>
<line x1="37.2" y1="62.5" x2="318.7" y2="62.5" stroke="#9c7038" stroke-width="0.6" opacity="0.55"/>
<line x1="39.8" y1="49.7" x2="315.8" y2="49.7" stroke="#9c7038" stroke-width="0.6" opacity="0.55"/>
<line x1="33.8" y1="30.0" x2="320.6" y2="30.0" stroke="#9c7038" stroke-width="0.6" opacity="0.55"/>
<text x="6" y="502" font-family="monospace" font-size="13" fill="#6b6457">geometric-sandstone (side)  150mm · 12 facets · 22 bands · blend 0.40 · twist 30°</text>
</svg>