<svg xmlns="http://www.w3.org/2000/svg" width="359" height="510" viewBox="0 0 359 510">
<rect width="100%" height="100%" fill="#f5f1e8"/>
<polygon points="324.2,480.0 325.7,476.7 326.7,473.5 327.0,470.2 326.8,467.0 327.7,463.7 328.8,460.4 327.9,457.2 327.2,453.9 317.5,450.7 309.0,447.4 308.6,444.1 308.7,440.9 317.0,437.6 317.6,434.3 317.0,431.1 316.5,427.8 313.1,424.6 307.3,421.3 306.7,418.0 307.1,414.8 307.6,411.5 307.7,408.3 307.7,405.0 307.9,401.7 307.7,398.5 306.4,395.2 304.9,392.0 303.7,388.7 302.8,385.4 302.5,382.2 301.5,378.9 300.3,375.7 300.4,372.4 300.8,369.1 301.1,365.9 301.4,362.6 302.0,359.3 308.5,356.1 316.6,352.8 319.1,349.6 320.3,346.3 321.5,343.0 322.4,339.8 322.8,336.5 320.7,333.3 313.7,330.0 306.6,326.7 303.8,323.5 302.9,320.2 302.3,317.0 302.2,313.7 302.4,310.4 303.2,307.2 307.8,303.9 313.1,300.7 314.8,297.4 314.5,294.1 314.0,290.9 313.4,287.6 313.0,284.3 312.1,281.1 307.8,277.8 304.4,274.6 304.6,271.3 304.8,268.0 304.6,264.8 304.0,261.5 303.1,258.3 303.2,255.0 307.2,251.7 312.6,248.5 316.2,245.2 317.2,242.0 318.6,238.7 320.1,235.4 321.7,232.2 323.0,228.9 323.8,225.7 320.6,222.4 315.8,219.1 313.0,215.9 313.7,212.6 314.6,209.3 315.4,206.1 316.1,202.8 315.8,199.6 313.7,196.3 312.5,193.0 311.4,189.8 310.1,186.5 309.0,183.3 309.0,180.0 309.1,176.7 308.9,173.5 309.1,170.2 309.1,167.0 309.0,163.7 308.9,160.4 310.6,157.2 312.6,153.9 312.9,150.7 311.4,147.4 310.0,144.1 308.8,140.9 308.3,137.6 308.6,134.3 308.8,131.1 308.4,127.8 307.8,124.6 307.3,121.3 307.0,118.0 306.9,114.8 307.2,111.5 308.0,108.3 310.1,105.0 313.0,101.7 315.3,98.5 317.3,95.2 319.0,92.0 319.1,88.7 316.5,85.4 316.1,82.2 316.1,78.9 316.1,75.7 324.1,72.4 327.4,69.1 327.6,65.9 323.5,62.6 318.1,59.3 317.5,56.1 316.6,52.8 320.1,49.6 323.1,46.3 322.2,43.0 321.6,39.8 321.3,36.5 321.2,33.3 321.9,30.0 34.9,30.0 35.8,33.3 36.7,36.5 37.4,39.8 37.6,43.0 37.5,46.3 41.1,49.6 45.2,52.8 44.7,56.1 44.4,59.3 39.1,62.6 35.0,65.9 35.2,69.1 38.5,72.4 46.3,75.7 45.6,78.9 44.8,82.2 43.7,85.4 40.3,88.7 39.7,92.0 40.7,95.2 42.0,98.5 43.7,101.7 46.2,105.0 48.3,108.3 49.2,111.5 49.5,114.8 49.3,118.0 49.0,121.3 48.5,124.6 47.9,127.8 47.6,131.1 47.8,134.3 48.2,137.6 48.5,140.9 48.7,144.1 48.4,147.4 46.9,150.7 47.2,153.9 49.1,157.2 50.8,160.4 50.7,163.7 50.5,167.0 50.6,170.2 50.7,173.5 50.6,176.7 50.8,180.0 50.9,183.3 49.9,186.5 48.9,189.8 48.0,193.0 47.1,196.3 45.3,199.6 45.3,202.8 46.3,206.1 47.5,209.3 48.7,212.6 49.7,215.9 47.2,219.1 42.6,222.4 39.8,225.7 40.8,228.9 42.3,232.2 44.1,235.4 45.8,238.7 47.3,242.0 48.4,245.2 52.0,248.5 57.4,251.7 61.0,255.0 60.1,258.3 58.2,261.5 56.5,264.8 55.2,268.0 54.3,271.3 53.3,274.6 49.0,277.8 44.1,281.1 42.6,284.3 42.1,287.6 41.6,290.9 41.1,294.1 40.8,297.4 42.7,300.7 48.4,303.9 53.3,307.2 54.3,310.4 54.8,313.7 54.9,317.0 54.7,320.2 54.2,323.5 51.8,326.7 45.1,330.0 38.6,333.3 37.2,336.5 38.2,339.8 38.8,343.0 39.7,346.3 40.7,349.6 43.2,352.8 51.3,356.1 57.9,359.3 58.5,362.6 58.8,365.9 59.2,369.1 59.8,372.4 59.9,375.7 58.8,378.9 57.9,382.2 57.7,385.4 57.0,388.7 55.9,392.0 54.5,395.2 53.4,398.5 53.2,401.7 53.6,405.0 53.6,408.3 53.9,411.5 54.4,414.8 54.9,418.0 54.3,421.3 48.6,424.6 45.0,427.8 43.9,431.1 42.7,434.3 42.6,437.6 50.7,440.9 50.6,444.1 50.1,447.4 41.6,450.7 31.7,453.9 30.9,457.2 30.0,460.4 31.0,463.7 31.8,467.0 31.6,470.2 31.9,473.5 32.9,476.7 34.4,480.0" fill="#d9b98a" stroke="#7a5a32" stroke-width="1.5"/>
<line x1="34.4" y1="480.0" x2="324.2" y2="480.0" stroke="#9c7038" stroke-width="0.6" opacity="0.55"/>
<line x1="31.0" y1="463.4" x2="327.7" y2="463.4" stroke="#9c7038" stroke-width="0.6" opacity="0.55"/>
<line x1="41.6" y1="450.8" x2="317.5" y2="450.8" stroke="#9c7038" stroke-width="0.6" opacity="0.55"/>
<line x1="42.6" y1="439.1" x2="317.0" y2="439.1" stroke="#9c7038" stroke-width="0.6" opacity="0.55"/>
<line x1="48.6" y1="423.6" x2="313.1" y2="423.6" stroke="#9c7038" stroke-width="0.6" opacity="0.55"/>
<line x1="53.2" y1="401.7" x2="307.9" y2="401.7" stroke="#9c7038" stroke-width="0.6" opacity="0.55"/>
<line x1="58.8" y1="378.0" x2="301.5" y2="378.0" stroke="#9c7038" stroke-width="0.6" opacity="0.55"/>
<line x1="51.3" y1="355.6" x2="308.5" y2="355.6" stroke="#9c7038" stroke-width="0.6" opacity="0.55"/>
<line x1="45.1" y1="330.1" x2="313.7" y2="330.1" stroke="#9c7038" stroke-width="0.6" opacity="0.55"/>
<line x1="48.4" y1="303.2" x2="307.8" y2="303.2" stroke="#9c7038" stroke-width="0.6" opacity="0.55"/>
<line x1="49.0" y1="278.2" x2="307.8" y2="278.2" stroke="#9c7038" stroke-width="0.6" opacity="0.55"/>
<line x1="57.4" y1="250.8" x2="307.2" y2="250.8" stroke="#9c7038" stroke-width="0.6" opacity="0.55"/>
<line x1="42.6" y1="221.0" x2="320.6" y2="221.0" stroke="#9c7038" stroke-width="0.6" opacity="0.55"/>
<line x1="45.3" y1="198.0" x2="315.8" y2="198.0" stroke="#9c7038" stroke-width="0.6" opacity="0.55"/>
<line x1="50.8" y1="180.5" x2="309.0" y2="180.5" stroke="#9c7038" stroke-width="0.6" opacity="0.55"/>
<line x1="49.1" y1="156.2" x2="310.6" y2="156.2" stroke="#9c7038" stroke-width="0.6" opacity="0.55"/>
<line x1="47.9" y1="127.6" x2="308.4" y2="127.6" stroke="#9c7038" stroke-width="0.6" opacity="0.55"/>
<line x1="46.2" y1="104.8" x2="310.1" y2="104.8" stroke="#9c7038" stroke-width="0.6" opacity="0.55"/>
<line x1="40.3" y1="87.3" x2="319.1" y2="87.3" stroke="#9c7038" stroke-width="0.6" opacity="0.55"/>
<line x1="38.5" y1="73.1" x2="324.1" y2="73.1" stroke="#9c7038" stroke-width="0.6" opacity="0.55"/>
<line x1="39.1" y1="62.5" x2="323.5" y2="62.5" stroke="#9c7038" stroke-width="0.6" opacity="0.55"/>
<line x1="41.1" y1="49.7" x2="320.1" y2="49.7" stroke="#9c7038" stroke-width="0.6" opacity="0.55"/>
<line x1="34.9" y1="30.0" x2="321.9" y2="30.0" stroke="#9c7038" stroke-width="0.6" opacity="0.55"/>
<text x="6" y="502" font-family="monospace" font-size="13" fill="#6b6457">geometric-sandstone (side)  150mm · 20 facets · 22 bands · blend 0.40 · twist 90°</text>
</svg>