<svg xmlns="http://www.w3.org/2000/svg" width="354" height="510" viewBox="0 0 354 510">
<rect width="100%" height="100%" fill="#f5f1e8"/>
<polygon points="318.9,480.0 320.4,476.7 321.4,473.5 321.8,470.2 321.7,467.0 322.6,463.7 323.7,460.4 323.0,457.2 322.3,453.9 312.6,450.7 304.2,447.4 303.9,444.1 304.1,440.9 312.4,437.6 312.6,434.3 311.6,431.1 310.7,427.8 307.0,424.6 300.9,421.3 300.1,418.0 300.3,414.8 300.7,411.5 300.8,408.3 300.7,405.0 300.9,401.7 300.7,398.5 299.5,395.2 298.0,392.0 296.8,388.7 296.0,385.4 295.7,382.2 294.7,378.9 293.6,375.7 293.6,372.4 293.9,369.1 294.2,365.9 294.4,362.6 294.8,359.3 301.0,356.1 308.6,352.8 311.3,349.6 312.8,346.3 314.3,343.0 315.5,339.8 316.2,336.5 314.3,333.3 307.6,330.0 300.6,326.7 297.9,323.5 297.0,320.2 296.4,317.0 296.3,313.7 296.5,310.4 297.4,307.2 302.1,303.9 307.7,300.7 309.7,297.4 309.7,294.1 309.5,290.9 309.4,287.6 309.3,284.3 308.4,281.1 304.2,277.8 300.5,274.6 300.1,271.3 299.9,268.0 299.2,264.8 298.1,261.5 296.8,258.3 296.5,255.0 300.1,251.7 305.2,248.5 308.5,245.2 309.3,242.0 310.4,238.7 311.6,235.4 312.8,232.2 313.9,228.9 314.3,225.7 310.9,222.4 305.8,219.1 302.7,215.9 303.1,212.6 303.8,209.3 304.4,206.1 304.9,202.8 304.6,199.6 302.5,196.3 301.6,193.0 300.7,189.8 299.8,186.5 299.1,183.3 299.6,180.0 300.3,176.7 300.9,173.5 301.7,170.2 302.6,167.0 303.4,163.7 304.3,160.4 307.1,157.2 310.1,153.9 311.5,150.7 311.1,147.4 310.7,144.1 310.5,140.9 310.4,137.6 310.4,134.3 310.2,131.1 309.5,127.8 308.5,124.6 307.6,121.3 307.0,118.0 306.6,114.8 306.7,111.5 307.3,108.3 309.1,105.0 311.3,101.7 312.8,98.5 313.9,95.2 314.7,92.0 314.0,88.7 310.5,85.4 309.3,82.2 308.5,78.9 307.7,75.7 314.6,72.4 317.3,69.1 317.5,65.9 313.6,62.6 308.5,59.3 308.1,56.1 307.5,52.8 311.3,49.6 314.6,46.3 314.3,43.0 314.4,39.8 314.9,36.5 315.6,33.3 316.3,30.0 40.0,30.0 40.9,33.3 41.8,36.5 42.4,39.8 42.6,43.0 42.4,46.3 45.8,49.6 49.7,52.8 49.0,56.1 48.6,59.3 43.4,62.6 39.4,65.9 39.3,69.1 41.9,72.4 48.9,75.7 48.2,78.9 47.5,82.2 46.5,85.4 43.2,88.7 42.7,92.0 43.6,95.2 44.9,98.5 46.5,101.7 48.9,105.0 50.8,108.3 51.6,111.5 51.7,114.8 51.5,118.0 50.9,121.3 50.1,124.6 49.2,127.8 48.4,131.1 48.0,134.3 47.8,137.6 47.4,140.9 46.8,144.1 46.0,147.4 45.0,150.7 45.8,153.9 48.3,157.2 50.4,160.4 50.7,163.7 50.8,167.0 51.1,170.2 51.3,173.5 51.3,176.7 51.4,180.0 51.4,183.3 50.2,186.5 48.9,189.8 47.7,193.0 46.4,196.3 44.2,199.6 43.8,202.8 44.3,206.1 45.0,209.3 45.7,212.6 46.2,215.9 43.2,219.1 38.2,222.4 34.9,225.7 35.4,228.9 36.6,232.2 38.0,235.4 39.4,238.7 40.6,242.0 41.5,245.2 45.0,248.5 50.3,251.7 54.0,255.0 53.8,258.3 52.5,261.5 51.5,264.8 50.9,268.0 50.6,271.3 50.3,274.6 46.5,277.8 42.3,281.1 41.3,284.3 41.3,287.6 41.1,290.9 41.0,294.1 41.0,297.4 43.0,300.7 48.7,303.9 53.5,307.2 54.4,310.4 54.7,313.7 54.7,317.0 54.3,320.2 53.6,323.5 51.1,326.7 44.3,330.0 37.9,333.3 36.3,336.5 37.2,339.8 38.6,343.0 40.1,346.3 41.0,349.6 43.4,352.8 51.1,356.1 57.4,359.3 58.0,362.6 58.2,365.9 58.6,369.1 59.0,372.4 59.2,375.7 58.0,378.9 57.2,382.2 56.9,385.4 56.2,388.7 55.0,392.0 53.6,395.2 52.4,398.5 52.2,401.7 52.3,405.0 52.2,408.3 52.4,411.5 52.7,414.8 52.9,418.0 52.1,421.3 46.1,424.6 42.4,427.8 41.6,431.1 40.6,434.3 40.9,437.6 49.2,440.9 49.5,444.1 49.2,447.4 40.9,450.7 31.3,453.9 30.7,457.2 30.0,460.4 31.2,463.7 32.2,467.0 32.1,470.2 32.5,473.5 33.5,476.7 35.0,480.0" fill="#d9b98a" stroke="#7a5a32" stroke-width="1.5"/>
<line x1="35.0" y1="480.0" x2="318.9" y2="480.0" stroke="#9c7038" stroke-width="0.6" opacity="0.55"/>
<line x1="31.2" y1="463.4" x2="322.6" y2="463.4" stroke="#9c7038" stroke-width="0.6" opacity="0.55"/>
<line x1="40.9" y1="450.8" x2="312.6" y2="450.8" stroke="#9c7038" stroke-width="0.6" opacity="0.55"/>
<line x1="40.9" y1="439.1" x2="312.4" y2="439.1" stroke="#9c7038" stroke-width="0.6" opacity="0.55"/>
<line x1="46.1" y1="423.6" x2="307.0" y2="423.6" stroke="#9c7038" stroke-width="0.6" opacity="0.55"/>
<line x1="52.2" y1="401.7" x2="300.9" y2="401.7" stroke="#9c7038" stroke-width="0.6" opacity="0.55"/>
<line x1="58.0" y1="378.0" x2="294.7" y2="378.0" stroke="#9c7038" stroke-width="0.6" opacity="0.55"/>
<line x1="51.1" y1="355.6" x2="301.0" y2="355.6" stroke="#9c7038" stroke-width="0.6" opacity="0.55"/>
<line x1="44.3" y1="330.1" x2="307.6" y2="330.1" stroke="#9c7038" stroke-width="0.6" opacity="0.55"/>
<line x1="48.7" y1="303.2" x2="302.1" y2="303.2" stroke="#9c7038" stroke-width="0.6" opacity="0.55"/>
<line x1="46.5" y1="278.2" x2="304.2" y2="278.2" stroke="#9c7038" stroke-width="0.6" opacity="0.55"/>
<line x1="50.3" y1="250.8" x2="300.1" y2="250.8" stroke="#9c7038" stroke-width="0.6" opacity="0.55"/>
<line x1="38.2" y1="221.0" x2="310.9" y2="221.0" stroke="#9c7038" stroke-width="0.6" opacity="0.55"/>
<line x1="44.2" y1="198.0" x2="304.6" y2="198.0" stroke="#9c7038" stroke-width="0.6" opacity="0.55"/>
<line x1="51.4" y1="180.5" x2="299.6" y2="180.5" stroke="#9c7038" stroke-width="0.6" opacity="0.55"/>
<line x1="48.3" y1="156.2" x2="307.1" y2="156.2" stroke="#9c7038" stroke-width="0.6" opacity="0.55"/>
<line x1="49.2" y1="127.6" x2="309.5" y2="127.6" stroke="#9c7038" stroke-width="0.6" opacity="0.55"/>
<line x1="48.9" y1="104.8" x2="309.1" y2="104.8" stroke="#9c7038" stroke-width="0.6" opacity="0.55"/>
<line x1="43.2" y1="87.3" x2="314.0" y2="87.3" stroke="#9c7038" stroke-width="0.6" opacity="0.55"/>
<line x1="41.9" y1="73.1" x2="314.6" y2="73.1" stroke="#9c7038" stroke-width="0.6" opacity="0.55"/>
<line x1="43.4" y1="62.5" x2="313.6" y2="62.5" stroke="#9c7038" stroke-width="0.6" opacity="0.55"/>
<line x1="45.8" y1="49.7" x2="311.3" y2="49.7" stroke="#9c7038" stroke-width="0.6" opacity="0.55"/>
<line x1="40.0" y1="30.0" x2="316.3" y2="30.0" stroke="#9c7038" stroke-width="0.6" opacity="0.55"/>
<text x="6" y="502" font-family="monospace" font-size="13" fill="#6b6457">geometric-sandstone (side)  150mm · 10 facets · 22 bands · blend 0.40 · twist 60°</text>
</svg>