<svg xmlns="http://www.w3.org/2000/svg" width="357" height="510" viewBox="0 0 357 510">
<rect width="100%" height="100%" fill="#f5f1e8"/>
<polygon points="319.7,480.0 321.2,476.7 322.2,473.5 322.6,470.2 322.5,467.0 323.4,463.7 324.6,460.4 323.8,457.2 323.2,453.9 313.5,450.7 305.2,447.4 304.9,444.1 305.1,440.9 313.4,437.6 313.7,434.3 312.8,431.1 311.9,427.8 308.5,424.6 302.8,421.3 302.1,418.0 302.4,414.8 302.8,411.5 302.9,408.3 302.9,405.0 303.1,401.7 302.9,398.5 301.8,395.2 300.5,392.0 299.4,388.7 298.8,385.4 298.7,382.2 298.0,378.9 297.1,375.7 297.5,372.4 298.3,369.1 299.1,365.9 299.7,362.6 300.6,359.3 307.3,356.1 315.5,352.8 318.2,349.6 319.4,346.3 320.5,343.0 321.4,339.8 321.7,336.5 319.4,333.3 312.1,330.0 304.6,326.7 301.4,323.5 300.2,320.2 299.3,317.0 298.9,313.7 298.9,310.4 299.6,307.2 304.2,303.9 309.7,300.7 311.6,297.4 311.5,294.1 311.2,290.9 311.0,287.6 311.0,284.3 310.1,281.1 305.9,277.8 302.3,274.6 302.1,271.3 302.1,268.0 301.7,264.8 301.0,261.5 300.0,258.3 300.0,255.0 304.1,251.7 309.6,248.5 313.4,245.2 314.5,242.0 315.9,238.7 317.5,235.4 319.1,232.2 320.4,228.9 321.0,225.7 317.8,222.4 312.8,219.1 309.7,215.9 310.2,212.6 311.0,209.3 311.7,206.1 312.2,202.8 312.0,199.6 309.9,196.3 308.8,193.0 307.7,189.8 306.6,186.5 305.6,183.3 305.7,180.0 306.0,176.7 306.1,173.5 306.5,170.2 307.0,167.0 307.2,163.7 307.6,160.4 309.9,157.2 312.4,153.9 313.3,150.7 312.4,147.4 311.8,144.1 311.6,140.9 311.5,137.6 311.6,134.3 311.6,131.1 311.2,127.8 310.6,124.6 310.1,121.3 309.9,118.0 310.0,114.8 310.5,111.5 311.6,108.3 314.0,105.0 316.8,101.7 318.8,98.5 320.6,95.2 321.9,92.0 321.7,88.7 318.7,85.4 317.9,82.2 317.4,78.9 316.9,75.7 324.5,72.4 327.3,69.1 327.1,65.9 322.5,62.6 316.7,59.3 315.8,56.1 314.7,52.8 318.2,49.6 321.2,46.3 320.5,43.0 320.1,39.8 320.2,36.5 320.6,33.3 321.1,30.0 33.7,30.0 34.2,33.3 34.6,36.5 34.9,39.8 34.8,43.0 34.4,46.3 37.8,49.6 41.6,52.8 40.7,56.1 40.1,59.3 34.5,62.6 30.1,65.9 30.0,69.1 33.0,72.4 40.6,75.7 40.2,78.9 39.7,82.2 38.9,85.4 35.7,88.7 35.4,92.0 36.6,95.2 38.2,98.5 40.0,101.7 42.7,105.0 45.0,108.3 46.0,111.5 46.4,114.8 46.4,118.0 46.2,121.3 45.8,124.6 45.3,127.8 45.1,131.1 45.4,134.3 45.8,137.6 45.4,140.9 44.4,144.1 43.1,147.4 41.7,150.7 42.2,153.9 44.3,157.2 46.2,160.4 46.2,163.7 46.1,167.0 46.3,170.2 46.5,173.5 46.5,176.7 46.7,180.0 46.9,183.3 46.0,186.5 44.9,189.8 44.1,193.0 43.2,196.3 41.4,199.6 41.4,202.8 42.3,206.1 43.4,209.3 44.6,212.6 45.5,215.9 42.9,219.1 38.3,222.4 35.3,225.7 36.1,228.9 37.6,232.2 39.1,235.4 40.7,238.7 42.0,242.0 42.9,245.2 46.4,248.5 51.6,251.7 55.4,255.0 55.1,258.3 54.0,261.5 53.0,264.8 52.5,268.0 52.4,271.3 52.1,274.6 48.5,277.8 44.3,281.1 43.5,284.3 43.6,287.6 43.5,290.9 43.5,294.1 43.4,297.4 45.0,300.7 50.2,303.9 54.6,307.2 55.3,310.4 55.5,313.7 55.3,317.0 54.8,320.2 54.0,323.5 51.4,326.7 44.5,330.0 37.9,333.3 36.1,336.5 36.4,339.8 37.2,343.0 38.2,346.3 39.2,349.6 41.7,352.8 49.7,356.1 56.1,359.3 56.7,362.6 56.9,365.9 57.3,369.1 57.8,372.4 57.9,375.7 56.8,378.9 56.1,382.2 56.0,385.4 55.4,388.7 54.5,392.0 53.4,395.2 52.6,398.5 52.7,401.7 53.2,405.0 53.5,408.3 53.9,411.5 54.4,414.8 55.0,418.0 54.4,421.3 48.2,424.6 44.3,427.8 43.3,431.1 42.3,434.3 42.4,437.6 50.7,440.9 50.9,444.1 50.6,447.4 42.3,450.7 32.7,453.9 32.0,457.2 31.1,460.4 32.1,463.7 32.7,467.0 32.3,470.2 32.3,473.5 32.9,476.7 34.0,480.0" fill="#d9b98a" stroke="#7a5a32" stroke-width="1.5"/>
<line x1="34.0" y1="480.0" x2="319.7" y2="480.0" stroke="#9c7038" stroke-width="0.6" opacity="0.55"/>
<line x1="32.1" y1="463.4" x2="323.4" y2="463.4" stroke="#9c7038" stroke-width="0.6" opacity="0.55"/>
<line x1="42.3" y1="450.8" x2="313.5" y2="450.8" stroke="#9c7038" stroke-width="0.6" opacity="0.55"/>
<line x1="42.4" y1="439.1" x2="313.4" y2="439.1" stroke="#9c7038" stroke-width="0.6" opacity="0.55"/>
<line x1="48.2" y1="423.6" x2="308.5" y2="423.6" stroke="#9c7038" stroke-width="0.6" opacity="0.55"/>
<line x1="52.7" y1="401.7" x2="303.1" y2="401.7" stroke="#9c7038" stroke-width="0.6" opacity="0.55"/>
<line x1="56.8" y1="378.0" x2="298.0" y2="378.0" stroke="#9c7038" stroke-width="0.6" opacity="0.55"/>
<line x1="49.7" y1="355.6" x2="307.3" y2="355.6" stroke="#9c7038" stroke-width="0.6" opacity="0.55"/>
<line x1="44.5" y1="330.1" x2="312.1" y2="330.1" stroke="#9c7038" stroke-width="0.6" opacity="0.55"/>
<line x1="50.2" y1="303.2" x2="304.2" y2="303.2" stroke="#9c7038" stroke-width="0.6" opacity="0.55"/>
<line x1="48.5" y1="278.2" x2="305.9" y2="278.2" stroke="#9c7038" stroke-width="0.6" opacity="0.55"/>
<line x1="51.6" y1="250.8" x2="304.1" y2="250.8" stroke="#9c7038" stroke-width="0.6" opacity="0.55"/>
<line x1="38.3" y1="221.0" x2="317.8" y2="221.0" stroke="#9c7038" stroke-width="0.6" opacity="0.55"/>
<line x1="41.4" y1="198.0" x2="312.0" y2="198.0" stroke="#9c7038" stroke-width="0.6" opacity="0.55"/>
<line x1="46.7" y1="180.5" x2="305.7" y2="180.5" stroke="#9c7038" stroke-width="0.6" opacity="0.55"/>
<line x1="44.3" y1="156.2" x2="309.9" y2="156.2" stroke="#9c7038" stroke-width="0.6" opacity="0.55"/>
<line x1="45.3" y1="127.6" x2="311.2" y2="127.6" stroke="#9c7038" stroke-width="0.6" opacity="0.55"/>
<line x1="42.7" y1="104.8" x2="314.0" y2="104.8" stroke="#9c7038" stroke-width="0.6" opacity="0.55"/>
<line x1="35.7" y1="87.3" x2="321.7" y2="87.3" stroke="#9c7038" stroke-width="0.6" opacity="0.55"/>
<line x1="33.0" y1="73.1" x2="324.5" y2="73.1" stroke="#9c7038" stroke-width="0.6" opacity="0.55"/>
<line x1="34.5" y1="62.5" x2="322.5" y2="62.5" stroke="#9c7038" stroke-width="0.6" opacity="0.55"/>
<line x1="37.8" y1="49.7" x2="318.2" y2="49.7" stroke="#9c7038" stroke-width="0.6" opacity="0.55"/>
<line x1="33.7" y1="30.0" x2="321.1" y2="30.0" stroke="#9c7038" stroke-width="0.6" opacity="0.55"/>
<text x="6" y="502" font-family="monospace" font-size="13" fill="#6b6457">geometric-sandstone (side)  150mm · 16 facets · 22 bands · blend 0.40 · twist 45°</text>
</svg>